<svg width="79" height="347" viewBox="0 0 79 347" fill="none" xmlns="http://www.w3.org/2000/svg">
<path d="M24.7936 47.344C18.2577 50.0547 11.9693 52.6627 5.575 55.1833C4.13036 53.5807 3.09471 52.3748 2.40902 51.3831C1.61016 50.2276 1.47013 49.6152 1.50486 49.2212C1.53953 48.8281 1.78157 48.2698 2.73317 47.3055C3.67599 46.3502 5.08126 45.2207 7.06463 43.6375C10.3592 41.1067 13.7087 38.6213 17.0618 36.1333C27.565 28.3398 38.1033 20.5203 47.0991 11.198L47.1025 11.1945C51.6761 6.42392 56.2669 3.77871 60.9608 2.49853C65.2563 1.327 69.7247 1.27495 74.4758 1.88513C68.6592 69.3596 68.6205 137.029 68.5818 204.56C68.565 233.937 68.5482 263.289 68.0558 292.587C67.7271 307.839 69.0321 322.984 76.7363 337.169L76.7407 337.177C77.3631 338.307 77.5337 339.711 77.4946 341.446C77.477 342.228 77.4193 343.029 77.3582 343.876L77.3398 344.133C77.3078 344.579 77.2761 345.037 77.2518 345.5H77.1601H77.0572H76.9542H76.8513H76.7484H76.6456H76.5428H76.44H76.3372H76.2345H76.1318H76.0291H75.9264H75.8238H75.7212H75.6187H75.5161H75.4136H75.3111H75.2087H75.1063H75.0039H74.9015H74.7992H74.6969H74.5946H74.4923H74.3901H74.2879H74.1857H74.0836H73.9815H73.8794H73.7773H73.6753H73.5733H73.4713H73.3694H73.2675H73.1656H73.0637H72.9619H72.8601H72.7583H72.6565H72.5548H72.4531H72.3514H72.2498H72.1482H72.0466H71.945H71.8435H71.742H71.6405H71.5391H71.4376H71.3362H71.2349H71.1335H71.0322H70.9309H70.8296H70.7284H70.6272H70.526H70.4248H70.3237H70.2226H70.1215H70.0204H69.9194H69.8184H69.7174H69.6165H69.5155H69.4146H69.3138H69.2129H69.1121H69.0113H68.9105H68.8098H68.7091H68.6084H68.5077H68.4071H68.3065H68.2059H68.1053H68.0048H67.9042H67.8038H67.7033H67.6029H67.5024H67.402H67.3017H67.2013H67.101H67.0007H66.9005H66.8002H66.7H66.5998H66.4997H66.3995H66.2994H66.1993H66.0993H65.9992H65.8992H65.7992H65.6992H65.5993H65.4994H65.3995H65.2996H65.1998H65.0999H65.0001H64.9004H64.8006H64.7009H64.6012H64.5015H64.4018H64.3022H64.2026H64.103H64.0034H63.9039H63.8044H63.7049H63.6054H63.506H63.4066H63.3072H63.2078H63.1084H63.0091H62.9098H62.8105H62.7113H62.612H62.5128H62.4136H62.3145H62.2153H62.1162H62.0171H61.918H61.819H61.7199H61.6209H61.5219H61.423H61.324H61.2251H61.1262H61.0274H60.9285H60.8297H60.7309H60.6321H60.5333H60.4346H60.3359H60.2372H60.1385H60.0398H59.9412H59.8426H59.744H59.6454H59.5469H59.4484H59.3499H59.2514H59.1529H59.0545H58.9561H58.8577H58.7593H58.661H58.5626H58.4643H58.366H58.2678H58.1695H58.0713H57.9731H57.8749H57.7767H57.6786H57.5805H57.4824H57.3843H57.2862H57.1882H57.0902H56.9922H56.8942H56.7963H56.6983H56.6004H56.5025H56.4046H56.3068H56.209H56.1111H56.0133H55.9156H55.8178H55.7201H55.6224H55.5247H55.427H55.3293H55.2317H55.1341H55.0365H54.9389H54.8414H54.7438H54.6463H54.5488H54.4513H54.3539H54.2564H54.159H54.0616H53.9642H53.8669H53.7695H53.6722H53.5749H53.4776H53.3803H53.2831H53.1858H53.0886H52.9914H52.8942H52.7971H52.7H52.6028H52.5057H52.4086H52.3116H52.2145H52.1175H52.0205H51.9235H51.8265H51.7296H51.6326H51.5357H51.4388H51.3419H51.2451H51.1482H51.0514H50.9546H50.8578H50.761H50.6643H50.5675H50.4708H50.3741H50.2774H50.1807H50.0841H49.9874H49.8908H49.7942H49.6976H49.6011H49.5045H49.408H49.3115H49.215H49.1185H49.022H48.9256H48.8291H48.7327H48.6363H48.54H48.4436H48.3472H48.2509H48.1546H48.0583H47.962H47.8657H47.7695H47.6733H47.577H47.4808H47.3847H47.2885H47.1923H47.0962H47.0001H46.904H46.8079H46.7118H46.6158H46.5197H46.4237H46.3277H46.2317H46.1357H46.0398H45.9438H45.8479H45.752H45.6561H45.5602H45.4643H45.3684H45.2726H45.1768H45.081H44.9852H44.8894H44.7936H44.6979H44.6021H44.5064H44.4107H44.315H44.2194H44.1237H44.028H43.9324H43.8368H43.7412H43.6456H43.55H43.4545H43.3589H43.2634H43.1679H43.0724H42.9769H42.8814H42.786H42.6905H42.5951H42.4997H42.4043H42.3089H42.2135H42.1181H42.0228H41.9274H41.8321H41.7368H41.6415H41.5462H41.451H41.3557H41.2605H41.1652H41.07H40.9748H40.8796H40.7845H40.6893H40.5942H40.499H40.4039H40.3088H40.2137H40.1186H40.0235H39.9285H39.8334H39.7384H39.6434H39.5484H39.4534H39.3584H39.2634H39.1685H39.0735H38.9786H38.8837H38.7887H38.6938H38.599H38.5041H38.4092H38.3144H38.2195H38.1247H38.0299H37.9351H37.8403H37.7455H37.6508H37.556H37.4613H37.3665H37.2718H37.1771H37.0824H36.9877H36.8931H36.7984H36.7037H36.6091H36.5145H36.4198H36.3252H36.2306H36.1361H36.0415H35.9469H35.8524H35.7578H35.6633H35.5688H35.4743H35.3798H35.2853H35.1908H35.0963H35.0019H34.9074H34.813H34.7186H34.6242H34.5298H34.4354H34.341H34.2466H34.1522H34.0579H33.9635H33.8692H33.7749H33.6806H33.5863H33.492H33.3977H33.3034H33.2091H33.1149H33.0206H32.9264H32.8322H32.7379H32.6437H32.5495H32.4553H32.3612H32.267H32.1728H32.0787H31.9845H31.8904H31.7963H31.7022H31.608H31.5139H31.4198H31.3258H31.2317H31.1376H31.0436H30.9495H30.8555H30.7615H30.6674H30.5734H30.4794H30.4759C30.7631 343.837 31.0502 342.178 31.3368 340.522C33.5567 327.694 35.7441 315.053 37.6944 302.412C38.6939 296.361 38.6938 290.327 38.6938 284.11V284.061C39.3475 245.999 40.0829 207.937 40.8183 169.873L40.8184 169.87C41.5538 131.804 42.2893 93.7349 42.9431 55.6659L42.9433 55.653V55.6402V55.617V55.5938V55.5706V55.5475V55.5243V55.5011V55.4779V55.4548V55.4316V55.4084V55.3852V55.362V55.3389V55.3157V55.2925V55.2693V55.2461V55.2229V55.1998V55.1766V55.1534V55.1302V55.107V55.0838V55.0606V55.0374V55.0142V54.991V54.9678V54.9446V54.9214V54.8982V54.875V54.8517V54.8285V54.8053V54.7821V54.7589V54.7356V54.7124V54.6892V54.6659V54.6427V54.6194V54.5962V54.5729V54.5497V54.5264V54.5032V54.4799V54.4566V54.4334V54.4101V54.3868V54.3635V54.3402V54.3169V54.2936V54.2703V54.247V54.2237V54.2004V54.1771V54.1538V54.1304V54.1071V54.0838V54.0604V54.0371V54.0137V53.9904V53.967V53.9436V53.9203V53.8969V53.8735V53.8501V53.8267V53.8033V53.7799V53.7565V53.7331V53.7097V53.6862V53.6628V53.6393V53.6159V53.5924V53.569V53.5455V53.522V53.4985V53.4751V53.4516V53.4281V53.4045V53.381V53.3575V53.334V53.3104V53.2869V53.2633V53.2398V53.2162V53.1926V53.169V53.1454V53.1218V53.0982V53.0746V53.051V53.0274V53.0037V52.9801V52.9564V52.9328V52.9091V52.8854V52.8617V52.838V52.8143V52.7906V52.7668V52.7431V52.7194V52.6956V52.6718V52.6481V52.6243V52.6005V52.5767V52.5529V52.5291V52.5052V52.4814V52.4575V52.4337V52.4098V52.3859V52.362V52.3381V52.3142V52.2903V52.2664V52.2424V52.2185V52.1945V52.1705V52.1465V52.1225V52.0985V52.0745V52.0505V52.0264V52.0024V51.9783V51.9542V51.9302V51.9061V51.8819V51.8578V51.8337V51.8095V51.7854V51.7612V51.737V51.7128V51.6886V51.6644V51.6402V51.6159V51.5917V51.5674V51.5431V51.5188V51.4945V51.4702V51.4459V51.4215V51.3971V51.3728V51.3484V51.324V51.2996V51.2751V51.2507V51.2262V51.2018V51.1773V51.1528V51.1283V51.1038V51.0792V51.0547V51.0301V51.0055V50.9809V50.9563V50.9317V50.907V50.8824V50.8577V50.833V50.8083V50.7836V50.7589V50.7341V50.7094V50.6846V50.6598V50.635V50.6102V50.5853V50.5605V50.5356V50.5107V50.4858V50.4609V50.436V50.411V50.3861V50.3611V50.3361V50.3111V50.286V50.261V50.2359V50.2108V50.1857V50.1606V50.1355V50.1104V50.0852V50.06V50.0348V50.0096V49.9844V49.9591V49.9338V49.9085V49.8832V49.8579V49.8326V49.8072V49.7818V49.7564V49.731V49.7056V49.6802V49.6547V49.6292V49.6037V49.5782V49.5526V49.5271V49.5015V49.4759V49.4503V49.4246V49.399V49.3733V49.3476V49.3219V49.2962V49.2704V49.2447V49.2189V49.1931V49.1672V49.1414V49.1155V49.0896V49.0637V49.0378V49.0118V48.9859V48.9599V48.9339V48.9078V48.8818V48.8557V48.8296V48.8035V48.7774V48.7512V48.725V48.6988V48.6726V48.6464V48.6201V48.5938V48.5675V48.5412V48.5148V48.4885V48.4621V48.4357V48.4092V48.3828V48.3563V48.3298V48.3033V48.2767V48.2502V48.2236V48.197V48.1703V48.1437V48.117V48.0903V48.0636V48.0368V48.01V47.9832V47.9564V47.9296V47.9027V47.8758V47.8489V47.822V47.795V47.768V47.741V47.714V47.687V47.6599V47.6328V47.6057V47.5785V47.5513V47.5241V47.4969V47.4697V47.4424V47.4151V47.3878V47.3604V47.3331V47.3057V47.2782V47.2508V47.2233V47.1958V47.1683V47.1408V47.1132V47.0856V47.058V47.0303V47.0027V46.975V46.9472V46.9195V46.8917V46.8639V46.8361V46.8082V46.7803V46.7524V46.7245V46.6965V46.6685V46.6405V46.6125V46.5844V46.5563V46.5282V46.5V46.4719V46.4437V46.4154V46.3872V46.3589V46.3306V46.3022V46.2739V46.2455V46.2171V46.1886V46.1601V46.1316V46.1031V46.0745V46.0459V46.0173V45.9887V45.96V45.9313V45.9025V45.8738V45.845V45.8162V45.7873V45.7584V45.7295V45.7006V45.6716V45.6426V45.6136V45.5846V45.5555V45.5264V45.4972V45.468V45.4388V45.4096V45.3804V45.3511V45.3217V45.2924V45.263V45.2336V45.2042V45.1747V45.1452V45.1156V45.0861V45.0565V45.0269V44.9972V44.9675V44.9378V44.908V44.8783V44.8485V44.8186V44.7887V44.7588V44.7289V44.6989V44.6689V44.6389V44.6088V44.5787V44.5486V44.5184V44.4882V44.458V44.4278V44.3975V44.3671V44.3368V44.3064V44.276V44.2455V44.2151V44.1845V44.154V44.1234V44.0928V44.0621V44.0314V44.0007V43.97V43.9392V43.9084V43.8775V43.8466V43.8157V43.7848V43.7538V43.7228V43.6917V43.6606V43.6295V43.5984V43.5672V43.5359V43.5047V43.4734V43.4421V43.4107V43.3793V43.3479V43.3164V43.2849V43.2534V43.2218V43.1902V43.1585V43.1268V43.0951V43.0634V43.0316V42.9998V42.9679V42.936V42.9041V42.8721V42.8401V42.8081V42.776V42.7439V42.7118V42.6796V42.6474V42.6151V42.5828V42.5505V42.5181V42.4857V42.4533V42.4208V42.3883V42.3558V42.3232V42.2905V42.2579V42.2252V42.1924V42.1597V42.1269V39.9045L40.8823 40.7357C35.2502 43.0073 29.945 45.2075 24.7936 47.344Z" stroke="#FFCE70" stroke-width="3"/>
</svg>
