<svg width="137" height="354" viewBox="0 0 137 354" fill="none" xmlns="http://www.w3.org/2000/svg">
<path d="M39.1384 108.05C40.1313 114.736 41.1954 121.901 42.1256 130.114C38.9533 129.15 35.8582 128.231 32.8241 127.33C25.179 125.06 17.9213 122.905 10.7918 120.441L10.7305 120.42L10.7046 120.414C10.6862 120.402 10.6011 120.347 10.4602 120.184C10.2599 119.952 10.0372 119.605 9.82779 119.167C9.39998 118.271 9.14342 117.24 9.14342 116.515V116.436L9.13509 116.357C5.83894 85.2155 10.4589 55.4983 26.8713 28.4449L26.8713 28.4449L26.8753 28.4383C34.079 16.4257 42.4241 8.508 51.6071 4.53516C60.7626 0.574267 70.9168 0.462072 81.9145 4.36342L81.921 4.36568C96.7369 9.54529 107.126 20.897 114.663 34.7308L114.669 34.7418C135.007 71.3383 133.42 110.297 121.853 149.492C107.289 198.73 82.7829 243.684 55.8882 287.403C50.5713 295.753 45.2671 304.082 39.6333 312.41L39.6006 312.458L39.5717 312.509L34.2545 321.861L32.8293 324.368L35.7001 324.096C40.1341 323.675 44.429 323.297 48.6143 322.928C60.9988 321.836 72.4227 320.829 83.6447 319.074C92.9263 317.623 102.154 315.515 111.352 313.414C116.99 312.126 122.618 310.841 128.24 309.71L128.275 309.703L128.31 309.695C130.378 309.175 133.194 309.936 135.276 311.391C135.295 311.437 135.325 311.519 135.357 311.65C135.444 311.998 135.5 312.495 135.5 313.083C135.5 314.292 135.266 315.539 134.909 316.256L134.871 316.333L134.842 316.414C130.865 327.406 126.555 338.069 122.233 348.762L122.215 348.806L122.2 348.852C121.981 349.513 121.354 350.387 120.518 351.117C120.115 351.469 119.709 351.748 119.346 351.932C118.966 352.125 118.729 352.166 118.639 352.166L118.626 352.166C80.471 352.494 42.3146 352.5 2.26571 352.5C2.30383 352.41 2.3417 352.32 2.37933 352.231C3.85857 348.732 4.96709 346.11 6.29764 343.703L6.30555 343.689L6.31315 343.674C11.8046 333.207 17.4108 322.781 23.0213 312.347C37.0687 286.224 51.1427 260.05 63.5071 233.045C81.4924 194.213 95.2088 153.247 95.8793 109.531C96.5445 82.4403 95.2313 55.3953 82.0904 30.3248C78.7747 23.6629 74.065 16.4408 64.7427 16.8156C55.5386 17.1857 50.5326 23.9165 47.1524 31.391C37.0276 53.7789 36.3829 77.128 38.0502 100.589L38.0539 100.641L38.0613 100.693C38.4031 103.098 38.7657 105.54 39.1384 108.05Z" stroke="#FFCE70" stroke-width="3"/>
</svg>
