<svg width="130" height="342" viewBox="0 0 130 342" fill="none" xmlns="http://www.w3.org/2000/svg">
<path d="M31.478 105.697C31.4387 106.193 31.3988 106.726 31.3684 107.316C28.608 106.427 25.9304 105.588 23.3089 104.766C17.3097 102.884 11.6045 101.095 5.87299 99.0277L5.80319 99.0025L5.76993 98.9941C5.74989 98.9801 5.69932 98.9408 5.62239 98.8516C5.47726 98.6833 5.31154 98.42 5.15423 98.0705C4.83277 97.3563 4.65534 96.53 4.65534 95.9777V95.9623L4.65503 95.947C4.02924 65.2972 10.9071 37.6909 32.6382 14.8031C51.798 -5.15686 79.5489 -0.66899 96.4747 15.1807L96.4753 15.1812C125.847 42.657 127.712 89.5164 100.807 119.505C97.7536 122.824 94.004 125.763 90.2507 128.704C89.0858 129.617 87.9206 130.53 86.7758 131.455L85.4848 132.498L86.5218 133.545C86.5331 133.582 86.546 133.628 86.5642 133.693C86.572 133.721 86.5807 133.752 86.5906 133.787L86.5943 133.8C86.6291 133.923 86.7047 134.191 86.832 134.435C86.9176 134.6 87.2578 135.197 87.9791 135.357C104.126 141.135 114.194 150.585 120.266 162.347C126.38 174.191 128.499 188.493 128.5 203.992C128.186 239.088 118.795 271.973 101.25 302.347C94.7103 313.668 85.9716 324.077 76.5735 333.251L76.5705 333.254C71.109 338.616 65.7411 340.764 60.4276 340.474C55.0601 340.181 49.4556 337.386 43.5942 332.248C29.3369 319.412 20.6105 303.098 13.7089 285.36C6.51184 265.763 2.44256 245.538 1.50008 224.678C1.5047 223.733 1.71267 222.4 2.0905 221.29C2.28143 220.729 2.49125 220.299 2.68797 220.022C2.78671 219.882 2.85429 219.819 2.88416 219.795L2.95273 219.781L3.07743 219.732C8.27699 217.669 13.5373 215.845 19.1318 213.905C22.4259 212.763 25.8359 211.581 29.4176 210.286C29.4063 212.886 29.3771 215.39 29.3486 217.824C29.2798 223.713 29.2158 229.194 29.4234 234.646L29.4238 234.655L29.4243 234.665C30.6887 259.565 33.5377 284.616 42.7789 308.107L42.7862 308.126L42.794 308.144C43.0396 308.723 43.2872 309.326 43.541 309.944C44.6994 312.767 45.9871 315.904 47.8026 318.463C50.0934 321.693 53.3263 324.172 58.3177 324.352C63.1569 324.533 66.5678 322.319 69.1097 319.274C71.4232 316.502 73.0944 312.945 74.5655 309.814C74.67 309.592 74.7735 309.372 74.8761 309.154L74.8887 309.127L74.9002 309.1C92.0275 268.742 99.3562 226.696 91.0855 183.008L91.0852 183.006C87.874 166.143 79.7688 151.246 61.7826 144.298C59.7581 143.416 58.7104 142.255 58.4866 141.374C58.3886 140.988 58.4232 140.585 58.6921 140.126C58.9801 139.634 59.5729 139.024 60.6844 138.392C78.6457 128.494 84.7682 111.978 86.6857 93.2691C88.9145 73.0071 87.3265 53.326 79.9703 33.9468L79.9565 33.9104L79.9409 33.8748C78.652 30.9463 77.0478 28.0303 75.482 25.184L75.4647 25.1526L75.4313 25.0918L75.3923 25.0343C71.0972 18.695 65.4756 15.2943 59.6754 15.2943C53.8683 15.2943 48.3196 18.7027 44.1801 25.0569C35.4655 38.4208 32.2736 53.3663 31.3184 68.8001L31.3178 68.8104C30.9214 76.0163 31.1449 83.1849 31.367 90.3085C31.4993 94.5515 31.6311 98.7785 31.6311 102.988C31.6311 103.784 31.5723 104.518 31.5015 105.403C31.4938 105.499 31.4859 105.597 31.478 105.697Z" stroke="#FFCE70" stroke-width="3"/>
</svg>
