<svg width="148" height="356" viewBox="0 0 148 356" fill="none" xmlns="http://www.w3.org/2000/svg">
<path d="M142.247 218.845L142.261 218.847C143.166 218.931 143.972 219.029 144.659 219.194C145.355 219.361 145.805 219.569 146.076 219.79C146.299 219.972 146.443 220.191 146.487 220.579C146.537 221.029 146.456 221.768 146.003 222.922L145.957 223.039L145.931 223.161C145.636 224.567 145.694 226.091 145.76 227.421C145.767 227.551 145.774 227.68 145.78 227.807C145.844 229.052 145.9 230.134 145.785 231.109C145.662 232.146 145.364 232.86 144.824 233.369C144.277 233.884 143.274 234.383 141.339 234.543H141.336H141.332H141.328H141.324H141.32H141.315H141.311H141.307H141.303H141.299H141.295H141.291H141.287H141.283H141.279H141.275H141.27H141.266H141.262H141.258H141.254H141.25H141.245H141.241H141.237H141.233H141.229H141.225H141.22H141.216H141.212H141.208H141.203H141.199H141.195H141.191H141.186H141.182H141.178H141.174H141.169H141.165H141.161H141.156H141.152H141.148H141.143H141.139H141.135H141.13H141.126H141.122H141.117H141.113H141.109H141.104H141.1H141.096H141.091H141.087H141.082H141.078H141.074H141.069H141.065H141.06H141.056H141.051H141.047H141.043H141.038H141.034H141.029H141.025H141.02H141.016H141.011H141.007H141.002H140.998H140.993H140.989H140.984H140.98H140.975H140.971H140.966H140.962H140.957H140.953H140.948H140.944H140.939H140.934H140.93H140.925H140.921H140.916H140.912H140.907H140.902H140.898H140.893H140.889H140.884H140.879H140.875H140.87H140.866H140.861H140.856H140.852H140.847H140.842H140.838H140.833H140.828H140.824H140.819H140.814H140.81H140.805H140.8H140.796H140.791H140.786H140.782H140.777H140.772H140.768H140.763H140.758H140.754H140.749H140.744H140.739H140.735H140.73H140.725H140.72H140.716H140.711H140.706H140.702H140.697H140.692H140.687H140.683H140.678H140.673H140.668H140.664H140.659H140.654H140.649H140.644H140.64H140.635H140.63H140.625H140.621H140.616H140.611H140.606H140.601H140.597H140.592H140.587H140.582H140.577H140.573H140.568H140.563H140.558H140.553H140.548H140.544H140.539H140.534H140.529H140.524H140.52H140.515H140.51H140.505H140.5H140.495H140.49H140.486H140.481H140.476H140.471H140.466H140.461H140.457H140.452H140.447H140.442H140.437H140.432H140.427H140.423H140.418H140.413H140.408H140.403H140.398H140.393H140.389H140.384H140.379H140.374H140.369H140.364H140.359H140.354H140.35H140.345H140.34H140.335H140.33H140.325H140.32H140.315H140.311H140.306H140.301H140.296H140.291H140.286H140.281H140.276H140.271H140.267H140.262H140.257H140.252H140.247H140.242H140.237H140.232H140.228H140.223H140.218H140.213H140.208H140.203H140.198H140.193H140.188H140.184H140.179H140.174H140.169H140.164H140.159H140.154H140.149H140.145H140.14H140.135H140.13H140.125H140.12H140.115H140.11H140.106H140.101H140.096H140.091H140.086H140.081H140.076H140.071H140.067H140.062H140.057H140.052H140.047H140.042H140.037H140.033H140.028H140.023H140.018H140.013H140.008H140.003H139.999H139.994H139.989H139.984H139.979H139.974H139.97H139.965H139.96H139.955H139.95H139.945H139.941H139.936H139.931H139.926H139.921H139.916H139.912H139.907H139.902H139.897H139.892H139.888H139.883H139.878H139.873H139.868H139.864H139.859H139.854H139.849H139.844H139.84H139.835H139.83H139.825H139.82H139.816H139.811H139.806H139.801H139.797H139.792H139.787H139.782H139.778H139.773H139.768H139.763H139.759H139.754H139.749H139.744H139.74H139.735H139.73H139.725H139.721H139.716H139.711H139.707H139.702H139.697H139.693H139.688H139.683H139.678H139.674H139.669H139.664H139.66H139.655H139.65H139.646H139.641H139.636H139.632H139.627H139.622H139.618H139.613H139.609H139.604H139.599H139.595H139.59H139.585H139.581H139.576H139.572H139.567H139.562H139.558H139.553H139.549H139.544H139.54H139.535H139.53H139.526H139.521H139.517H139.512H139.508H139.503H139.499H139.494H139.49H139.485H139.481H139.476H139.472H139.467H139.463H139.458H139.454H139.449H139.445H139.44H139.436H139.431H139.427H139.422H139.418H139.413H139.409H139.405H139.4H139.396H139.391H139.387H139.382H139.378H139.374H139.369H139.365H139.361H139.356H139.352H139.347H139.343H139.339H139.334H139.33H139.326H139.321H139.317H139.313H139.308H139.304H139.3H139.296H139.291H139.287H139.283H139.278H139.274H139.27H139.266H139.261H139.257H139.253H139.249H139.245H139.24H139.236H139.232H139.228H139.224H139.219H139.215H139.211H139.207H139.203H139.199H139.194H139.19H139.186H139.182H139.178H139.174H139.17H139.166H139.162H139.158H139.153H139.149H139.145H139.141H139.137H139.133H139.129H139.125H139.121H139.117H139.113H139.109H139.105H139.101H139.097H139.093H139.089H139.085H139.081H139.077H139.074H139.07H139.066H139.052L139.038 234.544L138.922 234.546C134.348 234.629 130.764 234.694 128.033 235.05C125.288 235.407 123.085 236.09 121.536 237.669C119.985 239.25 119.344 241.47 119.058 244.252C118.77 247.043 118.816 250.712 118.899 255.439L118.899 255.448L118.899 255.458C119.068 261.124 119.215 266.818 119.363 272.526C119.799 289.377 120.237 306.351 121.235 323.126L121.236 323.148L121.238 323.171C121.588 327.097 122.722 330.891 123.981 334.53C124.377 335.671 124.781 336.789 125.18 337.893C126.074 340.364 126.941 342.762 127.621 345.191L127.624 345.2L127.627 345.209C128.341 347.638 128.507 350.214 128.697 353.172C128.724 353.606 128.753 354.049 128.784 354.5H128.762H128.653H128.544H128.435H128.326H128.217H128.109H128H127.891H127.782H127.674H127.565H127.457H127.348H127.239H127.131H127.022H126.914H126.806H126.697H126.589H126.48H126.372H126.264H126.156H126.047H125.939H125.831H125.723H125.615H125.507H125.398H125.29H125.182H125.074H124.966H124.858H124.751H124.643H124.535H124.427H124.319H124.211H124.104H123.996H123.888H123.78H123.673H123.565H123.457H123.35H123.242H123.135H123.027H122.92H122.812H122.705H122.597H122.49H122.383H122.275H122.168H122.061H121.953H121.846H121.739H121.632H121.524H121.417H121.31H121.203H121.096H120.989H120.882H120.775H120.668H120.561H120.454H120.347H120.24H120.133H120.026H119.919H119.813H119.706H119.599H119.492H119.385H119.279H119.172H119.065H118.959H118.852H118.745H118.639H118.532H118.426H118.319H118.213H118.106H118H117.893H117.787H117.68H117.574H117.468H117.361H117.255H117.149H117.042H116.936H116.83H116.724H116.617H116.511H116.405H116.299H116.193H116.087H115.981H115.875H115.768H115.662H115.556H115.45H115.344H115.238H115.132H115.027H114.921H114.815H114.709H114.603H114.497H114.391H114.285H114.18H114.074H113.968H113.862H113.757H113.651H113.545H113.44H113.334H113.228H113.123H113.017H112.911H112.806H112.7H112.595H112.489H112.384H112.278H112.173H112.067H111.962H111.856H111.751H111.645H111.54H111.435H111.329H111.224H111.119H111.013H110.908H110.803H110.697H110.592H110.487H110.382H110.276H110.171H110.066H109.961H109.856H109.75H109.645H109.54H109.435H109.33H109.225H109.12H109.015H108.91H108.805H108.7H108.595H108.49H108.385H108.28H108.175H108.07H107.965H107.86H107.755H107.65H107.545H107.44H107.335H107.23H107.126H107.021H106.916H106.811H106.706H106.601H106.497H106.392H106.287H106.182H106.078H105.973H105.868H105.763H105.659H105.554H105.449H105.345H105.24H105.135H105.031H104.926H104.821H104.717H104.612H104.508H104.403H104.298H104.194H104.089H103.985H103.88H103.776H103.671H103.567H103.462H103.357H103.253H103.148H103.044H102.94H102.835H102.731H102.626H102.522H102.417H102.313H102.208H102.104H102H101.895H101.791H101.686H101.582H101.478H101.373H101.269H101.164H101.06H100.956H100.851H100.747H100.643H100.538H100.434H100.33H100.225H100.121H100.017H99.9124H99.8081H99.7038H99.5995H99.4952H99.391H99.2867H99.1824H99.0782H98.9739H98.8696H98.7654H98.6611H98.5569H98.4526H98.3484H98.2442H98.1399H98.0357H97.9315H97.8273H97.723H97.6188H97.5146H97.4104H97.3062H97.202H97.0978H96.9936H96.8894H96.7852H96.681H96.5768H96.4726H96.3684H96.2642H96.16H96.0559H95.9517H95.8475H95.7433H95.6392H95.535H95.4308H95.3266H95.2225H95.1183H95.0141H94.9099H94.8058H94.7016H94.5974H94.4933H94.3891H94.2849H94.1808H94.0766H93.9724H93.8683H93.7641H93.6599H93.5557H93.4516H93.3474H93.2432H93.1391H93.0349H92.9307H92.8265H92.7224H92.6182H92.514H92.4098H92.3056H92.2015H92.0973H91.9931H91.8889H91.7847H91.6805H91.5763H91.4721H91.3679H91.2637H91.1595H91.0553H90.9511H90.8469H90.7426H90.6384H90.5342H90.43H90.3257H90.2215H90.1173H90.013H89.9088H89.8045H89.7003H89.596H89.4918H89.3875H89.2832H89.179H89.0747H88.9704H88.8661H88.7618H88.6575H88.5532H88.4489H88.3446H88.2403H88.136H88.0317H87.9273H87.823H87.7187H87.6143H87.51H87.4056H87.3012H87.1969H87.0925H86.9881H86.8837H86.7793H86.6749H86.5705H86.4661H86.3617H86.2573H86.1528H86.0484H85.9439H85.8395H85.735H85.6305H85.5261H85.4216H85.3171H85.2126H85.1081H85.0036H84.899H84.7945H84.69H84.5854H84.4809H84.3763H84.2717H84.1671H84.0626H83.958H83.8533H83.7487H83.6441H83.5395H83.4348H83.3302H83.2255H83.1208H83.0162H82.9115H82.8068H82.702H82.5973H82.4926H82.3879H82.2831H82.1783H82.0736H81.9688H81.864H81.7592H81.6544H81.5496H81.4447H81.3399H81.235H81.1301H81.0253H80.9204H80.8155H80.7106H80.6056H80.5007H80.3958H80.2908H80.1858H80.0808H79.9758H79.8708H79.7658H79.6608H79.5557H79.4507H79.3456H79.2405H79.1354H79.0303H78.9252H78.82H78.7149H78.6097H78.5751C85.5503 335.74 87.836 316.7 88.5223 297.562C88.8778 287.648 88.8044 277.687 88.7263 267.725L88.7237 267.39C88.6464 257.53 88.569 247.669 88.8974 237.792L88.949 236.242H87.3983H87.3065H87.2147H87.123H87.0312H86.9395H86.8479H86.7562H86.6646H86.573H86.4814H86.3898H86.2983H86.2068H86.1153H86.0238H85.9324H85.841H85.7495H85.6582H85.5668H85.4755H85.3841H85.2929H85.2016H85.1103H85.0191H84.9279H84.8367H84.7455H84.6544H84.5633H84.4722H84.3811H84.29H84.199H84.108H84.017H83.926H83.8351H83.7442H83.6532H83.5624H83.4715H83.3806H83.2898H83.199H83.1082H83.0175H82.9267H82.836H82.7453H82.6546H82.564H82.4733H82.3827H82.2921H82.2015H82.111H82.0205H81.9299H81.8394H81.749H81.6585H81.5681H81.4777H81.3873H81.2969H81.2065H81.1162H81.0259H80.9356H80.8453H80.7551H80.6648H80.5746H80.4844H80.3942H80.3041H80.2139H80.1238H80.0337H79.9436H79.8536H79.7635H79.6735H79.5835H79.4935H79.4035H79.3136H79.2237H79.1338H79.0439H78.954H78.8641H78.7743H78.6845H78.5947H78.5049H78.4152H78.3254H78.2357H78.146H78.0563H77.9666H77.877H77.7873H77.6977H77.6081H77.5186H77.429H77.3394H77.2499H77.1604H77.0709H76.9815H76.892H76.8026H76.7132H76.6238H76.5344H76.445H76.3557H76.2663H76.177H76.0877H75.9984H75.9092H75.8199H75.7307H75.6415H75.5523H75.4631H75.374H75.2848H75.1957H75.1066H75.0175H74.9284H74.8394H74.7503H74.6613H74.5723H74.4833H74.3943H74.3054H74.2164H74.1275H74.0386H73.9497H73.8608H73.772H73.6831H73.5943H73.5055H73.4167H73.3279H73.2392H73.1504H73.0617H72.973H72.8843H72.7956H72.7069H72.6183H72.5296H72.441H72.3524H72.2638H72.1752H72.0867H71.9981H71.9096H71.8211H71.7326H71.6441H71.5556H71.4672H71.3787H71.2903H71.2019H71.1135H71.0251H70.9367H70.8484H70.7601H70.6717H70.5834H70.4951H70.4069H70.3186H70.2303H70.1421H70.0539H69.9657H69.8775H69.7893H69.7011H69.613H69.5249H69.4367H69.3486H69.2605H69.1725H69.0844H68.9963H68.9083H68.8203H68.7323H68.6443H68.5563H68.4683H68.3804H68.2924H68.2045H68.1166H68.0287H67.9408H67.8529H67.765H67.6772H67.5893H67.5015H67.4137H67.3259H67.2381H67.1503H67.0626H66.9748H66.8871H66.7994H66.7117H66.624H66.5363H66.4486H66.361H66.2733H66.1857H66.098H66.0104H65.9228H65.8353H65.7477H65.6601H65.5726H65.485H65.3975H65.31H65.2225H65.135H65.0475H64.96H64.8726H64.7851H64.6977H64.6103H64.5229H64.4355H64.3481H64.2607H64.1734H64.086H63.9987H63.9113H63.824H63.7367H63.6494H63.5621H63.4748H63.3876H63.3003H63.2131H63.1259H63.0386H62.9514H62.8642H62.777H62.6899H62.6027H62.5155H62.4284H62.3412H62.2541H62.167H62.0799H61.9928H61.9057H61.8186H61.7316H61.6445H61.5575H61.4704H61.3834H61.2964H61.2094H61.1224H61.0354H60.9484H60.8615H60.7745H60.6876H60.6006H60.5137H60.4268H60.3399H60.253H60.1661H60.0792H59.9923H59.9054H59.8186H59.7317H59.6449H59.5581H59.4713H59.3844H59.2976H59.2108H59.1241H59.0373H58.9505H58.8638H58.777H58.6903H58.6035H58.5168H58.4301H58.3434H58.2567H58.17H58.0833H57.9966H57.91H57.8233H57.7367H57.65H57.5634H57.4768H57.3901H57.3035H57.2169H57.1303H57.0437H56.9572H56.8706H56.784H56.6975H56.6109H56.5244H56.4378H56.3513H56.2648H56.1783H56.0918H56.0053H55.9188H55.8323H55.7458H55.6593H55.5729H55.4864H55.3999H55.3135H55.2271H55.1406H55.0542H54.9678H54.8814H54.795H54.7086H54.6222H54.5358H54.4494H54.363H54.2767H54.1903H54.104H54.0176H53.9313H53.8449H53.7586H53.6723H53.5859H53.4996H53.4133H53.327H53.2407H53.1544H53.0681H52.9819H52.8956H52.8093H52.7231H52.6368H52.5505H52.4643H52.3781H52.2918H52.2056H52.1194H52.0331H51.9469H51.8607H51.7745H51.6883H51.6021H51.5159H51.4297H51.3435H51.2574H51.1712H51.085H50.9989H50.9127H50.8265H50.7404H50.6542H50.5681H50.482H50.3958H50.3097H50.2236H50.1375H50.0513H49.9652H49.8791H49.793H49.7069H49.6208H49.5347H49.4486H49.3625H49.2764H49.1904H49.1043H49.0182H48.9321H48.8461H48.76H48.674H48.5879H48.5018H48.4158H48.3298H48.2437H48.1577H48.0716H47.9856H47.8996H47.8135H47.7275H47.6415H47.5555H47.4694H47.3834H47.2974H47.2114H47.1254H47.0394H46.9534H46.8674H46.7814H46.6954H46.6094H46.5234H46.4374H46.3514H46.2654H46.1795H46.0935H46.0075H45.9215H45.8356H45.7496H45.6636H45.5776H45.4917H45.4057H45.3197H45.2338H45.1478H45.0618H44.9759H44.8899H44.804H44.718H44.6321H44.5461H44.4602H44.3742H44.2883H44.2023H44.1164H44.0304H43.9445H43.8585H43.7726H43.6866H43.6007H43.5147H43.4288H43.3429H43.2569H43.171H43.085H42.9991H42.9132H42.8272H42.7413H42.6553H42.5694H42.4835H42.3975C31.7113 236.242 20.6965 236.583 10.0401 236.922C5.46391 236.918 3.09863 235.89 2.13686 234.477C1.20036 233.101 1.12958 230.645 3.08728 226.488L3.09289 226.476L3.09828 226.464C6.76334 218.312 10.4286 210.244 14.0952 202.174L14.096 202.172L14.0969 202.17C17.7625 194.102 21.4294 186.031 25.0965 177.874C30.8389 165.33 36.5984 152.784 42.3601 140.234C62.3473 96.6983 82.3604 53.1059 101.77 9.31096L101.771 9.30893C103.223 6.0197 104.739 3.95335 106.547 2.78389C108.313 1.64137 110.577 1.2155 113.849 1.69201L113.906 1.70031L113.964 1.70422C117.376 1.93616 120.698 1.8567 123.886 1.78046C124.814 1.75827 125.73 1.73635 126.634 1.72246C121.527 33.7021 120.481 65.4949 120.399 97.1377C120.373 107.08 120.442 117 120.511 126.907C120.667 149.145 120.821 171.313 119.9 193.503L119.899 193.535V193.566C119.899 195.29 119.778 197.152 119.642 199.095C119.631 199.25 119.62 199.407 119.609 199.563C119.484 201.343 119.355 203.181 119.316 204.959C119.232 208.747 119.532 212.681 121.504 215.495L121.532 215.535L121.562 215.573C122.602 216.869 124.15 217.579 125.759 217.993C127.381 218.411 129.25 218.575 131.139 218.64C132.625 218.691 134.187 218.682 135.707 218.673C136.122 218.671 136.534 218.668 136.94 218.667C138.86 218.662 140.666 218.684 142.247 218.845ZM86.9715 216.811L88.5229 216.908L88.5644 215.354C88.6678 211.48 88.7712 207.612 88.8745 203.749C90.1025 157.813 91.3088 112.693 92.2313 67.8629L92.2628 66.332H90.7316C90.5828 66.332 90.3329 66.2878 89.8646 66.1923C89.8445 66.1882 89.8237 66.184 89.8023 66.1796C89.4354 66.1044 88.8876 65.9922 88.3983 65.9922H87.3248L86.9785 67.0082C70.6448 114.923 54.312 162.835 37.3128 212.106L36.6682 213.975L38.641 214.093C46.5669 214.568 54.028 214.968 61.3863 215.363C69.8665 215.817 78.2102 216.264 86.9715 216.811Z" stroke="#FFCE70" stroke-width="3"/>
</svg>
