<svg width="132" height="353" viewBox="0 0 132 353" fill="none" xmlns="http://www.w3.org/2000/svg">
<path d="M30.9498 217.377C30.9402 220.976 30.9081 224.432 30.877 227.787C30.8063 235.405 30.7405 242.505 30.9534 249.581L30.9539 249.6L30.955 249.619C32.2561 273.206 35.8375 296.225 44.6652 318.293C44.7991 318.647 44.9342 319.008 45.0712 319.375C46.2263 322.463 47.522 325.928 49.4462 328.719C51.6611 331.931 54.8011 334.393 59.5886 334.587C64.5219 334.947 67.9482 332.873 70.4939 329.904C72.6507 327.389 74.2361 324.152 75.6533 321.258C75.8546 320.847 76.0526 320.443 76.2483 320.048L76.255 320.035L76.2614 320.021C88.6901 293.668 93.2459 265.388 95.5196 236.927L95.5199 236.923C97.4757 211.644 95.5289 186.584 85.6886 162.798L85.6857 162.791L85.6828 162.784C82.7016 155.778 78.4046 149.122 73.4518 143.466C68.0466 137.007 61.3042 133.362 54.1891 132.668C47.0739 131.973 39.7336 134.242 33.1543 139.339L33.107 139.376L33.0627 139.416C30.1445 142.075 27.2851 144.795 24.2966 147.637C23.7855 148.123 23.2706 148.613 22.751 149.106C19.6647 152.038 16.4038 155.116 12.7532 158.423C12.4635 157.607 12.1616 156.821 11.8768 156.081C11.6406 155.466 11.4163 154.883 11.2206 154.338C10.545 152.457 10.1592 150.923 10.2901 149.472L10.292 149.452L10.2933 149.431C11.9129 123.658 13.8565 97.8835 15.8009 72.4256L15.8016 72.4156C17.0973 53.8197 18.3931 35.2227 19.6889 16.2995C19.8459 14.7267 20.0811 13.2236 20.322 11.7679C20.3619 11.5265 20.4022 11.2855 20.4423 11.0453C20.5678 10.2944 20.692 9.55102 20.8015 8.82506C43.3505 8.18413 65.003 7.53106 86.6597 6.24802C92.2518 5.91672 97.7448 5.08953 103.181 4.19068C104.241 4.01541 105.298 3.83759 106.353 3.66009C110.73 2.92368 115.075 2.1926 119.478 1.6709L119.496 1.6687L119.515 1.66603C120.566 1.51481 121.818 1.44417 122.923 1.55186C124.108 1.66734 124.783 1.95625 125.042 2.21733L126.104 1.16304L125.042 2.21734C125.275 2.45177 125.582 3.18278 125.62 4.42858C125.655 5.59206 125.439 6.84006 125.05 7.7535L125.041 7.77449L125.033 7.79573C121.473 16.9234 117.607 26.3294 113.107 35.0702L113.102 35.0799L113.097 35.0898C112.807 35.6732 111.899 36.5482 110.626 37.2646C109.344 37.9862 108.165 38.2807 107.525 38.1886L107.455 38.1787L107.385 38.1752C97.508 37.686 87.549 37.1151 77.5831 36.5439L77.5798 36.5437C67.6226 35.973 57.6585 35.4019 47.7743 34.9122C45.4893 34.7483 43.5571 34.7177 41.9536 34.9565C40.3208 35.1997 38.9201 35.738 37.8159 36.7944C36.7251 37.8381 36.0789 39.2402 35.657 40.9064C35.2386 42.5587 35.0096 44.6007 34.8465 47.0544C33.1976 63.247 31.6791 79.5788 30.1256 96.2872C29.2371 105.843 28.3372 115.522 27.3948 125.368L27.1531 127.894L29.4825 126.889C36.2508 123.967 42.0543 121.693 47.8792 119.412C61.6629 114.631 74.9767 114.814 86.6377 119.322C98.3095 123.834 108.427 132.719 115.73 145.512L115.736 145.522C126.599 164.186 131.081 184.466 130.44 205.428C129.152 246.95 117.883 286.185 96.3132 321.856C91.8393 328.935 86.4025 335.699 80.3215 341.824L80.3152 341.83L80.3089 341.837C73.8299 348.521 67.5574 351.573 61.4746 351.499C55.3818 351.424 49.0951 348.208 42.6035 341.51L42.5972 341.504L42.5908 341.497C30.4697 329.29 22.1368 314.15 15.6964 298.258C7.34215 277.547 3.15524 256.167 1.54318 234.095C1.38798 231.582 1.65293 230.011 2.33569 228.905C2.99834 227.831 4.22544 226.926 6.65404 226.162L6.68475 226.152L6.71501 226.141C9.03378 225.3 11.3222 224.461 13.6497 223.608C18.9429 221.666 24.4378 219.651 30.9498 217.377Z" stroke="#FFCE70" stroke-width="3"/>
</svg>
