<svg width="141" height="368" viewBox="0 0 141 368" fill="none" xmlns="http://www.w3.org/2000/svg">
<path d="M102.558 98.3444C102.298 94.3367 102.08 90.3642 101.864 86.4257C101.326 76.5956 100.799 66.9777 99.6428 57.5538C98.6143 49.1689 96.2209 40.4746 93.5073 32.5244L93.5004 32.504L93.4928 32.4837C90.735 25.1064 86.0101 18.155 76.6477 17.7728C67.6699 17.3922 61.8436 23.553 58.6892 31.0537L58.6837 31.0667L58.6785 31.0797C57.7516 33.4049 56.7704 35.7483 55.7805 38.1124C52.1563 46.7677 48.4159 55.7007 46.7994 65.0315C43.1986 85.0735 40.7329 105.352 38.2913 125.433C37.7582 129.817 37.2262 134.193 36.6838 138.554C36.4784 139.658 36.5969 140.804 36.7187 141.839C36.7349 141.976 36.7514 142.113 36.7679 142.251C36.8852 143.224 37.0033 144.204 37.0033 145.313V148.046L39.3091 146.578C40.9413 145.538 42.4423 144.567 43.8706 143.642C47.198 141.489 50.1304 139.591 53.4058 137.684C67.625 129.598 81.2811 127.569 93.4112 130.959C105.55 134.352 116.388 143.234 124.835 157.41C137.113 178.38 140.789 201.068 139.121 225.221C135.76 266.652 127.034 306.218 104.972 341.303L104.967 341.312C101.008 347.7 96.0501 353.43 90.4148 358.498C84.0693 364.135 77.4368 366.69 70.9446 366.489C64.4424 366.288 57.8667 363.317 51.6622 357.493L51.6563 357.488C36.761 343.657 28.0983 325.391 21.3861 305.896L21.3836 305.889L21.381 305.881C8.97576 271.031 3.60045 235.127 1.91984 198.136C-0.0954565 151.581 4.94552 105.774 21.3691 62.0494C27.0528 47.4008 34.7418 33.0932 43.7622 20.495C53.9785 6.56106 66.6533 0.559703 78.7291 1.61917C90.8272 2.68059 102.744 10.8652 111.335 26.1835C121.653 44.8403 126.337 64.895 129.359 85.7697L129.361 85.7833L129.363 85.7968C129.462 86.4015 129.258 87.5369 128.722 88.708C128.468 89.2628 128.172 89.7517 127.876 90.1186C127.583 90.4811 127.364 90.6343 127.264 90.6823C120.855 92.9413 114.46 94.8274 107.887 96.7657C106.125 97.2855 104.35 97.809 102.558 98.3444ZM93.1897 320.202L93.1919 320.194L93.194 320.187C103.361 284.271 105.723 247.697 104.034 210.502C103.355 193.568 100.638 177.119 91.3344 162.371C88.1799 157.371 84.175 153.612 79.454 151.577C74.7129 149.533 69.3673 149.278 63.6608 151.096L63.6472 151.1L63.6336 151.105C55.6576 153.814 48.3506 158.784 41.5668 163.397C41.2747 163.596 40.9836 163.794 40.6935 163.991L40.6733 164.005L40.6536 164.019C39.1345 165.125 37.992 167.07 37.2001 168.998C36.3888 170.973 35.8459 173.176 35.6625 175.045L35.6606 175.064L35.6592 175.083C35.1481 182.115 35.2131 189.362 35.2767 196.439C35.2976 198.767 35.3183 201.076 35.3183 203.353V203.376L35.3189 203.398C36.3308 237.77 38.693 272.244 47.1585 306.062L47.1592 306.065C50.223 318.207 54.9897 330.355 61.1277 341.127L61.1313 341.133L61.1349 341.14C64.4726 346.868 68.7927 349.921 73.4422 349.609C78.0209 349.301 82.1747 345.764 85.3128 340.079L85.3166 340.072C88.7575 333.76 91.1521 327.123 93.1897 320.202Z" stroke="#FFCE70" stroke-width="3"/>
</svg>
