<svg width="145" height="375" viewBox="0 0 145 375" fill="none" xmlns="http://www.w3.org/2000/svg">
<path d="M68.86 373.5H68.8115H68.7047H68.5979H68.4912H68.3845H68.2779H68.1713H68.0648H67.9583H67.8518H67.7454H67.639H67.5327H67.4264H67.3202H67.214H67.1079H67.0018H66.8958H66.7898H66.6838H66.5779H66.4721H66.3662H66.2605H66.1547H66.049H65.9434H65.8378H65.7322H65.6267H65.5212H65.4158H65.3104H65.2051H65.0998H64.9945H64.8893H64.7842H64.679H64.574H64.4689H64.3639H64.2589H64.154H64.0491H63.9443H63.8395H63.7348H63.6301H63.5254H63.4207H63.3162H63.2116H63.1071H63.0026H62.8982H62.7938H62.6895H62.5852H62.4809H62.3767H62.2725H62.1683H62.0642H61.9601H61.8561H61.7521H61.6481H61.5442H61.4403H61.3365H61.2327H61.1289H61.0252H60.9215H60.8178H60.7142H60.6106H60.5071H60.4036H60.3001H60.1967H60.0933H59.9899H59.8866H59.7833H59.6801H59.5769H59.4737H59.3705H59.2674H59.1644H59.0613H58.9583H58.8554H58.7524H58.6495H58.5467H58.4438H58.3411H58.2383H58.1356H58.0329H57.9302H57.8276H57.725H57.6225H57.5199H57.4174H57.315H57.2126H57.1102H57.0078H56.9055H56.8032H56.7009H56.5987H56.4965H56.3944H56.2922H56.1901H56.0881H55.986H55.884H55.782H55.6801H55.5782H55.4763H55.3745H55.2726H55.1708H55.0691H54.9674H54.8657H54.764H54.6624H54.5607H54.4592H54.3576H54.2561H54.1546H54.0531H53.9517H53.8503H53.7489H53.6476H53.5462H53.445H53.3437H53.2425H53.1413H53.0401H52.9389H52.8378H52.7367H52.6356H52.5346H52.4336H52.3326H52.2316H52.1307H52.0298H51.9289H51.828H51.7272H51.6264H51.5256H51.4248H51.3241H51.2234H51.1227H51.0221H50.9215H50.8209H50.7203H50.6197H50.5192H50.4187H50.3182H50.2177H50.1173H50.0169H49.9165H49.8162H49.7158H49.6155H49.5152H49.4149H49.3147H49.2145H49.1143H49.0141H48.9139H48.8138H48.7137H48.6136H48.5135H48.4135H48.3135H48.2135H48.1135H48.0135H47.9136H47.8137H47.7138H47.6139H47.5141H47.4142H47.3144H47.2146H47.1148H47.0151H46.9154H46.8156H46.7159H46.6163H46.5166H46.417H46.3174H46.2178H46.1182H46.0186H45.9191H45.8196H45.7201H45.6206H45.5211H45.4216H45.3222H45.2228H45.1234H45.024H44.9247H44.8253H44.726H44.6267H44.5274H44.4281H44.3288H44.2296H44.1304H44.0311H43.9319H43.8328H43.7336H43.6344H43.5353H43.4362H43.3371H43.238H43.1389H43.0399H42.9408H42.8418H42.7428H42.6438H42.5448H42.4458H42.3468H42.2479H42.149H42.05H41.9511H41.8522H41.7534H41.6545H41.5557H41.4568H41.358H41.2592H41.1604H41.0616H40.9628H40.864H40.7653H40.6665H40.5678H40.4691H40.3704H40.2717H40.173H40.0743H39.9757H39.877H39.7784H39.6797H39.5811H39.4825H39.3839H39.2853H39.1867H39.0881H38.9896H38.891H38.7925H38.6939H38.5954H38.4969H38.3984H38.2999H38.2014H38.1029H38.0044H37.906H37.8075H37.7091H37.6106H37.5122H37.4138H37.3153H37.2169H37.1185H37.0201H36.9217H36.8233H36.725H36.6266H36.5282H36.4299H36.3315H36.2332H36.1348H36.0365H35.9382H35.8398H35.7415H35.6432H35.5449H35.4466H35.3483H35.25H35.1517H35.0534H34.9551H34.8568H34.7586H34.6603H34.562H34.4638H34.3655H34.2673H34.169H34.0707H33.9725H33.8743H33.776H33.6778H33.5795H33.4813H33.3831H33.2848H33.1866H33.0884H32.9902H32.8919H32.7937H32.6955H32.5973H32.4991H32.4008H32.3026H32.2044H32.1062H32.008H31.9098H31.8115H31.7133H31.6151H31.5169H31.4187H31.3205H31.2223H31.124H31.0258H30.9276H30.8294H30.7312H30.6329H30.5347H30.4365H30.3383H30.24H30.1418H30.0436H29.9453H29.8471H29.7488H29.6506H29.5523H29.4541H29.3558H29.2576H29.1593H29.0611H28.9628H28.8645H28.7662H28.668H28.5697H28.4714H28.3731H28.2748H28.1765H28.0782H27.9799H27.8816H27.7833H27.6849H27.5866H27.4883H27.3899H27.2916H27.1932H27.0949H26.9965H26.8981H26.7997H26.7014H26.603H26.5046H26.4062H26.3077H26.2093H26.1109H26.0125H25.914H25.8156H25.7171H25.6186H25.5202H25.4217H25.3232H25.2247H25.1262H25.0277H24.9291H24.8306H24.7321H24.6335H24.5349H24.4364H24.3378H24.2392H24.1406H24.042H23.9434H23.8447H23.7461H23.6474H23.5488H23.4501H23.3514H23.2527H23.154H23.0553H22.9566H22.8578H22.7591H22.6603H22.5615H22.4627H22.3639H22.2651H22.1663H22.0674H21.9686H21.8697H21.7708H21.6719H21.573H21.4741H21.3752H21.2762H21.1773H21.0783H20.9793H20.8803H20.8278C31.0718 254.209 64.8226 141.608 115.364 30.7369L116.414 28.4351L113.89 28.6187C109.398 28.9456 105.134 29.1392 101.042 29.3249C91.8586 29.7418 83.5433 30.1193 75.4703 31.8756L75.4629 31.8772L75.4554 31.8789C60.9807 35.1829 46.6199 39.4282 32.2634 43.6723C24.7803 45.8845 17.2984 48.0963 9.8022 50.1743C8.44642 50.51 6.88518 50.7479 5.49458 50.7084C4.04204 50.6671 3.0808 50.3332 2.58959 49.8447L2.53072 49.7861L2.46575 49.7344C2.07768 49.4257 1.6677 48.5493 1.53934 47.0599C1.42069 45.6832 1.58038 44.1829 1.88189 43.1126C6.20496 30.5723 10.515 18.073 15.54 5.57884L15.5566 5.53777L15.5706 5.4958C15.7977 4.81838 16.5311 3.87831 17.5831 3.07352C18.6489 2.25813 19.6779 1.85851 20.2764 1.85851V1.85857L20.2895 1.85845C60.7504 1.50546 100.863 1.50008 143.043 1.5C142.962 1.80456 142.883 2.10274 142.806 2.39474C142.096 5.0849 141.524 7.25045 140.757 9.04367C104.645 80.168 81.5424 155.58 66.7458 233.467C60.2513 267.557 55.5225 301.82 60.6068 336.855C61.3404 341.961 62.7447 347.14 64.1202 352.213C64.7939 354.698 65.4606 357.157 66.0383 359.57C66.5212 361.651 66.9317 363.808 67.3757 366.141C67.4207 366.378 67.4661 366.616 67.5118 366.856C67.9072 368.929 68.334 371.132 68.86 373.5Z" stroke="#FFCE70" stroke-width="3"/>
</svg>
