<svg width="142" height="373" viewBox="0 0 142 373" fill="none" xmlns="http://www.w3.org/2000/svg">
<path d="M125.09 207.651L125.092 207.654C144.891 241.708 144.257 278.202 130.865 315.229C124.696 331.803 115.824 346.55 102.238 357.846C89.5048 368.281 75.9609 372.637 63.1513 371.249C50.3417 369.861 38.0488 362.708 27.8624 349.706L27.8564 349.698C-3.57882 310.103 -4.32966 266.386 12.1641 220.674C18.9994 202.426 29.9454 186.549 43.3452 172.004C44.3588 170.981 45.2904 169.961 46.2331 168.928L46.3545 168.795C47.3498 167.705 48.3697 166.592 49.5572 165.395L50.5382 164.407L49.6251 163.355C44.7881 157.785 40.2959 152.562 35.8018 147.336C20.9567 128.547 8.4404 109.007 8.10167 84.4286L8.10144 84.4179C7.4189 51.7479 20.3524 25.0719 48.2276 8.28683L48.2337 8.28318L48.2397 8.27947C73.9622 -7.5418 108.008 5.46328 122.26 35.8958L122.26 35.8958L122.266 35.9086C137.21 67.0514 131.157 96.1154 111.333 122.98L111.331 122.983C105.505 130.925 98.6554 138.517 91.1294 145.066L91.1063 145.086L91.0841 145.107C88.2425 147.792 86.6912 150.2 86.8073 152.891C86.9177 155.45 88.5524 157.817 90.5908 160.384C92.3035 162.554 94.0272 164.72 95.7519 166.888C106.27 180.106 116.821 193.367 125.09 207.651ZM55.6024 25.9856L55.5964 25.9935L55.5905 26.0016C50.6593 32.7453 46.7588 40.2324 44.624 48.1139C34.0218 85.1666 50.7485 113.262 75.0816 139.884L76.1191 141.019L77.228 139.953C92.3648 125.41 100.81 108.02 104.323 88.5538C108.544 65.5072 104.324 43.7571 88.7629 25.2255C83.8686 19.3806 77.9226 16.3908 71.9118 16.535C65.8998 16.6793 60.139 19.9513 55.6024 25.9856ZM101.861 322.801L101.862 322.796C118.327 266.669 98.9866 220.457 63.1403 178.023L62.2234 176.938L61.09 177.794C60.432 178.291 59.9409 178.622 59.5568 178.88C59.533 178.895 59.5089 178.912 59.4845 178.928C59.1647 179.142 58.7882 179.395 58.5063 179.679L58.4018 179.784L58.32 179.908C58.0144 180.369 57.7069 180.758 57.3576 181.198L57.345 181.214C57.0051 181.642 56.6249 182.121 56.2428 182.698L56.2303 182.717L56.2183 182.737C34.2262 218.265 26.1668 256.329 34.9053 297.554C38.0513 313.75 43.6598 328.976 53.8687 342.459C59.0839 349.523 65.542 353.261 72.24 353.308C78.9343 353.356 85.481 349.715 90.8715 342.835L90.8786 342.826L90.8856 342.816C95.4285 336.83 99.7078 330.033 101.861 322.801Z" stroke="#FFCE70" stroke-width="3"/>
</svg>
