<svg width="75" height="24" viewBox="0 0 75 24" fill="none" xmlns="http://www.w3.org/2000/svg">
<path d="M0.93934 10.9393C0.353554 11.5251 0.353554 12.4749 0.93934 13.0607L10.4853 22.6066C11.0711 23.1924 12.0208 23.1924 12.6066 22.6066C13.1924 22.0208 13.1924 21.0711 12.6066 20.4853L4.12132 12L12.6066 3.51472C13.1924 2.92893 13.1924 1.97919 12.6066 1.3934C12.0208 0.807612 11.0711 0.807612 10.4853 1.3934L0.93934 10.9393ZM74.0607 13.0607C74.6464 12.4749 74.6464 11.5251 74.0607 10.9393L64.5147 1.3934C63.9289 0.807612 62.9792 0.807612 62.3934 1.3934C61.8076 1.97919 61.8076 2.92893 62.3934 3.51472L70.8787 12L62.3934 20.4853C61.8076 21.0711 61.8076 22.0208 62.3934 22.6066C62.9792 23.1924 63.9289 23.1924 64.5147 22.6066L74.0607 13.0607ZM2 13.5H73V10.5H2V13.5Z" fill="black"/>
</svg>
