<svg width="1295" height="199" viewBox="0 0 1295 199" fill="none" xmlns="http://www.w3.org/2000/svg">
<g clip-path="url(#clip0)">
<path d="M1137.92 183.636C1146.87 183.636 1155.15 183.758 1163.3 183.514C1164.36 183.514 1165.83 181.807 1166.5 180.588C1167.04 179.612 1166.64 178.149 1166.64 176.929C1166.64 131.325 1166.64 85.5992 1166.64 39.995C1166.64 29.3865 1166.1 19.022 1161.29 9.02318C1160.62 7.68188 1161.16 5.85284 1161.16 4.02379C1171.71 4.02379 1181.46 4.02379 1191.61 4.02379C1186.67 19.9974 1187.61 36.215 1187.61 52.3106C1187.61 90.4766 1187.74 128.643 1187.87 166.809C1187.87 175.1 1188.81 183.27 1193.35 190.708C1195.22 193.879 1193.62 196.195 1189.88 196.195C1149.27 196.195 1108.8 196.195 1068.19 196.195C1067.66 196.195 1067.26 196.073 1066.45 195.83C1071.93 178.515 1070.33 160.712 1070.46 143.153C1070.73 108.523 1071 73.8933 1070.86 39.2634C1070.86 31.2156 1068.99 23.2897 1068.06 15.2419C1067.92 14.6322 1067.66 14.0226 1067.52 13.5348C1063.78 3.90186 1063.78 3.90186 1075.27 3.90186C1082.08 3.90186 1088.9 3.90186 1096.11 3.90186C1090.63 22.0704 1092.23 40.1169 1092.1 58.0416C1091.83 98.6463 1091.7 139.251 1091.57 179.856C1091.57 181.685 1091.57 183.392 1091.57 184.977C1100.78 184.977 1109.2 184.977 1118.15 184.977C1118.28 182.782 1118.42 181.197 1118.42 179.612C1118.42 131.569 1118.68 83.4043 1118.15 35.3614C1118.01 26.7039 1114.81 18.1684 1113.07 9.51093C1112.81 7.80382 1113.07 6.09671 1113.07 4.14573C1122.82 4.14573 1131.91 4.14573 1141.26 4.14573C1135.65 27.0697 1138.32 50.2376 1138.05 73.1617C1137.65 108.401 1137.92 143.641 1137.92 178.88C1137.92 180.344 1137.92 182.051 1137.92 183.636Z" fill="white" fill-opacity="0.4"/>
<path d="M267.014 195.952C270.888 181.197 271.155 166.809 271.155 152.299C271.155 131.447 271.022 110.474 271.289 89.6233C271.289 85.8432 270.087 84.6239 265.812 84.7458C254.325 84.9897 242.704 84.8678 231.083 84.7458C228.278 84.7458 226.809 85.3555 226.809 88.282C226.942 115.596 226.675 142.909 227.343 170.223C227.477 177.052 230.682 183.758 232.285 190.465C232.686 192.172 232.552 194.001 232.686 195.952C222 195.952 211.848 195.952 201.964 195.952C203.032 187.66 205.036 179.612 205.036 171.443C205.437 127.18 205.437 82.9168 205.303 38.6539C205.303 32.3132 204.502 25.8506 203.567 19.5099C203.032 16.2176 201.43 13.1692 200.227 9.99889C198.491 5.60918 199.693 3.6582 204.769 3.6582C213.318 3.6582 221.866 3.6582 230.816 3.6582C224.671 26.948 227.744 50.2379 226.942 73.8935C241.101 73.1619 254.592 72.5522 268.083 71.6986C269.152 71.5767 271.155 69.7477 271.022 68.6502C270.487 51.7011 269.82 34.8739 268.884 17.9247C268.751 15.608 267.282 13.2912 266.747 10.9744C266.079 8.77953 265.679 6.46274 265.144 3.78014C275.964 3.78014 285.848 3.78014 294.798 3.78014C289.856 55.3592 293.195 106.938 292.394 158.517C292.26 165.833 293.195 173.15 294.13 180.344C294.531 183.148 296 185.831 296.935 188.636C297.603 190.83 298.137 193.025 298.805 195.708C287.451 195.952 277.433 195.952 267.014 195.952Z" fill="white" fill-opacity="0.4"/>
<path d="M682.43 185.953C684.834 184.855 687.505 184.246 689.643 182.782C697.791 177.173 702.199 169.004 706.072 160.712C716.224 139.129 719.83 116.693 713.018 93.769C710.079 83.7702 704.336 75.4785 691.379 74.2592C690.31 74.1373 688.44 72.4301 688.574 72.0643C688.975 70.845 690.177 69.3817 691.379 69.0159C712.083 62.6752 727.311 67.7966 735.592 87.3064C741.202 100.719 741.069 114.742 738.397 128.765C734.657 147.665 727.711 165.224 713.82 180.1C703.802 190.708 691.913 197.293 675.884 196.317C669.607 195.952 663.195 196.195 656.917 196.195C663.729 165.102 659.989 134.13 660.791 103.28C661.325 79.6244 661.325 55.9687 660.657 32.3131C660.523 24.875 657.852 17.4369 655.715 10.1207C654.513 5.731 655.448 3.90195 660.523 3.78002C676.953 3.65808 693.383 3.78002 709.812 3.53615C715.556 3.41421 721.166 2.92646 726.776 2.43872C731.718 2.07291 732.921 3.41421 730.917 7.68198C729.181 11.462 727.043 15.1201 725.44 18.9001C724.238 21.8266 722.502 21.9485 719.697 20.7292C709.144 15.9736 697.791 14.2665 686.17 13.9007C683.098 13.7788 682.029 14.7543 682.029 17.5588C681.895 73.1618 681.762 128.643 681.628 184.246C681.762 184.49 681.895 184.733 682.43 185.953Z" fill="white" fill-opacity="0.4"/>
<path d="M969.747 196.195C974.69 181.441 974.289 167.053 974.289 152.786C974.289 113.401 974.422 74.0152 974.289 34.6298C974.289 26.0943 973.354 17.5587 969.079 9.7548C967.076 6.21864 968.946 3.90186 973.22 3.90186C981.903 3.90186 990.585 3.90186 999.134 3.90186C993.123 31.5814 995.794 59.139 995.394 86.5747C994.859 117.912 995.126 149.128 994.993 180.466C994.993 181.929 994.993 183.392 994.993 186.684C998.866 184.733 1001.94 183.758 1004.21 181.929C1012.09 175.588 1016.23 166.931 1019.7 158.273C1027.05 140.349 1030.52 121.692 1027.18 102.548C1026.25 96.5734 1024.11 90.7205 1021.44 85.1114C1018.5 78.8927 1013.03 74.9907 1005.28 74.2591C1004.08 74.1372 1002.47 72.6739 1002.21 71.6984C1002.07 70.8449 1003.54 69.2597 1004.74 68.8939C1022.78 63.0409 1039.34 69.8694 1046.95 85.7211C1052.43 96.9392 1052.7 108.645 1051.49 120.351C1049.62 138.276 1044.28 155.347 1034 170.955C1026.65 182.051 1017.57 191.562 1003.41 195.464C999.534 196.561 995.126 196.439 990.986 196.561C984.574 196.317 977.495 196.195 969.747 196.195Z" fill="white" fill-opacity="0.4"/>
<path d="M538.971 3.78003C533.361 25.4847 535.231 47.0674 534.964 68.5282C534.563 105.719 534.697 143.031 534.563 180.222C534.563 181.685 534.563 183.27 534.563 186.319C538.437 184.49 541.509 183.514 543.78 181.685C551.661 175.466 555.668 167.053 559.141 158.395C566.888 139.373 570.361 119.741 566.487 99.6219C565.552 94.5006 563.549 89.2574 561.011 84.5019C557.939 78.527 552.729 74.7469 545.116 73.8934C543.78 73.7715 542.711 72.0643 541.643 71.0889C542.711 70.1134 543.513 68.7721 544.848 68.4063C567.022 61.8217 586.256 73.4057 590.531 96.0858C593.87 113.767 590.931 130.96 585.054 147.909C580.246 161.688 573.3 174.613 561.812 184.855C553.531 192.172 543.913 196.927 531.758 196.195C524.412 195.708 517.065 196.074 509.718 196.074C516.531 167.297 513.191 138.52 513.726 109.987C514.26 85.4773 513.993 60.8462 513.859 36.337C513.859 27.1918 513.191 18.0466 508.516 9.63297C506.513 5.97488 508.383 3.78003 512.791 3.78003C521.339 3.78003 529.888 3.78003 538.971 3.78003Z" fill="white" fill-opacity="0.4"/>
<path d="M923.531 0.488572C924.733 8.78024 926.069 17.1938 927.271 25.6074C931.545 55.6038 935.82 85.4782 940.094 115.474C942.231 130.838 944.235 146.324 946.906 161.688C948.643 171.687 949.845 181.93 956.791 190.587C958.394 192.538 958.394 195.952 954.52 195.952C944.235 196.318 933.95 196.074 923.397 196.074C929.007 178.881 923.798 162.298 922.462 145.715C920.058 116.084 916.585 86.4537 913.646 56.8231C913.513 55.238 913.112 53.7747 911.776 52.1896C908.704 64.0174 905.498 75.8452 902.426 87.673C895.881 112.914 889.202 138.033 882.924 163.395C880.787 172.297 879.318 181.442 882.924 190.465C884.527 194.489 882.791 196.074 878.249 196.196C870.235 196.196 862.22 196.196 853.671 196.196C856.209 191.563 859.148 187.417 860.751 182.905C864.625 172.541 867.964 161.932 871.17 151.446C886.397 102.183 901.491 52.7992 916.585 3.53698C917.654 -0.121109 919.791 -0.608854 923.531 0.488572Z" fill="white" fill-opacity="0.4"/>
<path d="M22.574 196.196C34.1949 180.832 39.9386 164.37 44.3466 147.665C43.8123 147.177 43.5451 146.811 43.278 146.811C34.9964 145.714 35.13 145.714 33.6606 137.666C27.6498 106.45 21.9061 75.2348 15.4946 44.0191C12.9567 31.8255 9.75089 19.5099 0.935007 9.3892C-0.935029 7.19435 0.267137 3.78013 2.80504 3.6582C13.3574 3.53626 23.9097 3.6582 34.4621 3.6582C31.2563 21.7048 37 38.6539 39.2707 55.8469C42.2094 77.9174 46.083 99.8659 49.5559 121.936C49.8231 123.4 50.0902 124.863 51.5596 126.326C53.1624 119.132 54.8989 112.06 56.5018 104.865C61.7112 81.5755 67.0541 58.2857 71.9964 34.9958C73.7328 26.5822 74.8014 18.0467 71.7292 9.63308C71.1949 8.0479 71.5956 6.09692 71.5956 4.02401C81.4801 4.02401 90.9639 4.02401 99.5126 4.02401C84.8195 37.8004 77.7401 73.6496 67.9892 108.767C62.1119 129.984 57.5704 151.567 52.6281 173.028C51.1588 179.612 50.491 186.075 57.0361 191.196C57.8375 191.806 57.8375 193.879 57.3032 194.854C57.0361 195.586 55.166 196.196 54.0975 196.196C44.0794 196.196 33.9278 196.196 22.574 196.196Z" fill="white" fill-opacity="0.4"/>
<path d="M165.899 15.4858C155.747 16.7052 146.664 17.1929 137.715 18.9C128.097 20.6071 118.614 23.4117 108.996 25.4846C107.126 25.8504 104.588 25.7285 103.119 24.8749C102.318 24.3872 102.718 21.5826 103.253 20.1194C104.989 15.4858 107.126 10.9742 109.397 6.58446C110.065 5.3651 111.801 3.77993 113.137 3.77993C136.646 3.65799 160.022 3.65799 183.531 3.77993C183.931 3.77993 184.466 4.0238 185.801 4.51155C184.466 6.7064 183.264 8.77931 182.061 10.8522C175.383 21.9484 168.704 32.9227 162.025 44.1408C156.949 52.7983 157.884 60.6022 164.83 68.65C182.195 88.6476 186.603 111.694 181.26 136.447C177.787 152.542 172.578 168.15 162.693 182.051C159.087 187.172 154.011 191.684 148.935 195.83C144.26 199.732 138.516 199.61 133.173 196.195C124.892 191.074 120.217 183.636 115.942 175.71C107.794 160.59 103.653 144.494 101.783 127.911C101.516 124.863 101.917 123.034 105.791 122.546C110.199 121.936 114.473 120.717 119.682 119.497C119.682 122.424 119.682 124.497 119.682 126.57C119.816 141.934 122.087 156.932 126.895 171.686C128.097 175.588 129.968 179.49 132.238 183.026C135.711 188.513 141.989 188.879 144.794 183.27C149.336 174.247 153.477 164.736 156.148 155.103C160.556 139.251 161.625 123.156 157.083 107.06C153.076 92.7934 146.397 79.7462 134.91 69.1378C132.372 66.821 132.238 65.3577 134.108 62.6751C143.993 48.4086 153.744 34.0201 163.495 19.6316C164.296 18.6562 164.83 17.5587 165.899 15.4858Z" fill="white" fill-opacity="0.4"/>
<path d="M1280.44 20.9732C1267.48 15.8519 1254.39 13.7789 1240.5 13.9009C1240.5 34.3862 1240.5 54.3837 1240.5 75.6006C1248.92 74.3813 1257.06 73.2839 1265.21 72.0645C1268.55 71.5767 1271.62 70.3574 1274.83 69.6258C1278.3 68.8941 1280.17 70.6013 1278.97 73.5277C1277.64 76.82 1276.3 80.1123 1274.3 83.1607C1273.49 84.3801 1271.22 85.3556 1269.62 85.4775C1261.47 85.7214 1253.19 85.7214 1245.04 85.4775C1241.44 85.3556 1240.1 86.2091 1240.1 89.7453C1240.23 120.229 1240.23 150.713 1240.1 181.319C1240.1 184.977 1241.7 185.709 1245.18 185.465C1261.07 184.612 1276.43 182.051 1289.92 173.881C1290.86 173.272 1293 173.15 1293.93 173.759C1294.73 174.247 1295.4 176.198 1295 177.052C1292.86 182.783 1290.32 188.514 1287.79 194.123C1287.39 195.098 1285.65 196.074 1284.45 196.074C1261.47 196.196 1238.5 196.074 1215.66 196.074C1215.39 196.074 1215.12 195.83 1214.45 195.586C1221 176.93 1218.6 157.664 1218.73 138.52C1219 103.402 1219 68.2845 1218.46 33.2888C1218.33 25.6068 1215.66 17.8028 1213.52 10.2428C1212.18 5.60922 1213.12 3.78018 1218.6 3.65824C1234.36 3.5363 1250.12 3.5363 1265.75 3.17049C1271.22 3.04856 1276.7 2.31694 1282.31 2.07307C1287.12 1.82919 1288.45 3.5363 1286.58 7.5602C1284.71 11.9499 1282.58 16.4615 1280.44 20.9732Z" fill="white" fill-opacity="0.4"/>
<path d="M439.191 16.4613C427.303 17.8026 416.35 19.5097 406.733 25.2407C403.393 27.1917 403.393 27.1917 399.921 24.5091C403.794 18.4123 407.401 12.0716 411.809 6.09672C412.877 4.63348 416.083 3.90187 418.22 3.90187C437.588 3.65799 457.09 3.77993 476.592 3.53606C482.603 3.53606 488.614 2.92638 494.625 2.43863C499.433 2.07282 500.769 3.77993 498.765 7.80383C496.895 11.7058 494.758 15.4858 492.888 19.5097C491.686 22.0704 490.217 22.1923 487.412 21.2168C480.466 19.022 473.52 17.1929 466.44 15.4858C461.899 14.3884 460.43 15.9736 460.43 20.3633C460.563 58.7732 460.43 97.305 460.563 135.715C460.563 147.665 460.43 159.493 461.498 171.442C462.032 177.661 464.437 183.88 466.44 189.855C467.776 193.879 466.708 196.195 462.3 196.195C453.35 196.195 444.267 196.195 434.917 196.195C441.863 173.027 438.924 149.981 439.191 127.057C439.592 91.9398 439.325 56.8222 439.325 21.7046C439.191 20.1194 439.191 18.6562 439.191 16.4613Z" fill="white" fill-opacity="0.4"/>
<path d="M846.726 45.8479C842.719 32.5568 837.242 19.7535 826.289 9.6328C814 -1.70728 797.971 -2.07309 785.014 8.53537C774.863 16.949 768.585 27.6794 764.311 39.3852C750.419 77.0636 750.953 115.23 761.372 153.396C765.112 167.174 770.989 180.1 782.343 190.22C795.033 201.682 811.329 201.804 824.419 190.586C831.765 184.246 836.708 176.564 840.715 168.272C850.599 147.787 853.672 126.082 854.473 102.182C854.473 84.3797 852.603 64.8699 846.726 45.8479ZM829.094 135.105C827.625 147.665 823.885 160.102 820.812 172.54C819.877 175.954 817.607 179.246 815.336 182.173C809.592 189.611 801.177 189.977 794.765 183.026C788.487 176.198 785.949 167.784 783.812 159.249C778.603 138.641 778.069 117.546 777.801 91.9398C777.534 75.2345 778.603 54.0176 784.881 33.5323C786.884 27.0697 790.09 20.6071 794.365 15.1199C800.108 7.80375 809.058 8.65731 814.668 16.2174C821.213 24.9968 824.152 34.9955 826.022 45.2382C831.365 75.1126 832.433 105.109 829.094 135.105Z" fill="white" fill-opacity="0.4"/>
<path d="M410.206 189.245C408.603 185.343 405.664 181.685 404.863 177.539C402.191 165.712 400.188 153.884 398.184 141.934C393.776 115.718 389.502 89.5014 385.227 63.2851C381.888 43.2875 378.682 23.168 375.343 3.17048C375.076 1.95111 373.206 0.12207 372.271 0.12207C370.801 0.244007 369.332 1.70724 368.13 2.80467C367.596 3.29241 367.596 4.2679 367.329 4.99952C358.913 32.4352 350.899 59.9928 342.083 87.3065C330.329 123.522 322.047 160.834 305.751 196.196C313.097 196.196 320.845 196.196 328.592 196.196C334.202 196.196 334.87 194.854 334.069 189.855C333.134 184.124 331.931 178.027 332.866 172.296C334.603 160.956 337.675 149.86 340.079 138.642C340.614 135.959 342.217 135.349 345.022 135.349C351.7 135.471 358.379 135.349 365.058 135.349C374.542 135.349 374.542 135.349 375.744 144.129C375.877 145.47 376.278 146.811 376.412 148.153C377.347 164.004 383.491 179.612 377.614 196.074C387.365 196.074 396.848 196.196 406.332 196.074C407.935 196.074 410.74 195.464 411.007 194.732C411.542 193.147 411.007 190.952 410.206 189.245ZM344.087 124.863C350.498 100.11 356.643 76.3322 362.921 52.5547C363.455 52.5547 363.989 52.5547 364.39 52.5547C367.329 76.0884 370.267 99.5001 373.206 123.644C363.588 124.009 354.372 124.375 344.087 124.863Z" fill="white" fill-opacity="0.4"/>
</g>
<defs>
<clipPath id="clip0">
<rect width="1295" height="199" fill="white"/>
</clipPath>
</defs>
</svg>
