
<svg width="130px" height="15px" viewBox="0 0 130 15" version="1.1" xmlns="http://www.w3.org/2000/svg" xmlns:xlink="http://www.w3.org/1999/xlink">
    <defs>
        <filter x="-3.1%" y="-28.6%" width="106.2%" height="157.1%" filterUnits="objectBoundingBox" id="filter-1">
            <feOffset dx="1" dy="1" in="SourceAlpha" result="shadowOffsetOuter1"></feOffset>
            <feGaussianBlur stdDeviation="0.5" in="shadowOffsetOuter1" result="shadowBlurOuter1"></feGaussianBlur>
            <feColorMatrix values="0 0 0 0 0   0 0 0 0 0   0 0 0 0 0  0 0 0 0.5 0" type="matrix" in="shadowBlurOuter1" result="shadowMatrixOuter1"></feColorMatrix>
            <feMerge>
                <feMergeNode in="shadowMatrixOuter1"></feMergeNode>
                <feMergeNode in="SourceGraphic"></feMergeNode>
            </feMerge>
        </filter>
    </defs>
    <g id="Page-1" stroke="none" stroke-width="1" fill="none" fill-rule="evenodd">
        <g id="lg" filter="url(#filter-1)" transform="translate(0.000000, -1.000000)" fill="#FFFFFF" fill-rule="nonzero">
            <path d="M2.86,11.12 L8.76,11.12 L8.76,13.53 L0,13.53 L0,1.19 L2.86,1.19 L2.86,11.12 Z M15,8.82 L17.32,8.82 L17.32,11 C16.6596666,11.2228068 15.9668962,11.3343259 15.27,11.33 C12.7,11.33 11.84,10.02 11.84,7.38 C11.84,4.74 12.66,3.38 15.22,3.38 C16.3519287,3.28353126 17.454247,3.77428943 18.14,4.68 L19.94,3 C18.7830576,1.59706578 17.0122377,0.849884384 15.2,1 C11.2,1 9.11,3.18 9.11,7.34 C9.11,11.5 11,13.71 15.18,13.71 C16.8600082,13.7599446 18.5211431,13.3446609 19.98,12.51 L19.98,6.51 L15,6.51 L15,8.82 Z M38.75,9.31 C38.7883594,8.52678281 38.4738905,7.76756006 37.8929616,7.2408512 C37.3120327,6.71414233 36.5257262,6.47532866 35.75,6.59 L30.35,6.59 C30.0347637,6.63270158 29.7170156,6.53156771 29.4844557,6.3145118 C29.2518957,6.09745589 29.1291145,5.787429 29.15,5.47 L29.15,4.14 C29.15,4.14 29.15,4.14 29.15,4.14 C29.15,3.57 29.64,3.14 30.42,3.14 L38,3.14 L38,1.54 L30.57,1.54 C29.2326028,1.39102992 27.9984922,2.27561967 27.71,3.59 C27.648745,3.84882678 27.6185322,4.11402759 27.62,4.38 L27.62,5.38 C27.5841859,6.15322183 27.8921143,6.90270666 28.4611853,7.42740936 C29.0302562,7.95211206 29.8022194,8.19832393 30.57,8.1 L36,8.1 C36.3152363,8.05729842 36.6329844,8.15843229 36.8655443,8.3754882 C37.0981043,8.59254411 37.2208855,8.902571 37.2,9.22 L37.2,10.61 C37.1675657,10.9124946 37.0145287,11.1891323 36.7755043,11.3773405 C36.5364799,11.5655487 36.231663,11.6494259 35.93,11.61 L27.93,11.61 L27.93,13.14 L35.85,13.14 C37.1720372,13.3017186 38.4024948,12.4382396 38.7,11.14 C38.761255,10.8811732 38.7914678,10.6159724 38.790051,10.35 L38.790051,9.35 L38.75,9.31 Z M41,13.18 L42.6,13.18 L42.6,1.53 L41,1.53 L41,13.18 Z M50.34,8.18 L54.48,8.18 L54.48,9.92 C54.48,11.13 53.84,11.63 52.63,11.63 L48.4,11.63 C47.9182684,11.6892994 47.4348627,11.533488 47.0784346,11.2040328 C46.7220064,10.8745776 46.5287142,10.4049007 46.55,9.92 L46.55,4.78 C46.5179011,4.28624743 46.7050928,3.80345285 47.0616462,3.4603907 C47.4181995,3.11732855 47.907852,2.94888919 48.4,3 L55.49,3 L55.49,1.54 L48.49,1.54 C46.14,1.54 44.9,2.87 44.9,5 L44.9,9.71 C44.82167,10.6684317 45.1771508,11.6114965 45.8686464,12.2797485 C46.560142,12.9480006 47.5148054,13.2710416 48.47,13.16 L52.57,13.16 C54.9,13.16 56.14,11.93 56.14,9.71 L56.14,6.66 L50.35,6.66 L50.34,8.18 Z M83.08,13.18 L81.26,13.18 L79.92,10.35 L73.13,10.35 L71.79,13.18 L70,13.18 L75.58,1.54 L77.49,1.54 L83.08,13.18 Z M79.2,8.82 L76.53,3.18 L73.86,8.82 L79.2,8.82 Z M67.28,11.19 L60,1.54 L58,1.54 L58,13.18 L59.58,13.18 L59.58,3.53 L66.84,13.17 L68.92,13.17 L68.92,1.53 L67.28,1.53 L67.28,11.19 Z M80.93,1.54 L80.93,3 L85.29,3 L85.29,13.14 L87,13.14 L87,3 L91.36,3 L91.36,1.54 L80.93,1.54 Z M101.57,9.61 C101.635161,10.1578299 101.445496,10.7052866 101.055391,11.0953914 C100.665287,11.4854962 100.11783,11.6751607 99.57,11.61 L96.37,11.61 C95.8221701,11.6751607 95.2747134,11.4854962 94.8846086,11.0953914 C94.4945038,10.7052866 94.3048393,10.1578299 94.37,9.61 L94.37,1.53 L92.66,1.53 L92.66,9.44 C92.66,11.86 93.85,13.16 96.38,13.16 L99.46,13.16 C101.99,13.16 103.26,11.86 103.26,9.44 L103.26,1.53 L101.57,1.53 L101.57,9.61 Z M115.94,13.18 L114.28,13.18 C114.302633,10.9368652 112.522448,9.08992412 110.28,9.03 L106.77,9.03 L106.77,13.15 L105.12,13.15 L105.12,1.54 L112.82,1.54 C114.82,1.54 115.97,2.54 115.97,4.54 L115.97,6.04 C116.110112,7.36099044 115.257794,8.58406586 113.97,8.91 C115.254235,9.95009809 115.982188,11.5279454 115.94,13.18 L115.94,13.18 Z M114.29,6.18 L114.29,4.4 C114.29,3.5 113.65,3.04 112.75,3.04 L106.75,3.04 L106.75,7.54 L112.82,7.54 C113.203848,7.59122539 113.590549,7.46865775 113.874806,7.2056722 C114.159062,6.94268665 114.311276,6.56666581 114.29,6.18 L114.29,6.18 Z M127.56,3 L127.56,1.54 L117.66,1.54 L117.66,13.17 L127.56,13.17 L127.56,11.67 L119.31,11.67 L119.31,8.09 L127.39,8.09 L127.39,6.59 L119.31,6.59 L119.31,3 L127.56,3 Z" id="Shape"></path>
        </g>
    </g>
</svg>
