<svg xmlns="http://www.w3.org/2000/svg" viewBox="0 0 127.56 12.71"><defs><style>.cls-1{fill:#fff;}</style></defs><g id="Layer_2" data-name="Layer 2"><g id="Layer_1-2" data-name="Layer 1"><path class="cls-1" d="M2.86,10.12h5.9v2.41H0V.19H2.86ZM15,7.82h2.32V10a6.29,6.29,0,0,1-2.05.33c-2.57,0-3.43-1.31-3.43-3.95s.82-4,3.38-4a3.31,3.31,0,0,1,2.92,1.3L19.94,2A5.55,5.55,0,0,0,15.2,0c-4,0-6.09,2.18-6.09,6.34s1.89,6.37,6.07,6.37a9.12,9.12,0,0,0,4.8-1.2v-6H15Zm23.75.49a2.62,2.62,0,0,0-3-2.72h-5.4a1.06,1.06,0,0,1-1.2-1.12V3.14s0,0,0,0c0-.57.49-1,1.27-1H38V.54H30.57a2.63,2.63,0,0,0-2.86,2.05,3.35,3.35,0,0,0-.09.79v1a2.62,2.62,0,0,0,2.95,2.72H36a1.06,1.06,0,0,1,1.2,1.12V9.61a1.13,1.13,0,0,1-1.27,1h-8v1.53h7.92a2.6,2.6,0,0,0,2.85-2,3.35,3.35,0,0,0,.09-.79v-1ZM41,12.18H42.6V.53H41Zm9.34-5h4.14V8.92c0,1.21-.64,1.71-1.85,1.71H48.4a1.65,1.65,0,0,1-1.85-1.71V3.78A1.68,1.68,0,0,1,48.4,2h7.09V.54h-7C46.14.54,44.9,1.87,44.9,4V8.71a3.21,3.21,0,0,0,3.57,3.45h4.1c2.33,0,3.57-1.23,3.57-3.45V5.66H50.35Zm32.74,5H81.26L79.92,9.35H73.13l-1.34,2.83H70L75.58.54h1.91ZM79.2,7.82,76.53,2.18,73.86,7.82ZM67.28,10.19,60,.54H58V12.18h1.58V2.53l7.26,9.64h2.08V.53H67.28ZM80.93.54V2h4.36V12.14H87V2h4.36V.54Zm20.64,8.07a1.8,1.8,0,0,1-2,2h-3.2a1.8,1.8,0,0,1-2-2V.53H92.66V8.44c0,2.42,1.19,3.72,3.72,3.72h3.08c2.53,0,3.8-1.3,3.8-3.72V.53h-1.69Zm14.37,3.57h-1.66a4.11,4.11,0,0,0-4-4.15h-3.51v4.12h-1.65V.54h7.7c2,0,3.15,1,3.15,3v1.5a2.67,2.67,0,0,1-2,2.87A5.32,5.32,0,0,1,115.94,12.18Zm-1.65-7V3.4c0-.9-.64-1.36-1.54-1.36h-6v4.5h6.07A1.3,1.3,0,0,0,114.29,5.18ZM127.56,2V.54h-9.9V12.17h9.9v-1.5h-8.25V7.09h8.08V5.59h-8.08V2Z"/></g></g></svg>