<svg width="157" height="147" viewBox="0 0 157 147" fill="none" xmlns="http://www.w3.org/2000/svg">
<path opacity="0.3" d="M100.508 146C131.156 146 156 122.513 156 93.5414C156 64.5694 131.156 41.083 100.508 41.083C69.861 41.083 45.0165 64.5694 45.0165 93.5414C45.0165 122.513 69.861 146 100.508 146Z" fill="white" stroke="white" stroke-width="2" stroke-miterlimit="10"/>
<path d="M113.019 107.528C111.188 109.255 108.936 110.529 106.461 111.237C103.986 111.946 101.364 112.067 98.828 111.59C96.2916 111.113 93.9186 110.053 91.9186 108.503C89.9185 106.954 88.3531 104.962 87.3605 102.705L85.1104 103.588C86.4128 106.541 88.5593 109.093 91.3095 110.958C94.0597 112.822 97.3049 113.926 100.681 114.145V121.94H95.8349V124.244H108.006V121.94H103.16V114.145C106.535 113.925 109.779 112.821 112.528 110.956C115.277 109.091 117.422 106.54 118.724 103.588L116.474 102.705C115.667 104.511 114.494 106.15 113.019 107.528Z" fill="white"/>
<path d="M112.534 97.0168V81.8847C112.534 79.2184 111.414 76.6614 109.42 74.776C107.425 72.8907 104.72 71.8315 101.9 71.8315C99.0794 71.8315 96.3745 72.8907 94.3801 74.776C92.3858 76.6614 91.2654 79.2184 91.2654 81.8847V97.0168C91.2654 99.6831 92.3858 102.24 94.3801 104.125C96.3745 106.011 99.0794 107.07 101.9 107.07C104.72 107.07 107.425 106.011 109.42 104.125C111.414 102.24 112.534 99.6831 112.534 97.0168ZM93.7024 97.0168H98.8535V94.713H93.7024V90.5961H98.8535V88.2923H93.7024V84.1755H98.8535V81.8651H93.7024C93.7024 79.8098 94.5661 77.8388 96.1034 76.3855C97.6407 74.9322 99.7258 74.1158 101.9 74.1158C104.074 74.1158 106.159 74.9322 107.696 76.3855C109.234 77.8388 110.097 79.8098 110.097 81.8651H104.946V84.1755H110.083V88.2923H104.932V90.5961H110.083V94.713H104.932V97.0168H110.083C110.083 99.0721 109.22 101.043 107.682 102.496C106.145 103.95 104.06 104.766 101.886 104.766C99.7119 104.766 97.6269 103.95 96.0896 102.496C94.5522 101.043 93.6886 99.0721 93.6886 97.0168H93.7024Z" fill="white"/>
<path d="M124.775 72.6499L123.051 74.2796C124.267 75.4267 125.231 76.7892 125.889 78.2891C126.547 79.789 126.886 81.3968 126.886 83.0205C126.886 84.6442 126.547 86.252 125.889 87.7519C125.231 89.2518 124.267 90.6143 123.051 91.7614L124.775 93.3911C126.217 92.03 127.361 90.4135 128.142 88.634C128.923 86.8545 129.324 84.9469 129.324 83.0205C129.324 81.0941 128.923 79.1865 128.142 77.407C127.361 75.6275 126.217 74.011 124.775 72.6499Z" fill="white"/>
<path d="M127.094 70.4705C128.841 72.1181 130.227 74.0753 131.173 76.2299C132.119 78.3846 132.605 80.6944 132.605 83.0272C132.605 85.3599 132.119 87.6698 131.173 89.8244C130.227 91.9791 128.841 93.9362 127.094 95.5838L128.818 97.2135C130.792 95.352 132.357 93.1408 133.426 90.7065C134.494 88.2722 135.044 85.6626 135.044 83.0272C135.044 80.3917 134.494 77.7822 133.426 75.3479C132.357 72.9136 130.792 70.7024 128.818 68.8408L127.094 70.4705Z" fill="white"/>
<path d="M120.732 76.4789L119.008 78.1086C120.384 79.4108 121.158 81.1764 121.158 83.0174C121.158 84.8584 120.384 86.624 119.008 87.9262L120.732 89.5559C121.641 88.6965 122.363 87.6761 122.855 86.5531C123.347 85.4301 123.6 84.2264 123.6 83.0109C123.6 81.7953 123.347 80.5916 122.855 79.4686C122.363 78.3456 121.641 77.3252 120.732 76.4658V76.4789Z" fill="white"/>
<path d="M80.7417 74.2862L79.0177 72.6499C77.5747 74.0106 76.4299 75.6269 75.6488 77.4065C74.8677 79.1861 74.4656 81.0938 74.4656 83.0205C74.4656 84.9472 74.8677 86.8549 75.6488 88.6345C76.4299 90.4141 77.5747 92.0305 79.0177 93.3911L80.7347 91.7614C79.5191 90.6143 78.5547 89.2518 77.8967 87.7519C77.2387 86.252 76.9 84.6442 76.9 83.0205C76.9 81.3968 77.2387 79.789 77.8967 78.2891C78.5547 76.7892 79.5191 75.4267 80.7347 74.2796L80.7417 74.2862Z" fill="white"/>
<path d="M76.7053 70.4705L74.9813 68.8408C73.0063 70.7015 71.4391 72.9124 70.3698 75.3468C69.3005 77.7812 68.7501 80.3912 68.7501 83.0272C68.7501 85.6631 69.3005 88.2731 70.3698 90.7075C71.4391 93.1419 73.0063 95.3529 74.9813 97.2135L76.7053 95.5838C74.9567 93.9371 73.5693 91.9802 72.6226 89.8255C71.6759 87.6707 71.1885 85.3604 71.1885 83.0272C71.1885 80.6939 71.6759 78.3837 72.6226 76.2289C73.5693 74.0741 74.9567 72.1172 76.7053 70.4705Z" fill="white"/>
<path d="M83.0819 76.4785C82.1725 77.3379 81.4511 78.3583 80.9589 79.4813C80.4668 80.6043 80.2134 81.808 80.2134 83.0235C80.2134 84.2391 80.4668 85.4428 80.9589 86.5658C81.4511 87.6888 82.1725 88.7092 83.0819 89.5686L84.8058 87.9389C83.4292 86.6367 82.6559 84.8711 82.6559 83.0301C82.6559 81.1891 83.4292 79.4235 84.8058 78.1213L83.0819 76.4785Z" fill="white"/>
<path d="M19.4204 63.5454L15.8063 75.9221L0 71.7856L0.429256 70.2999L14.9201 74.0829L18.098 63.2051L19.4204 63.5454Z" fill="white"/>
<path d="M21.0059 60.5482L20.4243 61.9096L5.19263 56.0911L5.78112 54.7231L21.0059 60.5482Z" fill="white"/>
<path d="M18.0703 56.2286L18.3611 54.5138C18.7004 54.5662 18.9842 54.5989 19.2058 54.6185C19.5898 54.6232 19.9732 54.5859 20.3481 54.5073C20.8747 54.4154 21.3792 54.2336 21.8367 53.9706C22.4248 53.6008 22.9601 53.1609 23.4291 52.6616C24.0999 51.9735 24.6831 51.2134 25.1669 50.397C25.6999 49.5357 26.1031 48.6083 26.3647 47.6415C26.604 46.8105 26.6278 45.9371 26.4339 45.0955C26.3578 44.7303 26.1989 44.3851 25.9683 44.0834C25.7376 43.7817 25.4406 43.5309 25.0977 43.348C24.8457 43.1992 24.5619 43.1053 24.2668 43.0731C24.0168 43.0368 23.7623 43.0368 23.5122 43.0731C23.2315 43.1345 22.9675 43.2504 22.7367 43.4135C22.4529 43.6033 22.2175 43.78 22.0444 43.924C21.7751 44.1561 21.523 44.4054 21.2897 44.6701C20.9713 45.0104 20.7359 45.2853 20.5974 45.4882L19.7596 46.47L17.558 49.1731C16.9582 49.9735 16.232 50.682 15.4048 51.274C14.8902 51.6423 14.2701 51.8556 13.6255 51.8859C12.9809 51.9163 12.3415 51.7623 11.7907 51.4442C11.1955 51.1111 10.7012 50.6386 10.3556 50.0722C10.0099 49.5058 9.82462 48.8648 9.81752 48.211C9.70213 46.6969 10.2352 44.9646 11.4168 43.0142C11.6448 42.6238 11.8991 42.2478 12.1784 41.8885C12.4623 41.535 12.8708 41.0703 13.4247 40.5009C14.6493 39.2689 16.275 38.4602 18.0426 38.2036L18.0011 39.8071C15.8825 40.0122 14.0824 41.3321 12.6008 43.7669C11.8824 44.895 11.44 46.1607 11.3061 47.4714C11.2183 47.9698 11.2932 48.4816 11.5208 48.9388C11.7484 49.3959 12.1178 49.7767 12.58 50.0305C12.922 50.2057 13.3121 50.2789 13.699 50.2403C14.0858 50.2018 14.4512 50.0533 14.747 49.8145C15.5382 49.173 16.2366 48.4358 16.8241 47.6219C17.0733 47.3339 17.4126 46.9216 17.8488 46.3784C18.2849 45.8351 18.5965 45.4555 18.7904 45.2199L19.5727 44.3036C19.905 43.924 20.1612 43.6491 20.3481 43.4462L20.9782 42.8244C21.1935 42.6284 21.425 42.4489 21.6705 42.2877C22.2708 41.8419 22.9895 41.5611 23.7476 41.4761C24.4936 41.4036 25.2444 41.5621 25.8869 41.9277C26.6465 42.3326 27.2521 42.9531 27.6178 43.7014C28.6009 45.7042 28.1394 48.2721 26.2331 51.4049C26.0206 51.7581 25.7895 52.1011 25.5408 52.4325C25.2707 52.799 24.8484 53.2441 24.3984 53.7415C23.8843 54.2838 23.3005 54.7631 22.6606 55.1683C22.0295 55.5747 21.3258 55.8696 20.5835 56.0388C19.7581 56.2053 18.9132 56.2691 18.0703 56.2286Z" fill="white"/>
<path d="M28.9886 23.5621L24.4191 28.6279L35.8636 37.8761L34.8528 38.9953L23.4083 29.7602L18.6242 35.0551L17.5995 34.2239L27.9847 22.7505L28.9886 23.5621Z" fill="white"/>
<path d="M54.1832 22.397L41.3471 32.0116L31.1557 19.864L43.4657 10.6421L44.3103 11.6369L33.2327 19.9164L36.833 24.2165L47.0797 16.5326L47.9452 17.5667L37.6984 25.2179L41.7556 30.0546L53.3109 21.3825L54.1832 22.397Z" fill="white"/>
<path d="M72.1774 14.0195L70.855 14.6151L52.0369 8.07002L58.1573 20.2896L56.8349 20.8786L49.8491 6.85265L51.1715 6.25705L70.0172 12.8872L63.8553 0.589053L65.1777 0L72.1774 14.0195Z" fill="white"/>
</svg>
