<svg width="173" height="155" viewBox="0 0 173 155" fill="none" xmlns="http://www.w3.org/2000/svg">
<g clip-path="url(#clip0)">
<path opacity="0.3" d="M111.879 154.245C145.219 154.245 172.247 127.153 172.247 93.7324C172.247 60.3122 145.219 33.2197 111.879 33.2197C78.5383 33.2197 51.5106 60.3122 51.5106 93.7324C51.5106 127.153 78.5383 154.245 111.879 154.245Z" fill="white" stroke="white" stroke-width="2" stroke-miterlimit="10"/>
<path d="M125.489 109.859C123.497 111.851 121.047 113.32 118.354 114.138C115.662 114.955 112.81 115.094 110.051 114.544C107.292 113.994 104.71 112.772 102.534 110.984C100.358 109.196 98.6554 106.899 97.5756 104.295L95.1278 105.314C96.5427 108.723 98.8773 111.668 101.869 113.821C104.861 115.973 108.393 117.247 112.067 117.5V126.484H106.795V129.142H120.051V126.484H114.778V117.5C118.453 117.25 121.984 115.977 124.976 113.824C127.967 111.671 130.299 108.724 131.71 105.314L129.262 104.295C128.38 106.38 127.098 108.27 125.489 109.859Z" fill="white"/>
<path d="M124.962 97.7342V80.2788C124.962 77.2032 123.743 74.2535 121.573 72.0787C119.404 69.9039 116.461 68.6821 113.393 68.6821C110.324 68.6821 107.382 69.9039 105.212 72.0787C103.043 74.2535 101.824 77.2032 101.824 80.2788V97.7342C101.824 100.81 103.043 103.76 105.212 105.934C107.382 108.109 110.324 109.331 113.393 109.331C116.461 109.331 119.404 108.109 121.573 105.934C123.743 103.76 124.962 100.81 124.962 97.7342ZM104.475 97.7342H110.079V95.0767H104.475V90.3278H110.079V87.6702H104.475V82.9213H110.079V80.2637H104.475C104.475 77.8929 105.414 75.6192 107.087 73.9428C108.759 72.2664 111.027 71.3246 113.393 71.3246C115.758 71.3246 118.026 72.2664 119.698 73.9428C121.371 75.6192 122.31 77.8929 122.31 80.2637H116.744V82.9213H122.348V87.6702H116.744V90.3278H122.348V95.0767H116.744V97.7342H122.348C122.348 100.105 121.408 102.379 119.736 104.055C118.064 105.732 115.795 106.673 113.43 106.673C111.065 106.673 108.797 105.732 107.124 104.055C105.452 102.379 104.513 100.105 104.513 97.7342H104.475Z" fill="white"/>
<path d="M138.278 69.6406L136.403 71.5206C137.725 72.8432 138.774 74.4142 139.489 76.1437C140.205 77.8732 140.574 79.7273 140.574 81.5997C140.574 83.4721 140.205 85.3262 139.489 87.0557C138.774 88.7852 137.725 90.3562 136.403 91.6789L138.278 93.5588C139.847 91.9894 141.091 90.1253 141.94 88.0732C142.789 86.0211 143.226 83.8213 143.226 81.5997C143.226 79.3781 142.789 77.1783 141.94 75.1262C141.091 73.0741 139.847 71.21 138.278 69.6406Z" fill="white"/>
<path d="M140.801 67.1114C142.702 69.0126 144.21 71.2708 145.239 73.7569C146.267 76.243 146.797 78.9082 146.797 81.5997C146.797 84.2912 146.267 86.9563 145.239 89.4424C144.21 91.9285 142.702 94.1868 140.801 96.088L142.677 97.9679C144.823 95.8194 146.525 93.2679 147.687 90.4593C148.849 87.6507 149.447 84.6401 149.447 81.5997C149.447 78.5593 148.849 75.5487 147.687 72.74C146.525 69.9314 144.823 67.3799 142.677 65.2314L140.801 67.1114Z" fill="white"/>
<path d="M133.879 74.05L132.004 75.9224C133.501 77.4245 134.343 79.4612 134.343 81.5848C134.343 83.7084 133.501 85.7452 132.004 87.2473L133.879 89.1272C134.87 88.1368 135.657 86.9602 136.193 85.6646C136.73 84.369 137.006 82.98 137.006 81.5773C137.006 80.1745 136.73 78.7855 136.193 77.4899C135.657 76.1944 134.87 75.0177 133.879 74.0273V74.05Z" fill="white"/>
<path d="M90.3827 71.5206L88.5148 69.6406C86.9443 71.209 85.6983 73.0728 84.848 75.125C83.9978 77.1773 83.5601 79.3776 83.5601 81.5997C83.5601 83.8219 83.9978 86.0222 84.848 88.0744C85.6983 90.1266 86.9443 91.9904 88.5148 93.5588L90.3827 91.6789C89.0605 90.3562 88.0115 88.7852 87.2957 87.0557C86.58 85.3262 86.2116 83.4721 86.2116 81.5997C86.2116 79.7273 86.58 77.8732 87.2957 76.1437C88.0115 74.4142 89.0605 72.8432 90.3827 71.5206Z" fill="white"/>
<path d="M85.9841 67.1114L84.1086 65.2314C81.9597 67.3784 80.2548 69.9294 79.0914 72.7382C77.928 75.5471 77.3292 78.5584 77.3292 81.5997C77.3292 84.641 77.928 87.6523 79.0914 90.4611C80.2548 93.2699 81.9597 95.8209 84.1086 97.9679L85.9841 96.088C84.0816 94.1878 82.5721 91.9299 81.5421 89.4436C80.5121 86.9574 79.9819 84.2918 79.9819 81.5997C79.9819 78.9076 80.5121 76.242 81.5421 73.7557C82.5721 71.2695 84.0816 69.0115 85.9841 67.1114Z" fill="white"/>
<path d="M92.8983 74.0498C91.9073 75.0402 91.1209 76.2168 90.5844 77.5124C90.0478 78.808 89.7716 80.197 89.7716 81.5997C89.7716 83.0025 90.0478 84.3915 90.5844 85.687C91.1209 86.9826 91.9073 88.1593 92.8983 89.1497L94.7738 87.2697C93.2799 85.7657 92.4412 83.7297 92.4412 81.6073C92.4412 79.4849 93.2799 77.4489 94.7738 75.9448L92.8983 74.0498Z" fill="white"/>
<path d="M5.63386 110.048L6.81637 111.309C6.22855 111.858 5.72139 112.489 5.30999 113.181C4.97223 113.764 4.71864 114.392 4.5568 115.046C4.3194 116.119 4.26339 117.224 4.3911 118.315C4.45136 118.677 4.52668 119.07 4.61706 119.402C4.85666 120.499 5.31946 121.535 5.97653 122.444C6.63359 123.353 7.47078 124.117 8.43573 124.687C9.31917 125.197 10.296 125.523 11.3079 125.646C12.3198 125.77 13.3462 125.687 14.3257 125.404C15.3144 125.179 16.2461 124.751 17.0625 124.149C17.879 123.546 18.5626 122.781 19.0708 121.901C19.6245 120.94 19.9768 119.876 20.1063 118.774C20.2358 117.672 20.1397 116.555 19.8239 115.491C19.4909 113.956 18.736 112.545 17.6445 111.418C16.553 110.29 15.1686 109.491 13.6478 109.112L13.9792 107.436C15.3745 107.803 16.6778 108.459 17.8054 109.361C19.5954 110.868 20.8461 112.92 21.368 115.204C21.9912 117.342 21.9094 119.625 21.1345 121.712C20.5913 123.086 19.7196 124.304 18.5963 125.261C17.4621 126.229 16.1185 126.919 14.6721 127.277C12.6144 127.839 10.4229 127.636 8.50352 126.703C7.63039 126.282 6.82345 125.735 6.10837 125.08C5.44727 124.499 4.88058 123.819 4.42876 123.064C4.0371 122.354 3.73583 121.758 3.53247 121.282C3.34168 120.815 3.18313 120.336 3.05796 119.848C2.35142 117.373 2.6211 114.722 3.81115 112.441C4.3052 111.563 4.91864 110.757 5.63386 110.048Z" fill="white"/>
<path d="M17.828 87.9492L17.8958 89.6706L1.58923 90.3501L2.04867 101.388L4.57186 101.282C6.83143 101.192 8.67674 101.147 10.1078 101.162C11.4043 101.169 12.6993 101.25 13.9867 101.403C14.9102 101.484 15.8099 101.74 16.6379 102.158C17.2278 102.471 17.7242 102.934 18.0765 103.502C18.4182 104.154 18.599 104.879 18.6038 105.616V106.273L17.0974 106.333V105.676C17.0994 105.288 16.9969 104.906 16.8008 104.572C16.6046 104.237 16.322 103.961 15.9827 103.774C14.829 103.254 13.5796 102.981 12.3146 102.974C9.7756 102.841 7.23141 102.841 4.69237 102.974L0.655275 103.147L0 88.6967L17.828 87.9492Z" fill="white"/>
<path d="M13.6704 76.058L2.70392 67.6776L3.01273 65.8203L14.6495 74.8802C15.8546 75.7963 16.7082 76.506 17.2103 77.0093C17.677 77.4492 18.0733 77.9585 18.3853 78.5193C18.8786 79.5773 19.0084 80.7694 18.7544 81.9092C18.6332 82.596 18.4595 83.2725 18.2347 83.9326L16.7283 83.6985C16.9502 83.0536 17.1215 82.3922 17.2405 81.7205C17.3277 81.2218 17.3404 80.7129 17.2781 80.2105C17.2205 79.7712 17.0491 79.3547 16.781 79.0025C16.5708 78.7113 16.3392 78.4362 16.0881 78.1795C15.9073 77.9983 15.591 77.719 15.1617 77.3415L0.195801 83.7438L0.527204 81.6374L13.6704 76.058Z" fill="white"/>
<path d="M9.33202 47.7839L24.3958 54.1107L28.3049 44.7639L13.2411 38.437L13.9039 36.8516L30.3611 43.7899L20.5545 67.1947L4.09735 60.3092L4.76016 58.7161L19.8239 65.043L23.7255 55.6962L8.66168 49.3693L9.33202 47.7839Z" fill="white"/>
<path d="M43.1427 27.0366L42.0355 28.5466L36.9515 27.6028L30.0447 36.8137L32.3871 41.3966L31.3101 42.831L22.317 25.0359L23.4694 23.5259L43.1427 27.0366ZM35.3999 27.2857L24.1698 25.2246L29.3216 35.3868L35.3999 27.2857Z" fill="white"/>
<path d="M41.8623 5.98758L36.364 11.3254L47.7447 23.0731L46.5094 24.2735L35.1363 12.5334L29.3744 18.1203L28.3199 17.0331L40.8003 4.90039L41.8623 5.98758Z" fill="white"/>
<path d="M44.5662 1.87254L46.0048 0.936353L50.2226 7.45949L59.2609 1.6083C61.046 0.438058 62.5825 -0.0979872 63.8403 0.000161829C64.5887 0.0623882 65.3113 0.304066 65.947 0.704822C66.5828 1.10558 67.1131 1.65367 67.4933 2.30289C68.1051 3.21899 68.4159 4.30397 68.382 5.40591C68.3932 6.30896 68.0683 7.18377 67.4707 7.85964C66.7599 8.63129 65.9493 9.30416 65.0605 9.86037L54.2296 16.8818L44.5662 1.87254ZM51.0436 8.73543L54.8773 14.6697L64.3826 8.50138C65.2497 8.02335 65.9531 7.29459 66.4011 6.41005C66.591 5.89835 66.6485 5.34676 66.5681 4.80678C66.4878 4.26679 66.2723 3.75602 65.9417 3.32213C65.7135 2.92062 65.4027 2.57231 65.0301 2.30028C64.6574 2.02824 64.2313 1.8387 63.78 1.74419C63.2623 1.6696 62.7344 1.71348 62.236 1.87254C61.7744 1.99482 61.3274 2.16696 60.9029 2.38594C60.5639 2.57469 60.1497 2.84648 59.5547 3.21643L51.0436 8.73543Z" fill="white"/>
</g>
<defs>
<clipPath id="clip0">
<rect width="173" height="155" fill="white"/>
</clipPath>
</defs>
</svg>
