<svg width="761" height="107" viewBox="0 0 761 107" xmlns="http://www.w3.org/2000/svg" xmlns:xlink="http://www.w3.org/1999/xlink"><defs><path d="M307.713 79.277c.75 0 1.188 0 1.59-.06l-2.14-5.186h-.118l-2.05 5.186c.428.06 1.096.06 1.85.06h.868zm2.114 1.208c-.724-.056-1.364-.056-2.114-.056h-.868c-.754 0-1.62 0-2.342.056l-.61 1.538c-.172.406-.406.98-.406 1.328 0 .552 1.07.7 2 .93v.636c-.728-.09-1.766-.174-3.302-.174-1.186 0-1.878.114-2.46.174v-.636c.55-.088 1.102-.23 1.534-.466.578-.318.926-1.272 1.274-2.08l4.774-11.696h.696l5.092 11.84c.348.784.578 1.39.9 1.706.316.318.984.548 1.648.696v.636c-.466-.06-2.144-.114-2.954-.114-1.852 0-3.008.054-3.672.114v-.636c.84-.174 1.938-.408 1.938-.93 0-.348-.288-.922-.464-1.298l-.664-1.568zm-27-5.758c0-1.16-.056-2.316-.344-2.95-.204-.464-.898-.492-1.97-.75v-.7c1.04.088 2.228.118 3.532.118 1.3 0 2.484-.03 3.532-.118v.7c-1.072.258-1.77.286-1.97.75-.288.634-.348 1.79-.348 2.95v1.912c.578.086 1.676.12 2.896.12h2.488c1.214 0 2.316-.034 2.894-.12v-1.912c0-1.16-.058-2.316-.348-2.95-.202-.464-.898-.492-1.968-.75v-.7c1.042.088 2.226.118 3.532.118 1.3 0 2.488-.03 3.53-.118v.7c-1.07.258-1.766.286-1.968.75-.29.634-.348 1.79-.348 2.95v5.788c0 1.16.058 2.262.348 2.896.202.462.898.608 1.968.81v.696c-1.042-.09-2.23-.114-3.53-.114-1.306 0-2.49.024-3.532.114v-.696c1.07-.202 1.766-.348 1.968-.81.29-.634.348-1.736.348-2.896v-2.484c-.578-.09-1.68-.118-2.894-.118h-2.488c-1.22 0-2.318.028-2.896.118v2.484c0 1.16.06 2.262.348 2.896.2.462.898.608 1.97.81v.696c-1.048-.09-2.232-.114-3.532-.114-1.304 0-2.492.024-3.532.114v-.696c1.072-.202 1.766-.348 1.97-.81.288-.634.344-1.736.344-2.896v-5.788zm-20.368 0c0-1.16-.062-2.316-.348-2.95-.202-.464-.898-.492-1.968-.75v-.7c1.042.088 2.23.118 3.53.118 1.302 0 2.49-.03 3.532-.118v.7c-1.074.258-1.766.286-1.968.75-.29.634-.348 1.79-.348 2.95v6.018l8.566-8.184c0-.262-.116-.582-.316-.842-.23-.32-.926-.434-2-.692v-.7c1.042.088 2.23.118 3.53.118 1.306 0 2.49-.03 3.532-.118v.7c-1.07.258-1.766.286-1.964.75-.294.634-.352 1.79-.352 2.95v5.788c0 1.16.058 2.262.352 2.896.198.462.894.608 1.964.81v.696c-1.042-.09-2.226-.114-3.532-.114-1.3 0-2.488.024-3.53.114v-.696c1.074-.202 1.77-.348 1.968-.81.294-.634.348-1.736.348-2.896v-6.304l-8.566 8.188c0 .264.028.604.288 1.07.232.404.954.55 2.028.752v.696c-1.042-.09-2.23-.114-3.532-.114-1.3 0-2.488.024-3.53.114v-.696c1.07-.202 1.766-.348 1.968-.81.286-.634.348-1.736.348-2.896v-5.788zm-14.238 2.576l3.874-3.644c1.336-1.276 1.77-1.738 1.77-2.026 0-.288-.696-.462-1.562-.606v-.7c.98.088 1.676.118 2.546.118 1.098 0 2.258-.03 3.216-.118v.7c-1.884.286-2 .634-4.23 2.632l-3.154 2.834 4.63 5.038c1.706 1.852 2.172 2.172 3.676 2.69v.696c-.724-.09-1.648-.15-2.228-.15-.578 0-1.07.036-1.824.15a117.423 117.423 0 00-2.14-2.546l-4.574-5.068zm-.348 3.212c0 1.16.058 2.262.348 2.896.202.462.898.554 1.968.81v.696c-1.042-.09-2.52-.114-3.53-.114-1.012 0-2.49.024-3.528.114v-.696c1.07-.256 1.762-.348 1.964-.81.29-.634.348-1.736.348-2.896v-5.788c0-1.16-.058-2.254-.348-2.892-.202-.464-.894-.55-1.964-.808v-.7c1.038.088 2.516.118 3.528.118 1.01 0 2.198-.03 3.242-.118v.7c-1.07.258-1.478.344-1.68.808-.29.638-.348 1.732-.348 2.892v5.788zm-9.37 0c0 1.16.058 2.316.346 2.954.204.464.9.52 1.97.752v.696c-1.044-.09-2.232-.114-3.532-.114h-17.02c-1.3 0-2.484.024-3.526.114v-.696c1.07-.232 1.762-.288 1.968-.752.286-.638.344-1.794.344-2.954v-5.788c0-1.16-.058-2.254-.344-2.892-.206-.464-.898-.606-1.968-.808v-.7c1.042.088 2.226.118 3.526.118 1.306 0 2.488-.03 3.536-.118v.7c-1.07.202-1.766.344-1.968.808-.29.638-.348 1.732-.348 2.892v8.798c.578.092 1.68.12 2.89.12h3.184v-8.918c0-1.16-.056-2.254-.348-2.892-.2-.464-.894-.606-1.964-.808v-.7c1.038.088 2.226.118 3.53.118 1.302 0 2.488-.03 3.532-.118v.7c-1.07.202-1.766.344-1.97.808-.288.638-.346 1.732-.346 2.892v8.918h3.182c1.216 0 2.318-.028 2.896-.12v-8.798c0-1.16-.06-2.254-.348-2.892-.204-.464-.894-.606-1.966-.808v-.7c1.04.088 2.228.118 3.528.118 1.3 0 2.488-.03 3.532-.118v.7c-1.07.202-1.766.344-1.97.808-.288.638-.346 1.732-.346 2.892v5.788zm-32.524-5.442l2.46 4.37h.114l2.488-5.264c.55-1.186.808-1.736.808-2.228 0-.492-1.096-.78-2.082-.924v-.7c1.07.088 1.97.118 3.098.118.926 0 1.622-.03 2.43-.118v.7c-.434.114-.926.286-1.328.522-.524.286-.988 1.416-1.882 3.296l-3.184 6.57c-1.622 3.352-2.344 3.79-3.82 3.79-.664 0-1.306-.174-1.97-.438 0-1.558-.086-2.86-.172-3.552h.75c.29.722.61 1.388.898 1.788.344.494.666.642 1.044.642.636 0 1.128-.466 1.622-1.564l-4.142-6.946c-1.042-1.74-1.91-3.3-2.546-3.586a10.93 10.93 0 00-1.508-.522v-.7c.902.088 2.234.118 3.418.118 1.042 0 2.402-.03 3.386-.118v.7c-.492.114-1.444.372-1.444.924 0 .406.492 1.216 1.562 3.122zm-29.024-4.686c0-1.446 0-3.586-.406-4.224-.29-.434-1.13-.664-2.2-.926v-.756c1.04.088 2.66.174 3.966.174h15.046c1.306 0 2.926-.086 3.966-.174v.756c-1.072.262-1.908.492-2.196.926-.406.638-.406 2.778-.406 4.224v8.686c0 1.442 0 3.59.406 4.226.288.43 1.124.666 2.196.922v.756a52.646 52.646 0 00-3.966-.174c-1.3 0-2.922.086-3.96.174v-.756c1.07-.256 1.91-.492 2.198-.922.404-.636.404-2.784.404-4.226V66.107c-.576-.092-1.68-.122-2.896-.122h-6.538c-1.216 0-2.316.03-2.896.122v12.966c0 1.442 0 3.59.408 4.226.288.43 1.128.666 2.198.922v.756a52.686 52.686 0 00-3.964-.174c-1.306 0-2.926.086-3.966.174v-.756c1.07-.256 1.91-.492 2.2-.922.406-.636.406-2.784.406-4.226v-8.686zm-17.006 11.402c.81 0 1.734.928 1.734 1.736 0 .81-.924 1.74-1.734 1.74-.812 0-1.738-.93-1.738-1.74 0-.808.926-1.736 1.738-1.736zm-12.526 3.476c-6.396 0-10.912-4.142-10.912-10.39 0-6.514 4.572-10.682 10.938-10.682 3.446 0 4.688.898 6.806 1.104-.236 1.04-.38 2.14-.466 4.166h-.754c-.374-1.302-.836-2.578-1.39-3.008-.84-.668-2.864-.93-4.484-.93-5.036 0-7.642 3.966-7.642 8.914 0 4.778 2.782 9.494 8.364 9.494 1.48 0 3.504-.55 4.286-1.27.578-.526 1.272-2.03 1.648-2.954h.754c-.144.952-.406 2.72-.582 4.256-2.488.75-4.454 1.3-6.566 1.3zm-16.408-3.476c.81 0 1.736.928 1.736 1.736 0 .81-.926 1.74-1.736 1.74-.812 0-1.738-.93-1.738-1.74 0-.808.926-1.736 1.738-1.736zm-13.596-5.524c.75 0 1.242 0 1.648-.088l-2.808-7.236h-.114l-2.636 7.266c.432.058.78.058 1.534.058h2.376zm2.226 1.384c-.722-.056-1.476-.056-2.226-.056h-2.376c-.754 0-1.332 0-2.054.056l-1.36 3.792c-.378 1.072-.55 1.48-.55 1.88 0 .552 1.214.73 2.14.96v.696a47.223 47.223 0 00-3.762-.174c-1.184 0-2.114.114-2.692.174v-.696c.606-.088 1.274-.23 1.708-.522.578-.376 1.128-1.388 1.62-2.662l6.368-16.904h.754l6.77 17.104c.524 1.276.664 1.852 1.156 2.228.496.378 1.16.608 1.824.756v.696c-.46-.06-2.316-.174-3.124-.174-1.852 0-3.532.114-4.196.174v-.696c.84-.174 2.054-.466 2.054-1.044 0-.46-.288-1.042-.55-1.706l-1.504-3.882zm-38.746-2.922c0-1.16-.058-2.316-.348-2.95-.2-.464-.898-.492-1.964-.75v-.7c1.038.088 2.226.118 3.526.118 1.302 0 2.488-.03 3.532-.118v.7c-1.07.258-1.766.286-1.968.75-.29.634-.348 1.79-.348 2.95v6.018l8.57-8.184c0-.262-.118-.582-.32-.842-.232-.32-.926-.434-1.996-.692v-.7c1.038.088 2.226.118 3.53.118 1.302 0 2.488-.03 3.532-.118v.7c-1.07.258-1.766.286-1.968.75-.29.634-.348 1.79-.348 2.95v5.788c0 1.16.058 2.262.348 2.896.202.462.898.608 1.968.81v.696c-1.044-.09-2.23-.114-3.532-.114-1.304 0-2.492.024-3.53.114v-.696c1.07-.202 1.764-.348 1.968-.81.29-.634.348-1.736.348-2.896v-6.304l-8.57 8.188c0 .264.03.604.292 1.07.23.404.954.55 2.024.752v.696c-1.044-.09-2.23-.114-3.532-.114-1.3 0-2.488.024-3.526.114v-.696c1.066-.202 1.764-.348 1.964-.81.29-.634.348-1.736.348-2.896v-5.788zm-20.082 0c0-1.16-.058-2.316-.348-2.95-.2-.464-.894-.492-1.964-.75v-.7c1.038.088 2.226.118 3.53.118 1.302 0 2.488-.03 3.532-.118v.7c-1.074.258-1.766.286-1.974.75-.284.634-.346 1.79-.346 2.95v1.912c.582.086 1.68.12 2.898.12h2.488c1.214 0 2.316-.034 2.894-.12v-1.912c0-1.16-.058-2.316-.348-2.95-.202-.464-.898-.492-1.968-.75v-.7c1.044.088 2.23.118 3.532.118 1.3 0 2.488-.03 3.53-.118v.7c-1.07.258-1.764.286-1.968.75-.29.634-.348 1.79-.348 2.95v5.788c0 1.16.058 2.262.348 2.896.204.462.898.608 1.968.81v.696c-1.042-.09-2.23-.114-3.53-.114-1.302 0-2.488.024-3.532.114v-.696c1.07-.202 1.766-.348 1.968-.81.29-.634.348-1.736.348-2.896v-2.484c-.578-.09-1.68-.118-2.894-.118h-2.488c-1.218 0-2.316.028-2.898.118v2.484c0 1.16.062 2.262.346 2.896.208.462.9.608 1.974.81v.696c-1.044-.09-2.23-.114-3.532-.114-1.304 0-2.492.024-3.53.114v-.696c1.07-.202 1.764-.348 1.964-.81.29-.634.348-1.736.348-2.896v-5.788zm-11.746 3.186c-.638 0-.984.028-1.388.086v2.516c0 1.16.028 2.058.142 2.954.668.148 1.828.176 2.866.176.868 0 2.286-.06 2.81-.408.522-.346 1.038-1.042 1.648-2.314h.75a32.02 32.02 0 00-.606 3.994c-1.188-.09-3.848-.114-5.874-.114h-2.75c-.724 0-2.692.024-3.732.114v-.696c1.072-.256 1.736-.348 1.966-.81.32-.634.348-1.736.348-2.896v-5.788c0-1.16-.056-2.254-.348-2.892-.204-.464-.894-.55-1.966-.808v-.7c1.04.088 2.95.118 3.676.118h1.012c1.734 0 4.976-.118 7.7-.118a41.662 41.662 0 00-.638 3.416h-.694c-.146-.72-.29-1.36-.638-1.764-.378-.46-1.594-.46-2.46-.46-.868 0-1.418 0-3.012.114-.172.522-.2 1.934-.2 3.094v1.94c.404.058.782.092 1.388.092h.812c.84 0 1.852 0 2.258-.468.348-.378.488-.722.722-1.33h.696a19.242 19.242 0 00-.144 2.372c0 .756 0 1.332.112 2.376h-.69c-.208-.612-.348-1.044-.728-1.42-.374-.376-1.418-.376-2.226-.376h-.812zm-25.782-1.448c.058-1.186.118-2.056.118-2.692 0-.606-.09-1.474-.348-1.882-.29-.432-1.216-.634-2.286-.864v-.7c1.04.118 2.052.118 3.068.118.808 0 1.706-.082 2.168-.118.752 1.972 1.07 2.728 1.828 4.374l2.05 4.486c.374.808.61 1.36.84 1.792h.116c.232-.432.462-.924.75-1.588l1.798-3.91c.75-1.678 1.418-3.182 2.082-5.118.61.052 1.652.082 2.258.082 1.016 0 2.054-.03 2.808-.118v.7c-1.07.23-1.968.432-2.258.864-.262.408-.262 1.564-.262 1.882 0 .348.06 1.536.086 2.404l.204 3.764c.058 1.416.234 2.836.52 3.47.206.462.902.554 1.972.81v.696c-1.042-.09-2.23-.114-3.532-.114-1.304 0-2.78.024-3.824.114v-.696c1.074-.232 2.028-.318 2.262-.81.172-.376.23-.926.23-1.444 0-.436-.03-1.132-.058-2.026l-.144-3.764c-.028-.784-.118-1.792-.144-2.61h-.118a62.8 62.8 0 01-1.07 2.52l-2.286 4.952c-1.016 2.26-1.418 3.328-1.652 3.878h-.696c-.402-1.014-1.07-2.488-1.558-3.532l-2.52-5.472c-.518-1.156-.636-1.528-.926-2.346h-.116c-.058.842-.172 1.886-.2 2.898l-.116 3.182c-.028.582-.06 1.476-.06 2.118 0 .606 0 1.238.176 1.646.2.462 1.156.578 2.228.81v.696c-1.04-.114-2.028-.114-3.33-.114-1.304 0-2.054 0-3.096.114v-.696c1.07-.256 2.026-.348 2.258-.81.316-.634.55-2.196.608-3.764l.172-3.182zM2.367 74.727c0-1.16-.054-2.316-.348-2.95-.198-.464-.894-.492-1.964-.75v-.7c1.042.088 2.23.118 3.532.118 1.3 0 2.488-.03 3.526-.118v.7c-1.07.258-1.762.286-1.964.75-.29.634-.348 1.79-.348 2.95v6.018l8.566-8.184c0-.262-.116-.582-.316-.842-.234-.32-.93-.434-2-.692v-.7c1.042.088 2.226.118 3.532.118 1.304 0 2.492-.03 3.53-.118v.7c-1.07.258-1.766.286-1.968.75-.29.634-.344 1.79-.344 2.95v5.788c0 1.16.054 2.262.344 2.896.202.462.898.608 1.968.81v.696c-1.038-.09-2.226-.114-3.53-.114-1.306 0-2.49.024-3.532.114v-.696c1.07-.202 1.766-.348 1.968-.81.29-.634.348-1.736.348-2.896v-6.304l-8.566 8.188c0 .264.028.604.29 1.07.23.404.952.55 2.022.752v.696c-1.038-.09-2.226-.114-3.526-.114-1.302 0-2.49.024-3.532.114v-.696c1.07-.202 1.766-.348 1.964-.81.294-.634.348-1.736.348-2.896v-5.788zm385.794-25.946c0 1.154.026 2.282.23 2.718.262.548 1.648.636 2.402.636 1.91 0 2.868-1.218 2.868-2.954 0-2.08-1.568-3.328-4.056-3.328-.406 0-1.096 0-1.444.032v2.896zm1.066-4.026c1.39 0 3.386-.694 3.386-2.722 0-2.14-1.788-2.402-2.746-2.402-.406 0-1.16.03-1.534.118-.114.608-.172 2.08-.172 3.238v1.74c.23.028.808.028 1.066.028zm1.016-6.222c2.112 0 4.976.608 4.976 3.326 0 2.112-2.372 2.922-3.586 3.214v.116c3.04.432 4.746 1.82 4.746 4.022 0 2.144-1.562 4.02-5.618 4.02-1.182 0-2.402-.172-4.108-.172-1.302 0-2.196.03-3.238.12v-.696c1.07-.262 1.734-.64 1.964-1.1.316-.64.348-1.448.348-2.602v-5.794c0-1.158-.032-2.254-.348-2.896-.23-.46-.894-.546-1.964-.808v-.694c1.042.088 1.936.118 3.238.118.988 0 2.144-.174 3.59-.174zm-16.492 4.454c0-1.158-.032-1.996-.146-3.064-.55-.058-1.332-.058-1.824-.058s-1.418.028-2.026.46c-.462.348-.664.93-1.04 1.968h-.754c.172-1.158.29-2.578.348-3.76 1.038.086 2.66.174 4.398.174h4.516c1.734 0 3.098-.062 4.746-.174-.23 1.476-.376 2.254-.52 3.76h-.754c-.09-.696-.348-1.71-.722-2.028-.376-.316-.954-.4-2.086-.4-.316 0-1.184 0-1.532.058a26.347 26.347 0 00-.176 3.064v5.794c0 1.154.06 2.254.348 2.892.204.462 1.188.576 2.258.81v.696c-1.042-.09-2.52-.12-3.82-.12-1.304 0-2.778.03-3.82.12v-.696c1.07-.234 2.054-.348 2.258-.81.288-.638.348-1.738.348-2.892v-5.794zm-12.822 10.48c-4.944 0-8.304-2.926-8.304-7.44 0-4.772 3.386-7.728 8.304-7.728 2 0 3.274.61 5.098.87-.234 1.044-.348 1.912-.464 3.358h-.692c-.352-1.072-.758-1.966-1.218-2.314-.578-.438-1.562-.756-2.894-.756-3.416 0-5.412 2.632-5.412 6.136 0 3.618 1.794 6.718 5.758 6.718 1.188 0 2.258-.32 3.008-.9.552-.432 1.16-1.536 1.536-2.46h.694c-.17.954-.346 1.766-.578 3.586-1.792.468-3.21.93-4.836.93zm-16.492 0c-4.944 0-8.304-2.926-8.304-7.44 0-4.772 3.386-7.728 8.304-7.728 2 0 3.274.61 5.098.87-.234 1.044-.348 1.912-.464 3.358h-.692c-.352-1.072-.758-1.966-1.218-2.314-.578-.438-1.564-.756-2.896-.756-3.414 0-5.41 2.632-5.41 6.136 0 3.618 1.794 6.718 5.758 6.718 1.184 0 2.258-.32 3.008-.9.552-.432 1.16-1.536 1.536-2.46h.694c-.172.954-.346 1.766-.578 3.586-1.796.468-3.214.93-4.836.93zm-19.354-10.132l2.456 4.37h.118l2.488-5.264c.554-1.186.812-1.738.812-2.228 0-.498-1.098-.786-2.082-.93v-.694c1.066.088 1.966.118 3.094.118.93 0 1.622-.03 2.434-.118v.694c-.434.114-.93.292-1.332.522-.52.286-.984 1.42-1.884 3.296l-3.182 6.578c-1.622 3.35-2.344 3.788-3.822 3.788-.664 0-1.3-.174-1.964-.438 0-1.558-.09-2.86-.18-3.554h.758c.286.718.606 1.386.894 1.79.348.494.668.636 1.044.636.636 0 1.128-.462 1.62-1.558l-4.136-6.948c-1.042-1.738-1.914-3.304-2.55-3.59a11.764 11.764 0 00-1.504-.522v-.694c.898.088 2.226.118 3.414.118 1.042 0 2.402-.03 3.386-.118v.694c-.488.114-1.446.378-1.446.93 0 .4.492 1.21 1.564 3.122zm-17.97 2.228l3.88-3.648c1.332-1.27 1.766-1.732 1.766-2.022 0-.292-.696-.466-1.568-.61v-.694c.988.088 1.68.118 2.548.118 1.102 0 2.258-.03 3.214-.118v.694c-1.882.292-2 .64-4.226 2.632l-3.156 2.84 4.632 5.038c1.708 1.852 2.172 2.17 3.676 2.69v.696c-.722-.09-1.652-.15-2.23-.15-.578 0-1.07.03-1.82.15a132.635 132.635 0 00-2.142-2.548l-4.574-5.068zm-.348 3.218c0 1.154.06 2.254.348 2.892.204.462.896.548 1.966.81v.696c-1.04-.09-2.516-.12-3.532-.12-1.012 0-2.488.03-3.528.12v-.696c1.072-.262 1.766-.348 1.97-.81.288-.638.348-1.738.348-2.892v-5.794c0-1.158-.06-2.254-.348-2.896-.204-.46-.898-.546-1.97-.808v-.694c1.04.088 2.516.118 3.528.118 1.016 0 2.2-.03 3.246-.118v.694c-1.07.262-1.476.348-1.68.808-.288.642-.348 1.738-.348 2.896v5.794zm-12.644 4.686c-4.948 0-8.304-2.926-8.304-7.44 0-4.772 3.386-7.728 8.304-7.728 1.996 0 3.27.61 5.094.87-.23 1.044-.344 1.912-.46 3.358h-.696c-.348-1.072-.754-1.966-1.216-2.314-.578-.438-1.566-.756-2.894-.756-3.414 0-5.414 2.632-5.414 6.136 0 3.618 1.798 6.718 5.758 6.718 1.188 0 2.258-.32 3.012-.9.55-.432 1.156-1.536 1.536-2.46h.694c-.176.954-.348 1.766-.582 3.586-1.792.468-3.21.93-4.832.93zm-26.648-10.48c0-1.158-.058-2.314-.348-2.948-.202-.464-.898-.494-1.968-.756v-.694c1.038.088 2.226.118 3.53.118 1.306 0 2.49-.03 3.532-.118v.694c-1.07.262-1.766.292-1.968.756-.29.634-.348 1.79-.348 2.948v6.02l8.566-8.19c0-.256-.114-.578-.32-.838-.23-.318-.922-.434-1.996-.696v-.694c1.042.088 2.23.118 3.53.118 1.302 0 2.49-.03 3.532-.118v.694c-1.07.262-1.766.292-1.964.756-.294.634-.348 1.79-.348 2.948v5.794c0 1.154.054 2.254.348 2.892.198.462.894.608 1.964.81v.696c-1.042-.09-2.23-.12-3.532-.12-1.3 0-2.488.03-3.53.12v-.696c1.074-.202 1.766-.348 1.972-.81.286-.638.344-1.738.344-2.892v-6.314l-8.566 8.194c0 .256.026.604.288 1.068.232.406.958.552 2.028.754v.696c-1.042-.09-2.226-.12-3.532-.12-1.304 0-2.492.03-3.53.12v-.696c1.07-.202 1.766-.348 1.968-.81.29-.638.348-1.738.348-2.892v-5.794zm-16.782 5.676c1.59 2.112 2.172 2.952 2.606 3.238.434.29 1.102.41 1.734.582v.696c-1.128-.09-1.766-.12-3.354-.12-1.536 0-3.158.03-3.97.12v-.696c.582-.088 1.914-.436 1.914-.868 0-.318-.722-1.302-1.274-2.028l-2-2.692-1.674 2.376c-.782 1.124-1.418 1.88-1.418 2.344 0 .4 1.214.696 1.936.868v.696c-.956-.06-2.112-.12-3.558-.12-1.45 0-2.172.03-3.098.12v-.696c.552-.114 1.392-.32 2.086-.582 1.126-.43 2.168-2.056 3.18-3.44l1.824-2.52-3.414-4.544c-.61-.784-.984-1.418-1.62-1.648a15.993 15.993 0 00-1.794-.466v-.694c.808.056 1.938.172 3.386.172 1.446 0 2.806-.116 3.618-.172v.694c-.582.114-1.364.408-1.364.696 0 .346.38.78 1.364 2.14l1.3 1.768 1.306-1.882c.722-1.068 1.124-1.618 1.124-2.026 0-.348-.78-.582-1.418-.696v-.694c.696.03 1.306.118 2.782.118 1.386 0 2.402-.062 3.094-.118v.694c-.578.114-1.446.262-2.142.492-.69.234-1.214 1.012-2.284 2.578l-1.738 2.458 2.866 3.852zm-18.344-5.676c0-1.158-.058-2.314-.346-2.948-.204-.464-.9-.494-1.97-.756v-.694c1.044.088 2.228.118 3.532.118 1.3 0 2.488-.03 3.53-.118v.694c-1.074.262-1.764.292-1.968.756-.288.634-.348 1.79-.348 2.948v5.794c0 1.154.06 2.254.348 2.892.204.462.894.608 1.968.81v.696c-1.042-.09-2.23-.12-3.53-.12-1.304 0-2.488.03-3.532.12v-.696c1.07-.202 1.766-.348 1.97-.81.288-.638.346-1.738.346-2.892v-5.794zm-10.768 5.648c0 1.21 0 2.314.262 2.804.26.494 1.332.636 2.086.636 1.328 0 2.92-.636 2.92-2.948 0-2.086-1.39-3.274-3.588-3.274-.58 0-1.216.032-1.68.12v2.662zm0-3.824a14.294 14.294 0 011.68-.116c3.242 0 6.308 1.128 6.308 4.432 0 2.428-2.082 4.104-5.266 4.104-1.188 0-2.516-.172-3.934-.172-1.304 0-2.492.03-3.534.12v-.696c1.07-.262 1.768-.348 1.972-.81.286-.638.344-1.738.344-2.892v-5.794c0-1.158-.058-2.254-.344-2.896-.204-.46-.902-.546-1.972-.808v-.694c1.042.088 2.23.118 3.534.118 1.302 0 2.778-.03 3.816-.118v.694c-1.07.234-2.05.348-2.256.808-.29.642-.348 1.738-.348 2.896v1.824zm-22.512-1.824c0-1.158-.056-2.314-.348-2.948-.2-.464-.894-.494-1.964-.756v-.694c1.038.088 2.226.118 3.53.118 1.302 0 2.488-.03 3.532-.118v.694c-1.074.262-1.766.292-1.97.756-.292.634-.346 1.79-.346 2.948v1.912c.578.084 1.676.116 2.894.116h2.488c1.214 0 2.316-.032 2.89-.116v-1.912c0-1.158-.054-2.314-.344-2.948-.202-.464-.898-.494-1.968-.756v-.694c1.044.088 2.23.118 3.532.118 1.304 0 2.488-.03 3.53-.118v.694c-1.07.262-1.764.292-1.968.756-.29.634-.348 1.79-.348 2.948v5.794c0 1.154.058 2.254.348 2.892.204.462.898.608 1.968.81v.696c-1.042-.09-2.226-.12-3.53-.12-1.302 0-2.488.03-3.532.12v-.696c1.07-.202 1.766-.348 1.968-.81.29-.638.344-1.738.344-2.892v-2.488c-.574-.092-1.676-.122-2.89-.122h-2.488c-1.218 0-2.316.03-2.894.122v2.488c0 1.154.054 2.254.346 2.892.204.462.896.608 1.97.81v.696c-1.044-.09-2.23-.12-3.532-.12-1.304 0-2.492.03-3.53.12v-.696c1.07-.202 1.764-.348 1.964-.81.292-.638.348-1.738.348-2.892v-5.794zm-12.496 5.648c0 1.21 0 2.314.262 2.804.258.494 1.386.636 2.14.636 1.332 0 2.922-.636 2.922-2.948 0-2.086-1.386-3.274-3.59-3.274-.578 0-1.274.032-1.734.12v2.662zm0-3.824c.344-.056 1.246-.116 1.734-.116 3.242 0 6.312 1.128 6.312 4.432 0 2.428-2.086 4.104-5.27 4.104-1.182 0-2.574-.172-3.992-.172-1.304 0-2.492.03-3.53.12v-.696c1.07-.262 1.766-.348 1.968-.81.29-.638.348-1.738.348-2.892v-5.794c0-1.158-.058-2.254-.348-2.896-.202-.46-.898-.546-1.968-.808v-.694c1.038.088 2.226.118 3.53.118 1.302 0 2.778-.03 3.822-.118v.694c-1.076.234-2.056.348-2.262.808-.286.642-.344 1.738-.344 2.896v1.824zm-11.806-.372c0-1.42 0-3.826-.172-4.516-.496-.03-.812-.058-1.476-.058h-.52c-.726 0-1.48.028-1.914.348-.374.286-.492 1.096-.722 2.662a128.998 128.998 0 01-.52 3.47c-.288 1.822-.604 3.214-1.246 4.69-.694 1.594-1.936 2.432-3.156 2.432-.75 0-1.792-.93-1.792-1.794 0-.868 1.012-1.564 1.71-1.564.316.752.75 1.216 1.156 1.216.492 0 .954-.582 1.332-1.594.488-1.302.896-3.62 1.184-5.558.144-1.04.29-2.14.29-2.75 0-.75-.114-1.158-.408-1.444-.37-.348-1.242-.522-2.082-.696v-.75c1.044.086 2.2.174 3.5.174h6.082c1.302 0 2.458-.088 3.5-.174v.75c-1.07.262-1.764.348-1.968.808-.288.642-.344 2.896-.344 4.348v2.89c0 1.452.056 3.706.344 4.344.204.462.898.548 1.968.81v.748c-.984-.084-2.082-.172-3.386-.172-1.3 0-2.632.088-3.676.172v-.748c1.074-.262 1.766-.348 1.97-.81.292-.638.346-2.892.346-4.344v-2.89zm-19.792 1.732c-.636 0-.984.03-1.39.09v2.52c0 1.154.03 2.048.144 2.948.668.144 1.824.172 2.866.172.868 0 2.29-.058 2.806-.402.524-.348 1.046-1.042 1.652-2.318h.75a31.247 31.247 0 00-.606 3.998c-1.186-.09-3.848-.12-5.874-.12h-2.75c-.724 0-2.692.03-3.734.12v-.696c1.07-.262 1.738-.348 1.968-.81.32-.638.348-1.738.348-2.892v-5.794c0-1.158-.06-2.254-.348-2.896-.204-.46-.898-.546-1.968-.808v-.694c1.042.088 2.952.118 3.674.118h1.012c1.738 0 4.982-.118 7.704-.118a41.65 41.65 0 00-.64 3.416h-.692c-.148-.726-.29-1.36-.636-1.766-.376-.464-1.594-.464-2.462-.464-.87 0-1.418 0-3.012.118-.172.522-.202 1.936-.202 3.094v1.942c.406.054.78.086 1.39.086h.808c.84 0 1.856 0 2.258-.462.348-.38.492-.726.722-1.33h.696a20.04 20.04 0 00-.144 2.37c0 .752 0 1.332.116 2.376h-.694c-.204-.612-.348-1.044-.724-1.42-.374-.378-1.418-.378-2.23-.378h-.808zm-15.8-3.184c0-1.158-.024-1.996-.142-3.064-.55-.058-1.332-.058-1.824-.058-.496 0-1.422.028-2.028.46-.464.348-.668.93-1.042 1.968h-.75c.172-1.158.29-2.578.348-3.76 1.042.086 2.66.174 4.398.174h4.516c1.734 0 3.094-.062 4.746-.174-.234 1.476-.376 2.254-.52 3.76h-.758c-.082-.696-.344-1.71-.722-2.028-.376-.316-.954-.4-2.082-.4-.316 0-1.188 0-1.536.058a27.27 27.27 0 00-.172 3.064v5.794c0 1.154.06 2.254.348 2.892.204.462 1.188.576 2.258.81v.696c-1.042-.09-2.52-.12-3.82-.12-1.304 0-2.778.03-3.82.12v-.696c1.07-.234 2.054-.348 2.254-.81.292-.638.348-1.738.348-2.892v-5.794zm-22.974 0c0-1.158-.054-2.314-.348-2.948-.202-.464-.894-.494-1.968-.756v-.694c1.044.088 2.23.118 3.532.118 1.304 0 2.488-.03 3.53-.118v.694c-1.07.262-1.766.292-1.968.756-.29.634-.344 1.79-.344 2.948v6.02l8.566-8.19c0-.256-.116-.578-.32-.838-.23-.318-.93-.434-1.996-.696v-.694c1.044.088 2.226.118 3.532.118 1.3 0 2.488-.03 3.526-.118v.694c-1.07.262-1.764.292-1.968.756-.29.634-.344 1.79-.344 2.948v5.794c0 1.154.054 2.254.344 2.892.204.462.898.608 1.968.81v.696c-1.038-.09-2.226-.12-3.526-.12-1.306 0-2.488.03-3.532.12v-.696c1.066-.202 1.766-.348 1.964-.81.29-.638.352-1.738.352-2.892v-6.314l-8.566 8.194c0 .256.028.604.286 1.068.234.406.956.552 2.026.754v.696c-1.042-.09-2.226-.12-3.53-.12-1.302 0-2.488.03-3.532.12v-.696c1.074-.202 1.766-.348 1.968-.81.294-.638.348-1.738.348-2.892v-5.794zm-16.03 9.754c.32-2.346.32-3.038.374-4.078h.754c.086.692.262 1.68.696 2.372.348.58 1.59 1.276 3.038 1.276 2.372 0 3.532-.986 3.532-3.214 0-2.056-1.59-3.274-3.906-3.274-.466 0-1.278.03-1.91.09.058-.32.086-.87.112-1.27.32.022 1.044.022 1.392.022 3.008 0 3.676-1.762 3.676-2.774 0-2.026-1.306-2.434-2.58-2.434-.75 0-2.168.348-2.574.756-.522.546-.84 1.358-1.156 2.168h-.754c.086-1.218.146-2.116.146-3.414 1.214-.116 2.546-.668 4.57-.668 2.664 0 4.948 1.098 4.948 3.592 0 2.14-2.542 2.978-3.644 3.182v.116c1.45.142 4.398.696 4.398 4.11 0 3.012-3.038 4.168-6.25 4.168-1.91 0-3.27-.582-4.862-.726zm-9.66-5.21c.75 0 1.182 0 1.588-.052l-2.14-5.186h-.114l-2.058 5.186c.438.052 1.102.052 1.852.052h.872zm2.108 1.218c-.722-.06-1.358-.06-2.108-.06h-.872c-.75 0-1.622 0-2.344.06l-.606 1.534c-.176.404-.406.982-.406 1.332 0 .548 1.07.696 1.996.922v.642c-.726-.09-1.766-.174-3.3-.174-1.184 0-1.88.114-2.462.174v-.642c.556-.082 1.102-.226 1.536-.462.582-.316.926-1.27 1.274-2.08l4.776-11.696h.696l5.09 11.836c.348.782.582 1.39.898 1.708.32.32.984.552 1.652.694v.642c-.464-.06-2.144-.12-2.952-.12-1.852 0-3.012.06-3.676.12v-.642c.84-.168 1.942-.402 1.942-.922 0-.35-.294-.928-.466-1.302l-.668-1.564zm-19.242.032c0 1.154.058 2.254.348 2.892.204.462 1.188.548 2.546.81v.696a63.171 63.171 0 00-4.108-.12c-1.302 0-2.488.03-3.532.12v-.696c1.07-.262 1.766-.348 1.968-.81.29-.638.348-1.738.348-2.892v-5.794c0-1.158-.058-2.254-.348-2.896-.202-.46-.898-.546-1.968-.808v-.694c1.044.088 2.114.118 3.126.118 1.014 0 2.98-.234 3.734-.234 3.762 0 5.762 1.766 5.762 4.546 0 2.574-2.146 4.482-5.328 4.482-.58 0-1.65-.172-1.966-.318v-.696c.286.062 1.012.122 1.558.122 2.664 0 3.012-2.262 3.012-3.418 0-3.122-1.91-3.56-3.038-3.56-.52 0-1.36.03-2.024.204-.09.748-.09 1.994-.09 3.152v5.794zm-15.508-.146c0 1.21 0 2.314.262 2.804.258.494 1.504.636 2.258.636 1.328 0 2.922-.636 2.922-2.948 0-1.974-1.39-3.154-3.59-3.154-.578 0-1.386.024-1.852.114v2.548zm0-3.706c.348-.06 1.36-.118 1.852-.118 3.242 0 6.308 1.3 6.308 4.316 0 2.428-2.082 4.104-5.268 4.104-1.184 0-2.688-.172-4.106-.172-1.302 0-2.488.03-3.532.12v-.696c1.07-.262 1.766-.348 1.97-.81.284-.638.346-1.738.346-2.892v-5.794c0-1.158-.062-2.254-.346-2.896-.204-.46-.9-.546-1.97-.808v-.694c1.044.088 2.23.118 3.532.118h1.156c1.738 0 4.398-.118 7.12-.118-.17 1.126-.288 2.666-.346 3.53h-.696c-.262-.84-.524-1.474-.868-1.88-.378-.464-1.592-.464-2.172-.464-.578 0-1.476 0-2.776.118-.176.522-.204 1.966-.204 3.126v1.91zm-20.426.23c0 3.476 1.418 7.09 5.176 7.09 3.476 0 5.184-2.57 5.184-6.048 0-3.472-1.418-6.684-5.184-6.684-3.472 0-5.176 2.17-5.176 5.642zm5.466-6.86c5.21 0 7.612 3.85 7.612 7.614 0 4.34-4.136 7.554-8.186 7.554-5.212 0-7.614-4.256-7.614-8.02 0-4.34 4.14-7.148 8.188-7.148zM20.715 52.741c.316-2.346.316-3.038.376-4.078h.752c.086.692.258 1.68.692 2.372.348.58 1.594 1.276 3.04 1.276 2.374 0 3.53-.986 3.53-3.214 0-2.056-1.59-3.274-3.906-3.274-.464 0-1.272.03-1.91.09.058-.32.086-.87.118-1.27.316.022 1.042.022 1.39.022 3.008 0 3.672-1.762 3.672-2.774 0-2.026-1.3-2.434-2.574-2.434-.754 0-2.172.348-2.578.756-.52.546-.84 1.358-1.156 2.168h-.754c.09-1.218.144-2.116.144-3.414 1.218-.116 2.55-.668 4.574-.668 2.664 0 4.95 1.098 4.95 3.592 0 2.14-2.548 2.978-3.648 3.182v.116c1.448.142 4.402.696 4.402 4.11 0 3.012-3.04 4.168-6.254 4.168-1.91 0-3.27-.582-4.86-.726zM2.367 42.987c0-1.158-.054-2.314-.348-2.948-.198-.464-.894-.494-1.964-.756v-.694c1.042.088 2.23.118 3.532.118 1.3 0 2.488-.03 3.526-.118v.694c-1.07.262-1.762.292-1.964.756-.29.634-.348 1.79-.348 2.948v6.02l8.566-8.19c0-.256-.116-.578-.316-.838-.234-.318-.93-.434-2-.696v-.694c1.042.088 2.226.118 3.532.118 1.304 0 2.492-.03 3.53-.118v.694c-1.07.262-1.766.292-1.968.756-.29.634-.344 1.79-.344 2.948v5.794c0 1.154.054 2.254.344 2.892.202.462.898.608 1.968.81v.696c-1.038-.09-2.226-.12-3.53-.12-1.306 0-2.49.03-3.532.12v-.696c1.07-.202 1.766-.348 1.968-.81.29-.638.348-1.738.348-2.892v-6.314l-8.566 8.194c0 .256.028.604.29 1.068.23.406.952.552 2.022.754v.696c-1.038-.09-2.226-.12-3.526-.12-1.302 0-2.49.03-3.532.12v-.696c1.07-.202 1.766-.348 1.964-.81.294-.638.348-1.738.348-2.892v-5.794zM354.453 1.641c-1.102 1.332-3.066 3.12-5.788 3.12-1.798 0-3.848-1.012-3.848-2.024 0-.578.78-1.416 1.418-1.618.578.868 1.91 1.792 3.792 1.792 1.388 0 2.892-.81 3.876-1.792l.55.522zm-11.692 9.608c0-1.164-.058-2.32-.35-2.956-.2-.462-.896-.49-1.966-.748v-.696c1.04.084 2.228.114 3.532.114 1.3 0 2.488-.03 3.532-.114v.696c-1.076.258-1.77.286-1.97.748-.292.636-.348 1.792-.348 2.956v6.018l8.568-8.194c0-.258-.118-.576-.322-.834-.23-.318-.922-.436-1.996-.694v-.696c1.044.084 2.232.114 3.532.114 1.3 0 2.488-.03 3.532-.114v.696c-1.072.258-1.766.286-1.97.748-.288.636-.348 1.792-.348 2.956v5.786c0 1.158.06 2.26.348 2.894.204.462.898.608 1.97.808v.698c-1.044-.09-2.232-.116-3.532-.116-1.3 0-2.488.026-3.532.116v-.698c1.074-.2 1.766-.346 1.97-.808.288-.634.348-1.736.348-2.894v-6.306l-8.568 8.188c0 .258.032.606.29 1.072.23.402.952.548 2.028.748v.698c-1.044-.09-2.232-.116-3.532-.116-1.304 0-2.492.026-3.532.116v-.698c1.07-.2 1.766-.346 1.966-.808.292-.634.35-1.736.35-2.894v-5.786zm-11.75 3.184c-.636 0-.984.026-1.386.082v2.52c0 1.158.028 2.056.144 2.954.664.146 1.822.174 2.864.174.872 0 2.29-.06 2.808-.408.52-.348 1.044-1.04 1.65-2.318h.752a31.47 31.47 0 00-.608 3.998c-1.188-.09-3.848-.116-5.876-.116h-2.75c-.722 0-2.69.026-3.734.116v-.698c1.074-.256 1.742-.346 1.972-.808.318-.634.344-1.736.344-2.894v-5.786c0-1.164-.054-2.26-.344-2.896-.206-.46-.898-.55-1.972-.808v-.696c1.044.084 2.954.114 3.676.114h1.012c1.742 0 4.98-.114 7.702-.114a43.659 43.659 0 00-.64 3.41h-.692c-.148-.716-.288-1.36-.636-1.762-.374-.46-1.594-.46-2.456-.46-.872 0-1.422 0-3.012.112-.176.524-.204 1.936-.204 3.1v1.936c.402.06.778.092 1.386.092h.814c.84 0 1.852 0 2.258-.468.344-.378.492-.726.722-1.33h.696a19.281 19.281 0 00-.146 2.372c0 .754 0 1.332.114 2.376h-.696c-.198-.614-.346-1.044-.722-1.422-.374-.372-1.418-.372-2.226-.372h-.814zm-19.846 6.57c.316-2.346.316-3.04.37-4.082h.758c.082.694.258 1.678.692 2.374.348.574 1.594 1.27 3.038 1.27 2.376 0 3.532-.984 3.532-3.214 0-2.054-1.59-3.266-3.906-3.266-.462 0-1.274.026-1.91.082.058-.316.086-.866.116-1.27.318.028 1.04.028 1.388.028 3.008 0 3.676-1.766 3.676-2.78 0-2.024-1.302-2.426-2.576-2.426-.752 0-2.17.342-2.574.75-.522.552-.84 1.36-1.16 2.17h-.754c.09-1.214.146-2.112.146-3.41 1.214-.122 2.546-.668 4.574-.668 2.664 0 4.948 1.096 4.948 3.584 0 2.142-2.546 2.98-3.648 3.184v.122c1.45.142 4.398.69 4.398 4.104 0 3.01-3.034 4.168-6.25 4.168-1.906 0-3.268-.58-4.858-.72zm-11.056-9.412l2.462 4.376h.116l2.49-5.268c.55-1.188.808-1.738.808-2.23s-1.098-.78-2.082-.924v-.696c1.07.084 1.968.114 3.098.114.926 0 1.62-.03 2.428-.114v.696a5.752 5.752 0 00-1.332.516c-.518.292-.98 1.42-1.878 3.302l-3.184 6.57c-1.62 3.356-2.348 3.79-3.82 3.79-.668 0-1.304-.174-1.968-.434 0-1.562-.086-2.864-.176-3.558h.754c.288.724.604 1.39.898 1.792.348.492.664.64 1.038.64.642 0 1.134-.468 1.622-1.564l-4.136-6.948c-1.044-1.732-1.91-3.298-2.552-3.59a11.75 11.75 0 00-1.504-.516v-.696c.9.084 2.232.114 3.418.114 1.044 0 2.402-.03 3.388-.114v.696c-.496.112-1.45.376-1.45.924 0 .406.492 1.216 1.562 3.122zm-25.694 1.39c.062-1.184.116-2.054.116-2.69 0-.606-.086-1.476-.348-1.882-.288-.432-1.214-.636-2.284-.864v-.696c1.042.114 2.054.114 3.066.114.812 0 1.708-.082 2.172-.114.754 1.966 1.07 2.722 1.824 4.37l2.054 4.486c.376.808.606 1.358.84 1.792h.114c.234-.434.464-.924.754-1.59l1.792-3.908c.754-1.68 1.418-3.184 2.086-5.118.606.052 1.65.082 2.258.082 1.012 0 2.056-.03 2.806-.114v.696c-1.072.228-1.97.432-2.258.864-.258.406-.258 1.564-.258 1.882 0 .348.058 1.534.086 2.404l.202 3.764c.06 1.416.232 2.836.52 3.47.204.462.894.552 1.97.808v.698c-1.044-.09-2.232-.116-3.532-.116-1.304 0-2.778.026-3.82.116v-.698c1.07-.23 2.026-.316 2.258-.808.172-.376.23-.928.23-1.45 0-.43-.028-1.128-.058-2.02l-.146-3.764c-.026-.782-.112-1.794-.14-2.61h-.118a72.525 72.525 0 01-1.07 2.52l-2.288 4.95c-1.012 2.256-1.418 3.33-1.65 3.88h-.694c-.402-1.014-1.07-2.488-1.562-3.534l-2.516-5.47c-.524-1.156-.642-1.53-.93-2.346h-.114c-.062.842-.176 1.886-.202 2.896l-.118 3.184c-.028.58-.058 1.48-.058 2.116 0 .606 0 1.242.176 1.648.202.462 1.156.578 2.226.808v.698c-1.042-.116-2.024-.116-3.324-.116-1.304 0-2.058 0-3.102.116v-.698c1.074-.256 2.028-.346 2.258-.808.32-.634.55-2.198.61-3.764l.172-3.184zm-17.906-11.34c-1.102 1.332-3.068 3.12-5.79 3.12-1.792 0-3.848-1.012-3.848-2.024 0-.578.782-1.416 1.418-1.618.578.868 1.91 1.792 3.79 1.792 1.39 0 2.894-.81 3.878-1.792l.552.522zm-11.696 9.608c0-1.164-.054-2.32-.348-2.956-.2-.462-.894-.49-1.964-.748v-.696c1.038.084 2.226.114 3.53.114 1.302 0 2.488-.03 3.532-.114v.696c-1.07.258-1.766.286-1.97.748-.288.636-.346 1.792-.346 2.956v6.018l8.566-8.194c0-.258-.114-.576-.316-.834-.236-.318-.93-.436-2-.694v-.696c1.046.084 2.23.114 3.534.114 1.302 0 2.484-.03 3.528-.114v.696c-1.07.258-1.766.286-1.968.748-.29.636-.344 1.792-.344 2.956v5.786c0 1.158.054 2.26.344 2.894.202.462.898.608 1.968.808v.698c-1.044-.09-2.226-.116-3.528-.116-1.304 0-2.488.026-3.534.116v-.698c1.07-.2 1.764-.346 1.968-.808.29-.634.348-1.736.348-2.894v-6.306l-8.566 8.188c0 .258.026.606.288 1.072.23.402.958.548 2.028.748v.698c-1.044-.09-2.23-.116-3.532-.116-1.304 0-2.492.026-3.53.116v-.698c1.07-.2 1.764-.346 1.964-.808.294-.634.348-1.736.348-2.894v-5.786zm-9.372 0c0-1.164-.054-2.32-.348-2.956-.202-.462-.894-.49-1.968-.748v-.696c1.044.084 2.23.114 3.532.114 1.304 0 2.492-.03 3.53-.114v.696c-1.07.258-1.764.286-1.964.748-.294.636-.348 1.792-.348 2.956v5.786c0 1.158.054 2.26.348 2.894.2.462.894.608 1.964.808v.698c-1.038-.09-2.226-.116-3.53-.116-1.302 0-2.488.026-3.532.116v-.698c1.074-.2 1.766-.346 1.968-.808.294-.634.348-1.736.348-2.894v-5.786zm-10.764 5.642c0 1.216 0 2.314.26 2.804.258.492 1.328.642 2.082.642 1.332 0 2.922-.642 2.922-2.954 0-2.086-1.386-3.272-3.586-3.272-.578 0-1.214.03-1.678.118v2.662zm0-3.82c.346-.06 1.186-.114 1.678-.114 3.238 0 6.31 1.128 6.31 4.426 0 2.428-2.086 4.11-5.27 4.11-1.184 0-2.516-.174-3.934-.174-1.304 0-2.488.026-3.532.116v-.698c1.072-.256 1.766-.346 1.97-.808.288-.634.348-1.736.348-2.894v-5.786c0-1.164-.06-2.26-.348-2.896-.204-.46-.898-.55-1.97-.808v-.696c1.044.084 2.228.114 3.532.114 1.3 0 2.778-.03 3.82-.114v.696c-1.07.228-2.054.348-2.258.808-.288.636-.346 1.732-.346 2.896v1.822zm-22.512-1.822c0-1.164-.056-2.32-.348-2.956-.2-.462-.894-.49-1.966-.748v-.696c1.04.084 2.228.114 3.528.114 1.304 0 2.488-.03 3.532-.114v.696c-1.07.258-1.766.286-1.97.748-.284.636-.348 1.792-.348 2.956v1.906c.584.09 1.68.122 2.9.122h2.488c1.214 0 2.312-.032 2.894-.122v-1.906c0-1.164-.062-2.32-.348-2.956-.202-.462-.898-.49-1.968-.748v-.696c1.038.084 2.226.114 3.532.114 1.3 0 2.488-.03 3.53-.114v.696c-1.07.258-1.766.286-1.972.748-.286.636-.348 1.792-.348 2.956v5.786c0 1.158.062 2.26.348 2.894.206.462.902.608 1.972.808v.698c-1.042-.09-2.23-.116-3.53-.116-1.306 0-2.494.026-3.532.116v-.698c1.07-.2 1.766-.346 1.968-.808.286-.634.348-1.736.348-2.894v-2.488c-.582-.088-1.68-.114-2.894-.114h-2.488c-1.22 0-2.316.026-2.9.114v2.488c0 1.158.064 2.26.348 2.894.204.462.9.608 1.97.808v.698c-1.044-.09-2.228-.116-3.532-.116-1.3 0-2.488.026-3.528.116v-.698c1.072-.2 1.766-.346 1.966-.808.292-.634.348-1.736.348-2.894v-5.786zm-20.082 0c0-1.164-.056-2.32-.348-2.956-.2-.462-.894-.49-1.966-.748v-.696c1.04.084 2.228.114 3.532.114 1.3 0 2.488-.03 3.532-.114v.696c-1.074.258-1.77.286-1.97.748-.292.636-.348 1.792-.348 2.956v1.906c.578.09 1.676.122 2.896.122h2.488c1.214 0 2.316-.032 2.894-.122v-1.906c0-1.164-.058-2.32-.348-2.956-.202-.462-.894-.49-1.968-.748v-.696c1.042.084 2.23.114 3.532.114 1.304 0 2.488-.03 3.53-.114v.696c-1.07.258-1.766.286-1.968.748-.29.636-.348 1.792-.348 2.956v5.786c0 1.158.058 2.26.348 2.894.202.462.898.608 1.968.808v.698c-1.042-.09-2.226-.116-3.53-.116-1.302 0-2.49.026-3.532.116v-.698c1.074-.2 1.766-.346 1.968-.808.29-.634.348-1.736.348-2.894v-2.488c-.578-.088-1.68-.114-2.894-.114h-2.488c-1.22 0-2.318.026-2.896.114v2.488c0 1.158.056 2.26.348 2.894.2.462.896.608 1.97.808v.698c-1.044-.09-2.232-.116-3.532-.116-1.304 0-2.492.026-3.532.116v-.698c1.072-.2 1.766-.346 1.966-.808.292-.634.348-1.736.348-2.894v-5.786zm-11.742 3.184c-.642 0-.99.026-1.392.082v2.52c0 1.158.028 2.056.144 2.954.666.146 1.826.174 2.864.174.872 0 2.29-.06 2.808-.408.52-.348 1.04-1.04 1.65-2.318h.754a32.21 32.21 0 00-.61 3.998c-1.188-.09-3.848-.116-5.876-.116h-2.75c-.722 0-2.69.026-3.734.116v-.698c1.074-.256 1.738-.346 1.97-.808.32-.634.346-1.736.346-2.894v-5.786c0-1.164-.054-2.26-.346-2.896-.2-.46-.896-.55-1.97-.808v-.696c1.044.084 2.954.114 3.68.114h1.008c1.742 0 4.984-.114 7.704-.114a42.824 42.824 0 00-.642 3.41h-.69c-.15-.716-.29-1.36-.638-1.762-.374-.46-1.594-.46-2.46-.46-.868 0-1.418 0-3.008.112-.176.524-.204 1.936-.204 3.1v1.936c.402.06.782.092 1.392.092h.808c.84 0 1.852 0 2.258-.468.348-.378.492-.726.722-1.33h.696c-.114 1.042-.146 1.676-.146 2.372 0 .754 0 1.332.114 2.376h-.696c-.198-.614-.342-1.044-.722-1.422-.374-.372-1.418-.372-2.226-.372h-.808zm-16.958 2.602c0 1.158.028 2.282.23 2.72.258.554 1.648.636 2.402.636 1.912 0 2.864-1.216 2.864-2.954 0-2.08-1.562-3.326-4.05-3.326-.406 0-1.102 0-1.446.03v2.894zm1.07-4.024c1.39 0 3.388-.694 3.388-2.72 0-2.142-1.798-2.398-2.754-2.398-.404 0-1.158.028-1.532.112-.118.608-.172 2.08-.172 3.244v1.732c.23.03.808.03 1.07.03zm1.012-6.222c2.114 0 4.98.606 4.98 3.328 0 2.114-2.374 2.926-3.594 3.212v.122c3.044.43 4.75 1.82 4.75 4.022 0 2.14-1.562 4.02-5.612 4.02-1.188 0-2.406-.174-4.114-.174-1.3 0-2.198.026-3.242.116v-.698c1.07-.256 1.738-.634 1.968-1.094.322-.642.352-1.45.352-2.608v-5.786c0-1.164-.03-2.26-.352-2.896-.23-.46-.898-.55-1.968-.808v-.696a37.63 37.63 0 003.242.114c.984 0 2.14-.174 3.59-.174zm-16.492 4.46c0-1.164-.032-1.998-.148-3.07-.548-.058-1.328-.058-1.82-.058-.494 0-1.418.028-2.028.46-.466.348-.664.93-1.04 1.974h-.754c.172-1.164.29-2.578.348-3.766 1.04.092 2.66.174 4.398.174h4.512c1.742 0 3.102-.062 4.75-.174-.234 1.476-.378 2.26-.518 3.766h-.754c-.086-.696-.348-1.712-.724-2.028-.378-.316-.956-.406-2.086-.406-.316 0-1.186 0-1.534.058a26.835 26.835 0 00-.172 3.07v5.786c0 1.158.058 2.26.348 2.894.202.462 1.182.578 2.258.808v.698c-1.044-.09-2.52-.116-3.822-.116-1.3 0-2.78.026-3.82.116v-.698c1.07-.23 2.056-.346 2.258-.808.29-.634.348-1.736.348-2.894v-5.786zm-12.816 10.474c-4.95 0-8.31-2.92-8.31-7.434 0-4.778 3.388-7.728 8.31-7.728 1.996 0 3.27.606 5.09.862-.232 1.046-.348 1.914-.462 3.358h-.694c-.348-1.066-.754-1.966-1.216-2.312-.578-.432-1.562-.75-2.894-.75-3.414 0-5.414 2.632-5.414 6.132 0 3.622 1.796 6.714 5.762 6.714 1.186 0 2.258-.318 3.008-.892.55-.44 1.16-1.536 1.534-2.466h.696c-.172.954-.348 1.772-.578 3.592-1.794.462-3.216.924-4.832.924zm-18.61-4.688c0 1.158.058 2.26.348 2.894.202.462 1.188.552 2.546.808v.698a63.147 63.147 0 00-4.108-.116c-1.302 0-2.49.026-3.532.116v-.698c1.07-.256 1.766-.346 1.968-.808.29-.634.348-1.736.348-2.894v-5.786c0-1.164-.058-2.26-.348-2.896-.202-.46-.898-.55-1.968-.808v-.696a39.38 39.38 0 003.126.114c1.014 0 2.98-.234 3.734-.234 3.762 0 5.762 1.768 5.762 4.546 0 2.576-2.146 4.49-5.33 4.49-.578 0-1.648-.174-1.964-.32v-.696c.286.056 1.012.116 1.562.116 2.66 0 3.008-2.26 3.008-3.416 0-3.126-1.91-3.556-3.038-3.556-.52 0-1.36.028-2.024.198-.09.752-.09 1.994-.09 3.158v5.786zm-14.12-1.248c.752 0 1.186 0 1.592-.054l-2.14-5.178h-.118l-2.054 5.178c.438.054 1.102.054 1.856.054h.864zm2.112 1.216c-.722-.052-1.36-.052-2.112-.052h-.864c-.754 0-1.626 0-2.348.052l-.606 1.538c-.176.406-.406.982-.406 1.328 0 .552 1.07.696 1.996.93v.636c-.722-.09-1.766-.174-3.3-.174-1.184 0-1.88.114-2.458.174v-.636c.552-.088 1.098-.234 1.532-.462.578-.322.926-1.276 1.274-2.088l4.776-11.688h.696l5.094 11.834c.348.78.578 1.392.898 1.708.316.318.98.552 1.648.696v.636c-.46-.06-2.14-.116-2.952-.116-1.852 0-3.008.056-3.676.116v-.636c.84-.174 1.942-.408 1.942-.93 0-.346-.294-.922-.466-1.3l-.668-1.566zm-16.348-5.754c0-1.132-.026-2.35-.172-3.038a13.645 13.645 0 00-1.706-.09h-.696c-.726 0-1.59 0-1.882.406-.29.402-.406 1.016-.548 2.14a48.988 48.988 0 01-.464 3.126c-.258 1.62-.55 2.924-.954 4.108-.32.956-.608 1.622-.984 2.262h7.294c.112-.64.112-1.97.112-3.128v-5.786zm-6.132 10.07c-.782 0-1.91.056-2.632.576-.642.47-1.188 2.29-1.598 3.246h-.746c.172-1.446.23-3.938.258-5.126.578.12.952.148 1.534.148h.376c.522-.61 1.128-1.622 1.562-3.128.55-1.97.84-3.62 1.098-5.704.09-.722.148-1.214.148-1.82 0-.462-.086-.784-.29-1.128-.26-.462-1.304-.694-2.14-.838v-.756c1.04.092 2.196.174 3.5.174h6.02c1.3 0 2.75-.082 3.792-.174v.756c-1.07.258-1.764.348-1.972.808-.286.636-.348 1.732-.348 2.896v5.786c0 1.158.09 2.372.234 2.776.09.232.376.352 1.216.352.464 0 1.042-.09 1.504-.174-.232 1.014-.52 3.526-.778 5.152h-.754c-.32-1.22-.492-2.836-1.074-3.358-.372-.348-1.648-.464-3.324-.464h-5.586zm-14.872-9.728l2.458 4.376h.114l2.492-5.268c.55-1.188.808-1.738.808-2.23s-1.098-.78-2.082-.924v-.696c1.07.084 1.968.114 3.098.114.926 0 1.62-.03 2.43-.114v.696c-.43.112-.926.286-1.332.516-.52.292-.982 1.42-1.88 3.302l-3.188 6.57c-1.616 3.356-2.34 3.79-3.816 3.79-.664 0-1.3-.174-1.964-.434 0-1.562-.09-2.864-.18-3.558h.754c.288.724.61 1.39.898 1.792.348.492.668.64 1.04.64.64 0 1.132-.468 1.62-1.564l-4.132-6.948c-1.044-1.732-1.914-3.298-2.552-3.59a11.75 11.75 0 00-1.504-.516v-.696c.896.084 2.228.114 3.414.114 1.04 0 2.404-.03 3.388-.114v.696c-.492.112-1.446.376-1.446.924 0 .406.492 1.216 1.562 3.122zM44.239 21.723c-4.946 0-8.306-2.92-8.306-7.434 0-4.778 3.388-7.728 8.306-7.728 1.996 0 3.272.606 5.094.862-.232 1.046-.348 1.914-.462 3.358h-.694c-.348-1.066-.754-1.966-1.216-2.312-.578-.432-1.562-.75-2.894-.75-3.414 0-5.414 2.632-5.414 6.132 0 3.622 1.796 6.714 5.758 6.714 1.186 0 2.262-.318 3.012-.892.55-.44 1.16-1.536 1.534-2.466h.696c-.176.954-.348 1.772-.582 3.592-1.794.462-3.208.924-4.832.924zm-24.278-8.308c0 3.476 1.418 7.092 5.184 7.092 3.468 0 5.18-2.574 5.18-6.048 0-3.476-1.418-6.686-5.18-6.686-3.476 0-5.184 2.17-5.184 5.642zm5.468-6.854c5.212 0 7.614 3.844 7.614 7.606 0 4.342-4.136 7.556-8.192 7.556-5.206 0-7.608-4.25-7.608-8.016 0-4.338 4.136-7.146 8.186-7.146zm-22.48.34c0-1.444 0-3.582-.406-4.224-.288-.432-1.128-.66-2.2-.924V.999c1.044.088 2.666.174 3.966.174h1.3c2.318 0 6.314-.174 9.61-.174-.376 1.708-.606 3.59-.754 4.458h-.75c-.118-.664-.23-2.084-.812-2.546-.606-.492-1.996-.492-3.152-.492-1.16 0-1.36 0-3.822.232-.174.522-.26 2.806-.26 4.25v8.69c0 1.444 0 3.584.406 4.22.288.436 1.706.726 2.776.926v.756c-1.038-.088-3.242-.174-4.542-.174-1.3 0-2.922.086-3.966.174v-.756c1.072-.256 1.912-.49 2.2-.926.406-.636.406-2.776.406-4.22v-8.69z" id="a"/><path d="M0 .152h127.665v21.362h84.664V.152L339.8 0v83.472l-127.471.152v22.858h-84.664V83.624H0V.152zm200.637 45.834l.316-1.838-30.774-6.704-30.898 6.704.332 1.838 30.578-6.49 30.446 6.49zm-5.296 45.64h3.038s.04-3.082.04-17.022c0-2.324-.134-15.398-.134-15.398h-2.87s-.106 12.862-.106 15.336c0 13.958.032 17.084.032 17.084zm-10.688 0h3.038s.04-3.082.04-17.022c0-2.324-.134-15.398-.134-15.398h-2.87s-.11 12.862-.11 15.336c0 13.958.036 17.084.036 17.084zm-10.688 0h3.036s.046-3.082.046-17.022c0-2.324-.136-15.398-.136-15.398h-2.872s-.11 12.862-.11 15.336c0 13.958.036 17.084.036 17.084zm-10.688 0h3.044s.034-3.082.034-17.022c0-2.324-.128-15.398-.128-15.398h-2.872s-.108 12.862-.108 15.336c0 13.958.03 17.084.03 17.084zm-10.682 0h3.038s.036-3.082.036-17.022c0-2.324-.13-15.398-.13-15.398h-2.87s-.11 12.862-.11 15.336c0 13.958.036 17.084.036 17.084zm-10.688 0h3.034s.04-3.082.04-17.022c0-2.324-.13-15.398-.13-15.398h-2.874s-.106 12.862-.106 15.336c0 13.958.036 17.084.036 17.084z" id="c"/></defs><g fill="#fff" fill-rule="evenodd"><g transform="translate(364 1)"><mask id="b"><use xlink:href="#a"/></mask><path mask="url(#b)" d="M-.04 85.36h396.48V.88H-.04z"/></g><mask id="d"><use xlink:href="#c"/></mask><path mask="url(#d)" d="M0 106.52h339.84V-.04H0z"/></g></svg>