<?xml version="1.0" encoding="UTF-8"?>
<svg width="568px" height="110px" viewBox="0 0 568 110" version="1.1" xmlns="http://www.w3.org/2000/svg" xmlns:xlink="http://www.w3.org/1999/xlink">
    <!-- Generator: Sketch 58 (84663) - https://sketch.com -->
    <title>logo_en_white</title>
    <desc>Created with Sketch.</desc>
    <defs>
        <path d="M167.203,79.801 L167.957,79.801 C168.245,80.759 168.711,81.539 169.199,82.059 C169.749,82.669 170.847,83.161 172.329,83.161 C173.657,83.161 175.191,82.613 175.191,80.989 C175.191,79.285 174.235,78.765 172.413,77.977 L170.473,77.141 C168.421,76.247 167.577,74.937 167.577,73.379 C167.577,70.341 170.385,69.153 172.499,69.153 C174.235,69.153 175.507,69.613 176.839,69.907 C176.751,70.687 176.751,71.035 176.751,71.555 C176.751,72.247 176.787,72.739 176.809,73.379 L176.059,73.379 C175.827,72.449 175.625,71.785 175.017,71.179 C174.437,70.597 173.339,70.309 172.499,70.309 C171.141,70.309 169.835,70.919 169.835,72.481 C169.835,73.985 170.589,74.567 171.575,74.969 L173.539,75.777 C175.769,76.707 177.503,77.805 177.503,80.035 C177.503,83.309 174.119,84.321 172.329,84.321 C170.213,84.321 168.969,83.883 167.549,83.769 C167.493,81.919 167.293,80.497 167.203,79.801 Z M157.247,73.841 C157.247,72.683 157.223,71.843 157.105,70.773 C156.559,70.719 155.773,70.719 155.281,70.719 C154.789,70.719 153.863,70.743 153.257,71.179 C152.793,71.527 152.589,72.101 152.213,73.145 L151.461,73.145 C151.637,71.989 151.749,70.571 151.809,69.383 C152.849,69.473 154.473,69.555 156.211,69.555 L160.723,69.555 C162.461,69.555 163.819,69.501 165.469,69.383 C165.239,70.863 165.093,71.641 164.949,73.145 L164.195,73.145 C164.109,72.449 163.847,71.437 163.473,71.121 C163.097,70.801 162.517,70.719 161.385,70.719 C161.071,70.719 160.203,70.719 159.849,70.773 C159.739,71.875 159.681,72.683 159.681,73.841 L159.681,79.633 C159.681,80.789 159.739,81.887 160.027,82.519 C160.231,82.989 161.213,83.101 162.287,83.333 L162.287,84.031 C161.245,83.941 159.769,83.915 158.465,83.915 C157.163,83.915 155.685,83.941 154.645,84.031 L154.645,83.333 C155.717,83.101 156.699,82.989 156.903,82.519 C157.191,81.887 157.247,80.789 157.247,79.633 L157.247,73.841 Z M140.351,76.215 C140.843,76.359 141.335,76.391 141.827,76.391 C142.813,76.391 145.213,76.269 145.213,73.433 C145.213,71.207 144.059,70.453 142.235,70.453 C141.657,70.453 140.933,70.657 140.667,70.945 C140.351,71.293 140.351,72.683 140.351,73.841 L140.351,76.215 Z M147.151,80.411 C148.141,81.797 149.297,83.215 151.177,83.215 L151.177,83.915 C150.597,83.997 149.815,84.087 149.067,84.087 C147.269,84.087 146.227,83.391 144.577,81.019 L142.089,77.489 C141.451,77.489 140.699,77.457 140.351,77.403 L140.351,79.633 C140.351,80.789 140.411,81.887 140.699,82.519 C140.903,82.989 141.885,83.101 142.957,83.333 L142.957,84.031 C141.625,83.941 140.441,83.915 139.137,83.915 C137.835,83.915 136.647,83.941 135.605,84.031 L135.605,83.333 C136.675,83.075 137.371,82.989 137.575,82.519 C137.863,81.887 137.921,80.789 137.921,79.633 L137.921,73.841 C137.921,72.683 137.863,71.583 137.575,70.945 C137.371,70.485 136.675,70.395 135.605,70.137 L135.605,69.441 C136.647,69.531 137.745,69.555 138.761,69.555 C139.917,69.555 141.425,69.355 142.495,69.355 C143.883,69.355 147.933,69.731 147.933,73.117 C147.933,74.969 146.835,76.445 144.781,77.109 L147.151,80.411 Z M124.613,75.375 C125.369,75.375 125.859,75.375 126.261,75.285 L123.457,68.051 L123.339,68.051 L120.707,75.317 C121.141,75.375 121.487,75.375 122.243,75.375 L124.613,75.375 Z M126.843,76.765 C126.119,76.707 125.369,76.707 124.613,76.707 L122.243,76.707 C121.487,76.707 120.911,76.707 120.185,76.765 L118.825,80.555 C118.449,81.629 118.273,82.031 118.273,82.437 C118.273,82.989 119.493,83.161 120.415,83.391 L120.415,84.087 C119.691,84.031 118.185,83.915 116.657,83.915 C115.469,83.915 114.543,84.031 113.961,84.087 L113.961,83.391 C114.571,83.309 115.239,83.161 115.671,82.867 C116.247,82.493 116.801,81.481 117.289,80.207 L123.661,63.309 L124.411,63.309 L131.183,80.411 C131.707,81.683 131.849,82.265 132.339,82.641 C132.831,83.015 133.499,83.247 134.163,83.391 L134.163,84.087 C133.703,84.031 131.849,83.915 131.039,83.915 C129.185,83.915 127.507,84.031 126.843,84.087 L126.843,83.391 C127.679,83.215 128.899,82.929 128.899,82.347 C128.899,81.887 128.605,81.305 128.345,80.645 L126.843,76.765 Z M96.661,77.023 C96.023,77.023 95.679,77.055 95.273,77.109 L95.273,79.633 C95.273,80.789 95.301,81.683 95.415,82.583 C96.079,82.727 97.301,82.755 98.339,82.755 C99.211,82.755 100.629,82.695 101.149,82.347 C101.671,82.001 102.185,81.305 102.797,80.035 L103.549,80.035 C103.257,81.367 103.059,82.695 102.941,84.031 C101.751,83.941 99.035,83.915 97.007,83.915 L94.261,83.915 C93.535,83.915 91.571,83.941 90.527,84.031 L90.527,83.333 C91.597,83.075 92.261,82.989 92.493,82.519 C92.813,81.887 92.839,80.789 92.839,79.633 L92.839,73.841 C92.839,72.683 92.787,71.583 92.493,70.945 C92.293,70.485 91.597,70.395 90.527,70.137 L90.527,69.441 C91.571,69.531 93.479,69.555 94.203,69.555 L95.213,69.555 C96.951,69.555 100.191,69.441 102.911,69.441 C102.653,70.571 102.395,71.989 102.277,72.859 L101.581,72.859 C101.437,72.133 101.293,71.497 100.945,71.091 C100.567,70.629 99.355,70.629 98.485,70.629 C97.619,70.629 97.067,70.629 95.477,70.743 C95.301,71.265 95.273,72.683 95.273,73.841 L95.273,75.777 C95.679,75.837 96.053,75.867 96.661,75.867 L97.473,75.867 C98.311,75.867 99.325,75.867 99.731,75.399 C100.077,75.027 100.219,74.679 100.451,74.071 L101.149,74.071 C101.031,75.113 101.003,75.755 101.003,76.445 C101.003,77.199 101.003,77.773 101.119,78.817 L100.425,78.817 C100.219,78.211 100.077,77.773 99.703,77.403 C99.325,77.023 98.287,77.023 97.473,77.023 L96.661,77.023 Z M73.859,75.285 C73.859,73.841 73.859,71.875 73.511,71.239 C73.223,70.687 72.039,70.309 71.251,70.137 L71.251,69.441 C71.717,69.531 72.789,69.555 73.805,69.555 C74.007,69.555 74.815,69.555 75.479,69.441 C76.869,71.063 78.119,72.423 79.503,73.871 L82.457,76.965 C83.413,77.977 84.195,78.785 84.917,79.481 L85.031,79.481 L85.031,73.841 C85.031,72.683 84.973,71.583 84.685,70.945 C84.485,70.485 83.499,70.371 82.425,70.137 L82.425,69.441 C83.177,69.531 84.223,69.555 85.523,69.555 C86.827,69.555 87.751,69.531 88.503,69.441 L88.503,70.137 C87.433,70.395 86.739,70.485 86.539,70.945 C86.247,71.583 86.191,72.683 86.191,73.841 L86.191,78.183 C86.191,79.633 86.191,82.813 86.273,84.031 L85.581,84.031 C84.277,82.519 83.089,81.161 81.847,79.859 L78.403,76.247 C77.075,74.825 76.261,73.957 75.133,72.683 L75.015,72.683 L75.015,79.633 C75.015,80.789 75.077,81.887 75.363,82.519 C75.567,82.989 76.549,83.101 77.625,83.333 L77.625,84.031 C76.869,83.941 75.681,83.915 74.381,83.915 C73.077,83.915 72.007,83.941 71.251,84.031 L71.251,83.333 C72.327,83.101 73.309,82.989 73.511,82.519 C73.805,81.887 73.859,80.789 73.859,79.633 L73.859,75.285 Z M64.023,75.285 C64.023,73.841 63.965,71.583 63.675,70.945 C63.473,70.485 62.489,70.371 61.421,70.137 L61.421,69.441 C62.461,69.531 63.907,69.555 65.211,69.555 C66.511,69.555 68.015,69.531 69.059,69.441 L69.059,70.137 C67.989,70.371 67.003,70.485 66.805,70.945 C66.511,71.583 66.457,73.841 66.457,75.285 L66.457,78.183 C66.457,79.633 66.511,81.887 66.805,82.519 C67.003,82.989 67.989,83.101 69.059,83.333 L69.059,84.031 C68.015,83.941 66.511,83.915 65.211,83.915 C63.907,83.915 62.461,83.941 61.421,84.031 L61.421,83.333 C62.489,83.101 63.473,82.989 63.675,82.519 C63.965,81.887 64.023,79.633 64.023,78.183 L64.023,75.285 Z M46.547,69.501 C46.547,68.051 46.547,65.911 46.141,65.273 C45.849,64.843 45.009,64.609 43.941,64.347 L43.941,63.597 C44.983,63.683 46.601,63.769 47.907,63.769 L49.207,63.769 C51.523,63.769 55.809,63.597 59.105,63.597 C58.731,65.305 58.499,67.187 58.351,68.051 L57.601,68.051 C57.485,67.387 57.371,65.973 56.793,65.509 C56.183,65.015 54.793,65.015 53.637,65.015 C52.477,65.015 51.989,65.015 49.527,65.247 C49.351,65.765 49.269,68.051 49.269,69.501 L49.269,72.739 C49.671,72.859 50.625,72.887 51.523,72.887 L52.331,72.887 C53.749,72.859 54.735,72.829 55.257,72.337 C55.749,71.875 55.895,71.149 56.157,70.227 L56.907,70.227 C56.793,71.265 56.735,72.277 56.735,73.555 C56.735,74.883 56.793,75.837 56.907,76.879 L56.157,76.879 C55.895,75.981 55.749,75.173 55.227,74.711 C54.765,74.305 53.723,74.219 52.331,74.219 L51.523,74.219 C50.597,74.219 49.671,74.273 49.269,74.363 L49.269,78.183 C49.269,79.633 49.269,81.773 49.671,82.407 C49.961,82.841 51.379,83.133 52.449,83.333 L52.449,84.087 C51.407,83.997 49.207,83.915 47.907,83.915 C46.601,83.915 44.983,83.997 43.941,84.087 L43.941,83.333 C45.009,83.075 45.849,82.841 46.141,82.407 C46.547,81.773 46.547,79.633 46.547,78.183 L46.547,69.501 Z M22.877,73.841 C22.877,72.683 22.819,71.583 22.531,70.945 C22.327,70.485 21.633,70.395 20.563,70.137 L20.563,69.441 C21.601,69.531 23.513,69.555 24.239,69.555 L25.247,69.555 C26.989,69.555 30.231,69.441 32.949,69.441 C32.685,70.571 32.425,71.989 32.311,72.859 L31.619,72.859 C31.503,72.195 31.327,71.497 30.981,71.091 C30.605,70.629 29.391,70.629 28.517,70.629 C27.653,70.629 27.101,70.629 25.511,70.743 C25.335,71.265 25.309,72.683 25.309,73.841 L25.309,75.777 C25.711,75.837 26.089,75.867 26.699,75.867 L27.507,75.867 C28.345,75.867 29.359,75.867 29.765,75.399 C30.113,75.027 30.257,74.653 30.489,74.071 L31.183,74.071 C31.097,75.059 31.039,75.755 31.039,76.445 C31.039,77.199 31.071,77.837 31.157,78.817 L30.461,78.817 C30.257,78.211 30.113,77.773 29.735,77.403 C29.359,77.023 28.319,77.023 27.507,77.023 L26.699,77.023 C26.059,77.023 25.711,77.055 25.309,77.109 L25.309,79.633 C25.309,80.789 25.369,81.887 25.657,82.519 C25.859,82.989 26.899,83.161 27.911,83.333 L27.911,84.031 C26.871,83.941 25.395,83.915 24.093,83.915 C22.789,83.915 21.601,83.941 20.563,84.031 L20.563,83.333 C21.633,83.133 22.327,82.989 22.531,82.519 C22.819,81.887 22.877,80.789 22.877,79.633 L22.877,73.841 Z M4.877,76.011 C4.877,79.481 6.297,83.101 10.063,83.101 C13.535,83.101 15.243,80.527 15.243,77.055 C15.243,73.579 13.825,70.371 10.063,70.371 C6.589,70.371 4.877,72.543 4.877,76.011 Z M10.345,69.153 C15.559,69.153 17.961,73.005 17.961,76.765 C17.961,81.105 13.825,84.321 9.769,84.321 C4.563,84.321 2.161,80.063 2.161,76.297 C2.161,71.961 6.297,69.153 10.345,69.153 Z M184.711,43.837 C184.769,42.649 184.829,41.781 184.829,41.145 C184.829,40.539 184.739,39.669 184.479,39.261 C184.185,38.833 183.265,38.625 182.191,38.399 L182.191,37.703 C183.235,37.817 184.245,37.817 185.261,37.817 C186.071,37.817 186.969,37.735 187.429,37.703 C188.183,39.669 188.499,40.427 189.251,42.071 L191.309,46.559 C191.685,47.367 191.911,47.919 192.149,48.355 L192.261,48.355 C192.495,47.919 192.727,47.427 193.015,46.761 L194.813,42.851 C195.563,41.173 196.231,39.669 196.895,37.735 C197.503,37.789 198.547,37.817 199.151,37.817 C200.163,37.817 201.207,37.789 201.961,37.703 L201.961,38.399 C200.891,38.625 199.993,38.833 199.703,39.261 C199.441,39.669 199.441,40.825 199.441,41.145 C199.441,41.493 199.499,42.679 199.527,43.547 L199.731,47.313 C199.789,48.727 199.965,50.149 200.247,50.781 C200.451,51.247 201.149,51.333 202.219,51.593 L202.219,52.289 C201.175,52.199 199.993,52.175 198.691,52.175 C197.385,52.175 195.911,52.199 194.869,52.289 L194.869,51.593 C195.941,51.363 196.895,51.277 197.125,50.781 C197.297,50.407 197.359,49.855 197.359,49.341 C197.359,48.903 197.329,48.207 197.297,47.313 L197.157,43.547 C197.125,42.769 197.039,41.755 197.009,40.945 L196.895,40.945 C196.461,42.015 196.113,42.825 195.825,43.461 L193.539,48.411 C192.523,50.669 192.119,51.739 191.885,52.289 L191.191,52.289 C190.789,51.277 190.119,49.801 189.633,48.759 L187.113,43.289 C186.589,42.129 186.477,41.755 186.185,40.945 L186.071,40.945 C186.009,41.781 185.899,42.825 185.869,43.837 L185.751,47.023 C185.723,47.597 185.695,48.493 185.695,49.137 C185.695,49.739 185.695,50.379 185.869,50.781 C186.071,51.247 187.027,51.363 188.097,51.593 L188.097,52.289 C187.053,52.175 186.071,52.175 184.769,52.175 C183.465,52.175 182.715,52.175 181.667,52.289 L181.667,51.593 C182.743,51.333 183.695,51.247 183.929,50.781 C184.245,50.149 184.479,48.587 184.535,47.023 L184.711,43.837 Z M164.949,42.101 C164.949,40.945 164.891,39.843 164.601,39.207 C164.399,38.747 163.703,38.657 162.633,38.399 L162.633,37.703 C163.675,37.789 164.859,37.817 166.163,37.817 C167.469,37.817 168.653,37.789 169.695,37.703 L169.695,38.399 C168.625,38.657 167.929,38.747 167.727,39.207 C167.437,39.843 167.379,40.945 167.379,42.101 L167.379,47.023 C167.379,49.883 168.625,51.419 171.199,51.419 C175.511,51.419 176.235,48.469 176.235,45.285 L176.235,42.101 C176.235,40.945 176.177,39.843 175.885,39.207 C175.685,38.747 174.993,38.657 173.917,38.399 L173.917,37.703 C174.671,37.789 175.571,37.817 176.875,37.817 C178.175,37.817 179.075,37.789 179.819,37.703 L179.819,38.399 C178.751,38.657 178.059,38.747 177.855,39.207 C177.567,39.843 177.507,40.945 177.507,42.101 L177.507,45.285 C177.507,49.363 176.177,52.575 171.199,52.575 C166.045,52.575 164.949,49.973 164.949,47.023 L164.949,42.101 Z M153.433,45.285 C152.797,45.285 152.449,45.317 152.043,45.371 L152.043,47.891 C152.043,49.047 152.071,49.945 152.185,50.843 C152.849,50.989 154.071,51.015 155.109,51.015 C155.981,51.015 157.399,50.957 157.917,50.609 C158.437,50.261 158.961,49.567 159.571,48.293 L160.319,48.293 C160.031,49.625 159.827,50.957 159.711,52.289 C158.527,52.199 155.805,52.175 153.781,52.175 L151.031,52.175 C150.305,52.175 148.335,52.199 147.297,52.289 L147.297,51.593 C148.369,51.333 149.035,51.247 149.265,50.781 C149.581,50.149 149.613,49.047 149.613,47.891 L149.613,42.101 C149.613,40.945 149.553,39.843 149.265,39.207 C149.063,38.747 148.369,38.657 147.297,38.399 L147.297,37.703 C148.335,37.789 150.247,37.817 150.973,37.817 L151.983,37.817 C153.723,37.817 156.965,37.703 159.681,37.703 C159.421,38.833 159.163,40.251 159.045,41.121 L158.355,41.121 C158.207,40.395 158.063,39.759 157.715,39.351 C157.339,38.887 156.125,38.887 155.251,38.887 C154.385,38.887 153.835,38.887 152.245,39.005 C152.071,39.527 152.043,40.945 152.043,42.101 L152.043,44.039 C152.449,44.097 152.825,44.129 153.433,44.129 L154.243,44.129 C155.079,44.129 156.093,44.129 156.503,43.661 C156.847,43.289 156.993,42.941 157.223,42.333 L157.917,42.333 C157.805,43.375 157.773,44.011 157.773,44.707 C157.773,45.457 157.773,46.035 157.891,47.079 L157.195,47.079 C156.993,46.473 156.847,46.035 156.473,45.657 C156.093,45.285 155.053,45.285 154.243,45.285 L153.433,45.285 Z M134.395,48.063 L135.143,48.063 C135.433,49.015 135.899,49.801 136.385,50.321 C136.941,50.929 138.039,51.419 139.513,51.419 C140.847,51.419 142.379,50.867 142.379,49.251 C142.379,47.543 141.425,47.023 139.601,46.239 L137.663,45.403 C135.609,44.501 134.769,43.199 134.769,41.637 C134.769,38.601 137.575,37.415 139.685,37.415 C141.425,37.415 142.699,37.875 144.027,38.165 C143.941,38.945 143.941,39.297 143.941,39.813 C143.941,40.509 143.973,41.001 143.999,41.637 L143.245,41.637 C143.017,40.711 142.815,40.047 142.207,39.433 C141.629,38.859 140.527,38.571 139.685,38.571 C138.327,38.571 137.027,39.179 137.027,40.743 C137.027,42.247 137.777,42.825 138.761,43.231 L140.731,44.039 C142.957,44.969 144.699,46.067 144.699,48.293 C144.699,51.563 141.309,52.575 139.513,52.575 C137.403,52.575 136.157,52.145 134.743,52.027 C134.681,50.179 134.479,48.759 134.395,48.063 Z M117.203,42.101 C117.203,40.945 117.149,39.843 116.855,39.207 C116.657,38.747 115.961,38.657 114.891,38.399 L114.891,37.703 C115.933,37.789 117.119,37.817 118.421,37.817 C119.723,37.817 120.911,37.789 121.951,37.703 L121.951,38.399 C120.877,38.657 120.185,38.747 119.983,39.207 C119.691,39.843 119.637,40.945 119.637,42.101 L119.637,47.023 C119.637,49.883 120.877,51.419 123.457,51.419 C127.765,51.419 128.493,48.469 128.493,45.285 L128.493,42.101 C128.493,40.945 128.433,39.843 128.143,39.207 C127.941,38.747 127.247,38.657 126.177,38.399 L126.177,37.703 C126.929,37.789 127.829,37.817 129.129,37.817 C130.433,37.817 131.329,37.789 132.079,37.703 L132.079,38.399 C131.009,38.657 130.317,38.747 130.113,39.207 C129.825,39.843 129.765,40.945 129.765,42.101 L129.765,45.285 C129.765,49.363 128.433,52.575 123.457,52.575 C118.305,52.575 117.203,49.973 117.203,47.023 L117.203,42.101 Z M89.369,37.759 C89.399,36.945 89.457,36.281 89.457,35.649 C89.457,34.461 89.311,33.937 89.051,33.535 C88.761,33.097 87.605,32.841 86.531,32.609 L86.531,31.855 C87.575,31.973 88.877,32.031 89.891,32.031 C90.703,32.031 92.119,31.887 92.581,31.855 C93.681,34.461 94.465,36.109 95.415,38.255 L97.761,43.547 C98.661,45.575 99.067,46.383 99.559,47.367 L99.671,47.367 C100.137,46.473 100.831,45.023 101.581,43.289 L103.667,38.571 C104.765,36.079 105.723,33.907 106.563,31.887 C107.171,31.941 107.895,32.031 108.789,32.031 C109.801,32.031 111.281,31.941 112.319,31.855 L112.319,32.609 C111.247,32.841 110.119,33.097 109.831,33.535 C109.571,33.937 109.513,34.751 109.513,35.933 C109.513,36.575 109.513,37.211 109.543,37.759 L109.949,46.441 C110.007,47.891 110.119,50.035 110.495,50.669 C110.757,51.129 111.629,51.333 112.699,51.593 L112.699,52.347 C111.657,52.259 110.035,52.175 108.731,52.175 C107.429,52.175 105.517,52.259 104.477,52.347 L104.477,51.593 C105.547,51.363 106.675,51.101 106.965,50.669 C107.199,50.293 107.287,49.277 107.287,48.175 C107.287,47.457 107.257,47.079 107.227,46.441 L106.877,37.759 C106.847,37.039 106.819,36.079 106.735,35.273 L106.619,35.273 C105.951,36.661 105.375,38.051 104.765,39.411 L101.003,47.919 C99.961,50.261 99.413,51.505 99.067,52.347 L98.633,52.347 C98.141,51.047 97.413,49.453 96.835,48.121 L92.989,39.527 C92.149,37.641 91.425,36.109 91.045,35.273 L90.933,35.273 C90.877,36.109 90.789,37.063 90.761,37.759 L90.473,46.441 C90.441,46.965 90.441,47.343 90.441,47.977 C90.441,49.165 90.499,50.261 90.761,50.669 C91.045,51.101 92.177,51.363 93.247,51.593 L93.247,52.347 C92.203,52.227 90.815,52.175 89.513,52.175 C88.211,52.175 87.053,52.227 86.009,52.347 L86.009,51.593 C87.085,51.333 88.243,51.129 88.503,50.669 C88.877,50.035 88.965,47.945 89.023,46.441 L89.369,37.759 Z M67.667,45.285 C67.035,45.285 66.685,45.317 66.281,45.371 L66.281,47.891 C66.281,49.047 66.309,49.945 66.425,50.843 C67.089,50.989 68.309,51.015 69.345,51.015 C70.213,51.015 71.633,50.957 72.157,50.609 C72.679,50.261 73.199,49.567 73.805,48.293 L74.559,48.293 C74.265,49.625 74.067,50.957 73.949,52.289 C72.761,52.199 70.043,52.175 68.015,52.175 L65.269,52.175 C64.543,52.175 62.575,52.199 61.535,52.289 L61.535,51.593 C62.605,51.333 63.273,51.247 63.503,50.781 C63.819,50.149 63.847,49.047 63.847,47.891 L63.847,42.101 C63.847,40.945 63.793,39.843 63.503,39.207 C63.301,38.747 62.605,38.657 61.535,38.399 L61.535,37.703 C62.575,37.789 64.485,37.817 65.211,37.817 L66.223,37.817 C67.961,37.817 71.199,37.703 73.921,37.703 C73.661,38.833 73.399,40.251 73.287,41.121 L72.589,41.121 C72.445,40.395 72.301,39.759 71.951,39.351 C71.577,38.887 70.363,38.887 69.495,38.887 C68.625,38.887 68.075,38.887 66.479,39.005 C66.309,39.527 66.281,40.945 66.281,42.101 L66.281,44.039 C66.685,44.097 67.063,44.129 67.667,44.129 L68.479,44.129 C69.319,44.129 70.331,44.129 70.739,43.661 C71.079,43.289 71.231,42.941 71.461,42.333 L72.157,42.333 C72.039,43.375 72.009,44.011 72.009,44.707 C72.009,45.457 72.009,46.035 72.125,47.079 L71.433,47.079 C71.231,46.473 71.079,46.035 70.707,45.657 C70.331,45.285 69.293,45.285 68.479,45.285 L67.667,45.285 Z M51.871,42.101 C51.871,40.945 51.843,40.101 51.727,39.035 C51.175,38.973 50.395,38.973 49.903,38.973 C49.411,38.973 48.485,39.005 47.875,39.433 C47.413,39.781 47.211,40.363 46.835,41.407 L46.079,41.407 C46.257,40.251 46.371,38.833 46.429,37.641 C47.473,37.735 49.093,37.817 50.827,37.817 L55.343,37.817 C57.079,37.817 58.441,37.759 60.089,37.641 C59.859,39.117 59.715,39.903 59.571,41.407 L58.815,41.407 C58.731,40.711 58.469,39.699 58.093,39.383 C57.715,39.063 57.141,38.973 56.009,38.973 C55.691,38.973 54.825,38.973 54.477,39.035 C54.359,40.129 54.305,40.945 54.305,42.101 L54.305,47.891 C54.305,49.047 54.359,50.149 54.653,50.781 C54.849,51.247 55.839,51.363 56.907,51.593 L56.907,52.289 C55.863,52.199 54.391,52.175 53.085,52.175 C51.787,52.175 50.309,52.199 49.269,52.289 L49.269,51.593 C50.335,51.363 51.319,51.247 51.523,50.781 C51.815,50.149 51.871,49.047 51.871,47.891 L51.871,42.101 Z M38.735,46.649 C39.489,46.649 39.921,46.649 40.327,46.587 L38.185,41.407 L38.071,41.407 L36.015,46.587 C36.449,46.649 37.119,46.649 37.869,46.649 L38.735,46.649 Z M40.847,47.859 C40.125,47.805 39.489,47.805 38.735,47.805 L37.869,47.805 C37.119,47.805 36.245,47.805 35.523,47.859 L34.911,49.391 C34.743,49.801 34.511,50.379 34.511,50.727 C34.511,51.277 35.581,51.419 36.507,51.653 L36.507,52.289 C35.787,52.199 34.743,52.113 33.207,52.113 C32.017,52.113 31.325,52.227 30.745,52.289 L30.745,51.653 C31.297,51.563 31.847,51.419 32.281,51.187 C32.859,50.867 33.207,49.915 33.553,49.105 L38.327,37.415 L39.023,37.415 L44.119,49.251 C44.465,50.035 44.699,50.641 45.015,50.957 C45.335,51.277 45.999,51.505 46.663,51.653 L46.663,52.289 C46.203,52.227 44.523,52.175 43.711,52.175 C41.859,52.175 40.703,52.227 40.039,52.289 L40.039,51.653 C40.875,51.481 41.977,51.247 41.977,50.727 C41.977,50.379 41.685,49.801 41.511,49.423 L40.847,47.859 Z M23.109,42.101 C23.109,40.945 23.079,40.101 22.965,39.035 C22.413,38.973 21.633,38.973 21.141,38.973 C20.647,38.973 19.723,39.005 19.113,39.433 C18.653,39.781 18.449,40.363 18.075,41.407 L17.319,41.407 C17.495,40.251 17.609,38.833 17.671,37.641 C18.711,37.735 20.331,37.817 22.067,37.817 L26.581,37.817 C28.319,37.817 29.679,37.759 31.327,37.641 C31.097,39.117 30.951,39.903 30.809,41.407 L30.053,41.407 C29.969,40.711 29.707,39.699 29.331,39.383 C28.957,39.063 28.375,38.973 27.245,38.973 C26.929,38.973 26.059,38.973 25.715,39.035 C25.597,40.129 25.543,40.945 25.543,42.101 L25.543,47.891 C25.543,49.047 25.597,50.149 25.891,50.781 C26.089,51.247 27.075,51.363 28.143,51.593 L28.143,52.289 C27.101,52.199 25.629,52.175 24.325,52.175 C23.023,52.175 21.547,52.199 20.507,52.289 L20.507,51.593 C21.577,51.363 22.559,51.247 22.761,50.781 C23.051,50.149 23.109,49.047 23.109,47.891 L23.109,42.101 Z M2.161,47.079 L2.911,47.079 C3.203,48.031 3.691,49.105 4.157,49.739 C4.765,50.551 6.445,51.419 9.077,51.419 C11.277,51.419 13.161,50.293 13.161,47.805 C13.161,45.227 10.957,44.273 8.641,43.289 L6.703,42.449 C4.157,41.347 2.535,39.843 2.535,37.415 C2.535,33.509 5.777,31.571 9.045,31.571 C11.363,31.571 13.129,32.375 14.921,32.665 C14.777,33.567 14.777,33.997 14.777,34.519 C14.777,35.215 14.835,36.199 14.895,36.833 L14.141,36.833 C13.883,35.911 13.445,34.691 12.925,34.113 C12.119,33.187 10.437,32.781 9.017,32.781 C6.499,32.781 4.965,34.083 4.965,36.515 C4.965,38.887 6.619,39.613 8.211,40.281 L10.175,41.087 C12.899,42.219 15.589,43.461 15.589,46.847 C15.589,51.277 11.567,52.637 8.903,52.637 C6.793,52.637 4.679,51.911 2.507,51.739 C2.449,49.883 2.219,47.773 2.161,47.079 Z M165.875,11.805 C165.875,10.359 165.875,8.387 165.527,7.755 C165.239,7.207 164.051,6.829 163.269,6.653 L163.269,5.957 C163.735,6.051 164.805,6.075 165.815,6.075 C166.015,6.075 166.829,6.075 167.493,5.957 C168.883,7.583 170.125,8.937 171.513,10.387 L174.469,13.481 C175.421,14.497 176.203,15.309 176.925,16.001 L177.043,16.001 L177.043,10.359 C177.043,9.203 176.987,8.105 176.695,7.461 C176.495,7.001 175.507,6.887 174.437,6.653 L174.437,5.957 C175.191,6.051 176.235,6.075 177.535,6.075 C178.839,6.075 179.761,6.051 180.517,5.957 L180.517,6.653 C179.445,6.919 178.751,7.001 178.549,7.461 C178.257,8.105 178.203,9.203 178.203,10.359 L178.203,14.699 C178.203,16.149 178.203,19.333 178.289,20.543 L177.593,20.543 C176.293,19.039 175.105,17.679 173.863,16.379 L170.415,12.761 C169.085,11.343 168.273,10.473 167.143,9.203 L167.031,9.203 L167.031,16.149 C167.031,17.305 167.089,18.403 167.379,19.039 C167.581,19.505 168.563,19.621 169.633,19.851 L169.633,20.543 C168.883,20.461 167.695,20.429 166.395,20.429 C165.089,20.429 164.017,20.461 163.269,20.543 L163.269,19.851 C164.339,19.621 165.319,19.505 165.527,19.039 C165.815,18.403 165.875,17.305 165.875,16.149 L165.875,11.805 Z M156.035,11.805 C156.035,10.359 155.977,8.105 155.685,7.461 C155.487,7.001 154.499,6.887 153.429,6.653 L153.429,5.957 C154.473,6.051 155.917,6.075 157.223,6.075 C158.523,6.075 160.027,6.051 161.071,5.957 L161.071,6.653 C159.999,6.887 159.015,7.001 158.813,7.461 C158.523,8.105 158.465,10.359 158.465,11.805 L158.465,14.699 C158.465,16.149 158.523,18.403 158.813,19.039 C159.015,19.505 159.999,19.621 161.071,19.851 L161.071,20.543 C160.027,20.461 158.523,20.429 157.223,20.429 C155.917,20.429 154.473,20.461 153.429,20.543 L153.429,19.851 C154.499,19.621 155.487,19.505 155.685,19.039 C155.977,18.403 156.035,16.149 156.035,14.699 L156.035,11.805 Z M141.507,12.937 L145.385,9.285 C146.691,8.043 147.151,7.555 147.151,7.261 C147.151,6.973 146.461,6.797 145.589,6.653 L145.589,5.957 C146.575,6.051 147.269,6.075 148.141,6.075 C149.235,6.075 150.395,6.051 151.351,5.957 L151.351,6.653 C149.469,6.941 149.325,7.321 147.125,9.285 L143.969,12.125 L148.601,17.157 C150.309,19.011 150.769,19.333 152.277,19.851 L152.277,20.543 C151.549,20.461 150.629,20.403 150.045,20.403 C149.469,20.403 148.977,20.429 148.223,20.543 C147.301,19.419 146.633,18.637 146.079,17.997 L141.507,12.937 Z M141.161,16.149 C141.161,17.305 141.223,18.403 141.507,19.039 C141.711,19.505 142.407,19.591 143.477,19.851 L143.477,20.543 C142.433,20.461 140.961,20.429 139.945,20.429 C138.933,20.429 137.457,20.461 136.415,20.543 L136.415,19.851 C137.487,19.591 138.183,19.505 138.385,19.039 C138.671,18.403 138.735,17.305 138.735,16.149 L138.735,10.359 C138.735,9.203 138.671,8.105 138.385,7.461 C138.183,7.001 137.487,6.919 136.415,6.653 L136.415,5.957 C137.457,6.051 138.933,6.075 139.945,6.075 C140.961,6.075 142.149,6.051 143.185,5.957 L143.185,6.653 C142.119,6.919 141.711,7.001 141.507,7.461 C141.223,8.105 141.161,9.203 141.161,10.359 L141.161,16.149 Z M118.647,10.359 C118.647,9.203 118.593,8.043 118.305,7.411 C118.101,6.941 117.407,6.919 116.335,6.653 L116.335,5.957 C117.379,6.051 118.567,6.075 119.869,6.075 C121.171,6.075 122.355,6.051 123.399,5.957 L123.399,6.653 C122.329,6.919 121.633,6.941 121.429,7.411 C121.141,8.043 121.079,9.203 121.079,10.359 L121.079,12.273 C121.661,12.355 122.761,12.387 123.977,12.387 L126.465,12.387 C127.679,12.387 128.781,12.355 129.359,12.273 L129.359,10.359 C129.359,9.203 129.301,8.043 129.009,7.411 C128.813,6.941 128.119,6.919 127.045,6.653 L127.045,5.957 C128.085,6.051 129.273,6.075 130.575,6.075 C131.875,6.075 133.063,6.051 134.105,5.957 L134.105,6.653 C133.035,6.919 132.339,6.941 132.137,7.411 C131.849,8.043 131.789,9.203 131.789,10.359 L131.789,16.149 C131.789,17.305 131.849,18.403 132.137,19.039 C132.339,19.505 133.035,19.653 134.105,19.851 L134.105,20.543 C133.063,20.461 131.875,20.429 130.575,20.429 C129.273,20.429 128.085,20.461 127.045,20.543 L127.045,19.851 C128.119,19.653 128.813,19.505 129.009,19.039 C129.301,18.403 129.359,17.305 129.359,16.149 L129.359,13.657 C128.781,13.571 127.679,13.543 126.465,13.543 L123.977,13.543 C122.761,13.543 121.661,13.571 121.079,13.657 L121.079,16.149 C121.079,17.305 121.141,18.403 121.429,19.039 C121.633,19.505 122.329,19.653 123.399,19.851 L123.399,20.543 C122.355,20.461 121.171,20.429 119.869,20.429 C118.567,20.429 117.379,20.461 116.335,20.543 L116.335,19.851 C117.407,19.653 118.101,19.505 118.305,19.039 C118.593,18.403 118.647,17.305 118.647,16.149 L118.647,10.359 Z M103.429,16.325 L104.183,16.325 C104.473,17.277 104.937,18.059 105.425,18.579 C105.977,19.183 107.079,19.679 108.553,19.679 C109.883,19.679 111.415,19.129 111.415,17.505 C111.415,15.797 110.461,15.277 108.641,14.497 L106.703,13.657 C104.647,12.761 103.805,11.457 103.805,9.899 C103.805,6.859 106.613,5.673 108.727,5.673 C110.461,5.673 111.739,6.133 113.067,6.423 C112.983,7.207 112.983,7.555 112.983,8.071 C112.983,8.765 113.009,9.261 113.039,9.899 L112.289,9.899 C112.053,8.969 111.855,8.305 111.245,7.695 C110.667,7.113 109.567,6.829 108.727,6.829 C107.369,6.829 106.067,7.433 106.067,9.001 C106.067,10.505 106.815,11.083 107.801,11.489 L109.769,12.297 C111.995,13.223 113.735,14.329 113.735,16.551 C113.735,19.825 110.345,20.837 108.553,20.837 C106.441,20.837 105.195,20.403 103.777,20.285 C103.723,18.433 103.517,17.019 103.429,16.325 Z M86.245,10.359 C86.245,9.203 86.185,8.105 85.899,7.461 C85.695,7.001 84.999,6.919 83.929,6.653 L83.929,5.957 C84.973,6.051 86.157,6.075 87.461,6.075 C88.761,6.075 89.949,6.051 90.993,5.957 L90.993,6.653 C89.921,6.919 89.227,7.001 89.017,7.461 C88.735,8.105 88.675,9.203 88.675,10.359 L88.675,15.277 C88.675,18.145 89.921,19.679 92.495,19.679 C96.809,19.679 97.531,16.727 97.531,13.543 L97.531,10.359 C97.531,9.203 97.473,8.105 97.183,7.461 C96.983,7.001 96.287,6.919 95.213,6.653 L95.213,5.957 C95.969,6.051 96.869,6.075 98.167,6.075 C99.469,6.075 100.369,6.051 101.119,5.957 L101.119,6.653 C100.045,6.919 99.355,7.001 99.151,7.461 C98.863,8.105 98.805,9.203 98.805,10.359 L98.805,13.543 C98.805,17.625 97.473,20.837 92.495,20.837 C87.343,20.837 86.245,18.231 86.245,15.277 L86.245,10.359 Z M71.777,14.699 C71.777,16.149 71.777,18.289 72.183,18.927 C72.473,19.355 73.601,19.591 74.961,19.851 L74.961,20.601 C73.633,20.515 71.717,20.429 70.415,20.429 C69.113,20.429 67.495,20.515 66.451,20.601 L66.451,19.851 C67.523,19.591 68.363,19.355 68.653,18.927 C69.059,18.289 69.059,16.149 69.059,14.699 L69.059,6.019 C69.059,4.575 69.059,2.429 68.653,1.793 C68.363,1.355 67.523,1.125 66.451,0.867 L66.451,0.113 C67.495,0.203 69.113,0.289 70.129,0.289 C71.141,0.289 73.137,0.001 74.177,0.001 C78.813,0.001 81.907,2.223 81.907,6.165 C81.907,9.027 79.793,12.273 74.875,12.273 C74.007,12.273 73.251,12.091 72.645,11.953 L72.645,11.195 C73.167,11.289 73.633,11.313 74.469,11.313 C78.869,11.313 78.899,7.781 78.899,6.337 C78.899,1.473 76.175,1.211 74.177,1.211 C73.661,1.211 72.619,1.333 71.895,1.559 C71.805,2.317 71.777,4.575 71.777,6.019 L71.777,14.699 Z M47.993,13.543 C47.355,13.543 47.009,13.571 46.605,13.633 L46.605,16.149 C46.605,17.305 46.633,18.199 46.749,19.097 C47.413,19.243 48.633,19.273 49.671,19.273 C50.539,19.273 51.957,19.211 52.479,18.867 C53.003,18.523 53.517,17.825 54.129,16.551 L54.883,16.551 C54.589,17.883 54.391,19.211 54.273,20.543 C53.085,20.461 50.369,20.429 48.339,20.429 L45.593,20.429 C44.869,20.429 42.899,20.461 41.859,20.543 L41.859,19.851 C42.929,19.591 43.593,19.505 43.827,19.039 C44.143,18.403 44.171,17.305 44.171,16.149 L44.171,10.359 C44.171,9.203 44.113,8.105 43.827,7.461 C43.625,7.001 42.929,6.919 41.859,6.653 L41.859,5.957 C42.899,6.051 44.809,6.075 45.531,6.075 L46.547,6.075 C48.287,6.075 51.523,5.957 54.245,5.957 C53.983,7.087 53.723,8.509 53.609,9.375 L52.911,9.375 C52.769,8.653 52.625,8.015 52.277,7.609 C51.903,7.145 50.685,7.145 49.815,7.145 C48.949,7.145 48.399,7.145 46.805,7.261 C46.633,7.781 46.605,9.203 46.605,10.359 L46.605,12.297 C47.009,12.355 47.385,12.387 47.993,12.387 L48.805,12.387 C49.645,12.387 50.657,12.387 51.059,11.923 C51.407,11.543 51.549,11.195 51.787,10.593 L52.479,10.593 C52.363,11.637 52.331,12.273 52.331,12.961 C52.331,13.715 52.331,14.293 52.449,15.337 L51.751,15.337 C51.549,14.731 51.407,14.293 51.031,13.919 C50.657,13.543 49.619,13.543 48.805,13.543 L47.993,13.543 Z M24.093,10.359 C24.093,9.203 24.035,8.043 23.745,7.411 C23.543,6.941 22.847,6.919 21.777,6.653 L21.777,5.957 C22.819,6.051 24.007,6.075 25.309,6.075 C26.613,6.075 27.801,6.051 28.839,5.957 L28.839,6.653 C27.769,6.919 27.075,6.941 26.871,7.411 C26.581,8.043 26.523,9.203 26.523,10.359 L26.523,12.273 C27.101,12.355 28.203,12.387 29.415,12.387 L31.907,12.387 C33.119,12.387 34.223,12.355 34.801,12.273 L34.801,10.359 C34.801,9.203 34.743,8.043 34.451,7.411 C34.247,6.941 33.559,6.919 32.489,6.653 L32.489,5.957 C33.527,6.051 34.715,6.075 36.015,6.075 C37.317,6.075 38.503,6.051 39.547,5.957 L39.547,6.653 C38.477,6.919 37.781,6.941 37.577,7.411 C37.289,8.043 37.231,9.203 37.231,10.359 L37.231,16.149 C37.231,17.305 37.289,18.403 37.577,19.039 C37.781,19.505 38.477,19.653 39.547,19.851 L39.547,20.543 C38.503,20.461 37.317,20.429 36.015,20.429 C34.715,20.429 33.527,20.461 32.489,20.543 L32.489,19.851 C33.559,19.653 34.247,19.505 34.451,19.039 C34.743,18.403 34.801,17.305 34.801,16.149 L34.801,13.657 C34.223,13.571 33.119,13.543 31.907,13.543 L29.415,13.543 C28.203,13.543 27.101,13.571 26.523,13.657 L26.523,16.149 C26.523,17.305 26.581,18.403 26.871,19.039 C27.075,19.505 27.769,19.653 28.839,19.851 L28.839,20.543 C27.801,20.461 26.613,20.429 25.309,20.429 C24.007,20.429 22.819,20.461 21.777,20.543 L21.777,19.851 C22.847,19.653 23.543,19.505 23.745,19.039 C24.035,18.403 24.093,17.305 24.093,16.149 L24.093,10.359 Z M9.335,6.019 C9.335,4.575 9.335,2.777 9.191,1.707 C8.063,1.617 7.457,1.617 6.381,1.617 C5.311,1.617 3.691,1.821 3.027,2.371 C2.567,2.747 2.101,4.047 1.751,4.859 L0.999,4.859 C1.235,3.411 1.345,1.301 1.465,0.113 C2.507,0.203 4.995,0.289 7.311,0.289 L14.079,0.289 C16.399,0.289 17.527,0.259 20.335,0.113 C20.105,1.587 19.899,3.355 19.757,4.859 L19.003,4.859 C18.891,4.165 18.625,2.665 18.281,2.317 C17.903,1.937 16.745,1.617 14.749,1.617 C13.849,1.617 13.161,1.649 12.231,1.707 C12.059,2.805 12.059,4.575 12.059,6.019 L12.059,14.699 C12.059,16.149 12.059,18.289 12.465,18.927 C12.749,19.355 13.883,19.621 14.951,19.851 L14.951,20.601 C13.911,20.515 11.999,20.429 10.699,20.429 C9.395,20.429 7.485,20.515 6.445,20.601 L6.445,19.851 C7.513,19.621 8.641,19.355 8.929,18.927 C9.335,18.289 9.335,16.149 9.335,14.699 L9.335,6.019 Z" id="path-1"></path>
        <path d="M0.06,0.152 L127.665,0.152 L127.665,21.514 L212.329,21.514 L212.329,0.152 L339.8,0 L339.8,83.472 L212.329,83.624 L212.329,106.482 L127.665,106.482 L127.665,83.624 L0.06,83.624 L0.06,0.152 Z M200.637,45.986 L200.953,44.148 L170.179,37.444 L139.281,44.148 L139.613,45.986 L170.191,39.496 L200.637,45.986 Z M195.341,91.626 L198.379,91.626 C198.379,91.626 198.419,88.544 198.419,74.604 C198.419,72.28 198.285,59.206 198.285,59.206 L195.415,59.206 C195.415,59.206 195.309,72.068 195.309,74.542 C195.309,88.5 195.341,91.626 195.341,91.626 Z M184.653,91.626 L187.691,91.626 C187.691,91.626 187.731,88.544 187.731,74.604 C187.731,72.28 187.597,59.206 187.597,59.206 L184.727,59.206 C184.727,59.206 184.617,72.068 184.617,74.542 C184.617,88.5 184.653,91.626 184.653,91.626 Z M173.965,91.626 L177.001,91.626 C177.001,91.626 177.047,88.544 177.047,74.604 C177.047,72.28 176.911,59.206 176.911,59.206 L174.039,59.206 C174.039,59.206 173.929,72.068 173.929,74.542 C173.929,88.5 173.965,91.626 173.965,91.626 Z M163.277,91.626 L166.321,91.626 C166.321,91.626 166.355,88.544 166.355,74.604 C166.355,72.28 166.227,59.206 166.227,59.206 L163.355,59.206 C163.355,59.206 163.247,72.068 163.247,74.542 C163.247,88.5 163.277,91.626 163.277,91.626 Z M152.595,91.626 L155.633,91.626 C155.633,91.626 155.669,88.544 155.669,74.604 C155.669,72.28 155.539,59.206 155.539,59.206 L152.669,59.206 C152.669,59.206 152.559,72.068 152.559,74.542 C152.559,88.5 152.595,91.626 152.595,91.626 Z M141.907,91.626 L144.941,91.626 C144.941,91.626 144.981,88.544 144.981,74.604 C144.981,72.28 144.851,59.206 144.851,59.206 L141.977,59.206 C141.977,59.206 141.871,72.068 141.871,74.542 C141.871,88.5 141.907,91.626 141.907,91.626 Z" id="path-3"></path>
    </defs>
    <g id="logo_en_white" stroke="none" stroke-width="1" fill="none" fill-rule="evenodd">
        <g id="Group-3" transform="translate(363.000000, 0.000000)">
            <mask id="mask-2" fill="white">
                <use xlink:href="#path-1"></use>
            </mask>
            <g id="Clip-2"></g>
            <polygon id="Fill-1" fill="#FFFFFF" mask="url(#mask-2)" points="0.9 84.44 202.26 84.44 202.26 -0.04 0.9 -0.04"></polygon>
        </g>
        <g id="Group-6">
            <mask id="mask-4" fill="white">
                <use xlink:href="#path-3"></use>
            </mask>
            <g id="Clip-5"></g>
            <polygon id="Fill-4" fill="#FFFFFF" mask="url(#mask-4)" points="0.06 106.52 339.9 106.52 339.9 -0.04 0.06 -0.04"></polygon>
        </g>
    </g>
</svg>