
<svg width="1847px" height="374px" viewBox="0 0 1847 374" version="1.1" xmlns="http://www.w3.org/2000/svg" xmlns:xlink="http://www.w3.org/1999/xlink">
    <defs>
        <filter x="-0.7%" y="-3.3%" width="101.3%" height="106.5%" filterUnits="objectBoundingBox" id="filter-1">
            <feOffset dx="0" dy="2" in="SourceAlpha" result="shadowOffsetOuter1"></feOffset>
            <feGaussianBlur stdDeviation="2" in="shadowOffsetOuter1" result="shadowBlurOuter1"></feGaussianBlur>
            <feColorMatrix values="0 0 0 0 0   0 0 0 0 0   0 0 0 0 0  0 0 0 0.5 0" type="matrix" in="shadowBlurOuter1" result="shadowMatrixOuter1"></feColorMatrix>
            <feMerge>
                <feMergeNode in="shadowMatrixOuter1"></feMergeNode>
                <feMergeNode in="SourceGraphic"></feMergeNode>
            </feMerge>
        </filter>
    </defs>
    <g id="Page-1" stroke="none" stroke-width="1" fill="none" fill-rule="evenodd">
        <g id="main-title" filter="url(#filter-1)" transform="translate(4.000000, 1.000000)" fill="#FFFFFF" fill-rule="nonzero">
            <g id="Group">
                <path d="M390.531,5.44074 C401.228,5.44074 411.117,5.44074 421.41,5.44074 C415.153,30.8741 418.786,56.5093 417.575,82.5482 C431.703,81.7407 445.023,81.1352 458.344,80.1259 C459.555,80.1259 461.977,77.9056 461.977,76.8963 C461.573,59.1333 461.169,41.3704 460.16,23.6074 C459.958,19.7722 458.142,15.937 456.729,12.1019 C454.913,7.25741 456.124,5.23889 461.371,5.23889 C469.646,5.23889 478.123,5.23889 486.801,5.23889 C481.15,28.4519 483.572,51.6648 483.168,74.8778 C482.563,110 482.967,145.324 482.967,180.446 C482.967,190.741 483.168,201.237 488.618,210.724 C489.425,212.137 488.819,214.559 488.819,216.578 C478.325,216.578 468.435,216.578 457.94,216.578 C458.546,213.954 459.151,211.531 459.353,209.109 C460.362,199.219 461.775,189.53 461.977,179.639 C462.38,153.196 461.977,126.754 462.179,100.1093 C462.179,95.6685 460.968,93.8518 456.326,94.0537 C443.813,94.4574 431.098,94.2556 418.383,94.2556 C418.181,95.6685 417.777,96.6778 417.777,97.4852 C417.777,128.167 417.575,158.848 418.181,189.53 C418.383,196.393 421.208,203.054 422.823,209.917 C423.226,211.935 423.226,213.954 423.63,216.376 C412.732,216.376 402.438,216.376 391.742,216.376 C397.595,198.007 396.182,179.235 396.384,160.665 C396.586,122.717 396.586,84.9704 396.384,47.0222 C396.384,34.9111 396.384,22.8 390.934,11.4963 C389.925,10.08333 390.531,7.66111 390.531,5.44074 Z" id="Path"></path>
                <path d="M536.652,205.476 C539.679,203.256 543.312,201.439 545.734,198.613 C554.412,188.722 559.054,176.611 562.486,164.096 C568.137,144.315 569.549,124.13 564.907,103.944 C562.485,93.0445 557.44,83.7593 544.523,81.9426 C543.514,81.7407 542.101,79.9241 542.101,78.9148 C542.101,77.9056 543.716,76.6944 544.927,76.2907 C566.118,69.0241 584.081,80.1259 589.53,103.339 C594.172,123.726 590.741,143.306 584.888,162.683 C581.053,175.804 575.2,187.915 566.32,198.613 C556.834,209.917 545.734,217.587 529.992,216.376 C523.331,215.972 516.671,216.376 509.607,216.376 C516.066,195.585 513.644,174.593 513.846,154.004 C514.249,117.267 514.249,80.5296 514.249,43.9944 C514.249,36.9296 513.442,29.8648 512.433,23.0019 C512.029,19.3685 510.415,15.937 509.204,12.5056 C507.185,6.8537 508.195,5.03704 514.048,5.03704 C522.322,5.03704 530.799,5.03704 539.477,5.03704 C533.826,25.8278 535.643,46.4167 535.441,67.0056 C535.037,110.606 535.037,154.206 534.835,197.806 C534.835,199.824 534.835,201.843 534.835,203.861 C535.643,204.467 536.046,204.87 536.652,205.476 Z" id="Path"></path>
                <path d="M140.268,136.443 C138.452,133.415 137.039,131.396 139.865,129.176 C153.185,119.083 159.24,104.55 163.276,89.2093 C167.716,71.6481 168.927,53.6833 162.469,36.3241 C157.221,22.1944 146.928,14.9278 133.81,15.937 C133.81,17.5518 133.608,19.1667 133.608,20.7815 C133.204,69.8315 133.002,119.285 133.002,168.537 C133.002,178.226 133.608,187.915 134.617,197.604 C135.021,201.843 137.443,205.678 138.452,209.917 C139.057,211.935 138.855,213.954 139.259,216.376 C128.361,216.376 118.067,216.376 108.985,216.376 C113.829,156.022 110.6,95.4667 111.004,35.113 C111.004,27.4426 108.38,19.7722 106.362,12.3037 C105.151,7.45925 106.16,5.44074 111.205,5.44074 C120.489,5.44074 129.773,5.44074 138.855,5.44074 C170.34,5.44074 191.128,25.8278 190.119,57.3167 C189.11,86.787 177,111.009 153.185,128.974 C149.35,131.598 144.91,133.617 140.268,136.443 Z" id="Path"></path>
                <path d="M362.477,122.515 C365.505,122.919 367.926,123.322 370.348,123.928 C379.43,125.946 378.623,123.524 377.614,134.02 C375.596,153.6 371.963,172.776 364.495,191.144 C362.275,196.594 359.248,202.044 355.615,206.889 C344.111,222.633 327.562,223.239 314.241,208.706 C306.37,200.026 301.526,189.731 298.095,178.831 C290.426,153.802 287.802,127.965 289.215,101.926 C290.022,83.7593 292.04,65.7944 298.095,48.637 C302.333,36.7278 307.985,26.0296 316.865,16.7444 C325.745,7.45926 336.442,2.81667 349.359,3.42222 C356.826,3.82593 364.294,4.43148 372.568,5.03704 C371.156,13.9185 369.945,21.9926 368.734,30.0667 C367.119,39.9574 365.505,49.8481 363.688,59.7389 C363.486,61.1519 361.67,62.1611 360.459,63.3722 C359.45,61.9593 358.037,60.5463 357.835,58.9315 C356.624,48.4352 355.817,37.9389 354.606,27.6444 C354.404,25.6259 353.395,23.4056 352.386,21.5889 C347.946,13.313 339.873,11.2944 333.616,18.3593 C328.772,23.6074 324.938,30.4704 322.718,37.1315 C313.636,63.7759 312.223,91.6315 313.03,119.487 C313.636,141.085 315.654,162.683 322.718,183.272 C324.736,189.126 327.562,194.778 330.993,199.622 C336.442,207.091 344.313,206.889 348.148,198.613 C352.588,189.126 356.422,178.63 358.239,168.335 C360.661,154.407 361.064,140.076 362.477,125.946 C362.074,125.139 362.275,124.13 362.477,122.515 Z" id="Path"></path>
                <path d="M649.068,216.578 C654.719,200.631 653.912,185.089 653.912,169.546 C653.912,126.148 653.912,82.75 653.912,39.3519 C653.912,29.8648 652.903,20.5796 648.866,11.9 C646.646,7.25741 648.463,5.03704 653.508,5.03704 C671.673,4.83519 689.837,4.63334 708.001,4.43148 C711.432,4.43148 714.661,3.62408 718.092,3.42223 C722.734,3.22037 723.945,5.03704 722.331,9.27593 C720.312,14.1204 718.294,19.1667 716.074,24.4148 C703.965,18.9648 692.259,16.9463 680.149,16.3407 C676.113,16.1389 675.104,17.5519 675.104,21.387 C675.305,40.563 675.305,59.537 675.104,78.713 C675.104,82.75 676.113,84.3648 680.351,83.5574 C689.635,81.7407 699.121,79.9241 708.405,78.3093 C710.221,77.9055 712.038,78.5111 713.854,78.5111 C713.652,80.1259 714.056,82.1444 713.45,83.5574 C708.808,95.063 708.808,95.063 696.497,95.063 C690.846,95.063 684.993,95.2648 679.342,95.063 C676.315,95.063 675.104,95.8704 675.104,98.8981 C675.104,133.011 675.104,166.922 675.104,201.035 C675.104,204.265 676.516,205.072 679.342,204.87 C695.488,204.063 711.028,201.237 724.954,192.356 C725.964,191.75 728.385,191.548 729.193,192.154 C730.000037,192.759 730.202,195.181 729.798,196.393 C727.78,202.448 725.358,208.302 722.936,214.156 C722.533,215.165 720.918,216.578 719.707,216.578 C696.497,216.578 673.287,216.578 649.068,216.578 Z" id="Path"></path>
                <path d="M32.898,216.376 C21.9995,216.376 11.7064,216.376 1.21155,216.376 C6.45899,199.219 5.24804,181.859 5.44987,164.702 C5.65169,124.533 5.85352,84.163 5.85352,43.9944 C5.85352,32.8926 5.65169,21.7907 0.606075,11.4963 C-0.201224,9.88148 0.40425,7.66111 0.40425,5.44074 C10.6973,5.44074 20.7885,5.44074 30.8798,5.44074 C24.6232,34.7093 28.0542,64.1796 27.0451,93.4481 C26.036,122.717 26.6415,152.187 27.0451,181.456 C27.0451,191.346 27.2469,201.641 32.898,210.724 C33.5035,212.137 32.898,214.357 32.898,216.376 Z" id="Path"></path>
                <path d="M595.787,5.44074 C606.685,5.44074 616.575,5.44074 626.666,5.44074 C621.62,23.8093 622.629,42.3796 622.629,60.7481 C622.629,99.9074 622.629,138.865 622.629,178.024 C622.629,189.53 622.629,200.833 628.482,211.33 C629.491,213.146 629.895,216.578 626.262,216.578 C616.776,216.78 607.291,216.578 597.805,216.578 C604.667,181.052 600.832,145.526 601.64,110.404 C602.245,86.1815 602.043,61.7574 601.438,37.5352 C601.236,29.0574 598.209,20.5796 596.594,12.1018 C595.988,10.08333 595.988,7.86296 595.787,5.44074 Z" id="Path"></path>
                <path d="M43.1905,85.3741 C45.6124,85.7778 46.016,85.9796 46.6215,85.9796 C57.7219,86.3833 58.3274,86.1815 61.5565,97.0815 C68.8222,121.909 75.2806,147.141 82.1427,172.17 C85.7755,185.291 87.9956,198.613 95.2613,210.522 C96.0686,211.935 95.4631,214.357 95.4631,216.578 C86.1792,216.578 77.5007,216.578 68.0149,216.578 C66.4003,207.494 64.9876,198.209 62.9693,189.126 C57.5201,165.106 52.0708,141.085 45.6124,117.469 C43.1905,108.587 40.7686,98.8982 32.0901,93.0445 C31.081,92.4389 31.4847,88.6037 32.292,86.7871 C38.7504,72.6574 45.8142,58.7296 51.6671,44.3982 C55.0982,35.9204 57.3182,26.837 59.3365,17.9556 C60.1438,14.1204 58.9328,9.88148 58.5292,5.6426 C69.0241,5.6426 78.7116,5.6426 88.6011,5.6426 C73.4642,31.8833 58.5292,58.1241 43.1905,85.3741 Z" id="Path"></path>
                <path d="M281.344,208.907 C279.729,205.072 277.307,201.439 276.298,197.604 C274.482,190.741 273.069,183.878 272.06,177.015 C268.225,151.985 264.794,126.956 261.161,101.926 C256.519,70.0333 251.675,37.9389 246.832,6.04629 C246.428,3.82592 247.235,1.201851 243.401,0.999998786 C239.97,0.798147 239.566,3.01852 238.96,5.23889 C224.631,56.1056 210.705,107.174 195.972,158.041 C190.321,177.62 186.89,198.007 175.588,216.578 C184.266,216.578 191.935,216.578 199.806,216.578 C205.256,216.578 205.861,215.165 205.256,209.917 C204.448,203.054 203.238,195.989 204.045,189.126 C205.659,177.015 208.889,165.106 211.109,153.196 C211.714,150.572 212.925,149.765 215.549,149.765 C221.604,149.967 227.658,149.765 233.713,149.765 C245.419,149.765 246.024,149.765 247.033,161.472 C248.648,179.639 254.703,197.604 248.648,216.376 C258.537,216.376 268.023,216.376 277.711,216.376 C279.325,216.376 282.151,215.569 282.353,214.761 C282.555,213.146 281.949,210.926 281.344,208.907 Z M214.943,138.259 C221.402,111.211 227.456,84.9704 233.713,58.9315 C234.319,58.9315 234.722,58.9315 235.328,58.9315 C238.153,84.7685 241.181,110.606 244.208,137.048 C234.52,137.25 225.236,137.654 214.943,138.259 Z" id="Shape"></path>
            </g>
            <g id="Group" transform="translate(767.000000, 244.000000)">
                <path d="M168.997,75.893 C169.34,74.752 169.226,73.154 169.912,72.47 C176.431,67.334 179.862,60.258 182.263,52.726 C185.122,43.71 185.809,34.466 184.093,25.222 C183.178,20.314 181.234,15.749 177.574,12.211 C174.487,9.13 170.827,7.761 166.253,8.331 C166.253,9.244 166.138,10.043 166.138,10.842 C166.024,39.373 165.91,67.905 165.91,96.436 C165.91,101.686 166.481,107.05 167.053,112.299 C167.282,114.125 168.197,115.837 168.769,117.663 C169.112,118.919 169.34,120.174 169.684,121.658 C163.394,121.658 157.561,121.658 152.415,121.658 C155.045,86.964 153.559,52.269 153.444,17.689 C153.444,13.809 151.957,9.929 150.814,6.163 C150.128,3.652 150.699,2.397 153.33,2.397 C158.705,2.397 163.965,2.397 169.34,2.397 C186.952,2.511 198.731,13.923 198.274,31.613 C197.816,48.503 190.726,62.541 176.774,72.698 C174.715,74.181 172.314,75.209 170.141,76.464 C169.798,76.236 169.455,76.007 168.997,75.893 Z" id="Path"></path>
                <path d="M229.838,0.342 C230.753,7.646 231.782,14.95 232.697,22.254 C235.1,40.857 237.5,59.459 240.02,78.062 C241.39,88.447 242.99,98.833 244.82,109.218 C245.39,112.185 247.11,114.924 248.25,117.891 C248.59,118.919 248.82,120.174 248.59,121.315 C248.48,121.658 246.99,122 246.19,122 C240.7,122.114 235.21,122 229.38,122 C232.926,114.011 230.524,106.137 229.952,98.49 C228.465,79.888 226.636,61.285 224.92,42.683 C224.577,39.373 224.234,36.178 223.434,32.754 C223.205,33.325 222.862,33.895 222.747,34.58 C217.372,57.063 211.997,79.545 206.737,102.028 C205.479,107.392 204.678,112.984 206.851,118.576 C207.766,120.859 206.737,122 204.449,122 C199.761,122 195.186,122 190.04,122 C196.215,112.642 197.931,102.028 200.904,91.985 C209.481,62.198 217.715,32.412 226.064,2.511 C226.521,0.114 227.551,-0.342 229.838,0.342 Z" id="Path"></path>
                <path d="M256.03,121.886 C259.11,113.555 258.77,105.338 258.77,97.235 C258.89,72.127 258.77,47.02 258.66,21.912 C258.66,16.548 258.2,11.184 255.8,6.163 C254.54,3.652 255.68,2.283 258.54,2.283 C268.95,2.168 279.24,2.054 289.65,1.94 C291.59,1.94 293.42,1.484 295.37,1.37 C297.54,1.255 298.34,2.283 297.54,4.337 C296.62,6.619 295.6,8.902 294.8,11.184 C294.22,13.01 293.31,12.896 291.82,12.326 C285.3,9.701 278.56,8.788 271.24,8.788 C271.12,9.929 271.01,10.842 271.01,11.755 C271.01,22.483 271.01,33.21 271.01,43.938 C271.01,46.335 271.69,47.248 274.1,46.791 C279.36,45.764 284.73,44.737 289.99,43.71 C290.91,43.596 292.28,43.482 292.74,43.938 C293.19,44.395 292.97,45.878 292.62,46.677 C289.99,53.297 289.88,53.297 282.79,53.297 C279.59,53.297 276.27,53.411 273.07,53.297 C271.47,53.297 270.89,53.867 270.89,55.465 C270.89,74.752 270.89,93.925 270.89,113.212 C270.89,115.038 271.58,115.495 273.3,115.381 C282.44,114.924 291.25,113.326 299.03,108.305 C299.6,107.963 300.97,107.848 301.54,108.191 C302,108.533 302.11,109.903 301.89,110.587 C300.74,113.897 299.48,117.207 298.11,120.402 C297.77,121.087 296.85,122 296.17,122 C282.9,121.886 269.75,121.886 256.03,121.886 Z" id="Path"></path>
                <path d="M50.862,63.682 C49.146,58.204 46.173,53.753 40.798,51.242 C38.053,49.987 35.194,49.416 32.907,48.732 C35.766,45.422 39.311,42.226 41.827,38.46 C46.059,32.069 47.202,24.765 45.601,17.233 C43.886,9.13 37.596,3.88 27.989,3.081 C19.984,2.397 11.864,2.511 3.745,2.397 C1.229,2.397 0.314,3.652 1.343,6.049 C3.859,11.641 4.202,17.575 4.202,23.624 C4.202,46.791 4.202,69.845 4.202,93.012 C4.202,102.713 4.545,112.299 1.801,122 C5.803,122 9.577,121.658 13.351,122.114 C20.213,122.799 25.473,119.718 30.391,115.609 C39.769,107.848 45.944,97.805 49.718,86.393 C52.348,78.861 53.263,71.328 50.862,63.682 Z M24.215,110.702 C22.386,112.87 19.641,114.354 17.239,116.18 C16.896,115.951 16.553,115.723 16.21,115.495 C16.21,114.468 16.21,113.441 16.21,112.413 C16.21,78.861 16.21,45.308 16.21,11.755 C16.21,7.761 16.21,7.761 20.213,8.217 C26.503,8.788 30.734,12.326 32.221,18.945 C34.394,28.988 32.907,38.574 26.846,47.02 C25.816,48.389 24.444,49.416 23.301,50.672 C22.843,51.128 22.386,51.927 22.386,52.498 C22.386,52.84 23.301,53.297 23.872,53.411 C32.793,54.438 37.481,61.514 38.282,70.301 C39.654,85.822 34.165,99.061 24.215,110.702 Z" id="Shape"></path>
                <path d="M143.609,117.891 C142.351,114.582 140.407,111.386 139.835,107.963 C137.891,97.691 136.404,87.42 134.918,77.149 C132.516,61.285 130.114,45.308 127.827,29.33 C126.34,19.63 124.968,10.043 123.481,0.342 C121.308,-0.342 120.051,-0.114 119.479,2.168 C110.902,32.868 102.324,63.454 93.747,94.039 C91.918,100.544 89.973,107.164 87.801,113.555 C86.886,116.294 85.17,118.919 83.798,121.772 C88.487,121.772 92.947,121.772 97.407,121.772 C100.495,121.772 100.952,120.973 100.38,118.006 C99.808,114.924 99.008,111.729 99.465,108.761 C100.609,101.001 102.324,93.355 103.926,85.594 C104.04,85.023 104.955,84.11 105.527,84.11 C111.359,83.996 117.306,83.996 123.367,83.996 C124.282,92.099 125.426,99.974 126.112,107.848 C126.455,112.299 125.997,116.864 125.883,121.658 C130.801,121.658 136.176,121.658 141.551,121.658 C142.351,121.658 143.838,121.315 143.952,120.859 C144.066,120.174 143.952,118.919 143.609,117.891 Z M105.87,77.491 C109.529,62.198 113.074,47.362 116.505,32.526 C116.734,32.526 117.077,32.526 117.306,32.526 C118.907,47.248 120.622,61.856 122.338,76.806 C116.734,77.035 111.588,77.263 105.87,77.491 Z" id="Shape"></path>
            </g>
            <path d="M1003.04,7.69893 C998.044,33.6455 1000.71,59.5921 999.875,85.1301 C1004.2,85.1301 1008.2,85.3344 1012.19,85.1301 C1019.18,84.7215 1026.34,84.3129 1033.33,83.4957 C1034.5,83.2914 1036.49,81.4526 1036.33,80.2268 C1035.83,61.0222 1035.33,42.022 1034.33,22.8174 C1034.16,18.9356 1032.5,15.0539 1031.67,11.1721 C1031.5,10.35488 1032,9.12906 1032.17,7.90324 C1040.32,7.90324 1048.48,7.90324 1055.8,7.90324 C1052.14,67.7643 1054.47,127.83 1053.97,187.691 C1053.81,197.089 1054.64,206.691 1058.63,215.272 C1059.3,216.702 1058.8,219.153 1058.8,221.196 C1050.14,221.196 1041.99,221.196 1033.67,221.196 C1038.99,182.174 1035.83,143.152 1036.66,104.335 C1036.83,97.5926 1036.66,97.5926 1031.33,97.5926 C1022.18,97.5926 1013.02,97.5926 1003.87,97.5926 C1001.37,97.5926 1000.04,98.0012 1000.04,101.679 C1000.21,132.324 1000.04,163.174 1000.54,193.82 C1000.71,200.766 1003.2,207.917 1004.37,214.863 C1004.7,216.906 1004.7,219.153 1004.7,221.196 C995.714,221.196 987.391,221.196 978.735,221.196 C984.395,194.024 981.731,166.647 982.064,139.475 C982.397,105.56 982.231,71.646 981.731,37.5273 C981.565,29.968 979.567,22.2045 977.903,14.8496 C976.738,9.53767 977.404,7.49463 981.731,7.49463 C988.722,7.69893 995.714,7.69893 1003.04,7.69893 Z" id="Path"></path>
            <path d="M1556,221.605 C1547.18,221.605 1539.02,221.605 1530.86,221.605 C1536.19,181.766 1533.03,141.927 1533.86,102.087 C1533.86,99.0227 1533.03,97.7969 1530.53,97.7969 C1520.54,97.7969 1510.56,98.0012 1500.57,97.7969 C1498.07,97.7969 1497.24,98.8184 1497.24,101.883 C1497.41,132.937 1497.24,163.991 1497.74,195.046 C1497.91,201.788 1500.4,208.325 1501.57,215.067 C1501.9,216.906 1501.9,218.949 1502.07,221.401 C1493.25,221.401 1484.76,221.401 1475.93,221.401 C1481.59,195.25 1479.1,168.895 1479.26,142.744 C1479.6,108.216 1479.43,73.4848 1478.93,38.9574 C1478.76,30.7853 1476.6,22.8174 1474.94,14.8496 C1473.94,9.94626 1474.6,7.90322 1478.93,7.90322 C1485.92,7.90322 1493.08,7.90322 1500.4,7.90322 C1495.41,33.8498 1497.91,59.5921 1497.07,86.1516 C1509.39,85.3344 1521.38,84.5172 1533.86,83.7 C1533.86,74.7106 1534.03,66.1298 1533.86,57.7534 C1533.69,49.3769 1533.86,41.0004 1533.03,32.8283 C1532.2,24.6561 1530.36,16.6883 1528.87,8.10753 C1537.86,8.10753 1546.01,8.10753 1554.33,8.10753 C1549.67,29.968 1551.34,51.8285 1551.17,73.6891 C1550.84,110.872 1551,148.056 1551.17,185.239 C1551.17,195.863 1551.5,206.282 1555.83,215.885 C1556.66,217.11 1556,219.562 1556,221.605 Z" id="Path"></path>
            <path d="M905.495,7.69991 C899.836,49.9908 903.664,91.8731 902.333,133.347 C902.166,139.68 902.333,146.014 903.165,152.551 C904.497,148.874 905.828,145.401 906.993,141.723 C922.141,96.7764 937.288,51.8295 952.269,6.67839 C953.767,1.979405 955.931,2.59232 959.094,4.22675 C958.761,6.8827 958.095,9.74295 957.928,12.3989 C957.263,20.571 956.264,28.5389 956.264,36.711 C956.097,87.3784 955.931,137.841 956.43,188.509 C956.43,197.089 958.927,205.67 960.758,214.047 C961.923,219.359 961.257,221.402 956.763,221.402 C949.772,221.402 942.615,221.402 935.124,221.402 C935.79,217.52 936.622,214.251 936.955,210.778 C937.621,202.606 938.287,194.638 938.453,186.466 C938.953,152.551 939.119,118.637 939.286,84.7224 C939.286,83.2923 939.286,81.8622 938.453,80.0234 C935.624,87.787 932.96,95.5505 930.131,103.518 C916.481,142.54 902.666,181.767 889.016,220.789 C888.184,223.24 887.518,225.283 884.689,224.466 C882.525,223.649 881.692,222.627 882.192,219.767 C886.02,199.95 884.855,179.928 885.021,159.906 C885.188,119.863 884.855,79.8191 884.689,39.7756 C884.689,30.9905 883.523,22.2055 880.028,14.2376 C878.363,10.35586 879.861,7.69991 883.357,7.69991 C890.847,7.69991 898.171,7.69991 905.495,7.69991 Z" id="Path"></path>
            <path d="M1595.61,153.164 C1598.44,144.992 1601.27,136.615 1604.1,128.443 C1617.59,88.3997 1631.07,48.1519 1644.55,7.90406 C1645.88,3.61368 1647.55,1.570644 1651.88,4.4309 C1651.38,7.49545 1650.71,10.96862 1650.38,14.2375 C1649.88,21.3881 1649.05,28.7431 1649.05,36.098 C1648.88,86.7653 1649.05,137.637 1649.05,188.304 C1649.05,197.294 1650.05,206.283 1653.37,214.455 C1654.04,216.294 1653.71,218.746 1653.71,221.197 C1644.89,221.197 1636.4,221.197 1628.07,221.197 C1633.57,190.552 1630.4,159.497 1631.24,128.648 C1631.57,114.346 1631.74,100.0451 1631.9,85.9481 C1631.9,84.3137 1631.9,82.6792 1630.9,80.8405 C1630.24,82.6792 1629.57,84.3137 1628.91,86.1524 C1613.09,131.099 1597.45,175.842 1581.8,220.789 C1580.8,223.649 1579.97,225.488 1576.97,224.466 C1573.64,223.445 1574.81,220.993 1574.97,218.541 C1575.81,207.917 1577.3,197.294 1577.3,186.67 C1577.47,138.046 1577.47,89.6256 1577.3,41.0013 C1577.3,31.8076 1576.47,22.8182 1572.81,14.4418 C1572.14,12.8074 1572.48,10.35571 1572.48,7.90406 C1581.47,7.90406 1589.79,7.90406 1598.44,7.90406 C1597.61,12.8074 1596.45,17.5063 1596.11,22.2053 C1595.45,29.5603 1595.12,37.1195 1595.12,44.4744 C1594.78,78.1846 1594.62,112.099 1594.45,145.809 C1594.45,148.056 1594.45,150.508 1594.45,152.755 C1594.78,152.96 1595.28,153.164 1595.61,153.164 Z" id="Path"></path>
            <path d="M1816.5,80.0215 C1811.17,94.9357 1806.01,109.646 1800.85,124.151 C1789.53,156.431 1778.22,188.711 1767.06,220.991 C1766.06,223.851 1765.23,225.486 1762.24,224.464 C1759.07,223.443 1760.07,220.991 1760.24,218.54 C1761.07,208.12 1762.57,197.701 1762.57,187.281 C1762.74,136.614 1762.57,86.1506 1762.24,35.4833 C1762.24,28.5369 1759.91,21.5906 1758.07,15.0529 C1756.74,10.14959 1757.57,7.90225 1761.57,7.90225 C1768.89,7.90225 1776.22,7.90225 1783.21,7.90225 C1777.55,49.9888 1781.54,91.8711 1780.05,133.549 C1779.88,139.883 1780.05,146.216 1780.88,153.162 C1781.38,151.732 1781.88,150.506 1782.38,149.076 C1798.19,102.291 1814,55.5051 1829.65,8.51516 C1831.15,4.22478 1832.48,1.977436 1836.81,5.04199 C1836.64,6.47212 1836.47,8.51516 1836.31,10.35389 C1835.48,19.3433 1834.14,28.1283 1834.14,37.1177 C1833.98,87.9894 1833.81,138.861 1834.31,189.937 C1834.31,198.109 1836.64,206.486 1838.47,214.658 C1839.8,220.174 1839.14,222.217 1834.48,222.217 C1827.49,222.217 1820.33,222.217 1813.34,222.217 C1818.83,186.872 1815.5,151.528 1816.33,116.388 C1816.67,104.129 1816.5,92.2797 1816.5,80.0215 Z" id="Path"></path>
            <path d="M1260.21,139.271 C1260.71,137.228 1260.54,134.367 1261.71,133.346 C1271.2,123.948 1276.19,111.281 1279.68,97.5926 C1283.85,81.4526 1284.68,64.904 1282.18,48.3554 C1280.85,38.9574 1277.52,30.581 1271.53,24.2475 C1267.2,19.5485 1262.21,17.9141 1256.05,18.7313 C1256.05,24.6561 1256.05,30.581 1256.05,36.5058 C1255.88,83.6999 1255.72,130.894 1255.72,178.088 C1255.72,187.282 1256.71,196.271 1257.38,205.465 C1257.55,208.325 1258.88,210.981 1259.54,213.637 C1260.21,216.293 1260.71,218.949 1261.37,222.014 C1252.05,222.014 1243.56,222.014 1236.07,222.014 C1240.4,161.131 1237.41,100.2486 1237.9,39.5703 C1237.9,31.6025 1235.41,23.4303 1234.08,15.2582 C1233.74,13.0108 1233.91,10.76348 1233.74,7.69893 C1246.56,8.31184 1258.54,7.90323 1270.53,9.53766 C1287.51,11.9893 1299.66,28.3336 1302.49,49.9898 C1306.98,83.2913 1288.84,125.174 1264.04,139.271 C1263.37,139.679 1262.54,140.088 1261.71,140.292 C1261.21,139.679 1260.71,139.475 1260.21,139.271 Z" id="Path"></path>
            <path d="M1219.59,31.1939 C1213.6,24.6562 1207.11,20.9787 1199.95,19.9572 C1196.79,19.5486 1193.63,19.3443 1190.13,19.14 C1189.97,21.183 1189.8,22.6131 1189.8,24.0432 C1189.8,77.9794 1189.8,131.916 1189.8,186.056 C1189.8,196.271 1190.13,206.282 1194.63,215.68 C1196.29,219.358 1194.79,221.809 1191.46,221.809 C1184.14,221.809 1176.82,221.809 1170.16,221.809 C1174.49,161.131 1171.66,100.8615 1172.32,40.5919 C1172.49,31.6025 1171.49,22.6131 1168.16,14.441 C1166.5,10.35489 1167.99,7.90325 1172.16,7.90325 C1186.8,7.69895 1201.62,7.49464 1216.27,7.08603 C1218.76,7.08603 1221.26,6.47312 1223.76,6.26882 C1227.08,6.06452 1228.08,7.90325 1226.75,11.5807 C1224.42,17.9141 1222.09,24.0432 1219.59,31.1939 Z" id="Path"></path>
            <path d="M1697.82,221.605 C1688.16,221.605 1679.67,221.605 1671.02,221.605 C1675.85,200.153 1674.18,178.293 1674.35,156.841 C1674.68,120.27 1674.68,83.9043 1674.68,47.3339 C1674.68,40.1832 1674.01,33.2369 1673.35,26.0863 C1673.18,23.4303 1672.52,20.7744 1671.68,18.3227 C1668.52,7.90322 1668.52,7.90322 1677.68,7.90322 C1683.67,7.90322 1689.49,7.90322 1695.82,7.90322 C1691.66,24.6561 1692.49,41.4091 1692.49,57.9577 C1692.32,100.4529 1692.16,142.744 1692.16,185.239 C1692.16,195.046 1692.49,204.852 1695.99,214.046 C1696.82,216.089 1697.15,218.54 1697.82,221.605 Z" id="Path"></path>
            <path d="M1749.09,221.605 C1740.93,221.605 1733.77,221.605 1726.12,221.605 C1723.95,208.121 1722.12,194.637 1719.79,181.153 C1715.79,156.841 1711.8,132.529 1704.14,109.647 C1702.48,104.743 1700.81,99.6357 1696.65,96.5711 C1695.82,95.9582 1695.82,91.8721 1696.49,90.0334 C1701.65,75.9364 1707.31,62.248 1712.3,47.9468 C1715.13,39.7746 1717.13,30.9896 1718.62,22.2045 C1719.46,17.9141 1718.46,13.0108 1718.29,7.90322 C1726.78,7.90322 1734.77,7.90322 1742.93,7.90322 C1730.61,34.4627 1718.29,61.2265 1705.64,88.8075 C1708.14,89.0118 1709.3,89.2161 1710.47,89.2161 C1717.63,89.2161 1717.96,89.2161 1719.96,97.7969 C1726.45,126.195 1732.44,154.593 1739.1,182.992 C1741.6,193.82 1745.42,204.239 1748.42,214.863 C1748.92,216.906 1748.75,218.949 1749.09,221.605 Z" id="Path"></path>
            <path d="M867.211,122.518 C865.213,110.259 860.386,100.2486 850.898,94.9367 C847.236,92.8936 843.075,92.0764 838.414,90.6463 C845.239,85.5387 850.399,79.2053 853.894,71.0331 C858.888,59.7964 860.553,47.7425 858.722,35.0756 C856.391,20.3658 847.236,10.55919 833.088,9.12906 C821.769,7.90324 810.117,8.31185 798.632,7.69894 C793.804,7.49463 793.305,9.33337 794.637,15.6668 C796.135,22.6131 797.966,29.7637 798.132,36.9144 C798.465,83.4956 798.299,129.873 798.465,176.454 C798.465,191.572 798.798,206.691 794.97,221.809 C801.128,221.809 806.954,221.401 812.614,222.014 C820.104,222.831 826.429,219.562 832.422,214.454 C847.07,201.788 856.724,184.626 863.216,164.4 C867.377,150.712 869.708,137.023 867.211,122.518 Z M848.235,140.701 C847.569,163.787 839.912,183.604 827.928,201.175 C824.931,205.669 821.269,209.347 815.943,210.777 C815.943,146.217 815.943,82.4741 815.943,18.527 C826.929,16.484 835.252,22.6131 838.248,35.0756 C842.908,54.8931 839.912,72.8718 830.091,89.4204 C828.926,91.4635 827.095,92.8936 825.597,94.528 C823.933,96.3668 823.933,98.4098 826.263,99.0227 C833.254,100.2486 839.246,103.722 843.241,111.281 C847.902,120.475 848.568,130.486 848.235,140.701 Z" id="Shape"></path>
            <path d="M1149.18,58.162 C1145.86,42.2263 1141.53,26.9035 1132.04,14.6453 C1121.72,1.365522 1108.24,0.752611 1097.42,13.0108 C1088.43,23.0217 1083.1,35.8929 1079.61,49.7855 C1068.62,92.2807 1069.45,134.98 1078.77,177.68 C1081.77,191.777 1086.76,204.852 1095.42,215.272 C1105.74,227.734 1119.39,228.347 1129.38,215.885 C1134.7,209.143 1139.36,200.766 1142.69,192.39 C1152.18,168.486 1154.34,142.335 1154.84,116.184 C1154.51,96.5711 1153.18,77.1622 1149.18,58.162 Z M1129.21,187.282 C1127.88,193.207 1125.88,199.132 1123.22,204.444 C1117.89,215.68 1108.4,215.476 1103.41,204.035 C1100.25,196.476 1097.58,188.304 1096.09,179.927 C1090.76,151.325 1090.93,122.109 1091.42,92.8936 C1091.76,73.2805 1093.42,53.6673 1098.58,34.8713 C1100.08,29.7638 1102.24,24.6562 1105.07,20.3658 C1110.07,12.8065 1117.23,13.6238 1121.72,21.7959 C1127.55,32.4197 1130.21,44.6779 1131.54,57.1405 C1133.37,76.345 1134.54,95.5496 1135.87,114.754 C1135.37,139.066 1134.54,163.583 1129.21,187.282 Z" id="Shape"></path>
            <path d="M1463.78,207.304 C1458.79,208.53 1457.79,205.056 1457.12,200.153 C1454.63,179.518 1451.8,158.884 1449.47,138.249 C1444.81,94.7324 1440.48,51.2157 1435.99,7.49468 C1435.82,5.86025 1434.49,4.43013 1433.65,3 C1432.49,4.22582 1430.99,5.24734 1429.99,6.67747 C1429.33,7.49468 1429.33,8.92481 1428.99,9.94633 C1414.85,72.6676 1400.7,135.185 1386.55,197.701 C1384.72,205.465 1382.89,213.229 1381.06,221.605 C1383.05,221.605 1384.55,221.605 1386.05,221.605 C1402.19,221.605 1418.51,221.605 1434.65,221.605 C1436.98,221.605 1439.31,221.605 1441.64,222.014 C1447.14,223.035 1450.8,227.938 1451.13,234.885 C1451.3,237.745 1451.13,240.605 1451.13,243.67 C1453.46,243.874 1455.79,245.1 1457.12,241.014 C1460.12,231.207 1463.28,221.401 1466.28,211.594 C1467.28,208.734 1466.78,206.487 1463.78,207.304 Z M1398.87,208.938 C1407.85,160.314 1416.84,111.485 1425.83,62.6567 C1426.33,62.6567 1426.66,62.6567 1427.16,62.6567 C1430.49,111.077 1433.99,159.497 1437.48,209.142 C1424.17,208.938 1411.68,208.938 1398.87,208.938 Z" id="Shape"></path>
            <path d="M1378.72,215.271 C1373.07,205.669 1372.07,194.227 1370.57,182.991 C1367.57,159.904 1365.08,136.614 1362.25,113.527 C1359.08,87.7852 1356.09,61.8386 1352.92,36.0963 C1351.59,25.4725 1350.26,14.6444 1348.93,4.22491 C1345.27,2.59048 1343.94,4.22491 1342.94,8.31099 C1329.12,68.7849 1315.47,129.055 1301.32,189.324 C1298.83,200.152 1295.16,210.776 1292,221.604 C1297.83,221.604 1304.32,221.604 1310.81,221.604 C1315.47,221.604 1315.97,219.97 1315.14,214.454 C1314.31,209.346 1313.31,204.034 1313.81,198.926 C1315.47,184.83 1317.97,170.937 1320.3,157.044 C1320.47,156.023 1321.8,154.184 1322.46,154.184 C1331.12,153.98 1339.77,153.98 1349.1,153.98 C1349.1,176.862 1356.09,198.518 1351.26,221.196 C1360.25,221.196 1369.24,221.196 1378.89,221.196 C1379.06,219.357 1379.56,216.701 1378.72,215.271 Z M1323.46,142.334 C1328.79,114.753 1333.95,88.1938 1339.11,61.6343 C1339.44,61.6343 1339.94,61.6343 1340.27,61.6343 C1342.77,87.7852 1345.1,114.14 1347.6,140.904 C1339.44,141.517 1331.95,141.926 1323.46,142.334 Z" id="Shape"></path>
        </g>
    </g>
</svg>
