<svg width="1840" height="365" viewBox="0 0 1840 365" fill="none" xmlns="http://www.w3.org/2000/svg">
<g clip-path="url(#clip0)">
<path d="M390.531 4.44074C401.228 4.44074 411.117 4.44074 421.41 4.44074C415.153 29.8741 418.786 55.5093 417.575 81.5482C431.703 80.7407 445.023 80.1352 458.344 79.1259C459.555 79.1259 461.977 76.9056 461.977 75.8963C461.573 58.1333 461.169 40.3704 460.16 22.6074C459.958 18.7722 458.142 14.937 456.729 11.1019C454.913 6.25741 456.124 4.23889 461.371 4.23889C469.646 4.23889 478.123 4.23889 486.801 4.23889C481.15 27.4519 483.572 50.6648 483.168 73.8778C482.563 109 482.967 144.324 482.967 179.446C482.967 189.741 483.168 200.237 488.618 209.724C489.425 211.137 488.819 213.559 488.819 215.578C478.325 215.578 468.435 215.578 457.94 215.578C458.546 212.954 459.151 210.531 459.353 208.109C460.362 198.219 461.775 188.53 461.977 178.639C462.38 152.196 461.977 125.754 462.179 99.1093C462.179 94.6685 460.968 92.8518 456.326 93.0537C443.813 93.4574 431.098 93.2556 418.383 93.2556C418.181 94.6685 417.777 95.6778 417.777 96.4852C417.777 127.167 417.575 157.848 418.181 188.53C418.383 195.393 421.208 202.054 422.823 208.917C423.226 210.935 423.226 212.954 423.63 215.376C412.732 215.376 402.438 215.376 391.742 215.376C397.595 197.007 396.182 178.235 396.384 159.665C396.586 121.717 396.586 83.9704 396.384 46.0222C396.384 33.9111 396.384 21.8 390.934 10.4963C389.925 9.08333 390.531 6.66111 390.531 4.44074Z" fill="white"/>
<path d="M536.652 204.476C539.679 202.256 543.312 200.439 545.734 197.613C554.412 187.722 559.054 175.611 562.486 163.096C568.137 143.315 569.549 123.13 564.907 102.944C562.485 92.0445 557.44 82.7593 544.523 80.9426C543.514 80.7407 542.101 78.9241 542.101 77.9148C542.101 76.9056 543.716 75.6944 544.927 75.2907C566.118 68.0241 584.081 79.1259 589.53 102.339C594.172 122.726 590.741 142.306 584.888 161.683C581.053 174.804 575.2 186.915 566.32 197.613C556.834 208.917 545.734 216.587 529.992 215.376C523.331 214.972 516.671 215.376 509.607 215.376C516.066 194.585 513.644 173.593 513.846 153.004C514.249 116.267 514.249 79.5296 514.249 42.9944C514.249 35.9296 513.442 28.8648 512.433 22.0019C512.029 18.3685 510.415 14.937 509.204 11.5056C507.185 5.8537 508.195 4.03704 514.048 4.03704C522.322 4.03704 530.799 4.03704 539.477 4.03704C533.826 24.8278 535.643 45.4167 535.441 66.0056C535.037 109.606 535.037 153.206 534.835 196.806C534.835 198.824 534.835 200.843 534.835 202.861C535.643 203.467 536.046 203.87 536.652 204.476Z" fill="white"/>
<path d="M140.268 135.443C138.452 132.415 137.039 130.396 139.865 128.176C153.185 118.083 159.24 103.55 163.276 88.2093C167.716 70.6481 168.927 52.6833 162.469 35.3241C157.221 21.1944 146.928 13.9278 133.81 14.937C133.81 16.5518 133.608 18.1667 133.608 19.7815C133.204 68.8315 133.002 118.285 133.002 167.537C133.002 177.226 133.608 186.915 134.617 196.604C135.021 200.843 137.443 204.678 138.452 208.917C139.057 210.935 138.855 212.954 139.259 215.376C128.361 215.376 118.067 215.376 108.985 215.376C113.829 155.022 110.6 94.4667 111.004 34.113C111.004 26.4426 108.38 18.7722 106.362 11.3037C105.151 6.45925 106.16 4.44074 111.205 4.44074C120.489 4.44074 129.773 4.44074 138.855 4.44074C170.34 4.44074 191.128 24.8278 190.119 56.3167C189.11 85.787 177 110.009 153.185 127.974C149.35 130.598 144.91 132.617 140.268 135.443Z" fill="white"/>
<path d="M362.477 121.515C365.505 121.919 367.926 122.322 370.348 122.928C379.43 124.946 378.623 122.524 377.614 133.02C375.596 152.6 371.963 171.776 364.495 190.144C362.275 195.594 359.248 201.044 355.615 205.889C344.111 221.633 327.562 222.239 314.241 207.706C306.37 199.026 301.526 188.731 298.095 177.831C290.426 152.802 287.802 126.965 289.215 100.926C290.022 82.7593 292.04 64.7944 298.095 47.637C302.333 35.7278 307.985 25.0296 316.865 15.7444C325.745 6.45926 336.442 1.81667 349.359 2.42222C356.826 2.82593 364.294 3.43148 372.568 4.03704C371.156 12.9185 369.945 20.9926 368.734 29.0667C367.119 38.9574 365.505 48.8481 363.688 58.7389C363.486 60.1519 361.67 61.1611 360.459 62.3722C359.45 60.9593 358.037 59.5463 357.835 57.9315C356.624 47.4352 355.817 36.9389 354.606 26.6444C354.404 24.6259 353.395 22.4056 352.386 20.5889C347.946 12.313 339.873 10.2944 333.616 17.3593C328.772 22.6074 324.938 29.4704 322.718 36.1315C313.636 62.7759 312.223 90.6315 313.03 118.487C313.636 140.085 315.654 161.683 322.718 182.272C324.736 188.126 327.562 193.778 330.993 198.622C336.442 206.091 344.313 205.889 348.148 197.613C352.588 188.126 356.422 177.63 358.239 167.335C360.661 153.407 361.064 139.076 362.477 124.946C362.074 124.139 362.275 123.13 362.477 121.515Z" fill="white"/>
<path d="M649.068 215.578C654.719 199.631 653.912 184.089 653.912 168.546C653.912 125.148 653.912 81.75 653.912 38.3519C653.912 28.8648 652.903 19.5796 648.866 10.9C646.646 6.25741 648.463 4.03704 653.508 4.03704C671.673 3.83519 689.837 3.63334 708.001 3.43148C711.432 3.43148 714.661 2.62408 718.092 2.42223C722.734 2.22037 723.945 4.03704 722.331 8.27593C720.312 13.1204 718.294 18.1667 716.074 23.4148C703.965 17.9648 692.259 15.9463 680.149 15.3407C676.113 15.1389 675.104 16.5519 675.104 20.387C675.305 39.563 675.305 58.537 675.104 77.713C675.104 81.75 676.113 83.3648 680.351 82.5574C689.635 80.7407 699.121 78.9241 708.405 77.3093C710.221 76.9055 712.038 77.5111 713.854 77.5111C713.652 79.1259 714.056 81.1444 713.45 82.5574C708.808 94.063 708.808 94.063 696.497 94.063C690.846 94.063 684.993 94.2648 679.342 94.063C676.315 94.063 675.104 94.8704 675.104 97.8981C675.104 132.011 675.104 165.922 675.104 200.035C675.104 203.265 676.516 204.072 679.342 203.87C695.488 203.063 711.028 200.237 724.954 191.356C725.964 190.75 728.385 190.548 729.193 191.154C730 191.759 730.202 194.181 729.798 195.393C727.78 201.448 725.358 207.302 722.936 213.156C722.533 214.165 720.918 215.578 719.707 215.578C696.497 215.578 673.287 215.578 649.068 215.578Z" fill="white"/>
<path d="M32.898 215.376C21.9995 215.376 11.7064 215.376 1.21155 215.376C6.45899 198.219 5.24804 180.859 5.44987 163.702C5.65169 123.533 5.85352 83.163 5.85352 42.9944C5.85352 31.8926 5.65169 20.7907 0.606075 10.4963C-0.201224 8.88148 0.40425 6.66111 0.40425 4.44074C10.6973 4.44074 20.7885 4.44074 30.8798 4.44074C24.6232 33.7093 28.0542 63.1796 27.0451 92.4481C26.036 121.717 26.6415 151.187 27.0451 180.456C27.0451 190.346 27.2469 200.641 32.898 209.724C33.5035 211.137 32.898 213.357 32.898 215.376Z" fill="white"/>
<path d="M595.787 4.44074C606.685 4.44074 616.575 4.44074 626.666 4.44074C621.62 22.8093 622.629 41.3796 622.629 59.7481C622.629 98.9074 622.629 137.865 622.629 177.024C622.629 188.53 622.629 199.833 628.482 210.33C629.491 212.146 629.895 215.578 626.262 215.578C616.776 215.78 607.291 215.578 597.805 215.578C604.667 180.052 600.832 144.526 601.64 109.404C602.245 85.1815 602.043 60.7574 601.438 36.5352C601.236 28.0574 598.209 19.5796 596.594 11.1018C595.988 9.08333 595.988 6.86296 595.787 4.44074Z" fill="white"/>
<path d="M43.1905 84.3741C45.6124 84.7778 46.016 84.9796 46.6215 84.9796C57.7219 85.3833 58.3274 85.1815 61.5565 96.0815C68.8222 120.909 75.2806 146.141 82.1427 171.17C85.7755 184.291 87.9956 197.613 95.2613 209.522C96.0686 210.935 95.4631 213.357 95.4631 215.578C86.1792 215.578 77.5007 215.578 68.0149 215.578C66.4003 206.494 64.9876 197.209 62.9693 188.126C57.5201 164.106 52.0708 140.085 45.6124 116.469C43.1905 107.587 40.7686 97.8982 32.0901 92.0445C31.081 91.4389 31.4847 87.6037 32.292 85.7871C38.7504 71.6574 45.8142 57.7296 51.6671 43.3982C55.0982 34.9204 57.3182 25.837 59.3365 16.9556C60.1438 13.1204 58.9328 8.88148 58.5292 4.6426C69.0241 4.6426 78.7116 4.6426 88.6011 4.6426C73.4642 30.8833 58.5292 57.1241 43.1905 84.3741Z" fill="white"/>
<path d="M281.344 207.907C279.729 204.072 277.307 200.439 276.298 196.604C274.482 189.741 273.069 182.878 272.06 176.015C268.225 150.985 264.794 125.956 261.161 100.926C256.519 69.0333 251.675 36.9389 246.832 5.04629C246.428 2.82592 247.235 0.201851 243.401 -1.21444e-06C239.97 -0.201853 239.566 2.01852 238.96 4.23889C224.631 55.1056 210.705 106.174 195.972 157.041C190.321 176.62 186.89 197.007 175.588 215.578C184.266 215.578 191.935 215.578 199.806 215.578C205.256 215.578 205.861 214.165 205.256 208.917C204.448 202.054 203.238 194.989 204.045 188.126C205.659 176.015 208.889 164.106 211.109 152.196C211.714 149.572 212.925 148.765 215.549 148.765C221.604 148.967 227.658 148.765 233.713 148.765C245.419 148.765 246.024 148.765 247.033 160.472C248.648 178.639 254.703 196.604 248.648 215.376C258.537 215.376 268.023 215.376 277.711 215.376C279.325 215.376 282.151 214.569 282.353 213.761C282.555 212.146 281.949 209.926 281.344 207.907ZM214.943 137.259C221.402 110.211 227.456 83.9704 233.713 57.9315C234.319 57.9315 234.722 57.9315 235.328 57.9315C238.153 83.7685 241.181 109.606 244.208 136.048C234.52 136.25 225.236 136.654 214.943 137.259Z" fill="white"/>
</g>
<g clip-path="url(#clip1)">
<path d="M935.997 318.893C936.34 317.752 936.226 316.154 936.912 315.47C943.431 310.334 946.862 303.258 949.263 295.726C952.122 286.71 952.809 277.466 951.093 268.222C950.178 263.314 948.234 258.749 944.574 255.211C941.487 252.13 937.827 250.761 933.253 251.331C933.253 252.244 933.138 253.043 933.138 253.842C933.024 282.373 932.91 310.905 932.91 339.436C932.91 344.686 933.481 350.05 934.053 355.299C934.282 357.125 935.197 358.837 935.769 360.663C936.112 361.919 936.34 363.174 936.684 364.658C930.394 364.658 924.561 364.658 919.415 364.658C922.045 329.964 920.559 295.269 920.444 260.689C920.444 256.809 918.957 252.929 917.814 249.163C917.128 246.652 917.699 245.397 920.33 245.397C925.705 245.397 930.965 245.397 936.34 245.397C953.952 245.511 965.731 256.923 965.274 274.613C964.816 291.503 957.726 305.541 943.774 315.698C941.715 317.181 939.314 318.209 937.141 319.464C936.798 319.236 936.455 319.007 935.997 318.893Z" fill="white"/>
<path d="M996.838 243.342C997.753 250.646 998.782 257.95 999.697 265.254C1002.1 283.857 1004.5 302.459 1007.02 321.062C1008.39 331.447 1009.99 341.833 1011.82 352.218C1012.39 355.185 1014.11 357.924 1015.25 360.891C1015.59 361.919 1015.82 363.174 1015.59 364.315C1015.48 364.658 1013.99 365 1013.19 365C1007.7 365.114 1002.21 365 996.38 365C999.926 357.011 997.524 349.137 996.952 341.49C995.465 322.888 993.636 304.285 991.92 285.683C991.577 282.373 991.234 279.178 990.434 275.754C990.205 276.325 989.862 276.895 989.747 277.58C984.372 300.063 978.997 322.545 973.737 345.028C972.479 350.392 971.678 355.984 973.851 361.576C974.766 363.859 973.737 365 971.449 365C966.761 365 962.186 365 957.04 365C963.215 355.642 964.931 345.028 967.904 334.985C976.481 305.198 984.715 275.412 993.064 245.511C993.521 243.114 994.551 242.658 996.838 243.342Z" fill="white"/>
<path d="M1023.03 364.886C1026.11 356.555 1025.77 348.338 1025.77 340.235C1025.89 315.127 1025.77 290.02 1025.66 264.912C1025.66 259.548 1025.2 254.184 1022.8 249.163C1021.54 246.652 1022.68 245.283 1025.54 245.283C1035.95 245.168 1046.24 245.054 1056.65 244.94C1058.59 244.94 1060.42 244.484 1062.37 244.37C1064.54 244.255 1065.34 245.283 1064.54 247.337C1063.62 249.619 1062.6 251.902 1061.8 254.184C1061.22 256.01 1060.31 255.896 1058.82 255.326C1052.3 252.701 1045.56 251.788 1038.24 251.788C1038.12 252.929 1038.01 253.842 1038.01 254.755C1038.01 265.483 1038.01 276.21 1038.01 286.938C1038.01 289.335 1038.69 290.248 1041.1 289.791C1046.36 288.764 1051.73 287.737 1056.99 286.71C1057.91 286.596 1059.28 286.482 1059.74 286.938C1060.19 287.395 1059.97 288.878 1059.62 289.677C1056.99 296.297 1056.88 296.297 1049.79 296.297C1046.59 296.297 1043.27 296.411 1040.07 296.297C1038.47 296.297 1037.89 296.867 1037.89 298.465C1037.89 317.752 1037.89 336.925 1037.89 356.212C1037.89 358.038 1038.58 358.495 1040.3 358.381C1049.44 357.924 1058.25 356.326 1066.03 351.305C1066.6 350.963 1067.97 350.848 1068.54 351.191C1069 351.533 1069.11 352.903 1068.89 353.587C1067.74 356.897 1066.48 360.207 1065.11 363.402C1064.77 364.087 1063.85 365 1063.17 365C1049.9 364.886 1036.75 364.886 1023.03 364.886Z" fill="white"/>
<path d="M817.862 306.682C816.146 301.204 813.173 296.753 807.798 294.242C805.053 292.987 802.194 292.416 799.907 291.732C802.766 288.422 806.311 285.226 808.827 281.46C813.059 275.069 814.202 267.765 812.601 260.233C810.886 252.13 804.596 246.88 794.989 246.081C786.984 245.397 778.864 245.511 770.745 245.397C768.229 245.397 767.314 246.652 768.343 249.049C770.859 254.641 771.202 260.575 771.202 266.624C771.202 289.791 771.202 312.845 771.202 336.012C771.202 345.713 771.545 355.299 768.801 365C772.803 365 776.577 364.658 780.351 365.114C787.213 365.799 792.473 362.718 797.391 358.609C806.769 350.848 812.944 340.805 816.718 329.393C819.348 321.861 820.263 314.328 817.862 306.682ZM791.215 353.702C789.386 355.87 786.641 357.354 784.239 359.18C783.896 358.951 783.553 358.723 783.21 358.495C783.21 357.468 783.21 356.441 783.21 355.413C783.21 321.861 783.21 288.308 783.21 254.755C783.21 250.761 783.21 250.761 787.213 251.217C793.503 251.788 797.734 255.326 799.221 261.945C801.394 271.988 799.907 281.574 793.846 290.02C792.816 291.389 791.444 292.416 790.301 293.672C789.843 294.128 789.386 294.927 789.386 295.498C789.386 295.84 790.301 296.297 790.872 296.411C799.793 297.438 804.481 304.514 805.282 313.301C806.654 328.822 801.165 342.061 791.215 353.702Z" fill="white"/>
<path d="M910.609 360.891C909.351 357.582 907.407 354.386 906.835 350.963C904.891 340.691 903.404 330.42 901.918 320.149C899.516 304.285 897.114 288.308 894.827 272.33C893.34 262.63 891.968 253.043 890.481 243.342C888.308 242.658 887.051 242.886 886.479 245.168C877.902 275.868 869.324 306.454 860.747 337.039C858.918 343.544 856.973 350.164 854.801 356.555C853.886 359.294 852.17 361.919 850.798 364.772C855.487 364.772 859.947 364.772 864.407 364.772C867.495 364.772 867.952 363.973 867.38 361.006C866.808 357.924 866.008 354.729 866.465 351.761C867.609 344.001 869.324 336.355 870.926 328.594C871.04 328.023 871.955 327.11 872.527 327.11C878.359 326.996 884.306 326.996 890.367 326.996C891.282 335.099 892.426 342.974 893.112 350.848C893.455 355.299 892.997 359.864 892.883 364.658C897.801 364.658 903.176 364.658 908.551 364.658C909.351 364.658 910.838 364.315 910.952 363.859C911.066 363.174 910.952 361.919 910.609 360.891ZM872.87 320.491C876.529 305.198 880.074 290.362 883.505 275.526C883.734 275.526 884.077 275.526 884.306 275.526C885.907 290.248 887.622 304.856 889.338 319.806C883.734 320.035 878.588 320.263 872.87 320.491Z" fill="white"/>
</g>
<path d="M1003.04 6.69893C998.044 32.6455 1000.71 58.5921 999.875 84.1301C1004.2 84.1301 1008.2 84.3344 1012.19 84.1301C1019.18 83.7215 1026.34 83.3129 1033.33 82.4957C1034.5 82.2914 1036.49 80.4526 1036.33 79.2268C1035.83 60.0222 1035.33 41.022 1034.33 21.8174C1034.16 17.9356 1032.5 14.0539 1031.67 10.1721C1031.5 9.35488 1032 8.12906 1032.17 6.90324C1040.32 6.90324 1048.48 6.90324 1055.8 6.90324C1052.14 66.7643 1054.47 126.83 1053.97 186.691C1053.81 196.089 1054.64 205.691 1058.63 214.272C1059.3 215.702 1058.8 218.153 1058.8 220.196C1050.14 220.196 1041.99 220.196 1033.67 220.196C1038.99 181.174 1035.83 142.152 1036.66 103.335C1036.83 96.5926 1036.66 96.5926 1031.33 96.5926C1022.18 96.5926 1013.02 96.5926 1003.87 96.5926C1001.37 96.5926 1000.04 97.0012 1000.04 100.679C1000.21 131.324 1000.04 162.174 1000.54 192.82C1000.71 199.766 1003.2 206.917 1004.37 213.863C1004.7 215.906 1004.7 218.153 1004.7 220.196C995.714 220.196 987.391 220.196 978.735 220.196C984.395 193.024 981.731 165.647 982.064 138.475C982.397 104.56 982.231 70.646 981.731 36.5273C981.565 28.968 979.567 21.2045 977.903 13.8496C976.738 8.53767 977.404 6.49463 981.731 6.49463C988.722 6.69893 995.714 6.69893 1003.04 6.69893Z" fill="white"/>
<path d="M1556 220.605C1547.18 220.605 1539.02 220.605 1530.86 220.605C1536.19 180.766 1533.03 140.927 1533.86 101.087C1533.86 98.0227 1533.03 96.7969 1530.53 96.7969C1520.54 96.7969 1510.56 97.0012 1500.57 96.7969C1498.07 96.7969 1497.24 97.8184 1497.24 100.883C1497.41 131.937 1497.24 162.991 1497.74 194.046C1497.91 200.788 1500.4 207.325 1501.57 214.067C1501.9 215.906 1501.9 217.949 1502.07 220.401C1493.25 220.401 1484.76 220.401 1475.93 220.401C1481.59 194.25 1479.1 167.895 1479.26 141.744C1479.6 107.216 1479.43 72.4848 1478.93 37.9574C1478.76 29.7853 1476.6 21.8174 1474.94 13.8496C1473.94 8.94626 1474.6 6.90322 1478.93 6.90322C1485.92 6.90322 1493.08 6.90322 1500.4 6.90322C1495.41 32.8498 1497.91 58.5921 1497.07 85.1516C1509.39 84.3344 1521.38 83.5172 1533.86 82.7C1533.86 73.7106 1534.03 65.1298 1533.86 56.7534C1533.69 48.3769 1533.86 40.0004 1533.03 31.8283C1532.2 23.6561 1530.36 15.6883 1528.87 7.10753C1537.86 7.10753 1546.01 7.10753 1554.33 7.10753C1549.67 28.968 1551.34 50.8285 1551.17 72.6891C1550.84 109.872 1551 147.056 1551.17 184.239C1551.17 194.863 1551.5 205.282 1555.83 214.885C1556.66 216.11 1556 218.562 1556 220.605Z" fill="white"/>
<path d="M905.495 6.69991C899.836 48.9908 903.664 90.8731 902.333 132.347C902.166 138.68 902.333 145.014 903.165 151.551C904.497 147.874 905.828 144.401 906.993 140.723C922.141 95.7764 937.288 50.8295 952.269 5.67839C953.767 0.979405 955.931 1.59232 959.094 3.22675C958.761 5.8827 958.095 8.74295 957.928 11.3989C957.263 19.571 956.264 27.5389 956.264 35.711C956.097 86.3784 955.931 136.841 956.43 187.509C956.43 196.089 958.927 204.67 960.758 213.047C961.923 218.359 961.257 220.402 956.763 220.402C949.772 220.402 942.615 220.402 935.124 220.402C935.79 216.52 936.622 213.251 936.955 209.778C937.621 201.606 938.287 193.638 938.453 185.466C938.953 151.551 939.119 117.637 939.286 83.7224C939.286 82.2923 939.286 80.8622 938.453 79.0234C935.624 86.787 932.96 94.5505 930.131 102.518C916.481 141.54 902.666 180.767 889.016 219.789C888.184 222.24 887.518 224.283 884.689 223.466C882.525 222.649 881.692 221.627 882.192 218.767C886.02 198.95 884.855 178.928 885.021 158.906C885.188 118.863 884.855 78.8191 884.689 38.7756C884.689 29.9905 883.523 21.2055 880.028 13.2376C878.363 9.35586 879.861 6.69991 883.357 6.69991C890.847 6.69991 898.171 6.69991 905.495 6.69991Z" fill="white"/>
<path d="M1595.61 152.164C1598.44 143.992 1601.27 135.615 1604.1 127.443C1617.59 87.3997 1631.07 47.1519 1644.55 6.90406C1645.88 2.61368 1647.55 0.570644 1651.88 3.4309C1651.38 6.49545 1650.71 9.96862 1650.38 13.2375C1649.88 20.3881 1649.05 27.7431 1649.05 35.098C1648.88 85.7653 1649.05 136.637 1649.05 187.304C1649.05 196.294 1650.05 205.283 1653.37 213.455C1654.04 215.294 1653.71 217.746 1653.71 220.197C1644.89 220.197 1636.4 220.197 1628.07 220.197C1633.57 189.552 1630.4 158.497 1631.24 127.648C1631.57 113.346 1631.74 99.0451 1631.9 84.9481C1631.9 83.3137 1631.9 81.6792 1630.9 79.8405C1630.24 81.6792 1629.57 83.3137 1628.91 85.1524C1613.09 130.099 1597.45 174.842 1581.8 219.789C1580.8 222.649 1579.97 224.488 1576.97 223.466C1573.64 222.445 1574.81 219.993 1574.97 217.541C1575.81 206.917 1577.3 196.294 1577.3 185.67C1577.47 137.046 1577.47 88.6256 1577.3 40.0013C1577.3 30.8076 1576.47 21.8182 1572.81 13.4418C1572.14 11.8074 1572.48 9.35571 1572.48 6.90406C1581.47 6.90406 1589.79 6.90406 1598.44 6.90406C1597.61 11.8074 1596.45 16.5063 1596.11 21.2053C1595.45 28.5603 1595.12 36.1195 1595.12 43.4744C1594.78 77.1846 1594.62 111.099 1594.45 144.809C1594.45 147.056 1594.45 149.508 1594.45 151.755C1594.78 151.96 1595.28 152.164 1595.61 152.164Z" fill="white"/>
<path d="M1816.5 79.0215C1811.17 93.9357 1806.01 108.646 1800.85 123.151C1789.53 155.431 1778.22 187.711 1767.06 219.991C1766.06 222.851 1765.23 224.486 1762.24 223.464C1759.07 222.443 1760.07 219.991 1760.24 217.54C1761.07 207.12 1762.57 196.701 1762.57 186.281C1762.74 135.614 1762.57 85.1506 1762.24 34.4833C1762.24 27.5369 1759.91 20.5906 1758.07 14.0529C1756.74 9.14959 1757.57 6.90225 1761.57 6.90225C1768.89 6.90225 1776.22 6.90225 1783.21 6.90225C1777.55 48.9888 1781.54 90.8711 1780.05 132.549C1779.88 138.883 1780.05 145.216 1780.88 152.162C1781.38 150.732 1781.88 149.506 1782.38 148.076C1798.19 101.291 1814 54.5051 1829.65 7.51516C1831.15 3.22478 1832.48 0.977436 1836.81 4.04199C1836.64 5.47212 1836.47 7.51516 1836.31 9.35389C1835.48 18.3433 1834.14 27.1283 1834.14 36.1177C1833.98 86.9894 1833.81 137.861 1834.31 188.937C1834.31 197.109 1836.64 205.486 1838.47 213.658C1839.8 219.174 1839.14 221.217 1834.48 221.217C1827.49 221.217 1820.33 221.217 1813.34 221.217C1818.83 185.872 1815.5 150.528 1816.33 115.388C1816.67 103.129 1816.5 91.2797 1816.5 79.0215Z" fill="white"/>
<path d="M1260.21 138.271C1260.71 136.228 1260.54 133.367 1261.71 132.346C1271.2 122.948 1276.19 110.281 1279.68 96.5926C1283.85 80.4526 1284.68 63.904 1282.18 47.3554C1280.85 37.9574 1277.52 29.581 1271.53 23.2475C1267.2 18.5485 1262.21 16.9141 1256.05 17.7313C1256.05 23.6561 1256.05 29.581 1256.05 35.5058C1255.88 82.6999 1255.72 129.894 1255.72 177.088C1255.72 186.282 1256.71 195.271 1257.38 204.465C1257.55 207.325 1258.88 209.981 1259.54 212.637C1260.21 215.293 1260.71 217.949 1261.37 221.014C1252.05 221.014 1243.56 221.014 1236.07 221.014C1240.4 160.131 1237.41 99.2486 1237.9 38.5703C1237.9 30.6025 1235.41 22.4303 1234.08 14.2582C1233.74 12.0108 1233.91 9.76348 1233.74 6.69893C1246.56 7.31184 1258.54 6.90323 1270.53 8.53766C1287.51 10.9893 1299.66 27.3336 1302.49 48.9898C1306.98 82.2913 1288.84 124.174 1264.04 138.271C1263.37 138.679 1262.54 139.088 1261.71 139.292C1261.21 138.679 1260.71 138.475 1260.21 138.271Z" fill="white"/>
<path d="M1219.59 30.1939C1213.6 23.6562 1207.11 19.9787 1199.95 18.9572C1196.79 18.5486 1193.63 18.3443 1190.13 18.14C1189.97 20.183 1189.8 21.6131 1189.8 23.0432C1189.8 76.9794 1189.8 130.916 1189.8 185.056C1189.8 195.271 1190.13 205.282 1194.63 214.68C1196.29 218.358 1194.79 220.809 1191.46 220.809C1184.14 220.809 1176.82 220.809 1170.16 220.809C1174.49 160.131 1171.66 99.8615 1172.32 39.5919C1172.49 30.6025 1171.49 21.6131 1168.16 13.441C1166.5 9.35489 1167.99 6.90325 1172.16 6.90325C1186.8 6.69895 1201.62 6.49464 1216.27 6.08603C1218.76 6.08603 1221.26 5.47312 1223.76 5.26882C1227.08 5.06452 1228.08 6.90325 1226.75 10.5807C1224.42 16.9141 1222.09 23.0432 1219.59 30.1939Z" fill="white"/>
<path d="M1697.82 220.605C1688.16 220.605 1679.67 220.605 1671.02 220.605C1675.85 199.153 1674.18 177.293 1674.35 155.841C1674.68 119.27 1674.68 82.9043 1674.68 46.3339C1674.68 39.1832 1674.01 32.2369 1673.35 25.0863C1673.18 22.4303 1672.52 19.7744 1671.68 17.3227C1668.52 6.90322 1668.52 6.90322 1677.68 6.90322C1683.67 6.90322 1689.49 6.90322 1695.82 6.90322C1691.66 23.6561 1692.49 40.4091 1692.49 56.9577C1692.32 99.4529 1692.16 141.744 1692.16 184.239C1692.16 194.046 1692.49 203.852 1695.99 213.046C1696.82 215.089 1697.15 217.54 1697.82 220.605Z" fill="white"/>
<path d="M1749.09 220.605C1740.93 220.605 1733.77 220.605 1726.12 220.605C1723.95 207.121 1722.12 193.637 1719.79 180.153C1715.79 155.841 1711.8 131.529 1704.14 108.647C1702.48 103.743 1700.81 98.6357 1696.65 95.5711C1695.82 94.9582 1695.82 90.8721 1696.49 89.0334C1701.65 74.9364 1707.31 61.248 1712.3 46.9468C1715.13 38.7746 1717.13 29.9896 1718.62 21.2045C1719.46 16.9141 1718.46 12.0108 1718.29 6.90322C1726.78 6.90322 1734.77 6.90322 1742.93 6.90322C1730.61 33.4627 1718.29 60.2265 1705.64 87.8075C1708.14 88.0118 1709.3 88.2161 1710.47 88.2161C1717.63 88.2161 1717.96 88.2161 1719.96 96.7969C1726.45 125.195 1732.44 153.593 1739.1 181.992C1741.6 192.82 1745.42 203.239 1748.42 213.863C1748.92 215.906 1748.75 217.949 1749.09 220.605Z" fill="white"/>
<path d="M867.211 121.518C865.213 109.259 860.386 99.2486 850.898 93.9367C847.236 91.8936 843.075 91.0764 838.414 89.6463C845.239 84.5387 850.399 78.2053 853.894 70.0331C858.888 58.7964 860.553 46.7425 858.722 34.0756C856.391 19.3658 847.236 9.55919 833.088 8.12906C821.769 6.90324 810.117 7.31185 798.632 6.69894C793.804 6.49463 793.305 8.33337 794.637 14.6668C796.135 21.6131 797.966 28.7637 798.132 35.9144C798.465 82.4956 798.299 128.873 798.465 175.454C798.465 190.572 798.798 205.691 794.97 220.809C801.128 220.809 806.954 220.401 812.614 221.014C820.104 221.831 826.429 218.562 832.422 213.454C847.07 200.788 856.724 183.626 863.216 163.4C867.377 149.712 869.708 136.023 867.211 121.518ZM848.235 139.701C847.569 162.787 839.912 182.604 827.928 200.175C824.931 204.669 821.269 208.347 815.943 209.777C815.943 145.217 815.943 81.4741 815.943 17.527C826.929 15.484 835.252 21.6131 838.248 34.0756C842.908 53.8931 839.912 71.8718 830.091 88.4204C828.926 90.4635 827.095 91.8936 825.597 93.528C823.933 95.3668 823.933 97.4098 826.263 98.0227C833.254 99.2486 839.246 102.722 843.241 110.281C847.902 119.475 848.568 129.486 848.235 139.701Z" fill="white"/>
<path d="M1149.18 57.162C1145.86 41.2263 1141.53 25.9035 1132.04 13.6453C1121.72 0.365522 1108.24 -0.247389 1097.42 12.0108C1088.43 22.0217 1083.1 34.8929 1079.61 48.7855C1068.62 91.2807 1069.45 133.98 1078.77 176.68C1081.77 190.777 1086.76 203.852 1095.42 214.272C1105.74 226.734 1119.39 227.347 1129.38 214.885C1134.7 208.143 1139.36 199.766 1142.69 191.39C1152.18 167.486 1154.34 141.335 1154.84 115.184C1154.51 95.5711 1153.18 76.1622 1149.18 57.162ZM1129.21 186.282C1127.88 192.207 1125.88 198.132 1123.22 203.444C1117.89 214.68 1108.4 214.476 1103.41 203.035C1100.25 195.476 1097.58 187.304 1096.09 178.927C1090.76 150.325 1090.93 121.109 1091.42 91.8936C1091.76 72.2805 1093.42 52.6673 1098.58 33.8713C1100.08 28.7638 1102.24 23.6562 1105.07 19.3658C1110.07 11.8065 1117.23 12.6238 1121.72 20.7959C1127.55 31.4197 1130.21 43.6779 1131.54 56.1405C1133.37 75.345 1134.54 94.5496 1135.87 113.754C1135.37 138.066 1134.54 162.583 1129.21 186.282Z" fill="white"/>
<path d="M1463.78 206.304C1458.79 207.53 1457.79 204.056 1457.12 199.153C1454.63 178.518 1451.8 157.884 1449.47 137.249C1444.81 93.7324 1440.48 50.2157 1435.99 6.49468C1435.82 4.86025 1434.49 3.43013 1433.65 2C1432.49 3.22582 1430.99 4.24734 1429.99 5.67747C1429.33 6.49468 1429.33 7.92481 1428.99 8.94633C1414.85 71.6676 1400.7 134.185 1386.55 196.701C1384.72 204.465 1382.89 212.229 1381.06 220.605C1383.05 220.605 1384.55 220.605 1386.05 220.605C1402.19 220.605 1418.51 220.605 1434.65 220.605C1436.98 220.605 1439.31 220.605 1441.64 221.014C1447.14 222.035 1450.8 226.938 1451.13 233.885C1451.3 236.745 1451.13 239.605 1451.13 242.67C1453.46 242.874 1455.79 244.1 1457.12 240.014C1460.12 230.207 1463.28 220.401 1466.28 210.594C1467.28 207.734 1466.78 205.487 1463.78 206.304ZM1398.87 207.938C1407.85 159.314 1416.84 110.485 1425.83 61.6567C1426.33 61.6567 1426.66 61.6567 1427.16 61.6567C1430.49 110.077 1433.99 158.497 1437.48 208.142C1424.17 207.938 1411.68 207.938 1398.87 207.938Z" fill="white"/>
<path d="M1378.72 214.271C1373.07 204.669 1372.07 193.227 1370.57 181.991C1367.57 158.904 1365.08 135.614 1362.25 112.527C1359.08 86.7852 1356.09 60.8386 1352.92 35.0963C1351.59 24.4725 1350.26 13.6444 1348.93 3.22491C1345.27 1.59048 1343.94 3.22491 1342.94 7.31099C1329.12 67.7849 1315.47 128.055 1301.32 188.324C1298.83 199.152 1295.16 209.776 1292 220.604C1297.83 220.604 1304.32 220.604 1310.81 220.604C1315.47 220.604 1315.97 218.97 1315.14 213.454C1314.31 208.346 1313.31 203.034 1313.81 197.926C1315.47 183.83 1317.97 169.937 1320.3 156.044C1320.47 155.023 1321.8 153.184 1322.46 153.184C1331.12 152.98 1339.77 152.98 1349.1 152.98C1349.1 175.862 1356.09 197.518 1351.26 220.196C1360.25 220.196 1369.24 220.196 1378.89 220.196C1379.06 218.357 1379.56 215.701 1378.72 214.271ZM1323.46 141.334C1328.79 113.753 1333.95 87.1938 1339.11 60.6343C1339.44 60.6343 1339.94 60.6343 1340.27 60.6343C1342.77 86.7852 1345.1 113.14 1347.6 139.904C1339.44 140.517 1331.95 140.926 1323.46 141.334Z" fill="white"/>
<defs>
<clipPath id="clip0">
<rect width="730" height="218" fill="white"/>
</clipPath>
<clipPath id="clip1">
<rect width="301" height="122" fill="white" transform="translate(768 243)"/>
</clipPath>
</defs>
</svg>
