<svg width="160" height="160" viewBox="0 0 160 160" fill="none" xmlns="http://www.w3.org/2000/svg">
<g clip-path="url(#clip0)">
<path d="M48.2372 9.63864L47.6019 10.6109C47.1361 10.315 46.6279 10.1036 46.1197 9.97682C45.6114 9.85 45.1879 9.76546 44.7644 9.76546C44.3833 9.76546 43.9598 9.80773 43.5786 9.93455C43.1551 10.0191 42.8587 10.1459 42.6469 10.2305C42.4352 10.315 42.1811 10.4418 41.9693 10.5686C40.5294 11.3718 39.5977 12.5131 39.2165 13.9504C38.8354 15.2608 39.0471 16.5713 39.7671 17.8817C40.487 19.1499 41.5035 19.9953 42.8587 20.3335C44.2562 20.7139 45.6961 20.5449 47.1361 19.7417C49.1265 18.6426 50.1429 16.9517 50.1853 14.669L51.3288 14.5845C51.3288 15.599 51.117 16.529 50.7359 17.3744C50.1006 18.7694 49.0418 19.8685 47.5596 20.6717C46.1197 21.4748 44.6797 21.813 43.3245 21.6439C42.3081 21.5171 41.4188 21.1789 40.6141 20.5871C39.8094 20.0376 39.1318 19.2767 38.6236 18.389C37.9037 17.0785 37.6496 15.7258 37.946 14.2886C38.0731 13.6545 38.2848 13.0204 38.5813 12.4709C38.8777 11.9213 39.2165 11.4141 39.5977 11.0759C39.9788 10.6954 40.3176 10.3995 40.6141 10.1882C40.9105 9.97682 41.1646 9.80773 41.4611 9.63864C43.0704 8.75093 44.7221 8.4973 46.3738 8.87775C46.882 9.00456 47.5172 9.25819 48.2372 9.63864Z" fill="white"/>
<path d="M66.5326 13.1469L65.5161 13.4428L62.4246 3.29747L60.8576 14.8378L59.7141 15.2182L51.964 6.59469L55.0132 16.6132L53.9968 16.9091L50.5241 5.49562L51.964 5.0729L60.0106 13.9923L61.6623 2.15612L63.1022 1.7334L66.5326 13.1469Z" fill="white"/>
<path d="M67.549 6.84836C67.4643 5.83383 67.5913 4.90385 67.9302 4.0584C68.269 3.21296 68.7348 2.49434 69.3701 1.9448C70.0053 1.39526 70.7253 0.930267 71.5299 0.59209C72.3346 0.253913 73.1816 0.0848242 74.1133 0.000279937C74.4098 -0.0419922 74.7062 -0.0419922 74.9603 -0.0419922C75.2568 -0.0419922 75.6379 0.000279941 76.1461 0.0848242C76.6544 0.169368 77.1626 0.296185 77.5861 0.465273C78.0519 0.634362 78.5178 0.887995 79.026 1.26844C79.5342 1.60662 80 2.07161 80.3812 2.57888C81.1012 3.55114 81.4823 4.65021 81.567 5.83383C81.6941 7.31336 81.3129 8.62379 80.4659 9.80741C80.0424 10.3992 79.5765 10.8642 79.026 11.2869C78.4754 11.7097 77.9249 11.9633 77.332 12.1747C76.7814 12.3437 76.3155 12.4706 75.9344 12.5551C75.5956 12.6396 75.2144 12.6819 74.8756 12.6819C74.5792 12.6819 74.3251 12.7242 74.0286 12.7242C73.7322 12.7242 73.3087 12.6819 72.7581 12.5974C72.2076 12.5128 71.6993 12.386 71.2335 12.2169C70.7676 12.0478 70.2594 11.7519 69.7512 11.3715C69.243 10.991 68.7772 10.526 68.396 9.9765C67.9725 8.96197 67.6337 7.98971 67.549 6.84836ZM80.2965 5.66474C80.2118 4.26976 79.5765 3.12842 78.4754 2.19843C77.3743 1.31072 75.9344 0.930267 74.1557 1.05708C72.6734 1.1839 71.4876 1.60662 70.5559 2.40979C70.09 2.83251 69.6242 3.38205 69.243 4.14295C68.8619 4.86157 68.6925 5.74929 68.7772 6.80609C68.8195 7.52472 68.9889 8.20107 69.3277 8.83515C69.5818 9.38469 69.963 9.84968 70.3865 10.2724C70.81 10.6951 71.2758 10.9488 71.657 11.1178C72.0805 11.2869 72.5464 11.4138 73.0122 11.4983C73.5204 11.5828 73.9016 11.6251 74.1557 11.6251C74.4521 11.6251 74.7062 11.6251 74.9603 11.5828C75.9767 11.4983 76.8238 11.2869 77.5861 10.9065C78.3484 10.526 78.8989 10.061 79.2801 9.51151C79.6612 8.96197 79.9577 8.32789 80.1271 7.69381C80.2965 7.05973 80.3812 6.38337 80.2965 5.66474Z" fill="white"/>
<path d="M95.0768 2.40972L89.9947 1.81791L88.7242 12.6818L87.5808 12.555L88.8513 1.69109L83.5151 1.05701L83.6422 0.0424805L95.2038 1.39519L95.0768 2.40972Z" fill="white"/>
<path d="M94.6956 13.4853L98.2106 2.07178L105.791 4.39674C106.554 4.65038 107.189 4.90401 107.697 5.24219C108.205 5.58036 108.544 6.04536 108.756 6.63717C108.968 7.31352 109.01 7.98987 108.756 8.7085C108.417 9.72303 107.782 10.4417 106.85 10.7798C106.046 11.0757 104.987 11.0335 103.589 10.6107L97.3636 8.7085L95.7967 13.8234L94.6956 13.4853ZM97.6601 7.73624L103.589 9.55394C104.902 9.93439 105.876 10.0189 106.511 9.72303C107.02 9.4694 107.401 9.00441 107.612 8.37032C107.867 7.60943 107.74 6.93307 107.316 6.38353C107.02 5.96081 106.427 5.66491 105.622 5.41128L99.0153 3.38221L97.6601 7.73624Z" fill="white"/>
<path d="M117.819 23.208L107.316 17.5435L112.991 7.06006L123.07 12.5132L122.605 13.4009L113.499 8.49731L111.509 12.175L119.894 16.6981L119.428 17.5858L111.043 13.0627L108.798 17.2476L118.285 22.3626L117.819 23.208Z" fill="white"/>
<path d="M133.912 22.1508L129.931 18.9382L123.07 27.4771L122.181 26.7585L129.042 18.2618L124.849 14.9223L125.484 14.1191L134.547 21.3899L133.912 22.1508Z" fill="white"/>
<path d="M136.792 23.5459L137.554 24.4336L133.616 27.8154L138.317 33.2685C139.248 34.3676 139.757 35.3398 139.799 36.1853C139.841 37.1998 139.46 38.0875 138.613 38.8061C138.02 39.3134 137.385 39.6093 136.623 39.6939C135.987 39.7784 135.437 39.6516 134.929 39.3134C134.42 38.9752 133.912 38.5102 133.404 37.8762L127.771 31.3662L136.792 23.5459ZM132.853 28.4495L129.254 31.5353L134.209 37.2843C134.759 37.9184 135.267 38.2989 135.776 38.4257C136.453 38.5948 137.131 38.3834 137.766 37.8339C138.317 37.3689 138.571 36.8616 138.613 36.2698C138.613 35.9316 138.528 35.5935 138.401 35.2553C138.274 34.9171 138.105 34.6212 137.935 34.4098C137.766 34.1985 137.554 33.9448 137.258 33.6067L132.853 28.4495Z" fill="white"/>
<path d="M150.302 41.4692L154.156 50.0082C154.622 51.0227 154.579 51.995 154.071 52.8827C153.775 53.4323 153.309 53.855 152.716 54.1086C152.038 54.4045 151.403 54.4468 150.852 54.2777C150.259 54.1086 149.794 53.7704 149.455 53.2632C149.751 54.0663 149.709 54.785 149.37 55.4613C149.031 56.1377 148.481 56.6449 147.761 56.9831C146.702 57.4481 145.77 57.4481 144.923 56.9408C144.288 56.5604 143.695 55.8418 143.229 54.8272L139.418 46.3305L150.302 41.4692ZM145.135 45.0624L140.815 47.0069L144.161 54.4468C144.627 55.5036 145.262 56.0531 146.109 56.0954C146.533 56.1377 146.914 56.0531 147.295 55.884C147.803 55.6304 148.227 55.2922 148.438 54.8695C148.608 54.5313 148.692 54.1509 148.692 53.7282C148.692 53.3054 148.608 52.9673 148.523 52.6714C148.438 52.3754 148.269 52.0373 148.1 51.5723L145.135 45.0624ZM149.921 42.9065L146.067 44.6396L149.074 51.2764C149.285 51.7836 149.539 52.1641 149.794 52.46C150.048 52.7559 150.387 52.9673 150.81 53.0941C151.276 53.2209 151.742 53.1786 152.208 52.9673C152.589 52.7982 152.928 52.5445 153.139 52.2064C153.393 51.8259 153.478 51.4455 153.436 51.065C153.393 50.6846 153.224 50.2196 153.012 49.7123L149.921 42.9065Z" fill="white"/>
<path d="M145.304 60.0692L157.035 57.6597L157.29 58.801L148.099 60.7033L158.264 68.9463L159.322 68.735L159.576 69.8763L147.845 72.2858L147.591 71.1445L156.951 69.2L146.787 60.9569L145.558 61.2105L145.304 60.0692Z" fill="white"/>
<path d="M159.831 86.5735L148.904 86.4044L148.862 88.0953L145.304 88.0531V86.954L147.845 86.9963L148.057 74.3992L145.516 74.3569V73.2578L149.074 73.3001V73.5537C149.074 73.8073 149.243 74.061 149.539 74.3992C149.878 74.7373 150.344 75.0755 150.895 75.4137C151.445 75.7519 152.25 76.0478 153.266 76.3014C154.24 76.555 155.299 76.6819 156.443 76.6819L159.915 76.7241L159.831 86.5735ZM158.941 77.8232L157.459 77.7809C153.478 77.6964 150.641 76.8932 149.031 75.2446L148.862 85.2208L158.814 85.3899L158.941 77.8232Z" fill="white"/>
<path d="M144.839 101.242L147.507 89.6172L159.153 92.2803L156.612 103.44L155.638 103.229L157.925 93.2103L153.859 92.2803L151.742 101.538L150.768 101.327L152.885 92.069L148.269 91.0122L145.855 101.496L144.839 101.242Z" fill="white"/>
<path d="M150.048 104.624C150.979 105.046 151.699 105.596 152.292 106.315C152.885 107.033 153.266 107.794 153.436 108.597C153.605 109.4 153.647 110.246 153.563 111.134C153.478 111.979 153.224 112.824 152.843 113.67C152.716 113.924 152.589 114.177 152.462 114.431C152.335 114.684 152.08 115.023 151.784 115.445C151.445 115.868 151.106 116.206 150.768 116.544C150.386 116.84 149.921 117.136 149.37 117.432C148.819 117.728 148.184 117.897 147.591 117.982C146.405 118.151 145.262 117.939 144.161 117.474C142.806 116.84 141.832 115.91 141.239 114.6C140.942 113.966 140.731 113.289 140.646 112.613C140.561 111.937 140.561 111.303 140.688 110.711C140.815 110.119 140.9 109.654 141.027 109.316C141.154 108.978 141.281 108.64 141.408 108.344C141.535 108.09 141.662 107.836 141.789 107.583C141.916 107.329 142.17 106.991 142.509 106.568C142.848 106.146 143.229 105.765 143.61 105.427C143.992 105.089 144.5 104.835 145.093 104.539C145.686 104.243 146.321 104.116 146.998 104.074C148.015 103.99 149.031 104.159 150.048 104.624ZM144.881 116.375C146.151 116.967 147.464 117.009 148.777 116.46C150.09 115.91 151.149 114.854 151.911 113.247C152.546 111.895 152.716 110.626 152.462 109.443C152.335 108.809 152.038 108.175 151.572 107.498C151.106 106.822 150.429 106.23 149.455 105.807C148.819 105.511 148.142 105.342 147.422 105.3C146.787 105.258 146.236 105.342 145.643 105.554C145.093 105.765 144.627 105.976 144.288 106.272C143.949 106.526 143.61 106.864 143.272 107.245C142.933 107.625 142.721 107.963 142.594 108.175C142.467 108.428 142.34 108.64 142.213 108.893C141.789 109.823 141.578 110.669 141.535 111.514C141.493 112.359 141.662 113.078 141.959 113.67C142.255 114.304 142.636 114.811 143.144 115.276C143.695 115.657 144.246 116.079 144.881 116.375Z" fill="white"/>
<path d="M109.815 151.081L110.45 150.108C110.916 150.404 111.382 150.658 111.89 150.785C112.398 150.954 112.822 150.996 113.203 151.038C113.584 151.038 114.007 150.996 114.389 150.911C114.812 150.827 115.108 150.742 115.363 150.658C115.574 150.573 115.828 150.447 116.04 150.362C117.522 149.601 118.454 148.502 118.92 147.065C119.301 145.754 119.174 144.444 118.497 143.133C117.819 141.823 116.803 140.978 115.49 140.597C114.092 140.174 112.695 140.343 111.212 141.104C109.179 142.161 108.121 143.81 107.994 146.092L106.85 146.135C106.893 145.12 107.104 144.19 107.528 143.345C108.205 141.992 109.306 140.893 110.789 140.132C112.271 139.371 113.711 139.075 115.066 139.287C116.083 139.456 116.972 139.794 117.777 140.386C118.581 140.978 119.216 141.738 119.682 142.626C120.36 143.937 120.572 145.332 120.233 146.727C120.106 147.361 119.852 147.995 119.555 148.544C119.259 149.094 118.878 149.559 118.497 149.939C118.115 150.32 117.734 150.573 117.48 150.785C117.226 150.996 116.93 151.165 116.633 151.334C114.981 152.18 113.33 152.391 111.678 151.968C111.17 151.799 110.535 151.503 109.815 151.081Z" fill="white"/>
<path d="M91.6464 147.107L92.6628 146.811L95.458 157.041L97.3637 145.543L98.5072 145.247L106.003 154.082L103.25 143.979L104.309 143.683L107.443 155.181L105.961 155.562L98.1684 146.431L96.1779 158.225L94.738 158.605L91.6464 147.107Z" fill="white"/>
<path d="M90.4182 153.364C90.4606 154.378 90.2912 155.266 89.9524 156.111C89.6135 156.957 89.1053 157.633 88.4277 158.183C87.7925 158.732 87.0302 159.155 86.2255 159.451C85.4209 159.747 84.5315 159.916 83.6421 159.958C83.3457 159.958 83.0492 159.958 82.7951 159.958C82.4987 159.958 82.1175 159.916 81.6093 159.789C81.1011 159.704 80.5929 159.578 80.1694 159.408C79.7459 159.239 79.2377 158.943 78.7295 158.563C78.2213 158.183 77.7978 157.76 77.4166 157.21C76.739 156.196 76.3579 155.139 76.3155 153.955C76.2308 152.476 76.6543 151.165 77.5013 150.024C77.9248 149.475 78.433 149.01 78.9836 148.587C79.5341 148.206 80.1271 147.91 80.6776 147.741C81.2282 147.572 81.694 147.445 82.0752 147.403C82.414 147.361 82.7951 147.319 83.1339 147.276C83.4304 147.276 83.6845 147.276 83.9809 147.276C84.2774 147.276 84.7009 147.361 85.2515 147.445C85.802 147.53 86.3102 147.699 86.7761 147.868C87.2419 148.08 87.7078 148.375 88.216 148.756C88.7242 149.179 89.1477 149.644 89.5288 150.193C90.0794 151.208 90.3759 152.222 90.4182 153.364ZM77.6284 154.167C77.6707 155.562 78.2636 156.745 79.3647 157.675C80.4659 158.605 81.8634 159.028 83.6421 158.943C85.1244 158.859 86.3526 158.436 87.2843 157.675C87.7925 157.295 88.216 156.703 88.6395 155.984C89.063 155.266 89.2324 154.378 89.1901 153.321C89.1477 152.603 88.9783 151.926 88.7242 151.292C88.4701 150.743 88.1313 150.235 87.7078 149.855C87.2843 149.475 86.8608 149.136 86.4373 148.967C86.0138 148.756 85.5903 148.629 85.0821 148.545C84.5738 148.46 84.1927 148.375 83.9386 148.375C83.6421 148.375 83.388 148.375 83.1339 148.375C82.1175 148.418 81.2705 148.629 80.5082 148.967C79.7459 149.305 79.1953 149.77 78.7718 150.32C78.3483 150.87 78.0519 151.461 77.8825 152.138C77.6707 152.814 77.586 153.49 77.6284 154.167Z" fill="white"/>
<path d="M62.8057 156.999L67.8878 157.76L69.4547 146.938L70.5982 147.107L69.0312 157.929L74.325 158.69L74.198 159.704L62.6786 158.013L62.8057 156.999Z" fill="white"/>
<path d="M63.4833 145.966L59.6718 157.295L52.1334 154.759C51.3711 154.505 50.7358 154.209 50.2276 153.871C49.7194 153.533 49.3806 153.068 49.2112 152.434C48.9995 151.757 48.9995 151.081 49.2536 150.362C49.5924 149.348 50.27 148.671 51.244 148.333C52.0487 148.037 53.1075 148.164 54.505 148.587L60.6882 150.658L62.3822 145.585L63.4833 145.966ZM60.3494 151.63L54.4627 149.644C53.1498 149.221 52.2181 149.136 51.5405 149.432C50.9899 149.686 50.6088 150.109 50.397 150.743C50.1429 151.504 50.2276 152.18 50.6511 152.729C50.9476 153.152 51.4981 153.49 52.3028 153.744L58.8671 155.942L60.3494 151.63Z" fill="white"/>
<path d="M40.6564 135.609L50.9899 141.57L45.0185 151.926L35.1085 146.22L35.6167 145.332L44.5527 150.489L46.6278 146.896L38.3695 142.162L38.8777 141.274L47.1361 146.008L49.5077 141.908L40.1482 136.539L40.6564 135.609Z" fill="white"/>
<path d="M24.5209 136.201L28.4171 139.541L35.4896 131.213L36.379 131.974L29.3065 140.301L33.3721 143.768L32.6945 144.529L23.8433 136.962L24.5209 136.201Z" fill="white"/>
<path d="M21.6834 134.764L20.9635 133.876L24.9868 130.621L20.4553 125.041C19.5236 123.942 19.1001 122.927 19.0577 122.082C19.0577 121.067 19.4389 120.18 20.3282 119.503C20.9211 119.038 21.5987 118.743 22.3187 118.7C22.954 118.658 23.5045 118.785 24.0127 119.123C24.5209 119.461 25.0291 119.968 25.5373 120.602L30.9582 127.239L21.6834 134.764ZM25.7914 129.945L29.4759 126.986L24.6903 121.11C24.1398 120.433 23.6316 120.053 23.1657 119.926C22.4881 119.715 21.8105 119.926 21.1329 120.433C20.5823 120.898 20.2859 121.406 20.2435 121.997C20.2435 122.336 20.2859 122.674 20.4553 123.012C20.5823 123.392 20.7517 123.646 20.8788 123.857C21.0058 124.069 21.2599 124.365 21.514 124.703L25.7914 129.945Z" fill="white"/>
<path d="M8.68186 116.46L5.08207 107.794C4.65857 106.779 4.70092 105.807 5.25148 104.919C5.59028 104.37 6.05613 103.989 6.64904 103.736C7.32665 103.44 7.96191 103.398 8.51246 103.609C9.10537 103.82 9.52887 104.158 9.86767 104.623C9.61357 103.82 9.65592 103.102 10.0371 102.425C10.3759 101.749 10.9688 101.284 11.6887 100.946C12.7475 100.523 13.7216 100.523 14.5262 101.073C15.1615 101.453 15.712 102.172 16.1355 103.229L19.7353 111.81L8.68186 116.46ZM9.10537 114.98L13.0016 113.374L10.2065 106.653C9.99473 106.145 9.78297 105.765 9.52887 105.427C9.27477 105.131 8.97832 104.877 8.55481 104.75C8.08896 104.623 7.6231 104.623 7.15725 104.835C6.73374 105.004 6.43729 105.258 6.18319 105.596C5.92908 105.976 5.80203 106.357 5.84438 106.737C5.88673 107.118 6.01378 107.583 6.22554 108.09L9.10537 114.98ZM13.9757 112.993L18.3378 111.176L15.2038 103.651C14.7803 102.594 14.1451 102.003 13.2981 101.918C12.8746 101.876 12.4934 101.918 12.1122 102.087C11.5617 102.299 11.1805 102.637 10.9264 103.059C10.7147 103.398 10.63 103.736 10.63 104.158C10.63 104.581 10.6723 104.919 10.757 105.215C10.8417 105.511 10.9688 105.849 11.1805 106.314L13.9757 112.993Z" fill="white"/>
<path d="M14.2298 97.9869L2.45634 100.058L2.24458 98.9169L11.5193 97.2682L1.52463 88.8138L0.423514 89.0252L0.211761 87.8838L11.9852 85.8125L12.1969 86.9538L2.75279 88.6447L12.7051 97.1414L13.9757 96.9301L14.2298 97.9869Z" fill="white"/>
<path d="M0.423505 71.1019L11.3499 71.5669L11.4346 69.876L14.9921 70.0028L14.9497 71.1019L12.4087 71.0173L11.8581 83.6144L14.3992 83.699L14.3568 84.798L10.7994 84.6712V84.4176C10.7994 84.1639 10.6723 83.9103 10.3335 83.5299C9.99471 83.1917 9.5712 82.8535 8.9783 82.4731C8.38539 82.1349 7.62308 81.7967 6.64902 81.5431C5.67496 81.2894 4.6162 81.1204 3.47274 81.0781L0 80.9513L0.423505 71.1019ZM1.05876 79.8945L2.54103 79.9367C6.52197 80.1058 9.3171 80.9935 10.8841 82.6844L11.3076 72.7505L1.39756 72.3278L1.05876 79.8945Z" fill="white"/>
<path d="M15.7967 56.8562L12.8322 68.3964L1.27051 65.3951L4.15034 54.3198L5.1244 54.5735L2.54102 64.5074L6.56431 65.5642L8.93594 56.3489L9.91 56.6025L7.53837 65.8178L12.1122 67.0015L14.8227 56.5602L15.7967 56.8562Z" fill="white"/>
<path d="M10.6723 53.3056C9.78294 52.8406 9.06299 52.2911 8.47008 51.5725C7.91952 50.8538 7.53837 50.0929 7.36897 49.2475C7.19957 48.4021 7.19957 47.5566 7.32662 46.7112C7.45367 45.8657 7.70777 45.0203 8.13128 44.2171C8.25833 43.9635 8.38538 43.7099 8.55478 43.4562C8.68183 43.2026 8.93593 42.9067 9.27474 42.484C9.61354 42.0612 9.95235 41.7231 10.3335 41.4272C10.7147 41.1313 11.1805 40.8353 11.7311 40.5817C12.2816 40.3281 12.9169 40.159 13.5521 40.1167C14.7803 39.9899 15.8814 40.2013 16.9402 40.7508C18.253 41.4272 19.2271 42.3994 19.7776 43.7099C20.0741 44.3439 20.2435 45.0203 20.2859 45.6966C20.3282 46.373 20.3282 47.0071 20.2012 47.5989C20.0741 48.1907 19.9471 48.6557 19.82 48.9939C19.6929 49.332 19.5659 49.6702 19.3965 49.9661C19.2694 50.2198 19.1424 50.4734 18.973 50.727C18.8036 50.9807 18.5495 51.3188 18.2107 51.7416C17.8719 52.1643 17.4907 52.5447 17.1096 52.8406C16.7284 53.1365 16.2202 53.4324 15.6273 53.6861C15.0344 53.9397 14.3991 54.0665 13.7215 54.1088C12.7051 54.0242 11.6887 53.8129 10.6723 53.3056ZM16.1779 41.7231C14.9073 41.089 13.5945 41.0044 12.2816 41.5117C10.9264 42.019 9.86764 43.0335 9.06299 44.6398C8.38538 45.9503 8.17363 47.2184 8.38538 48.4443C8.51243 49.0784 8.76653 49.7125 9.19004 50.4311C9.61354 51.1497 10.3335 51.6993 11.2652 52.2065C11.9005 52.5447 12.5781 52.7138 13.2557 52.7561C13.8909 52.7984 14.4415 52.7561 15.0344 52.587C15.585 52.4179 16.0508 52.2065 16.432 51.9106C16.8131 51.657 17.1519 51.3188 17.4907 50.9384C17.8295 50.5579 18.0413 50.262 18.2107 50.0084C18.3377 49.7548 18.4648 49.5434 18.5918 49.332C19.0577 48.4443 19.3118 47.5566 19.3541 46.7534C19.3965 45.908 19.2694 45.1894 19.0153 44.5553C18.7189 43.9212 18.3377 43.3717 17.8719 42.9067C17.3637 42.4417 16.8131 42.0612 16.1779 41.7231Z" fill="white"/>
<path opacity="0.3" d="M80.8047 113.839C99.563 113.839 114.77 98.6606 114.77 79.9369C114.77 61.2132 99.563 46.0347 80.8047 46.0347C62.0463 46.0347 46.8396 61.2132 46.8396 79.9369C46.8396 98.6606 62.0463 113.839 80.8047 113.839Z" fill="white" stroke="white" stroke-width="2" stroke-miterlimit="10"/>
<path d="M75.2991 70.8062V88.6873L90.3758 79.7678L75.2991 70.8062Z" fill="#69212C"/>
</g>
<defs>
<clipPath id="clip0">
<rect width="160" height="160" fill="white"/>
</clipPath>
</defs>
</svg>
