<svg width="0" height="0" class="hidden">
  <symbol fill="currentColor" xmlns="http://www.w3.org/2000/svg" viewBox="0 0 79 347" id="1">
    <path d="M24.7936 47.344C18.2577 50.0547 11.9693 52.6627 5.575 55.1833C4.13036 53.5807 3.09471 52.3748 2.40902 51.3831C1.61016 50.2276 1.47013 49.6152 1.50486 49.2212C1.53953 48.8281 1.78157 48.2698 2.73317 47.3055C3.67599 46.3502 5.08126 45.2207 7.06463 43.6375C10.3592 41.1067 13.7087 38.6213 17.0618 36.1333C27.565 28.3398 38.1033 20.5203 47.0991 11.198L47.1025 11.1945C51.6761 6.42392 56.2669 3.77871 60.9608 2.49853C65.2563 1.327 69.7247 1.27495 74.4758 1.88513C68.6592 69.3596 68.6205 137.029 68.5818 204.56C68.565 233.937 68.5482 263.289 68.0558 292.587C67.7271 307.839 69.0321 322.984 76.7363 337.169L76.7407 337.177C77.3631 338.307 77.5337 339.711 77.4946 341.446C77.477 342.228 77.4193 343.029 77.3582 343.876L77.3398 344.133C77.3078 344.579 77.2761 345.037 77.2518 345.5H77.1601H77.0572H76.9542H76.8513H76.7484H76.6456H76.5428H76.44H76.3372H76.2345H76.1318H76.0291H75.9264H75.8238H75.7212H75.6187H75.5161H75.4136H75.3111H75.2087H75.1063H75.0039H74.9015H74.7992H74.6969H74.5946H74.4923H74.3901H74.2879H74.1857H74.0836H73.9815H73.8794H73.7773H73.6753H73.5733H73.4713H73.3694H73.2675H73.1656H73.0637H72.9619H72.8601H72.7583H72.6565H72.5548H72.4531H72.3514H72.2498H72.1482H72.0466H71.945H71.8435H71.742H71.6405H71.5391H71.4376H71.3362H71.2349H71.1335H71.0322H70.9309H70.8296H70.7284H70.6272H70.526H70.4248H70.3237H70.2226H70.1215H70.0204H69.9194H69.8184H69.7174H69.6165H69.5155H69.4146H69.3138H69.2129H69.1121H69.0113H68.9105H68.8098H68.7091H68.6084H68.5077H68.4071H68.3065H68.2059H68.1053H68.0048H67.9042H67.8038H67.7033H67.6029H67.5024H67.402H67.3017H67.2013H67.101H67.0007H66.9005H66.8002H66.7H66.5998H66.4997H66.3995H66.2994H66.1993H66.0993H65.9992H65.8992H65.7992H65.6992H65.5993H65.4994H65.3995H65.2996H65.1998H65.0999H65.0001H64.9004H64.8006H64.7009H64.6012H64.5015H64.4018H64.3022H64.2026H64.103H64.0034H63.9039H63.8044H63.7049H63.6054H63.506H63.4066H63.3072H63.2078H63.1084H63.0091H62.9098H62.8105H62.7113H62.612H62.5128H62.4136H62.3145H62.2153H62.1162H62.0171H61.918H61.819H61.7199H61.6209H61.5219H61.423H61.324H61.2251H61.1262H61.0274H60.9285H60.8297H60.7309H60.6321H60.5333H60.4346H60.3359H60.2372H60.1385H60.0398H59.9412H59.8426H59.744H59.6454H59.5469H59.4484H59.3499H59.2514H59.1529H59.0545H58.9561H58.8577H58.7593H58.661H58.5626H58.4643H58.366H58.2678H58.1695H58.0713H57.9731H57.8749H57.7767H57.6786H57.5805H57.4824H57.3843H57.2862H57.1882H57.0902H56.9922H56.8942H56.7963H56.6983H56.6004H56.5025H56.4046H56.3068H56.209H56.1111H56.0133H55.9156H55.8178H55.7201H55.6224H55.5247H55.427H55.3293H55.2317H55.1341H55.0365H54.9389H54.8414H54.7438H54.6463H54.5488H54.4513H54.3539H54.2564H54.159H54.0616H53.9642H53.8669H53.7695H53.6722H53.5749H53.4776H53.3803H53.2831H53.1858H53.0886H52.9914H52.8942H52.7971H52.7H52.6028H52.5057H52.4086H52.3116H52.2145H52.1175H52.0205H51.9235H51.8265H51.7296H51.6326H51.5357H51.4388H51.3419H51.2451H51.1482H51.0514H50.9546H50.8578H50.761H50.6643H50.5675H50.4708H50.3741H50.2774H50.1807H50.0841H49.9874H49.8908H49.7942H49.6976H49.6011H49.5045H49.408H49.3115H49.215H49.1185H49.022H48.9256H48.8291H48.7327H48.6363H48.54H48.4436H48.3472H48.2509H48.1546H48.0583H47.962H47.8657H47.7695H47.6733H47.577H47.4808H47.3847H47.2885H47.1923H47.0962H47.0001H46.904H46.8079H46.7118H46.6158H46.5197H46.4237H46.3277H46.2317H46.1357H46.0398H45.9438H45.8479H45.752H45.6561H45.5602H45.4643H45.3684H45.2726H45.1768H45.081H44.9852H44.8894H44.7936H44.6979H44.6021H44.5064H44.4107H44.315H44.2194H44.1237H44.028H43.9324H43.8368H43.7412H43.6456H43.55H43.4545H43.3589H43.2634H43.1679H43.0724H42.9769H42.8814H42.786H42.6905H42.5951H42.4997H42.4043H42.3089H42.2135H42.1181H42.0228H41.9274H41.8321H41.7368H41.6415H41.5462H41.451H41.3557H41.2605H41.1652H41.07H40.9748H40.8796H40.7845H40.6893H40.5942H40.499H40.4039H40.3088H40.2137H40.1186H40.0235H39.9285H39.8334H39.7384H39.6434H39.5484H39.4534H39.3584H39.2634H39.1685H39.0735H38.9786H38.8837H38.7887H38.6938H38.599H38.5041H38.4092H38.3144H38.2195H38.1247H38.0299H37.9351H37.8403H37.7455H37.6508H37.556H37.4613H37.3665H37.2718H37.1771H37.0824H36.9877H36.8931H36.7984H36.7037H36.6091H36.5145H36.4198H36.3252H36.2306H36.1361H36.0415H35.9469H35.8524H35.7578H35.6633H35.5688H35.4743H35.3798H35.2853H35.1908H35.0963H35.0019H34.9074H34.813H34.7186H34.6242H34.5298H34.4354H34.341H34.2466H34.1522H34.0579H33.9635H33.8692H33.7749H33.6806H33.5863H33.492H33.3977H33.3034H33.2091H33.1149H33.0206H32.9264H32.8322H32.7379H32.6437H32.5495H32.4553H32.3612H32.267H32.1728H32.0787H31.9845H31.8904H31.7963H31.7022H31.608H31.5139H31.4198H31.3258H31.2317H31.1376H31.0436H30.9495H30.8555H30.7615H30.6674H30.5734H30.4794H30.4759C30.7631 343.837 31.0502 342.178 31.3368 340.522C33.5567 327.694 35.7441 315.053 37.6944 302.412C38.6939 296.361 38.6938 290.327 38.6938 284.11V284.061C39.3475 245.999 40.0829 207.937 40.8183 169.873L40.8184 169.87C41.5538 131.804 42.2893 93.7349 42.9431 55.6659L42.9433 55.653V55.6402V55.617V55.5938V55.5706V55.5475V55.5243V55.5011V55.4779V55.4548V55.4316V55.4084V55.3852V55.362V55.3389V55.3157V55.2925V55.2693V55.2461V55.2229V55.1998V55.1766V55.1534V55.1302V55.107V55.0838V55.0606V55.0374V55.0142V54.991V54.9678V54.9446V54.9214V54.8982V54.875V54.8517V54.8285V54.8053V54.7821V54.7589V54.7356V54.7124V54.6892V54.6659V54.6427V54.6194V54.5962V54.5729V54.5497V54.5264V54.5032V54.4799V54.4566V54.4334V54.4101V54.3868V54.3635V54.3402V54.3169V54.2936V54.2703V54.247V54.2237V54.2004V54.1771V54.1538V54.1304V54.1071V54.0838V54.0604V54.0371V54.0137V53.9904V53.967V53.9436V53.9203V53.8969V53.8735V53.8501V53.8267V53.8033V53.7799V53.7565V53.7331V53.7097V53.6862V53.6628V53.6393V53.6159V53.5924V53.569V53.5455V53.522V53.4985V53.4751V53.4516V53.4281V53.4045V53.381V53.3575V53.334V53.3104V53.2869V53.2633V53.2398V53.2162V53.1926V53.169V53.1454V53.1218V53.0982V53.0746V53.051V53.0274V53.0037V52.9801V52.9564V52.9328V52.9091V52.8854V52.8617V52.838V52.8143V52.7906V52.7668V52.7431V52.7194V52.6956V52.6718V52.6481V52.6243V52.6005V52.5767V52.5529V52.5291V52.5052V52.4814V52.4575V52.4337V52.4098V52.3859V52.362V52.3381V52.3142V52.2903V52.2664V52.2424V52.2185V52.1945V52.1705V52.1465V52.1225V52.0985V52.0745V52.0505V52.0264V52.0024V51.9783V51.9542V51.9302V51.9061V51.8819V51.8578V51.8337V51.8095V51.7854V51.7612V51.737V51.7128V51.6886V51.6644V51.6402V51.6159V51.5917V51.5674V51.5431V51.5188V51.4945V51.4702V51.4459V51.4215V51.3971V51.3728V51.3484V51.324V51.2996V51.2751V51.2507V51.2262V51.2018V51.1773V51.1528V51.1283V51.1038V51.0792V51.0547V51.0301V51.0055V50.9809V50.9563V50.9317V50.907V50.8824V50.8577V50.833V50.8083V50.7836V50.7589V50.7341V50.7094V50.6846V50.6598V50.635V50.6102V50.5853V50.5605V50.5356V50.5107V50.4858V50.4609V50.436V50.411V50.3861V50.3611V50.3361V50.3111V50.286V50.261V50.2359V50.2108V50.1857V50.1606V50.1355V50.1104V50.0852V50.06V50.0348V50.0096V49.9844V49.9591V49.9338V49.9085V49.8832V49.8579V49.8326V49.8072V49.7818V49.7564V49.731V49.7056V49.6802V49.6547V49.6292V49.6037V49.5782V49.5526V49.5271V49.5015V49.4759V49.4503V49.4246V49.399V49.3733V49.3476V49.3219V49.2962V49.2704V49.2447V49.2189V49.1931V49.1672V49.1414V49.1155V49.0896V49.0637V49.0378V49.0118V48.9859V48.9599V48.9339V48.9078V48.8818V48.8557V48.8296V48.8035V48.7774V48.7512V48.725V48.6988V48.6726V48.6464V48.6201V48.5938V48.5675V48.5412V48.5148V48.4885V48.4621V48.4357V48.4092V48.3828V48.3563V48.3298V48.3033V48.2767V48.2502V48.2236V48.197V48.1703V48.1437V48.117V48.0903V48.0636V48.0368V48.01V47.9832V47.9564V47.9296V47.9027V47.8758V47.8489V47.822V47.795V47.768V47.741V47.714V47.687V47.6599V47.6328V47.6057V47.5785V47.5513V47.5241V47.4969V47.4697V47.4424V47.4151V47.3878V47.3604V47.3331V47.3057V47.2782V47.2508V47.2233V47.1958V47.1683V47.1408V47.1132V47.0856V47.058V47.0303V47.0027V46.975V46.9472V46.9195V46.8917V46.8639V46.8361V46.8082V46.7803V46.7524V46.7245V46.6965V46.6685V46.6405V46.6125V46.5844V46.5563V46.5282V46.5V46.4719V46.4437V46.4154V46.3872V46.3589V46.3306V46.3022V46.2739V46.2455V46.2171V46.1886V46.1601V46.1316V46.1031V46.0745V46.0459V46.0173V45.9887V45.96V45.9313V45.9025V45.8738V45.845V45.8162V45.7873V45.7584V45.7295V45.7006V45.6716V45.6426V45.6136V45.5846V45.5555V45.5264V45.4972V45.468V45.4388V45.4096V45.3804V45.3511V45.3217V45.2924V45.263V45.2336V45.2042V45.1747V45.1452V45.1156V45.0861V45.0565V45.0269V44.9972V44.9675V44.9378V44.908V44.8783V44.8485V44.8186V44.7887V44.7588V44.7289V44.6989V44.6689V44.6389V44.6088V44.5787V44.5486V44.5184V44.4882V44.458V44.4278V44.3975V44.3671V44.3368V44.3064V44.276V44.2455V44.2151V44.1845V44.154V44.1234V44.0928V44.0621V44.0314V44.0007V43.97V43.9392V43.9084V43.8775V43.8466V43.8157V43.7848V43.7538V43.7228V43.6917V43.6606V43.6295V43.5984V43.5672V43.5359V43.5047V43.4734V43.4421V43.4107V43.3793V43.3479V43.3164V43.2849V43.2534V43.2218V43.1902V43.1585V43.1268V43.0951V43.0634V43.0316V42.9998V42.9679V42.936V42.9041V42.8721V42.8401V42.8081V42.776V42.7439V42.7118V42.6796V42.6474V42.6151V42.5828V42.5505V42.5181V42.4857V42.4533V42.4208V42.3883V42.3558V42.3232V42.2905V42.2579V42.2252V42.1924V42.1597V42.1269V39.9045L40.8823 40.7357C35.2502 43.0073 29.945 45.2075 24.7936 47.344Z" stroke="currentColor" stroke-width="3"></path>
  </symbol>
  <symbol fill="currentColor" xmlns="http://www.w3.org/2000/svg" viewBox="0 0 137 354" id="2">
    <path d="M39.1384 108.05C40.1313 114.736 41.1954 121.901 42.1256 130.114C38.9533 129.15 35.8582 128.231 32.8241 127.33C25.179 125.06 17.9213 122.905 10.7918 120.441L10.7305 120.42L10.7046 120.414C10.6862 120.402 10.6011 120.347 10.4602 120.184C10.2599 119.952 10.0372 119.605 9.82779 119.167C9.39998 118.271 9.14342 117.24 9.14342 116.515V116.436L9.13509 116.357C5.83894 85.2155 10.4589 55.4983 26.8713 28.4449L26.8713 28.4449L26.8753 28.4383C34.079 16.4257 42.4241 8.508 51.6071 4.53516C60.7626 0.574267 70.9168 0.462072 81.9145 4.36342L81.921 4.36568C96.7369 9.54529 107.126 20.897 114.663 34.7308L114.669 34.7418C135.007 71.3383 133.42 110.297 121.853 149.492C107.289 198.73 82.7829 243.684 55.8882 287.403C50.5713 295.753 45.2671 304.082 39.6333 312.41L39.6006 312.458L39.5717 312.509L34.2545 321.861L32.8293 324.368L35.7001 324.096C40.1341 323.675 44.429 323.297 48.6143 322.928C60.9988 321.836 72.4227 320.829 83.6447 319.074C92.9263 317.623 102.154 315.515 111.352 313.414C116.99 312.126 122.618 310.841 128.24 309.71L128.275 309.703L128.31 309.695C130.378 309.175 133.194 309.936 135.276 311.391C135.295 311.437 135.325 311.519 135.357 311.65C135.444 311.998 135.5 312.495 135.5 313.083C135.5 314.292 135.266 315.539 134.909 316.256L134.871 316.333L134.842 316.414C130.865 327.406 126.555 338.069 122.233 348.762L122.215 348.806L122.2 348.852C121.981 349.513 121.354 350.387 120.518 351.117C120.115 351.469 119.709 351.748 119.346 351.932C118.966 352.125 118.729 352.166 118.639 352.166L118.626 352.166C80.471 352.494 42.3146 352.5 2.26571 352.5C2.30383 352.41 2.3417 352.32 2.37933 352.231C3.85857 348.732 4.96709 346.11 6.29764 343.703L6.30555 343.689L6.31315 343.674C11.8046 333.207 17.4108 322.781 23.0213 312.347C37.0687 286.224 51.1427 260.05 63.5071 233.045C81.4924 194.213 95.2088 153.247 95.8793 109.531C96.5445 82.4403 95.2313 55.3953 82.0904 30.3248C78.7747 23.6629 74.065 16.4408 64.7427 16.8156C55.5386 17.1857 50.5326 23.9165 47.1524 31.391C37.0276 53.7789 36.3829 77.128 38.0502 100.589L38.0539 100.641L38.0613 100.693C38.4031 103.098 38.7657 105.54 39.1384 108.05Z" stroke="currentColor" stroke-width="3"></path>
  </symbol>
  <symbol fill="currentColor" xmlns="http://www.w3.org/2000/svg" viewBox="0 0 130 342" id="3">
    <path d="M31.478 105.697C31.4387 106.193 31.3988 106.726 31.3684 107.316C28.608 106.427 25.9304 105.588 23.3089 104.766C17.3097 102.884 11.6045 101.095 5.87299 99.0277L5.80319 99.0025L5.76993 98.9941C5.74989 98.9801 5.69932 98.9408 5.62239 98.8516C5.47726 98.6833 5.31154 98.42 5.15423 98.0705C4.83277 97.3563 4.65534 96.53 4.65534 95.9777V95.9623L4.65503 95.947C4.02924 65.2972 10.9071 37.6909 32.6382 14.8031C51.798 -5.15686 79.5489 -0.66899 96.4747 15.1807L96.4753 15.1812C125.847 42.657 127.712 89.5164 100.807 119.505C97.7536 122.824 94.004 125.763 90.2507 128.704C89.0858 129.617 87.9206 130.53 86.7758 131.455L85.4848 132.498L86.5218 133.545C86.5331 133.582 86.546 133.628 86.5642 133.693C86.572 133.721 86.5807 133.752 86.5906 133.787L86.5943 133.8C86.6291 133.923 86.7047 134.191 86.832 134.435C86.9176 134.6 87.2578 135.197 87.9791 135.357C104.126 141.135 114.194 150.585 120.266 162.347C126.38 174.191 128.499 188.493 128.5 203.992C128.186 239.088 118.795 271.973 101.25 302.347C94.7103 313.668 85.9716 324.077 76.5735 333.251L76.5705 333.254C71.109 338.616 65.7411 340.764 60.4276 340.474C55.0601 340.181 49.4556 337.386 43.5942 332.248C29.3369 319.412 20.6105 303.098 13.7089 285.36C6.51184 265.763 2.44256 245.538 1.50008 224.678C1.5047 223.733 1.71267 222.4 2.0905 221.29C2.28143 220.729 2.49125 220.299 2.68797 220.022C2.78671 219.882 2.85429 219.819 2.88416 219.795L2.95273 219.781L3.07743 219.732C8.27699 217.669 13.5373 215.845 19.1318 213.905C22.4259 212.763 25.8359 211.581 29.4176 210.286C29.4063 212.886 29.3771 215.39 29.3486 217.824C29.2798 223.713 29.2158 229.194 29.4234 234.646L29.4238 234.655L29.4243 234.665C30.6887 259.565 33.5377 284.616 42.7789 308.107L42.7862 308.126L42.794 308.144C43.0396 308.723 43.2872 309.326 43.541 309.944C44.6994 312.767 45.9871 315.904 47.8026 318.463C50.0934 321.693 53.3263 324.172 58.3177 324.352C63.1569 324.533 66.5678 322.319 69.1097 319.274C71.4232 316.502 73.0944 312.945 74.5655 309.814C74.67 309.592 74.7735 309.372 74.8761 309.154L74.8887 309.127L74.9002 309.1C92.0275 268.742 99.3562 226.696 91.0855 183.008L91.0852 183.006C87.874 166.143 79.7688 151.246 61.7826 144.298C59.7581 143.416 58.7104 142.255 58.4866 141.374C58.3886 140.988 58.4232 140.585 58.6921 140.126C58.9801 139.634 59.5729 139.024 60.6844 138.392C78.6457 128.494 84.7682 111.978 86.6857 93.2691C88.9145 73.0071 87.3265 53.326 79.9703 33.9468L79.9565 33.9104L79.9409 33.8748C78.652 30.9463 77.0478 28.0303 75.482 25.184L75.4647 25.1526L75.4313 25.0918L75.3923 25.0343C71.0972 18.695 65.4756 15.2943 59.6754 15.2943C53.8683 15.2943 48.3196 18.7027 44.1801 25.0569C35.4655 38.4208 32.2736 53.3663 31.3184 68.8001L31.3178 68.8104C30.9214 76.0163 31.1449 83.1849 31.367 90.3085C31.4993 94.5515 31.6311 98.7785 31.6311 102.988C31.6311 103.784 31.5723 104.518 31.5015 105.403C31.4938 105.499 31.4859 105.597 31.478 105.697Z" stroke="currentColor" stroke-width="3"></path>
  </symbol>
  <symbol fill="currentColor" xmlns="http://www.w3.org/2000/svg" viewBox="0 0 148 356" id="4">
    <path d="M142.247 218.845L142.261 218.847C143.166 218.931 143.972 219.029 144.659 219.194C145.355 219.361 145.805 219.569 146.076 219.79C146.299 219.972 146.443 220.191 146.487 220.579C146.537 221.029 146.456 221.768 146.003 222.922L145.957 223.039L145.931 223.161C145.636 224.567 145.694 226.091 145.76 227.421C145.767 227.551 145.774 227.68 145.78 227.807C145.844 229.052 145.9 230.134 145.785 231.109C145.662 232.146 145.364 232.86 144.824 233.369C144.277 233.884 143.274 234.383 141.339 234.543H141.336H141.332H141.328H141.324H141.32H141.315H141.311H141.307H141.303H141.299H141.295H141.291H141.287H141.283H141.279H141.275H141.27H141.266H141.262H141.258H141.254H141.25H141.245H141.241H141.237H141.233H141.229H141.225H141.22H141.216H141.212H141.208H141.203H141.199H141.195H141.191H141.186H141.182H141.178H141.174H141.169H141.165H141.161H141.156H141.152H141.148H141.143H141.139H141.135H141.13H141.126H141.122H141.117H141.113H141.109H141.104H141.1H141.096H141.091H141.087H141.082H141.078H141.074H141.069H141.065H141.06H141.056H141.051H141.047H141.043H141.038H141.034H141.029H141.025H141.02H141.016H141.011H141.007H141.002H140.998H140.993H140.989H140.984H140.98H140.975H140.971H140.966H140.962H140.957H140.953H140.948H140.944H140.939H140.934H140.93H140.925H140.921H140.916H140.912H140.907H140.902H140.898H140.893H140.889H140.884H140.879H140.875H140.87H140.866H140.861H140.856H140.852H140.847H140.842H140.838H140.833H140.828H140.824H140.819H140.814H140.81H140.805H140.8H140.796H140.791H140.786H140.782H140.777H140.772H140.768H140.763H140.758H140.754H140.749H140.744H140.739H140.735H140.73H140.725H140.72H140.716H140.711H140.706H140.702H140.697H140.692H140.687H140.683H140.678H140.673H140.668H140.664H140.659H140.654H140.649H140.644H140.64H140.635H140.63H140.625H140.621H140.616H140.611H140.606H140.601H140.597H140.592H140.587H140.582H140.577H140.573H140.568H140.563H140.558H140.553H140.548H140.544H140.539H140.534H140.529H140.524H140.52H140.515H140.51H140.505H140.5H140.495H140.49H140.486H140.481H140.476H140.471H140.466H140.461H140.457H140.452H140.447H140.442H140.437H140.432H140.427H140.423H140.418H140.413H140.408H140.403H140.398H140.393H140.389H140.384H140.379H140.374H140.369H140.364H140.359H140.354H140.35H140.345H140.34H140.335H140.33H140.325H140.32H140.315H140.311H140.306H140.301H140.296H140.291H140.286H140.281H140.276H140.271H140.267H140.262H140.257H140.252H140.247H140.242H140.237H140.232H140.228H140.223H140.218H140.213H140.208H140.203H140.198H140.193H140.188H140.184H140.179H140.174H140.169H140.164H140.159H140.154H140.149H140.145H140.14H140.135H140.13H140.125H140.12H140.115H140.11H140.106H140.101H140.096H140.091H140.086H140.081H140.076H140.071H140.067H140.062H140.057H140.052H140.047H140.042H140.037H140.033H140.028H140.023H140.018H140.013H140.008H140.003H139.999H139.994H139.989H139.984H139.979H139.974H139.97H139.965H139.96H139.955H139.95H139.945H139.941H139.936H139.931H139.926H139.921H139.916H139.912H139.907H139.902H139.897H139.892H139.888H139.883H139.878H139.873H139.868H139.864H139.859H139.854H139.849H139.844H139.84H139.835H139.83H139.825H139.82H139.816H139.811H139.806H139.801H139.797H139.792H139.787H139.782H139.778H139.773H139.768H139.763H139.759H139.754H139.749H139.744H139.74H139.735H139.73H139.725H139.721H139.716H139.711H139.707H139.702H139.697H139.693H139.688H139.683H139.678H139.674H139.669H139.664H139.66H139.655H139.65H139.646H139.641H139.636H139.632H139.627H139.622H139.618H139.613H139.609H139.604H139.599H139.595H139.59H139.585H139.581H139.576H139.572H139.567H139.562H139.558H139.553H139.549H139.544H139.54H139.535H139.53H139.526H139.521H139.517H139.512H139.508H139.503H139.499H139.494H139.49H139.485H139.481H139.476H139.472H139.467H139.463H139.458H139.454H139.449H139.445H139.44H139.436H139.431H139.427H139.422H139.418H139.413H139.409H139.405H139.4H139.396H139.391H139.387H139.382H139.378H139.374H139.369H139.365H139.361H139.356H139.352H139.347H139.343H139.339H139.334H139.33H139.326H139.321H139.317H139.313H139.308H139.304H139.3H139.296H139.291H139.287H139.283H139.278H139.274H139.27H139.266H139.261H139.257H139.253H139.249H139.245H139.24H139.236H139.232H139.228H139.224H139.219H139.215H139.211H139.207H139.203H139.199H139.194H139.19H139.186H139.182H139.178H139.174H139.17H139.166H139.162H139.158H139.153H139.149H139.145H139.141H139.137H139.133H139.129H139.125H139.121H139.117H139.113H139.109H139.105H139.101H139.097H139.093H139.089H139.085H139.081H139.077H139.074H139.07H139.066H139.052L139.038 234.544L138.922 234.546C134.348 234.629 130.764 234.694 128.033 235.05C125.288 235.407 123.085 236.09 121.536 237.669C119.985 239.25 119.344 241.47 119.058 244.252C118.77 247.043 118.816 250.712 118.899 255.439L118.899 255.448L118.899 255.458C119.068 261.124 119.215 266.818 119.363 272.526C119.799 289.377 120.237 306.351 121.235 323.126L121.236 323.148L121.238 323.171C121.588 327.097 122.722 330.891 123.981 334.53C124.377 335.671 124.781 336.789 125.18 337.893C126.074 340.364 126.941 342.762 127.621 345.191L127.624 345.2L127.627 345.209C128.341 347.638 128.507 350.214 128.697 353.172C128.724 353.606 128.753 354.049 128.784 354.5H128.762H128.653H128.544H128.435H128.326H128.217H128.109H128H127.891H127.782H127.674H127.565H127.457H127.348H127.239H127.131H127.022H126.914H126.806H126.697H126.589H126.48H126.372H126.264H126.156H126.047H125.939H125.831H125.723H125.615H125.507H125.398H125.29H125.182H125.074H124.966H124.858H124.751H124.643H124.535H124.427H124.319H124.211H124.104H123.996H123.888H123.78H123.673H123.565H123.457H123.35H123.242H123.135H123.027H122.92H122.812H122.705H122.597H122.49H122.383H122.275H122.168H122.061H121.953H121.846H121.739H121.632H121.524H121.417H121.31H121.203H121.096H120.989H120.882H120.775H120.668H120.561H120.454H120.347H120.24H120.133H120.026H119.919H119.813H119.706H119.599H119.492H119.385H119.279H119.172H119.065H118.959H118.852H118.745H118.639H118.532H118.426H118.319H118.213H118.106H118H117.893H117.787H117.68H117.574H117.468H117.361H117.255H117.149H117.042H116.936H116.83H116.724H116.617H116.511H116.405H116.299H116.193H116.087H115.981H115.875H115.768H115.662H115.556H115.45H115.344H115.238H115.132H115.027H114.921H114.815H114.709H114.603H114.497H114.391H114.285H114.18H114.074H113.968H113.862H113.757H113.651H113.545H113.44H113.334H113.228H113.123H113.017H112.911H112.806H112.7H112.595H112.489H112.384H112.278H112.173H112.067H111.962H111.856H111.751H111.645H111.54H111.435H111.329H111.224H111.119H111.013H110.908H110.803H110.697H110.592H110.487H110.382H110.276H110.171H110.066H109.961H109.856H109.75H109.645H109.54H109.435H109.33H109.225H109.12H109.015H108.91H108.805H108.7H108.595H108.49H108.385H108.28H108.175H108.07H107.965H107.86H107.755H107.65H107.545H107.44H107.335H107.23H107.126H107.021H106.916H106.811H106.706H106.601H106.497H106.392H106.287H106.182H106.078H105.973H105.868H105.763H105.659H105.554H105.449H105.345H105.24H105.135H105.031H104.926H104.821H104.717H104.612H104.508H104.403H104.298H104.194H104.089H103.985H103.88H103.776H103.671H103.567H103.462H103.357H103.253H103.148H103.044H102.94H102.835H102.731H102.626H102.522H102.417H102.313H102.208H102.104H102H101.895H101.791H101.686H101.582H101.478H101.373H101.269H101.164H101.06H100.956H100.851H100.747H100.643H100.538H100.434H100.33H100.225H100.121H100.017H99.9124H99.8081H99.7038H99.5995H99.4952H99.391H99.2867H99.1824H99.0782H98.9739H98.8696H98.7654H98.6611H98.5569H98.4526H98.3484H98.2442H98.1399H98.0357H97.9315H97.8273H97.723H97.6188H97.5146H97.4104H97.3062H97.202H97.0978H96.9936H96.8894H96.7852H96.681H96.5768H96.4726H96.3684H96.2642H96.16H96.0559H95.9517H95.8475H95.7433H95.6392H95.535H95.4308H95.3266H95.2225H95.1183H95.0141H94.9099H94.8058H94.7016H94.5974H94.4933H94.3891H94.2849H94.1808H94.0766H93.9724H93.8683H93.7641H93.6599H93.5557H93.4516H93.3474H93.2432H93.1391H93.0349H92.9307H92.8265H92.7224H92.6182H92.514H92.4098H92.3056H92.2015H92.0973H91.9931H91.8889H91.7847H91.6805H91.5763H91.4721H91.3679H91.2637H91.1595H91.0553H90.9511H90.8469H90.7426H90.6384H90.5342H90.43H90.3257H90.2215H90.1173H90.013H89.9088H89.8045H89.7003H89.596H89.4918H89.3875H89.2832H89.179H89.0747H88.9704H88.8661H88.7618H88.6575H88.5532H88.4489H88.3446H88.2403H88.136H88.0317H87.9273H87.823H87.7187H87.6143H87.51H87.4056H87.3012H87.1969H87.0925H86.9881H86.8837H86.7793H86.6749H86.5705H86.4661H86.3617H86.2573H86.1528H86.0484H85.9439H85.8395H85.735H85.6305H85.5261H85.4216H85.3171H85.2126H85.1081H85.0036H84.899H84.7945H84.69H84.5854H84.4809H84.3763H84.2717H84.1671H84.0626H83.958H83.8533H83.7487H83.6441H83.5395H83.4348H83.3302H83.2255H83.1208H83.0162H82.9115H82.8068H82.702H82.5973H82.4926H82.3879H82.2831H82.1783H82.0736H81.9688H81.864H81.7592H81.6544H81.5496H81.4447H81.3399H81.235H81.1301H81.0253H80.9204H80.8155H80.7106H80.6056H80.5007H80.3958H80.2908H80.1858H80.0808H79.9758H79.8708H79.7658H79.6608H79.5557H79.4507H79.3456H79.2405H79.1354H79.0303H78.9252H78.82H78.7149H78.6097H78.5751C85.5503 335.74 87.836 316.7 88.5223 297.562C88.8778 287.648 88.8044 277.687 88.7263 267.725L88.7237 267.39C88.6464 257.53 88.569 247.669 88.8974 237.792L88.949 236.242H87.3983H87.3065H87.2147H87.123H87.0312H86.9395H86.8479H86.7562H86.6646H86.573H86.4814H86.3898H86.2983H86.2068H86.1153H86.0238H85.9324H85.841H85.7495H85.6582H85.5668H85.4755H85.3841H85.2929H85.2016H85.1103H85.0191H84.9279H84.8367H84.7455H84.6544H84.5633H84.4722H84.3811H84.29H84.199H84.108H84.017H83.926H83.8351H83.7442H83.6532H83.5624H83.4715H83.3806H83.2898H83.199H83.1082H83.0175H82.9267H82.836H82.7453H82.6546H82.564H82.4733H82.3827H82.2921H82.2015H82.111H82.0205H81.9299H81.8394H81.749H81.6585H81.5681H81.4777H81.3873H81.2969H81.2065H81.1162H81.0259H80.9356H80.8453H80.7551H80.6648H80.5746H80.4844H80.3942H80.3041H80.2139H80.1238H80.0337H79.9436H79.8536H79.7635H79.6735H79.5835H79.4935H79.4035H79.3136H79.2237H79.1338H79.0439H78.954H78.8641H78.7743H78.6845H78.5947H78.5049H78.4152H78.3254H78.2357H78.146H78.0563H77.9666H77.877H77.7873H77.6977H77.6081H77.5186H77.429H77.3394H77.2499H77.1604H77.0709H76.9815H76.892H76.8026H76.7132H76.6238H76.5344H76.445H76.3557H76.2663H76.177H76.0877H75.9984H75.9092H75.8199H75.7307H75.6415H75.5523H75.4631H75.374H75.2848H75.1957H75.1066H75.0175H74.9284H74.8394H74.7503H74.6613H74.5723H74.4833H74.3943H74.3054H74.2164H74.1275H74.0386H73.9497H73.8608H73.772H73.6831H73.5943H73.5055H73.4167H73.3279H73.2392H73.1504H73.0617H72.973H72.8843H72.7956H72.7069H72.6183H72.5296H72.441H72.3524H72.2638H72.1752H72.0867H71.9981H71.9096H71.8211H71.7326H71.6441H71.5556H71.4672H71.3787H71.2903H71.2019H71.1135H71.0251H70.9367H70.8484H70.7601H70.6717H70.5834H70.4951H70.4069H70.3186H70.2303H70.1421H70.0539H69.9657H69.8775H69.7893H69.7011H69.613H69.5249H69.4367H69.3486H69.2605H69.1725H69.0844H68.9963H68.9083H68.8203H68.7323H68.6443H68.5563H68.4683H68.3804H68.2924H68.2045H68.1166H68.0287H67.9408H67.8529H67.765H67.6772H67.5893H67.5015H67.4137H67.3259H67.2381H67.1503H67.0626H66.9748H66.8871H66.7994H66.7117H66.624H66.5363H66.4486H66.361H66.2733H66.1857H66.098H66.0104H65.9228H65.8353H65.7477H65.6601H65.5726H65.485H65.3975H65.31H65.2225H65.135H65.0475H64.96H64.8726H64.7851H64.6977H64.6103H64.5229H64.4355H64.3481H64.2607H64.1734H64.086H63.9987H63.9113H63.824H63.7367H63.6494H63.5621H63.4748H63.3876H63.3003H63.2131H63.1259H63.0386H62.9514H62.8642H62.777H62.6899H62.6027H62.5155H62.4284H62.3412H62.2541H62.167H62.0799H61.9928H61.9057H61.8186H61.7316H61.6445H61.5575H61.4704H61.3834H61.2964H61.2094H61.1224H61.0354H60.9484H60.8615H60.7745H60.6876H60.6006H60.5137H60.4268H60.3399H60.253H60.1661H60.0792H59.9923H59.9054H59.8186H59.7317H59.6449H59.5581H59.4713H59.3844H59.2976H59.2108H59.1241H59.0373H58.9505H58.8638H58.777H58.6903H58.6035H58.5168H58.4301H58.3434H58.2567H58.17H58.0833H57.9966H57.91H57.8233H57.7367H57.65H57.5634H57.4768H57.3901H57.3035H57.2169H57.1303H57.0437H56.9572H56.8706H56.784H56.6975H56.6109H56.5244H56.4378H56.3513H56.2648H56.1783H56.0918H56.0053H55.9188H55.8323H55.7458H55.6593H55.5729H55.4864H55.3999H55.3135H55.2271H55.1406H55.0542H54.9678H54.8814H54.795H54.7086H54.6222H54.5358H54.4494H54.363H54.2767H54.1903H54.104H54.0176H53.9313H53.8449H53.7586H53.6723H53.5859H53.4996H53.4133H53.327H53.2407H53.1544H53.0681H52.9819H52.8956H52.8093H52.7231H52.6368H52.5505H52.4643H52.3781H52.2918H52.2056H52.1194H52.0331H51.9469H51.8607H51.7745H51.6883H51.6021H51.5159H51.4297H51.3435H51.2574H51.1712H51.085H50.9989H50.9127H50.8265H50.7404H50.6542H50.5681H50.482H50.3958H50.3097H50.2236H50.1375H50.0513H49.9652H49.8791H49.793H49.7069H49.6208H49.5347H49.4486H49.3625H49.2764H49.1904H49.1043H49.0182H48.9321H48.8461H48.76H48.674H48.5879H48.5018H48.4158H48.3298H48.2437H48.1577H48.0716H47.9856H47.8996H47.8135H47.7275H47.6415H47.5555H47.4694H47.3834H47.2974H47.2114H47.1254H47.0394H46.9534H46.8674H46.7814H46.6954H46.6094H46.5234H46.4374H46.3514H46.2654H46.1795H46.0935H46.0075H45.9215H45.8356H45.7496H45.6636H45.5776H45.4917H45.4057H45.3197H45.2338H45.1478H45.0618H44.9759H44.8899H44.804H44.718H44.6321H44.5461H44.4602H44.3742H44.2883H44.2023H44.1164H44.0304H43.9445H43.8585H43.7726H43.6866H43.6007H43.5147H43.4288H43.3429H43.2569H43.171H43.085H42.9991H42.9132H42.8272H42.7413H42.6553H42.5694H42.4835H42.3975C31.7113 236.242 20.6965 236.583 10.0401 236.922C5.46391 236.918 3.09863 235.89 2.13686 234.477C1.20036 233.101 1.12958 230.645 3.08728 226.488L3.09289 226.476L3.09828 226.464C6.76334 218.312 10.4286 210.244 14.0952 202.174L14.096 202.172L14.0969 202.17C17.7625 194.102 21.4294 186.031 25.0965 177.874C30.8389 165.33 36.5984 152.784 42.3601 140.234C62.3473 96.6983 82.3604 53.1059 101.77 9.31096L101.771 9.30893C103.223 6.0197 104.739 3.95335 106.547 2.78389C108.313 1.64137 110.577 1.2155 113.849 1.69201L113.906 1.70031L113.964 1.70422C117.376 1.93616 120.698 1.8567 123.886 1.78046C124.814 1.75827 125.73 1.73635 126.634 1.72246C121.527 33.7021 120.481 65.4949 120.399 97.1377C120.373 107.08 120.442 117 120.511 126.907C120.667 149.145 120.821 171.313 119.9 193.503L119.899 193.535V193.566C119.899 195.29 119.778 197.152 119.642 199.095C119.631 199.25 119.62 199.407 119.609 199.563C119.484 201.343 119.355 203.181 119.316 204.959C119.232 208.747 119.532 212.681 121.504 215.495L121.532 215.535L121.562 215.573C122.602 216.869 124.15 217.579 125.759 217.993C127.381 218.411 129.25 218.575 131.139 218.64C132.625 218.691 134.187 218.682 135.707 218.673C136.122 218.671 136.534 218.668 136.94 218.667C138.86 218.662 140.666 218.684 142.247 218.845ZM86.9715 216.811L88.5229 216.908L88.5644 215.354C88.6678 211.48 88.7712 207.612 88.8745 203.749C90.1025 157.813 91.3088 112.693 92.2313 67.8629L92.2628 66.332H90.7316C90.5828 66.332 90.3329 66.2878 89.8646 66.1923C89.8445 66.1882 89.8237 66.184 89.8023 66.1796C89.4354 66.1044 88.8876 65.9922 88.3983 65.9922H87.3248L86.9785 67.0082C70.6448 114.923 54.312 162.835 37.3128 212.106L36.6682 213.975L38.641 214.093C46.5669 214.568 54.028 214.968 61.3863 215.363C69.8665 215.817 78.2102 216.264 86.9715 216.811Z" stroke="currentColor" stroke-width="3"></path>
  </symbol>
  <symbol fill="currentColor" xmlns="http://www.w3.org/2000/svg" viewBox="0 0 132 353" id="5">
    <path d="M30.9498 217.377C30.9402 220.976 30.9081 224.432 30.877 227.787C30.8063 235.405 30.7405 242.505 30.9534 249.581L30.9539 249.6L30.955 249.619C32.2561 273.206 35.8375 296.225 44.6652 318.293C44.7991 318.647 44.9342 319.008 45.0712 319.375C46.2263 322.463 47.522 325.928 49.4462 328.719C51.6611 331.931 54.8011 334.393 59.5886 334.587C64.5219 334.947 67.9482 332.873 70.4939 329.904C72.6507 327.389 74.2361 324.152 75.6533 321.258C75.8546 320.847 76.0526 320.443 76.2483 320.048L76.255 320.035L76.2614 320.021C88.6901 293.668 93.2459 265.388 95.5196 236.927L95.5199 236.923C97.4757 211.644 95.5289 186.584 85.6886 162.798L85.6857 162.791L85.6828 162.784C82.7016 155.778 78.4046 149.122 73.4518 143.466C68.0466 137.007 61.3042 133.362 54.1891 132.668C47.0739 131.973 39.7336 134.242 33.1543 139.339L33.107 139.376L33.0627 139.416C30.1445 142.075 27.2851 144.795 24.2966 147.637C23.7855 148.123 23.2706 148.613 22.751 149.106C19.6647 152.038 16.4038 155.116 12.7532 158.423C12.4635 157.607 12.1616 156.821 11.8768 156.081C11.6406 155.466 11.4163 154.883 11.2206 154.338C10.545 152.457 10.1592 150.923 10.2901 149.472L10.292 149.452L10.2933 149.431C11.9129 123.658 13.8565 97.8835 15.8009 72.4256L15.8016 72.4156C17.0973 53.8197 18.3931 35.2227 19.6889 16.2995C19.8459 14.7267 20.0811 13.2236 20.322 11.7679C20.3619 11.5265 20.4022 11.2855 20.4423 11.0453C20.5678 10.2944 20.692 9.55102 20.8015 8.82506C43.3505 8.18413 65.003 7.53106 86.6597 6.24802C92.2518 5.91672 97.7448 5.08953 103.181 4.19068C104.241 4.01541 105.298 3.83759 106.353 3.66009C110.73 2.92368 115.075 2.1926 119.478 1.6709L119.496 1.6687L119.515 1.66603C120.566 1.51481 121.818 1.44417 122.923 1.55186C124.108 1.66734 124.783 1.95625 125.042 2.21733L126.104 1.16304L125.042 2.21734C125.275 2.45177 125.582 3.18278 125.62 4.42858C125.655 5.59206 125.439 6.84006 125.05 7.7535L125.041 7.77449L125.033 7.79573C121.473 16.9234 117.607 26.3294 113.107 35.0702L113.102 35.0799L113.097 35.0898C112.807 35.6732 111.899 36.5482 110.626 37.2646C109.344 37.9862 108.165 38.2807 107.525 38.1886L107.455 38.1787L107.385 38.1752C97.508 37.686 87.549 37.1151 77.5831 36.5439L77.5798 36.5437C67.6226 35.973 57.6585 35.4019 47.7743 34.9122C45.4893 34.7483 43.5571 34.7177 41.9536 34.9565C40.3208 35.1997 38.9201 35.738 37.8159 36.7944C36.7251 37.8381 36.0789 39.2402 35.657 40.9064C35.2386 42.5587 35.0096 44.6007 34.8465 47.0544C33.1976 63.247 31.6791 79.5788 30.1256 96.2872C29.2371 105.843 28.3372 115.522 27.3948 125.368L27.1531 127.894L29.4825 126.889C36.2508 123.967 42.0543 121.693 47.8792 119.412C61.6629 114.631 74.9767 114.814 86.6377 119.322C98.3095 123.834 108.427 132.719 115.73 145.512L115.736 145.522C126.599 164.186 131.081 184.466 130.44 205.428C129.152 246.95 117.883 286.185 96.3132 321.856C91.8393 328.935 86.4025 335.699 80.3215 341.824L80.3152 341.83L80.3089 341.837C73.8299 348.521 67.5574 351.573 61.4746 351.499C55.3818 351.424 49.0951 348.208 42.6035 341.51L42.5972 341.504L42.5908 341.497C30.4697 329.29 22.1368 314.15 15.6964 298.258C7.34215 277.547 3.15524 256.167 1.54318 234.095C1.38798 231.582 1.65293 230.011 2.33569 228.905C2.99834 227.831 4.22544 226.926 6.65404 226.162L6.68475 226.152L6.71501 226.141C9.03378 225.3 11.3222 224.461 13.6497 223.608C18.9429 221.666 24.4378 219.651 30.9498 217.377Z" stroke="currentColor" stroke-width="3"></path>
  </symbol>
  <symbol fill="currentColor" xmlns="http://www.w3.org/2000/svg" viewBox="0 0 141 368" id="6">
    <path d="M102.558 98.3444C102.298 94.3367 102.08 90.3642 101.864 86.4257C101.326 76.5956 100.799 66.9777 99.6428 57.5538C98.6143 49.1689 96.2209 40.4746 93.5073 32.5244L93.5004 32.504L93.4928 32.4837C90.735 25.1064 86.0101 18.155 76.6477 17.7728C67.6699 17.3922 61.8436 23.553 58.6892 31.0537L58.6837 31.0667L58.6785 31.0797C57.7516 33.4049 56.7704 35.7483 55.7805 38.1124C52.1563 46.7677 48.4159 55.7007 46.7994 65.0315C43.1986 85.0735 40.7329 105.352 38.2913 125.433C37.7582 129.817 37.2262 134.193 36.6838 138.554C36.4784 139.658 36.5969 140.804 36.7187 141.839C36.7349 141.976 36.7514 142.113 36.7679 142.251C36.8852 143.224 37.0033 144.204 37.0033 145.313V148.046L39.3091 146.578C40.9413 145.538 42.4423 144.567 43.8706 143.642C47.198 141.489 50.1304 139.591 53.4058 137.684C67.625 129.598 81.2811 127.569 93.4112 130.959C105.55 134.352 116.388 143.234 124.835 157.41C137.113 178.38 140.789 201.068 139.121 225.221C135.76 266.652 127.034 306.218 104.972 341.303L104.967 341.312C101.008 347.7 96.0501 353.43 90.4148 358.498C84.0693 364.135 77.4368 366.69 70.9446 366.489C64.4424 366.288 57.8667 363.317 51.6622 357.493L51.6563 357.488C36.761 343.657 28.0983 325.391 21.3861 305.896L21.3836 305.889L21.381 305.881C8.97576 271.031 3.60045 235.127 1.91984 198.136C-0.0954565 151.581 4.94552 105.774 21.3691 62.0494C27.0528 47.4008 34.7418 33.0932 43.7622 20.495C53.9785 6.56106 66.6533 0.559703 78.7291 1.61917C90.8272 2.68059 102.744 10.8652 111.335 26.1835C121.653 44.8403 126.337 64.895 129.359 85.7697L129.361 85.7833L129.363 85.7968C129.462 86.4015 129.258 87.5369 128.722 88.708C128.468 89.2628 128.172 89.7517 127.876 90.1186C127.583 90.4811 127.364 90.6343 127.264 90.6823C120.855 92.9413 114.46 94.8274 107.887 96.7657C106.125 97.2855 104.35 97.809 102.558 98.3444ZM93.1897 320.202L93.1919 320.194L93.194 320.187C103.361 284.271 105.723 247.697 104.034 210.502C103.355 193.568 100.638 177.119 91.3344 162.371C88.1799 157.371 84.175 153.612 79.454 151.577C74.7129 149.533 69.3673 149.278 63.6608 151.096L63.6472 151.1L63.6336 151.105C55.6576 153.814 48.3506 158.784 41.5668 163.397C41.2747 163.596 40.9836 163.794 40.6935 163.991L40.6733 164.005L40.6536 164.019C39.1345 165.125 37.992 167.07 37.2001 168.998C36.3888 170.973 35.8459 173.176 35.6625 175.045L35.6606 175.064L35.6592 175.083C35.1481 182.115 35.2131 189.362 35.2767 196.439C35.2976 198.767 35.3183 201.076 35.3183 203.353V203.376L35.3189 203.398C36.3308 237.77 38.693 272.244 47.1585 306.062L47.1592 306.065C50.223 318.207 54.9897 330.355 61.1277 341.127L61.1313 341.133L61.1349 341.14C64.4726 346.868 68.7927 349.921 73.4422 349.609C78.0209 349.301 82.1747 345.764 85.3128 340.079L85.3166 340.072C88.7575 333.76 91.1521 327.123 93.1897 320.202Z" stroke="currentColor" stroke-width="3"></path>
  </symbol>
  <symbol fill="currentColor" xmlns="http://www.w3.org/2000/svg" viewBox="0 0 145 375" id="7">
    <path d="M68.86 373.5H68.8115H68.7047H68.5979H68.4912H68.3845H68.2779H68.1713H68.0648H67.9583H67.8518H67.7454H67.639H67.5327H67.4264H67.3202H67.214H67.1079H67.0018H66.8958H66.7898H66.6838H66.5779H66.4721H66.3662H66.2605H66.1547H66.049H65.9434H65.8378H65.7322H65.6267H65.5212H65.4158H65.3104H65.2051H65.0998H64.9945H64.8893H64.7842H64.679H64.574H64.4689H64.3639H64.2589H64.154H64.0491H63.9443H63.8395H63.7348H63.6301H63.5254H63.4207H63.3162H63.2116H63.1071H63.0026H62.8982H62.7938H62.6895H62.5852H62.4809H62.3767H62.2725H62.1683H62.0642H61.9601H61.8561H61.7521H61.6481H61.5442H61.4403H61.3365H61.2327H61.1289H61.0252H60.9215H60.8178H60.7142H60.6106H60.5071H60.4036H60.3001H60.1967H60.0933H59.9899H59.8866H59.7833H59.6801H59.5769H59.4737H59.3705H59.2674H59.1644H59.0613H58.9583H58.8554H58.7524H58.6495H58.5467H58.4438H58.3411H58.2383H58.1356H58.0329H57.9302H57.8276H57.725H57.6225H57.5199H57.4174H57.315H57.2126H57.1102H57.0078H56.9055H56.8032H56.7009H56.5987H56.4965H56.3944H56.2922H56.1901H56.0881H55.986H55.884H55.782H55.6801H55.5782H55.4763H55.3745H55.2726H55.1708H55.0691H54.9674H54.8657H54.764H54.6624H54.5607H54.4592H54.3576H54.2561H54.1546H54.0531H53.9517H53.8503H53.7489H53.6476H53.5462H53.445H53.3437H53.2425H53.1413H53.0401H52.9389H52.8378H52.7367H52.6356H52.5346H52.4336H52.3326H52.2316H52.1307H52.0298H51.9289H51.828H51.7272H51.6264H51.5256H51.4248H51.3241H51.2234H51.1227H51.0221H50.9215H50.8209H50.7203H50.6197H50.5192H50.4187H50.3182H50.2177H50.1173H50.0169H49.9165H49.8162H49.7158H49.6155H49.5152H49.4149H49.3147H49.2145H49.1143H49.0141H48.9139H48.8138H48.7137H48.6136H48.5135H48.4135H48.3135H48.2135H48.1135H48.0135H47.9136H47.8137H47.7138H47.6139H47.5141H47.4142H47.3144H47.2146H47.1148H47.0151H46.9154H46.8156H46.7159H46.6163H46.5166H46.417H46.3174H46.2178H46.1182H46.0186H45.9191H45.8196H45.7201H45.6206H45.5211H45.4216H45.3222H45.2228H45.1234H45.024H44.9247H44.8253H44.726H44.6267H44.5274H44.4281H44.3288H44.2296H44.1304H44.0311H43.9319H43.8328H43.7336H43.6344H43.5353H43.4362H43.3371H43.238H43.1389H43.0399H42.9408H42.8418H42.7428H42.6438H42.5448H42.4458H42.3468H42.2479H42.149H42.05H41.9511H41.8522H41.7534H41.6545H41.5557H41.4568H41.358H41.2592H41.1604H41.0616H40.9628H40.864H40.7653H40.6665H40.5678H40.4691H40.3704H40.2717H40.173H40.0743H39.9757H39.877H39.7784H39.6797H39.5811H39.4825H39.3839H39.2853H39.1867H39.0881H38.9896H38.891H38.7925H38.6939H38.5954H38.4969H38.3984H38.2999H38.2014H38.1029H38.0044H37.906H37.8075H37.7091H37.6106H37.5122H37.4138H37.3153H37.2169H37.1185H37.0201H36.9217H36.8233H36.725H36.6266H36.5282H36.4299H36.3315H36.2332H36.1348H36.0365H35.9382H35.8398H35.7415H35.6432H35.5449H35.4466H35.3483H35.25H35.1517H35.0534H34.9551H34.8568H34.7586H34.6603H34.562H34.4638H34.3655H34.2673H34.169H34.0707H33.9725H33.8743H33.776H33.6778H33.5795H33.4813H33.3831H33.2848H33.1866H33.0884H32.9902H32.8919H32.7937H32.6955H32.5973H32.4991H32.4008H32.3026H32.2044H32.1062H32.008H31.9098H31.8115H31.7133H31.6151H31.5169H31.4187H31.3205H31.2223H31.124H31.0258H30.9276H30.8294H30.7312H30.6329H30.5347H30.4365H30.3383H30.24H30.1418H30.0436H29.9453H29.8471H29.7488H29.6506H29.5523H29.4541H29.3558H29.2576H29.1593H29.0611H28.9628H28.8645H28.7662H28.668H28.5697H28.4714H28.3731H28.2748H28.1765H28.0782H27.9799H27.8816H27.7833H27.6849H27.5866H27.4883H27.3899H27.2916H27.1932H27.0949H26.9965H26.8981H26.7997H26.7014H26.603H26.5046H26.4062H26.3077H26.2093H26.1109H26.0125H25.914H25.8156H25.7171H25.6186H25.5202H25.4217H25.3232H25.2247H25.1262H25.0277H24.9291H24.8306H24.7321H24.6335H24.5349H24.4364H24.3378H24.2392H24.1406H24.042H23.9434H23.8447H23.7461H23.6474H23.5488H23.4501H23.3514H23.2527H23.154H23.0553H22.9566H22.8578H22.7591H22.6603H22.5615H22.4627H22.3639H22.2651H22.1663H22.0674H21.9686H21.8697H21.7708H21.6719H21.573H21.4741H21.3752H21.2762H21.1773H21.0783H20.9793H20.8803H20.8278C31.0718 254.209 64.8226 141.608 115.364 30.7369L116.414 28.4351L113.89 28.6187C109.398 28.9456 105.134 29.1392 101.042 29.3249C91.8586 29.7418 83.5433 30.1193 75.4703 31.8756L75.4629 31.8772L75.4554 31.8789C60.9807 35.1829 46.6199 39.4282 32.2634 43.6723C24.7803 45.8845 17.2984 48.0963 9.8022 50.1743C8.44642 50.51 6.88518 50.7479 5.49458 50.7084C4.04204 50.6671 3.0808 50.3332 2.58959 49.8447L2.53072 49.7861L2.46575 49.7344C2.07768 49.4257 1.6677 48.5493 1.53934 47.0599C1.42069 45.6832 1.58038 44.1829 1.88189 43.1126C6.20496 30.5723 10.515 18.073 15.54 5.57884L15.5566 5.53777L15.5706 5.4958C15.7977 4.81838 16.5311 3.87831 17.5831 3.07352C18.6489 2.25813 19.6779 1.85851 20.2764 1.85851V1.85857L20.2895 1.85845C60.7504 1.50546 100.863 1.50008 143.043 1.5C142.962 1.80456 142.883 2.10274 142.806 2.39474C142.096 5.0849 141.524 7.25045 140.757 9.04367C104.645 80.168 81.5424 155.58 66.7458 233.467C60.2513 267.557 55.5225 301.82 60.6068 336.855C61.3404 341.961 62.7447 347.14 64.1202 352.213C64.7939 354.698 65.4606 357.157 66.0383 359.57C66.5212 361.651 66.9317 363.808 67.3757 366.141C67.4207 366.378 67.4661 366.616 67.5118 366.856C67.9072 368.929 68.334 371.132 68.86 373.5Z" stroke="currentColor" stroke-width="3"></path>
  </symbol>
  <symbol fill="currentColor" xmlns="http://www.w3.org/2000/svg" viewBox="0 0 142 373" id="8">
    <path d="M125.09 207.651L125.092 207.654C144.891 241.708 144.257 278.202 130.865 315.229C124.696 331.803 115.824 346.55 102.238 357.846C89.5048 368.281 75.9609 372.637 63.1513 371.249C50.3417 369.861 38.0488 362.708 27.8624 349.706L27.8564 349.698C-3.57882 310.103 -4.32966 266.386 12.1641 220.674C18.9994 202.426 29.9454 186.549 43.3452 172.004C44.3588 170.981 45.2904 169.961 46.2331 168.928L46.3545 168.795C47.3498 167.705 48.3697 166.592 49.5572 165.395L50.5382 164.407L49.6251 163.355C44.7881 157.785 40.2959 152.562 35.8018 147.336C20.9567 128.547 8.4404 109.007 8.10167 84.4286L8.10144 84.4179C7.4189 51.7479 20.3524 25.0719 48.2276 8.28683L48.2337 8.28318L48.2397 8.27947C73.9622 -7.5418 108.008 5.46328 122.26 35.8958L122.26 35.8958L122.266 35.9086C137.21 67.0514 131.157 96.1154 111.333 122.98L111.331 122.983C105.505 130.925 98.6554 138.517 91.1294 145.066L91.1063 145.086L91.0841 145.107C88.2425 147.792 86.6912 150.2 86.8073 152.891C86.9177 155.45 88.5524 157.817 90.5908 160.384C92.3035 162.554 94.0272 164.72 95.7519 166.888C106.27 180.106 116.821 193.367 125.09 207.651ZM55.6024 25.9856L55.5964 25.9935L55.5905 26.0016C50.6593 32.7453 46.7588 40.2324 44.624 48.1139C34.0218 85.1666 50.7485 113.262 75.0816 139.884L76.1191 141.019L77.228 139.953C92.3648 125.41 100.81 108.02 104.323 88.5538C108.544 65.5072 104.324 43.7571 88.7629 25.2255C83.8686 19.3806 77.9226 16.3908 71.9118 16.535C65.8998 16.6793 60.139 19.9513 55.6024 25.9856ZM101.861 322.801L101.862 322.796C118.327 266.669 98.9866 220.457 63.1403 178.023L62.2234 176.938L61.09 177.794C60.432 178.291 59.9409 178.622 59.5568 178.88C59.533 178.895 59.5089 178.912 59.4845 178.928C59.1647 179.142 58.7882 179.395 58.5063 179.679L58.4018 179.784L58.32 179.908C58.0144 180.369 57.7069 180.758 57.3576 181.198L57.345 181.214C57.0051 181.642 56.6249 182.121 56.2428 182.698L56.2303 182.717L56.2183 182.737C34.2262 218.265 26.1668 256.329 34.9053 297.554C38.0513 313.75 43.6598 328.976 53.8687 342.459C59.0839 349.523 65.542 353.261 72.24 353.308C78.9343 353.356 85.481 349.715 90.8715 342.835L90.8786 342.826L90.8856 342.816C95.4285 336.83 99.7078 330.033 101.861 322.801Z" stroke="currentColor" stroke-width="3"></path>
  </symbol>
  <symbol  fill="currentColor" id="play" xmlns="http://www.w3.org/2000/svg" xmlns:xlink="http://www.w3.org/1999/xlink"
	 viewBox="0 0 512 512" >
<g>
	<g>
		<path d="M256,0C114.608,0,0,114.608,0,256s114.608,256,256,256s256-114.608,256-256S397.392,0,256,0z M256,496
			C123.664,496,16,388.336,16,256S123.664,16,256,16s240,107.664,240,240S388.336,496,256,496z"/>
	</g>
</g>
<g>
	<g>
		<polygon points="189.776,141.328 189.776,370.992 388.672,256.16 		"/>
	</g>
</g>
<g>
</g>
<g>
</g>
<g>
</g>
<g>
</g>
<g>
</g>
<g>
</g>
<g>
</g>
<g>
</g>
<g>
</g>
<g>
</g>
<g>
</g>
<g>
</g>
<g>
</g>
<g>
</g>
<g>
</g>
</symbol>
</svg>
