<svg width="82" height="289" viewBox="0 0 82 289" fill="none" xmlns="http://www.w3.org/2000/svg">
<path d="M79.8693 278.725L80.6266 279.378L81.238 278.669L80.5707 278.012L79.8693 278.725ZM72.368 287.426L71.7568 288.218L72.5066 288.797L73.1253 288.079L72.368 287.426ZM19.8776 223.534L18.9774 223.97L18.9789 223.973L19.8776 223.534ZM56.2091 15.3289L55.5507 14.5764L55.5397 14.5861L55.5289 14.5961L56.2091 15.3289ZM61.3097 11.1281L61.9236 11.9174L61.9495 11.8973L61.974 11.8755L61.3097 11.1281ZM72.4111 1.82647L73.1321 1.13325L72.4867 0.461998L71.7711 1.05834L72.4111 1.82647ZM79.91 9.62535L80.617 10.3323L81.3104 9.63887L80.6309 8.93213L79.91 9.62535ZM55.3056 38.429L54.4822 37.8619L54.4821 37.8619L55.3056 38.429ZM79.112 278.073L71.6107 286.774L73.1253 288.079L80.6266 279.378L79.112 278.073ZM72.9791 286.635C50.2991 269.129 32.9028 247.951 20.7764 223.096L18.9789 223.973C31.2449 249.114 48.8422 270.531 71.7568 288.218L72.9791 286.635ZM20.7779 223.099C8.85075 198.443 2.88548 171.694 2.88984 142.837L0.889844 142.837C0.885439 171.98 6.91202 199.029 18.9774 223.97L20.7779 223.099ZM2.88984 142.837C2.89757 91.7023 20.8973 49.4694 56.8893 16.0618L55.5289 14.5961C19.1108 48.3993 0.897654 91.1719 0.889844 142.837L2.88984 142.837ZM56.8675 16.0814C58.4522 14.6947 60.1375 13.3067 61.9236 11.9174L60.6959 10.3389C58.8816 11.7501 57.1664 13.1626 55.5507 14.5764L56.8675 16.0814ZM61.974 11.8755C63.7624 10.2857 65.7521 8.59428 67.9436 6.8011L66.6774 5.25338C64.4684 7.06086 62.4575 8.77007 60.6455 10.3808L61.974 11.8755ZM67.9436 6.8011C70.1447 5.00013 71.8476 3.59765 73.0512 2.5946L71.7711 1.05834C70.5744 2.05565 68.8769 3.45368 66.6774 5.25338L67.9436 6.8011ZM71.6902 2.51969L79.189 10.3186L80.6309 8.93213L73.1321 1.13325L71.6902 2.51969ZM79.203 8.91834C68.9712 19.1501 60.7269 28.798 54.4822 37.8619L56.129 38.9962C62.287 30.0583 70.4457 20.5037 80.617 10.3323L79.203 8.91834ZM54.4821 37.8619C33.5465 68.2554 23.0956 104.562 23.0893 146.734L25.0893 146.734C25.0956 104.906 35.4556 69.009 56.1291 38.9961L54.4821 37.8619ZM23.0893 146.734C23.0814 198.407 41.7856 242.659 79.1678 279.438L80.5707 278.012C43.564 241.603 25.0815 197.861 25.0893 146.734L23.0893 146.734Z" fill="white"/>
</svg>
