<svg width="188" height="194" viewBox="0 0 188 194" fill="none" xmlns="http://www.w3.org/2000/svg">
<g clip-path="url(#clip0)">
<path d="M7.12099 55.9717L20.133 65.3313L19.5827 67.017L5.03906 67.2423L16.6422 75.9791L16.1018 77.6351L0 77.6848L0.477385 76.2242L14.9116 76.2607L3.33838 67.5105L3.82902 66.0102L18.3793 65.6956L6.66681 57.3561L7.12099 55.9717Z" fill="white"/>
<path d="M29.7537 48.0529L28.9481 49.4141L24.5356 49.0829L19.523 57.5681L21.9431 61.2708L21.1607 62.5956L11.8318 48.3543L12.6706 46.9401L29.7537 48.0529ZM23.183 49.0167L13.4264 48.3145L18.7771 56.4487L23.183 49.0167Z" fill="white"/>
<path d="M26.6937 30.2512L22.5133 35.3019L33.3274 44.2442L32.4025 45.3636L21.5884 36.4313L17.2157 41.7304L16.2443 40.9057L25.7257 29.4531L26.6937 30.2512Z" fill="white"/>
<path d="M42.0331 20.3254L41.496 21.7064C40.8581 21.4597 40.1884 21.3047 39.5069 21.2461C38.9305 21.1892 38.3489 21.2148 37.7797 21.3222C37.278 21.4339 36.7892 21.5971 36.321 21.8091C35.9308 21.976 35.5558 22.1765 35.2005 22.4086C34.9397 22.5896 34.6878 22.7817 34.4446 22.9848C32.818 24.3449 31.934 25.9821 31.7925 27.8964C31.7283 28.767 31.8399 29.6417 32.1207 30.4683C32.4014 31.295 32.8456 32.0569 33.4269 32.7087C33.9677 33.3879 34.6433 33.948 35.4112 34.3538C36.1791 34.7597 37.0228 35.0024 37.8891 35.0668C39.739 35.2324 41.4772 34.634 43.1039 33.2717C45.3096 31.4038 46.1748 29.0346 45.6996 26.1643L47.1152 25.7967C47.3494 27.0099 47.328 28.2585 47.0522 29.463C46.5588 31.401 45.4447 33.1247 43.8796 34.3713C42.253 35.7314 40.5556 36.471 38.7875 36.5903C37.5253 36.6713 36.2622 36.444 35.1077 35.9279C33.941 35.4119 32.9104 34.6318 32.0975 33.6493C30.9003 32.271 30.2431 30.5062 30.2476 28.6814C30.2488 27.8521 30.3717 27.0275 30.6123 26.2338C30.8224 25.5125 31.1446 24.8285 31.5671 24.2069C31.8897 23.7383 32.2372 23.2873 32.608 22.8557C32.8954 22.5347 33.2045 22.2337 33.533 21.9548C35.3607 20.4291 37.3565 19.7104 39.5202 19.7988C40.378 19.8583 41.2236 20.0355 42.0331 20.3254Z" fill="white"/>
<path d="M65.4282 20.7493L64.1353 21.4117L60.7273 14.7878L49.3032 20.6201L52.7112 27.2605L51.3851 27.9428L44.4233 14.3639L45.7493 13.6816L48.733 19.4941L60.1604 13.6452L57.1767 7.82941L58.4663 7.16702L65.4282 20.7493Z" fill="white"/>
<path d="M84.5037 1.67916L78.0689 2.94763L80.784 16.6988L79.3618 16.9803L76.6467 3.22914L69.9103 4.55392L69.6683 3.31194L84.255 0.433868L84.5037 1.67916Z" fill="white"/>
<path d="M104.139 15.374H102.691L102.74 7.91222L89.8975 7.82942L89.8411 15.2813H88.3459L88.4554 0H89.9505L89.9074 6.53114L102.747 6.61394L102.79 0.0927342H104.239L104.139 15.374Z" fill="white"/>
<path d="M122.661 19.4974L107.829 15.8973L111.433 1.06314L125.645 4.50755L125.35 5.72635L112.59 2.64956L111.323 7.84599L123.125 10.7075L122.82 11.9693L111.015 9.10783L109.583 15.013L122.966 18.2554L122.661 19.4974Z" fill="white"/>
<path d="M150.151 16.3775L136.509 26.2471L135.259 25.5516L136.432 8.70708L137.868 9.50857L136.701 24.5249L148.732 15.5827L150.151 16.3775Z" fill="white"/>
<path d="M144.429 31.4369L143.255 30.5857L152.253 18.2388L153.426 19.0933L144.429 31.4369Z" fill="white"/>
<path d="M158.465 22.6967L163.905 28.0587C164.644 28.7583 165.288 29.551 165.822 30.4168C166.266 31.2005 166.544 32.0676 166.637 32.9637C166.858 35.1959 166.045 37.2516 164.197 39.1305C163.637 39.7054 163.002 40.2033 162.311 40.611C160.408 41.7149 158.516 41.9269 156.635 41.2469C155.459 40.8185 154.133 39.8801 152.657 38.4317L147.724 33.5698L158.465 22.6967ZM158.661 24.6541L149.71 33.7254L153.161 37.1434C153.801 37.7693 154.328 38.2628 154.749 38.6172C155.269 39.0326 155.834 39.3891 156.433 39.6803C157.073 40.0224 157.785 40.2096 158.512 40.2268C160.103 40.2577 161.609 39.5534 163.03 38.1138C163.963 37.1955 164.647 36.0561 165.019 34.8018C165.364 33.6048 165.245 32.3223 164.688 31.2084C164.266 30.3593 163.695 29.5922 163.004 28.943L158.661 24.6541Z" fill="white"/>
<path d="M168.643 59.4029L160.371 46.5857L173.221 38.3059L181.151 50.5965L180.093 51.2754L172.976 40.24L168.46 43.1479L175.041 53.352L173.95 54.0541L167.37 43.8567L162.254 47.1487L169.717 58.7107L168.643 59.4029Z" fill="white"/>
<path d="M176.632 58.1344C177.767 57.7086 178.983 57.5455 180.189 57.6575C181.294 57.7546 182.359 58.1146 183.296 58.7074C184.211 59.2998 185.021 60.0421 185.689 60.9032C186.382 61.7935 186.928 62.7886 187.307 63.8508C187.433 64.2019 187.546 64.553 187.639 64.904C187.762 65.4045 187.854 65.9122 187.914 66.4242C188 67.0575 188.018 67.698 187.97 68.3352C187.9 69.036 187.744 69.7256 187.506 70.3886C187.242 71.1496 186.853 71.8615 186.356 72.495C185.438 73.6853 184.198 74.5876 182.782 75.0948C181.09 75.7358 179.224 75.7487 177.524 75.1313C176.693 74.8328 175.916 74.4022 175.223 73.8562C174.581 73.3618 174.021 72.7681 173.566 72.0975C173.221 71.5934 172.904 71.0704 172.618 70.531C172.413 70.1317 172.234 69.7203 172.08 69.299C171.958 68.9678 171.845 68.6068 171.749 68.2458C171.62 67.723 171.528 67.1917 171.474 66.656C171.391 65.9968 171.38 65.3305 171.441 64.6689C171.527 63.941 171.711 63.2281 171.988 62.5492C172.291 61.7725 172.724 61.0526 173.267 60.4197C174.17 59.3778 175.33 58.59 176.632 58.1344ZM182.503 73.4256C183.321 73.1479 184.069 72.6987 184.698 72.108C185.327 71.5173 185.822 70.7989 186.15 70.0011C186.875 68.3275 186.85 66.4198 186.074 64.2781C185.433 62.5117 184.455 61.1869 183.14 60.3037C182.358 59.8121 181.489 59.4748 180.581 59.3102C179.42 59.1063 178.226 59.2302 177.133 59.6679C176.287 59.9695 175.507 60.4304 174.835 61.0257C174.257 61.5275 173.786 62.1402 173.45 62.8274C173.147 63.4155 172.941 64.0485 172.84 64.702C172.76 65.3039 172.752 65.9132 172.816 66.5169C172.853 67.0113 172.93 67.502 173.045 67.9841C173.141 68.3153 173.241 68.6465 173.35 68.9446C173.719 70.0451 174.308 71.0592 175.081 71.9253C175.709 72.6428 176.507 73.1926 177.401 73.525C178.217 73.8109 179.077 73.9477 179.941 73.929C180.817 73.9024 181.682 73.7323 182.503 73.4256Z" fill="white"/>
<path d="M177.478 150.127L165.928 139.015L166.717 137.425L181.141 139.267L170.9 128.97L171.666 127.42L187.615 129.652L186.933 131.03L172.651 128.944L182.865 139.25L182.165 140.668L167.718 138.909L178.124 148.828L177.478 150.127Z" fill="white"/>
<path d="M153.92 154.727L154.915 153.495L159.224 154.449L165.427 146.792L163.567 142.791L164.532 141.595L171.696 157.042L170.658 158.311L153.92 154.727ZM160.55 154.727L170.101 156.814L165.987 147.994L160.55 154.727Z" fill="white"/>
<path d="M154.381 172.764L159.248 168.372L149.846 157.979L150.92 157.009L160.325 167.412L165.427 162.805L166.269 163.736L155.233 173.695L154.381 172.764Z" fill="white"/>
<path d="M137.765 180.381L138.495 179.093C139.092 179.431 139.735 179.681 140.404 179.835C140.966 179.977 141.546 180.035 142.125 180.007C142.637 179.971 143.143 179.881 143.636 179.739C144.047 179.629 144.447 179.484 144.833 179.305C145.118 179.162 145.397 179.01 145.665 178.841C147.471 177.737 148.585 176.247 149.007 174.37C149.198 173.518 149.215 172.636 149.056 171.777C148.898 170.919 148.568 170.101 148.085 169.372C147.649 168.622 147.061 167.969 146.36 167.456C145.659 166.943 144.859 166.581 144.011 166.392C142.201 165.961 140.394 166.303 138.591 167.418C136.12 168.937 134.914 171.162 134.974 174.092L133.522 174.251C133.464 173.017 133.665 171.785 134.112 170.634C134.88 168.788 136.23 167.242 137.957 166.233C139.779 165.111 141.569 164.618 143.328 164.752C144.584 164.853 145.797 165.256 146.862 165.928C147.943 166.605 148.851 167.525 149.514 168.614C150.502 170.151 150.897 171.994 150.628 173.8C150.508 174.62 150.269 175.418 149.919 176.168C149.607 176.853 149.188 177.483 148.679 178.036C148.293 178.456 147.883 178.853 147.452 179.225C147.123 179.504 146.774 179.757 146.408 179.984C144.381 181.234 142.304 181.659 140.175 181.259C139.335 181.079 138.524 180.783 137.765 180.381Z" fill="white"/>
<path d="M114.672 176.619L116.044 176.149L118.468 183.206L130.618 179.05L128.194 171.992L129.61 171.509L134.563 185.955L133.15 186.439L131.029 180.259L118.882 184.415L121.004 190.595L119.631 191.066L114.672 176.619Z" fill="white"/>
<path d="M93.0436 192.755L99.5977 192.424L98.8915 178.427L100.34 178.354L101.046 192.351L107.899 192.019L107.965 193.271L93.1066 194.017L93.0436 192.755Z" fill="white"/>
<path d="M75.6058 176.357L77.0413 176.576L75.9174 183.952L88.6079 185.892L89.7317 178.513L91.2103 178.739L88.8897 193.834L87.4111 193.609L88.4057 187.151L75.7119 185.21L74.7173 191.668L73.2819 191.45L75.6058 176.357Z" fill="white"/>
<path d="M57.8663 169.618L72.0353 175.294L66.3432 189.469L52.751 184.024L53.2184 182.859L65.4182 187.747L67.4073 182.779L56.1358 178.262L56.6198 177.056L67.8914 181.574L70.1556 175.943L57.3756 170.82L57.8663 169.618Z" fill="white"/>
<path d="M30.1979 168.76L45.1161 160.96L46.2466 161.828L42.653 178.328L41.3468 177.334L44.662 162.646L31.4941 169.747L30.1979 168.76Z" fill="white"/>
<path d="M38.0548 154.691L39.0892 155.704L28.3978 166.617L27.3601 165.597L38.0548 154.691Z" fill="white"/>
<path d="M22.9144 161.308L18.303 155.217C17.6747 154.418 17.1532 153.541 16.7515 152.607C16.4195 151.765 16.2703 150.862 16.3139 149.958C16.409 147.719 17.514 145.803 19.6291 144.208C20.2682 143.722 20.9681 143.321 21.711 143.016C23.7532 142.197 25.6561 142.26 27.4197 143.205C28.5248 143.801 29.6984 144.922 30.9404 146.566L35.1209 152.087L22.9144 161.308ZM23.0006 159.344L33.1749 151.66L30.2376 147.779C29.6984 147.063 29.2453 146.5 28.8784 146.09C28.4221 145.603 27.9141 145.168 27.3634 144.791C26.7755 144.36 26.094 144.073 25.3743 143.953C23.8029 143.695 22.2116 144.174 20.6004 145.391C19.5475 146.162 18.7079 147.187 18.1605 148.371C17.6405 149.503 17.5671 150.788 17.9549 151.972C18.247 152.872 18.6959 153.714 19.281 154.459L23.0006 159.344Z" fill="white"/>
<path d="M18.1141 123.535L24.4593 137.406L10.5588 143.738L4.47217 130.441L5.6159 129.921L11.0793 141.86L15.9626 139.631L10.9102 128.596L12.0937 128.056L17.1427 139.101L22.6758 136.574L16.9505 124.052L18.1141 123.535Z" fill="white"/>
<path d="M10.0184 123.621C8.83557 123.881 7.60922 123.87 6.4314 123.588C5.35089 123.333 4.3472 122.823 3.5041 122.101C2.68208 121.386 1.98812 120.536 1.45201 119.587C0.893929 118.607 0.495552 117.544 0.271809 116.438C0.19556 116.07 0.135887 115.709 0.0927901 115.348C0.0408085 114.834 0.0230884 114.318 0.0397474 113.801C0.045941 113.163 0.119277 112.527 0.258549 111.904C0.425205 111.219 0.678067 110.558 1.01109 109.936C1.38077 109.221 1.86827 108.573 2.45319 108.019C3.53197 106.972 4.88835 106.256 6.36178 105.955C8.12801 105.566 9.97561 105.821 11.5699 106.674C12.3499 107.089 13.0575 107.627 13.6651 108.267C14.2329 108.851 14.703 109.522 15.0575 110.254C15.3258 110.804 15.5626 111.367 15.7669 111.943C15.9118 112.368 16.0313 112.8 16.125 113.238C16.1979 113.593 16.2576 113.957 16.304 114.328C16.3551 114.865 16.3695 115.405 16.3471 115.944C16.3363 116.614 16.2506 117.281 16.0918 117.931C15.904 118.634 15.6207 119.307 15.2497 119.932C14.8379 120.657 14.3067 121.307 13.6784 121.856C12.633 122.753 11.3714 123.361 10.0184 123.621ZM6.39824 107.638C5.55265 107.801 4.75159 108.143 4.04847 108.639C3.34534 109.136 2.75629 109.777 2.32058 110.519C1.36582 112.065 1.11828 113.956 1.57799 116.193C1.95592 118.045 2.72946 119.498 3.89861 120.551C4.60338 121.153 5.41858 121.612 6.29879 121.902C7.41755 122.273 8.61821 122.321 9.76314 122.042C10.643 121.866 11.4805 121.522 12.2296 121.028C12.8739 120.615 13.4285 120.076 13.8607 119.445C14.2409 118.904 14.535 118.307 14.7326 117.676C14.8952 117.092 14.9909 116.491 15.0177 115.885C15.0503 115.389 15.0436 114.892 14.9978 114.398C14.9558 114.047 14.9028 113.715 14.8387 113.404C14.6278 112.264 14.1892 111.178 13.5491 110.211C13.0275 109.411 12.3142 108.755 11.4738 108.3C10.7081 107.899 9.87572 107.639 9.01723 107.535C8.14448 107.426 7.25975 107.461 6.39824 107.638Z" fill="white"/>
<path d="M96.541 133.921C118.545 133.921 136.383 116.101 136.383 94.1186C136.383 72.1361 118.545 54.3158 96.541 54.3158C74.5371 54.3158 56.6993 72.1361 56.6993 94.1186C56.6993 116.101 74.5371 133.921 96.541 133.921Z" fill="#69212C"/>
<path d="M90.0732 83.4012V104.409L107.786 93.9067L90.0732 83.4012Z" fill="white"/>
</g>
<defs>
<clipPath id="clip0">
<rect width="188" height="194" fill="white"/>
</clipPath>
</defs>
</svg>
