<svg width="180" height="180" viewBox="0 0 180 180" fill="none" xmlns="http://www.w3.org/2000/svg">
                  <g clip-path="url(#clip0)">
                    <path
                      d="M54.2668 10.8428L53.5521 11.9366C53.0281 11.6037 52.4563 11.3659 51.8846 11.2233C51.3129 11.0806 50.8364 10.9855 50.36 10.9855C49.9312 10.9855 49.4547 11.033 49.0259 11.1757C48.5495 11.2708 48.216 11.4135 47.9778 11.5086C47.7395 11.6037 47.4537 11.7464 47.2155 11.889C45.5955 12.7926 44.5474 14.0766 44.1186 15.6935C43.6898 17.1678 43.928 18.642 44.738 20.1163C45.5479 21.5429 46.6914 22.4941 48.216 22.8745C49.7882 23.3025 51.4081 23.1123 53.0281 22.2087C55.2673 20.9723 56.4108 19.07 56.4584 16.502L57.7448 16.4069C57.7448 17.5482 57.5066 18.5945 57.0778 19.5456C56.3632 21.1149 55.172 22.3514 53.5045 23.255C51.8846 24.1585 50.2647 24.539 48.7401 24.3487C47.5966 24.2061 46.5961 23.8256 45.6908 23.1598C44.7856 22.5416 44.0233 21.6856 43.4516 20.6869C42.6416 19.2127 42.3557 17.6909 42.6892 16.074C42.8322 15.3606 43.0704 14.6473 43.4039 14.0291C43.7374 13.4108 44.1186 12.8402 44.5474 12.4597C44.9762 12.0317 45.3573 11.6988 45.6908 11.461C46.0243 11.2233 46.3102 11.033 46.6437 10.8428C48.4542 9.84412 50.3123 9.55879 52.1705 9.98679C52.7422 10.1295 53.4569 10.4148 54.2668 10.8428Z"
                      fill="white" />
                    <path
                      d="M74.8491 14.79L73.7057 15.1228L70.2276 3.70938L68.4648 16.6922L67.1784 17.1202L58.4595 7.41876L61.8899 18.6896L60.7464 19.0225L56.8396 6.1823L58.4595 5.70673L67.5119 15.7411L69.37 2.42536L70.9899 1.9498L74.8491 14.79Z"
                      fill="white" />
                    <path
                      d="M75.9926 7.7041C75.8973 6.56276 76.0402 5.51652 76.4214 4.5654C76.8025 3.61428 77.3266 2.80582 78.0413 2.18759C78.756 1.56936 79.5659 1.04624 80.4711 0.665796C81.3764 0.285347 82.3293 0.095122 83.3774 9.75281e-06C83.711 -0.0475464 84.0445 -0.0475464 84.3303 -0.0475464C84.6638 -0.0475464 85.0926 9.75654e-06 85.6644 0.095122C86.2361 0.190234 86.8078 0.332903 87.2843 0.523127C87.8084 0.713352 88.3325 0.998689 88.9042 1.42669C89.4759 1.80714 90 2.33026 90.4288 2.90093C91.2388 3.99473 91.6676 5.23119 91.7628 6.56276C91.9058 8.22722 91.477 9.70146 90.5241 11.033C90.0476 11.6988 89.5236 12.2219 88.9042 12.6975C88.2848 13.1731 87.6654 13.4584 86.9984 13.6962C86.379 13.8864 85.855 14.0291 85.4262 14.1242C85.045 14.2193 84.6162 14.2669 84.235 14.2669C83.9015 14.2669 83.6157 14.3144 83.2822 14.3144C82.9487 14.3144 82.4722 14.2669 81.8528 14.1717C81.2335 14.0766 80.6617 13.934 80.1376 13.7437C79.6136 13.5535 79.0418 13.2206 78.4701 12.7926C77.8984 12.3646 77.3743 11.8415 76.9455 11.2233C76.469 10.0819 76.0879 8.98812 75.9926 7.7041ZM90.3335 6.37253C90.2382 4.80318 89.5236 3.51916 88.2848 2.47293C87.0461 1.47425 85.4262 1.04624 83.4251 1.18891C81.7575 1.33158 80.4235 1.80714 79.3753 2.71071C78.8512 3.18627 78.3272 3.8045 77.8984 4.66051C77.4696 5.46897 77.279 6.46764 77.3743 7.65655C77.4219 8.465 77.6125 9.2259 77.9936 9.93924C78.2795 10.5575 78.7083 11.0806 79.1848 11.5562C79.6612 12.0317 80.1853 12.317 80.6141 12.5073C81.0905 12.6975 81.6146 12.8402 82.1387 12.9353C82.7104 13.0304 83.1392 13.0779 83.4251 13.0779C83.7586 13.0779 84.0445 13.0779 84.3303 13.0304C85.4738 12.9353 86.4267 12.6975 87.2843 12.2695C88.1419 11.8415 88.7612 11.3184 89.19 10.7001C89.6188 10.0819 89.9524 9.36857 90.1429 8.65523C90.3335 7.94189 90.4288 7.18099 90.3335 6.37253Z"
                      fill="white" />
                    <path
                      d="M106.961 2.71069L101.244 2.0449L99.8147 14.2668L98.5283 14.1242L99.9576 1.90224L93.9545 1.18889L94.0974 0.0475464L107.104 1.56934L106.961 2.71069Z"
                      fill="white" />
                    <path
                      d="M106.533 15.1704L110.487 2.33026L119.015 4.94585C119.873 5.23119 120.588 5.51652 121.159 5.89697C121.731 6.27742 122.112 6.80054 122.35 7.46632C122.589 8.22722 122.636 8.98812 122.35 9.79657C121.969 10.9379 121.255 11.7464 120.206 12.1268C119.301 12.4597 118.11 12.4122 116.538 11.9366L109.534 9.79657L107.771 15.5509L106.533 15.1704ZM109.868 8.70278L116.538 10.7477C118.015 11.1757 119.111 11.2708 119.825 10.9379C120.397 10.6526 120.826 10.1295 121.064 9.41613C121.35 8.56011 121.207 7.79922 120.731 7.18099C120.397 6.70543 119.73 6.37253 118.825 6.0872L111.392 3.8045L109.868 8.70278Z"
                      fill="white" />
                    <path
                      d="M132.546 26.1083L120.731 19.7358L127.115 7.94189L138.454 14.0766L137.93 15.0753L127.687 9.5588L125.447 13.6962L134.881 18.7847L134.357 19.7834L124.923 14.6949L122.398 19.4029L133.07 25.1572L132.546 26.1083Z"
                      fill="white" />
                    <path
                      d="M150.651 24.9194L146.173 21.3052L138.454 30.9115L137.454 30.103L145.172 20.5443L140.455 16.7873L141.17 15.8838L151.366 24.0634L150.651 24.9194Z"
                      fill="white" />
                    <path
                      d="M153.891 26.4888L154.749 27.4874L150.318 31.2919L155.606 37.4267C156.654 38.6631 157.226 39.7569 157.274 40.7081C157.321 41.8494 156.893 42.8481 155.94 43.6565C155.273 44.2272 154.558 44.5601 153.7 44.6552C152.986 44.7503 152.366 44.6077 151.795 44.2272C151.223 43.8468 150.651 43.3236 150.079 42.6103L143.743 35.2867L153.891 26.4888ZM149.46 32.0053L145.41 35.4769L150.985 41.9445C151.604 42.6579 152.176 43.0859 152.748 43.2285C153.51 43.4188 154.272 43.181 154.987 42.5627C155.606 42.0396 155.892 41.469 155.94 40.8032C155.94 40.4227 155.844 40.0423 155.701 39.6618C155.559 39.2814 155.368 38.9485 155.177 38.7107C154.987 38.4729 154.749 38.1876 154.415 37.8071L149.46 32.0053Z"
                      fill="white" />
                    <path
                      d="M169.09 46.6526L173.425 56.2589C173.949 57.4003 173.902 58.4941 173.33 59.4927C172.996 60.111 172.472 60.5865 171.805 60.8719C171.043 61.2048 170.328 61.2523 169.709 61.0621C169.042 60.8719 168.518 60.4914 168.137 59.9208C168.47 60.8243 168.423 61.6328 168.041 62.3937C167.66 63.1546 167.041 63.7252 166.231 64.1057C165.04 64.6288 163.992 64.6288 163.039 64.0581C162.324 63.6301 161.657 62.8217 161.133 61.6803L156.845 52.1215L169.09 46.6526ZM163.277 50.6949L158.417 52.8824L162.181 61.2523C162.705 62.4412 163.42 63.0595 164.373 63.107C164.849 63.1546 165.278 63.0595 165.707 62.8692C166.278 62.5839 166.755 62.2034 166.993 61.7279C167.184 61.3474 167.279 60.9194 167.279 60.4439C167.279 59.9683 167.184 59.5879 167.088 59.255C166.993 58.9221 166.803 58.5416 166.612 58.0185L163.277 50.6949ZM168.661 48.2695L164.325 50.2193L167.708 57.6856C167.946 58.2563 168.232 58.6843 168.518 59.0172C168.804 59.3501 169.185 59.5879 169.661 59.7305C170.185 59.8732 170.709 59.8256 171.234 59.5879C171.662 59.3976 172.043 59.1123 172.282 58.7318C172.568 58.3038 172.663 57.8758 172.615 57.4478C172.568 57.0198 172.377 56.4967 172.139 55.926L168.661 48.2695Z"
                      fill="white" />
                    <path
                      d="M163.467 67.5773L176.665 64.8666L176.951 66.1506L166.612 68.2906L178.047 77.5641L179.238 77.3263L179.524 78.6103L166.326 81.321L166.04 80.037L176.57 77.8494L165.135 68.576L163.753 68.8613L163.467 67.5773Z"
                      fill="white" />
                    <path
                      d="M179.809 97.395L167.517 97.2048L167.47 99.107L163.467 99.0595V97.823L166.326 97.8705L166.564 83.6988L163.706 83.6513V82.4148L167.708 82.4623V82.7477C167.708 83.033 167.898 83.3184 168.232 83.6988C168.613 84.0793 169.137 84.4597 169.757 84.8402C170.376 85.2206 171.281 85.5535 172.425 85.8388C173.52 86.1242 174.712 86.2668 175.998 86.2668L179.905 86.3144L179.809 97.395ZM178.809 87.5509L177.141 87.5033C172.663 87.4082 169.471 86.5046 167.66 84.6499L167.47 95.8732L178.666 96.0634L178.809 87.5509Z"
                      fill="white" />
                    <path
                      d="M162.943 113.897L165.945 100.819L179.047 103.815L176.188 116.37L175.093 116.132L177.665 104.861L173.092 103.815L170.709 114.23L169.614 113.992L171.996 103.577L166.803 102.388L164.087 114.182L162.943 113.897Z"
                      fill="white" />
                    <path
                      d="M168.804 117.701C169.852 118.177 170.662 118.795 171.329 119.604C171.996 120.412 172.425 121.268 172.615 122.172C172.806 123.075 172.853 124.026 172.758 125.025C172.663 125.976 172.377 126.927 171.948 127.878C171.805 128.164 171.662 128.449 171.519 128.734C171.376 129.02 171.09 129.4 170.757 129.876C170.376 130.351 169.995 130.732 169.614 131.112C169.185 131.445 168.661 131.778 168.041 132.111C167.422 132.444 166.707 132.634 166.04 132.729C164.706 132.919 163.42 132.682 162.181 132.159C160.656 131.445 159.561 130.399 158.894 128.925C158.56 128.211 158.322 127.45 158.227 126.69C158.131 125.929 158.131 125.215 158.274 124.55C158.417 123.884 158.512 123.361 158.655 122.98C158.798 122.6 158.941 122.219 159.084 121.886C159.227 121.601 159.37 121.316 159.513 121.03C159.656 120.745 159.942 120.365 160.323 119.889C160.704 119.413 161.133 118.985 161.562 118.605C161.99 118.225 162.562 117.939 163.229 117.606C163.896 117.273 164.611 117.131 165.373 117.083C166.517 116.988 167.66 117.178 168.804 117.701ZM162.991 130.922C164.42 131.588 165.897 131.635 167.374 131.017C168.851 130.399 170.042 129.21 170.9 127.403C171.615 125.881 171.805 124.454 171.519 123.123C171.376 122.41 171.043 121.696 170.519 120.935C169.995 120.174 169.232 119.509 168.137 119.033C167.422 118.7 166.66 118.51 165.85 118.462C165.135 118.415 164.516 118.51 163.849 118.748C163.229 118.985 162.705 119.223 162.324 119.556C161.943 119.841 161.562 120.222 161.18 120.65C160.799 121.078 160.561 121.458 160.418 121.696C160.275 121.982 160.132 122.219 159.989 122.505C159.513 123.551 159.275 124.502 159.227 125.453C159.179 126.404 159.37 127.213 159.704 127.878C160.037 128.592 160.466 129.162 161.038 129.686C161.657 130.114 162.276 130.589 162.991 130.922Z"
                      fill="white" />
                    <path
                      d="M123.542 169.966L124.256 168.872C124.78 169.205 125.304 169.49 125.876 169.633C126.448 169.823 126.924 169.871 127.353 169.918C127.782 169.918 128.258 169.871 128.687 169.775C129.164 169.68 129.497 169.585 129.783 169.49C130.021 169.395 130.307 169.252 130.545 169.157C132.213 168.301 133.261 167.065 133.785 165.448C134.214 163.974 134.071 162.499 133.309 161.025C132.546 159.551 131.403 158.6 129.926 158.172C128.354 157.696 126.781 157.886 125.114 158.742C122.827 159.931 121.636 161.786 121.493 164.354L120.206 164.402C120.254 163.26 120.492 162.214 120.969 161.263C121.731 159.741 122.97 158.505 124.637 157.649C126.305 156.793 127.925 156.46 129.449 156.697C130.593 156.888 131.593 157.268 132.499 157.934C133.404 158.6 134.119 159.456 134.643 160.454C135.405 161.929 135.643 163.498 135.262 165.067C135.119 165.781 134.833 166.494 134.5 167.112C134.166 167.731 133.737 168.254 133.309 168.682C132.88 169.11 132.451 169.395 132.165 169.633C131.879 169.871 131.546 170.061 131.212 170.251C129.354 171.202 127.496 171.44 125.638 170.964C125.066 170.774 124.351 170.441 123.542 169.966Z"
                      fill="white" />
                    <path
                      d="M103.102 165.495L104.246 165.162L107.39 176.671L109.534 163.736L110.821 163.403L119.254 173.342L116.157 161.976L117.348 161.643L120.873 174.579L119.206 175.007L110.439 164.734L108.2 178.003L106.58 178.431L103.102 165.495Z"
                      fill="white" />
                    <path
                      d="M101.72 172.534C101.768 173.675 101.578 174.674 101.196 175.625C100.815 176.576 100.244 177.337 99.4812 177.955C98.7665 178.573 97.909 179.049 97.0037 179.382C96.0985 179.715 95.0979 179.905 94.0974 179.952C93.7639 179.952 93.4304 179.952 93.1445 179.952C92.811 179.952 92.3822 179.905 91.8105 179.762C91.2388 179.667 90.667 179.524 90.1906 179.334C89.7141 179.144 89.1424 178.811 88.5707 178.383C87.9989 177.955 87.5225 177.48 87.0937 176.861C86.3314 175.72 85.9026 174.531 85.855 173.199C85.7597 171.535 86.2361 170.061 87.189 168.777C87.6654 168.159 88.2372 167.635 88.8565 167.16C89.4759 166.732 90.1429 166.399 90.7623 166.209C91.3817 166.019 91.9058 165.876 92.3346 165.828C92.7157 165.781 93.1445 165.733 93.5257 165.686C93.8592 165.686 94.1451 165.686 94.4786 165.686C94.8121 165.686 95.2885 165.781 95.9079 165.876C96.5273 165.971 97.099 166.161 97.6231 166.351C98.1472 166.589 98.6713 166.922 99.243 167.35C99.8147 167.826 100.291 168.349 100.72 168.967C101.339 170.108 101.673 171.25 101.72 172.534ZM87.3319 173.437C87.3796 175.007 88.0466 176.338 89.2853 177.384C90.5241 178.431 92.0964 178.906 94.0974 178.811C95.765 178.716 97.1466 178.24 98.1948 177.384C98.7665 176.956 99.243 176.291 99.7194 175.482C100.196 174.674 100.386 173.675 100.339 172.486C100.291 171.678 100.101 170.917 99.8147 170.203C99.5289 169.585 99.1477 169.015 98.6713 168.587C98.1948 168.159 97.7184 167.778 97.2419 167.588C96.7655 167.35 96.289 167.207 95.7173 167.112C95.1456 167.017 94.7168 166.922 94.4309 166.922C94.0974 166.922 93.8115 166.922 93.5257 166.922C92.3822 166.97 91.4293 167.207 90.5717 167.588C89.7141 167.968 89.0948 168.491 88.6183 169.11C88.1419 169.728 87.8084 170.394 87.6178 171.155C87.3796 171.915 87.2843 172.676 87.3319 173.437Z"
                      fill="white" />
                    <path
                      d="M70.6564 176.624L76.3737 177.48L78.1366 165.305L79.423 165.495L77.6601 177.67L83.6157 178.526L83.4727 179.667L70.5135 177.765L70.6564 176.624Z"
                      fill="white" />
                    <path
                      d="M71.4187 164.211L67.1307 176.956L58.6501 174.103C57.7925 173.818 57.0778 173.485 56.5061 173.104C55.9343 172.724 55.5532 172.201 55.3626 171.487C55.1244 170.727 55.1244 169.966 55.4103 169.157C55.7914 168.016 56.5537 167.255 57.6495 166.875C58.5548 166.542 59.7459 166.684 61.3181 167.16L68.2742 169.49L70.18 163.783L71.4187 164.211ZM67.8931 170.584L61.2705 168.349C59.7935 167.873 58.7454 167.778 57.983 168.111C57.3637 168.396 56.9349 168.872 56.6967 169.585C56.4108 170.441 56.5061 171.202 56.9825 171.82C57.316 172.296 57.9354 172.676 58.8406 172.962L66.2255 175.435L67.8931 170.584Z"
                      fill="white" />
                    <path
                      d="M45.7385 152.56L57.3637 159.266L50.6458 170.917L39.4971 164.497L40.0688 163.498L50.1217 169.3L52.4563 165.258L43.1657 159.931L43.7374 158.933L53.028 164.259L55.6961 159.646L45.1667 153.606L45.7385 152.56Z"
                      fill="white" />
                    <path
                      d="M27.586 153.226L31.9693 156.983L39.9259 147.614L40.9264 148.47L32.9698 157.839L37.5437 161.738L36.7814 162.594L26.8237 154.082L27.586 153.226Z"
                      fill="white" />
                    <path
                      d="M9.76709 131.017L5.71733 121.268C5.24088 120.127 5.28853 119.033 5.9079 118.034C6.28906 117.416 6.81314 116.988 7.48016 116.703C8.24247 116.37 8.95714 116.322 9.57651 116.56C10.2435 116.798 10.72 117.178 11.1011 117.701C10.8153 116.798 10.8629 115.989 11.2917 115.229C11.6729 114.468 12.3399 113.945 13.1498 113.564C14.3409 113.089 15.4368 113.089 16.342 113.707C17.0567 114.135 17.676 114.943 18.1525 116.132L22.2022 125.786L9.76709 131.017ZM10.2435 129.353L14.6268 127.546L11.4823 119.984C11.2441 119.414 11.0058 118.985 10.72 118.605C10.4341 118.272 10.1006 117.987 9.62416 117.844C9.10007 117.701 8.57598 117.701 8.05189 117.939C7.57545 118.129 7.24194 118.415 6.95608 118.795C6.67021 119.223 6.52728 119.651 6.57492 120.079C6.62257 120.507 6.7655 121.03 7.00372 121.601L10.2435 129.353ZM15.7226 127.118L20.63 125.073L17.1043 116.608C16.6279 115.419 15.9132 114.753 14.9603 114.658C14.4839 114.61 14.0551 114.658 13.6263 114.848C13.0069 115.086 12.5781 115.466 12.2922 115.942C12.054 116.322 11.9587 116.703 11.9587 117.178C11.9587 117.654 12.0064 118.034 12.1017 118.367C12.1969 118.7 12.3399 119.081 12.5781 119.604L15.7226 127.118Z"
                      fill="white" />
                    <path
                      d="M16.0085 110.235L2.76337 112.565L2.52514 111.281L12.9592 109.427L1.71519 99.9155L0.476441 100.153L0.23822 98.8692L13.4833 96.539L13.7215 97.823L3.09688 99.7252L14.2933 109.284L15.7226 109.046L16.0085 110.235Z"
                      fill="white" />
                    <path
                      d="M0.476443 79.9894L12.7687 80.5126L12.8639 78.6103L16.8661 78.753L16.8184 79.9894L13.9598 79.8943L13.3404 94.0661L16.199 94.1612L16.1514 95.3976L12.1493 95.255V94.9696C12.1493 94.6843 12.0064 94.399 11.6252 93.971C11.244 93.5905 10.7676 93.2101 10.1006 92.782C9.43356 92.4016 8.57597 92.0211 7.48015 91.7358C6.38433 91.4505 5.19322 91.2603 3.90683 91.2127L0 91.07L0.476443 79.9894ZM1.19111 89.8811L2.85866 89.9287C7.33722 90.1189 10.4817 91.1176 12.2446 93.0198L12.721 81.8441L1.57226 81.3686L1.19111 89.8811Z"
                      fill="white" />
                    <path
                      d="M17.7713 63.963L14.4362 76.9458L1.42932 73.5694L4.66913 61.1096L5.76495 61.395L2.85865 72.5707L7.38485 73.7596L10.0529 63.3923L11.1488 63.6777L8.48067 74.0449L13.6263 75.3765L16.6755 63.6301L17.7713 63.963Z"
                      fill="white" />
                    <path
                      d="M12.0063 59.9683C11.0058 59.4452 10.1959 58.827 9.52884 58.0185C8.90947 57.2101 8.48067 56.354 8.29009 55.4029C8.09952 54.4518 8.09952 53.5007 8.24245 52.5495C8.38538 51.5984 8.67125 50.6473 9.14769 49.7437C9.29062 49.4584 9.43356 49.1731 9.62413 48.8877C9.76707 48.6024 10.0529 48.2695 10.4341 47.7939C10.8152 47.3184 11.1964 46.9379 11.6252 46.605C12.054 46.2721 12.5781 45.9392 13.1975 45.6539C13.8168 45.3686 14.5315 45.1783 15.2462 45.1308C16.6278 44.9881 17.8666 45.2259 19.0577 45.8441C20.5347 46.605 21.6305 47.6988 22.2499 49.1731C22.5834 49.8864 22.7739 50.6473 22.8216 51.4082C22.8692 52.1691 22.8692 52.8824 22.7263 53.5482C22.5834 54.214 22.4404 54.7371 22.2975 55.1176C22.1546 55.498 22.0116 55.8785 21.8211 56.2114C21.6781 56.4967 21.5352 56.782 21.3446 57.0674C21.154 57.3527 20.8682 57.7332 20.487 58.2087C20.1059 58.6843 19.6771 59.1123 19.2483 59.4452C18.8195 59.7781 18.2477 60.111 17.5807 60.3963C16.9137 60.6816 16.199 60.8243 15.4367 60.8719C14.2933 60.7768 13.1498 60.539 12.0063 59.9683ZM18.2001 46.9379C16.7708 46.2246 15.2938 46.1295 13.8168 46.7001C12.2922 47.2708 11.1011 48.4122 10.1959 50.2193C9.43355 51.6935 9.19533 53.1202 9.43355 54.4993C9.57649 55.2127 9.86235 55.926 10.3388 56.7345C10.8152 57.5429 11.6252 58.1612 12.6734 58.7318C13.388 59.1123 14.1503 59.3025 14.9126 59.3501C15.6273 59.3976 16.2467 59.3501 16.9137 59.1599C17.5331 58.9696 18.0572 58.7318 18.486 58.399C18.9148 58.1136 19.2959 57.7332 19.6771 57.3052C20.0582 56.8772 20.2964 56.5443 20.487 56.2589C20.63 55.9736 20.7729 55.7358 20.9158 55.498C21.4399 54.4993 21.7258 53.5007 21.7734 52.5971C21.8211 51.646 21.6781 50.8375 21.3923 50.1242C21.0588 49.4108 20.63 48.7926 20.1059 48.2695C19.5341 47.7464 18.9148 47.3184 18.2001 46.9379Z"
                      fill="white" />
                    <path
                      d="M90.9053 128.069C112.008 128.069 129.116 110.993 129.116 89.9287C129.116 68.8645 112.008 51.7886 90.9053 51.7886C69.8021 51.7886 52.6946 68.8645 52.6946 89.9287C52.6946 110.993 69.8021 128.069 90.9053 128.069Z"
                      fill="#69212C" />
                    <path d="M84.7115 79.6566V99.7728L101.673 89.7385L84.7115 79.6566Z" fill="white" />
                  </g>
                  <defs>
                    <clipPath id="clip0">
                      <rect width="180" height="180" fill="white" />
                    </clipPath>
                  </defs>
                </svg>
