<svg width="81" height="289" viewBox="0 0 81 289" fill="none" xmlns="http://www.w3.org/2000/svg">
<path d="M1.37293 278.731L0.615427 279.384L0.00420644 278.675L0.671695 278.018L1.37293 278.731ZM8.87161 287.43L9.48254 288.221L8.73255 288.801L8.11411 288.083L8.87161 287.43ZM61.3813 223.522L62.2814 223.958L62.2799 223.961L61.3813 223.522ZM25.1127 15.3276L25.7714 14.5749L25.7824 14.5845L25.7931 14.5945L25.1127 15.3276ZM20.0134 11.1283L19.3993 11.9178L19.3734 11.8976L19.3489 11.8758L20.0134 11.1283ZM8.91478 1.83L8.19406 1.13699L8.83969 0.465545L9.55508 1.06167L8.91478 1.83ZM1.4136 9.63113L0.70639 10.3383L0.0131203 9.64508L0.692884 8.93813L1.4136 9.63113ZM26.0093 38.4274L26.8328 37.86L26.8329 37.8601L26.0093 38.4274ZM2.13044 278.078L9.62913 286.777L8.11411 288.083L0.615427 279.384L2.13044 278.078ZM8.26068 286.638C30.946 269.126 48.3488 247.942 60.4826 223.084L62.2799 223.961C50.0062 249.106 32.4025 270.527 9.48254 288.221L8.26068 286.638ZM60.4812 223.087C72.4157 198.428 78.3891 171.677 78.3935 142.82L80.3935 142.819C80.3891 171.962 74.3543 199.013 62.2814 223.957L60.4812 223.087ZM78.3935 142.82C78.4012 91.6849 60.4142 49.4574 24.4323 16.0606L25.7931 14.5945C62.2011 48.3868 80.4013 91.1539 80.3935 142.819L78.3935 142.82ZM24.4541 16.0802C22.8698 14.694 21.185 13.3065 19.3993 11.9178L20.6274 10.3389C22.4413 11.7496 24.1561 13.1616 25.7714 14.5749L24.4541 16.0802ZM19.3489 11.8758C17.5609 10.2866 15.5718 8.5958 13.3808 6.80328L14.6475 5.25517C16.856 7.06199 18.8663 8.77059 20.6779 10.3808L19.3489 11.8758ZM13.3808 6.80328C11.1803 5.00297 9.47778 3.60101 8.27448 2.59831L9.55508 1.06167C10.7515 2.05862 12.4485 3.45614 14.6475 5.25517L13.3808 6.80328ZM9.63552 2.523L2.13434 10.3241L0.692884 8.93813L8.19406 1.13699L9.63552 2.523ZM2.12082 8.92392C12.3495 19.1526 20.5908 28.798 26.8328 37.86L25.1857 38.9948C19.0304 30.0587 10.8746 20.5066 0.70639 10.3383L2.12082 8.92392ZM26.8329 37.8601C47.7593 68.2472 58.1993 104.55 58.1929 146.723L56.1929 146.723C56.1992 104.895 45.85 69.0014 25.1856 38.9948L26.8329 37.8601ZM58.1929 146.723C58.1851 198.395 39.4675 242.653 2.07416 279.444L0.671695 278.018C37.6894 241.598 56.1852 197.85 56.1929 146.723L58.1929 146.723Z" fill="white"/>
</svg>
