<svg width="572" height="267" viewBox="0 0 572 267" fill="none" xmlns="http://www.w3.org/2000/svg">
<g clip-path="url(#clip0)">
<path d="M117.303 5.01294C128.255 5.01294 138.283 5.01294 148.443 5.01294C149.762 5.01294 150.95 5.27677 152.533 5.5406C151.478 11.0811 149.762 16.3578 149.367 21.6345C148.575 34.6943 148.047 47.886 147.915 60.9457C147.519 92.7377 147.255 124.398 146.991 156.19C146.991 159.224 146.991 162.39 146.991 165.424C147.519 165.424 148.047 165.556 148.575 165.556C149.762 163.049 150.95 160.675 152.006 158.169C172.985 107.117 194.097 56.1967 215.077 5.01294C217.057 0.263924 219.3 -1.84675 224.842 1.45118C224.182 5.27677 223.126 9.3662 222.862 13.5875C222.071 25.3282 221.015 37.2007 221.015 48.9413C220.751 97.2229 220.883 145.505 221.015 193.786C221.015 207.637 220.751 221.621 227.48 234.549C228.404 236.263 227.612 238.902 227.612 241.408C215.737 241.408 204.389 241.408 192.778 241.408C200.299 210.012 196.209 178.22 197.132 146.692C197.66 128.355 197.792 109.887 198.188 91.4186C198.188 89.4398 198.188 87.4611 197 85.3504C192.382 95.9037 187.896 106.589 183.278 117.142C165.464 158.564 147.651 199.854 129.97 241.276C128.519 244.574 126.935 245.498 123.636 244.574C119.678 243.651 120.734 241.276 120.997 238.506C122.317 225.446 124.164 212.386 124.296 199.327C124.692 149.198 124.56 98.9378 124.428 48.8094C124.032 36.4092 123.9 23.6132 117.435 11.8726C116.511 10.2896 117.303 7.65128 117.303 5.01294Z" fill="white" fill-opacity="0.4"/>
<path d="M392.681 17.5449C392.681 20.7109 392.681 23.0854 392.681 25.5918C392.681 46.039 392.813 66.4861 392.549 87.0651C392.417 92.2099 394.132 93.7929 399.015 92.8695C409.307 90.7588 419.599 88.7801 429.891 86.8013C431.738 86.4056 434.377 86.2736 435.433 87.1971C436.356 87.9886 436.092 90.8907 435.433 92.6056C430.287 105.929 430.155 105.929 416.168 105.929C409.966 105.929 403.765 106.061 397.563 105.929C394 105.797 392.549 106.853 392.549 110.678C392.681 148.67 392.681 186.531 392.549 224.523C392.549 227.952 393.605 229.14 397.035 229.008C415.112 228.216 432.398 224.918 448.1 215.025C449.419 214.233 451.926 213.969 452.982 214.629C453.905 215.288 454.433 217.927 453.905 219.246C451.53 225.974 449.023 232.702 446.12 239.165C445.593 240.485 443.481 241.936 442.162 241.936C416.168 242.068 390.306 242.068 363.652 242.068C364.84 237.187 366.291 232.702 366.819 228.216C367.743 219.642 368.534 211.067 368.534 202.361C368.534 146.824 368.534 91.1546 368.006 35.6175C367.874 28.3621 365.367 20.9747 363.124 13.8512C360.881 6.99152 361.937 5.01276 369.062 4.88085C388.986 4.61701 408.911 4.4851 428.835 4.08934C432.398 4.08934 435.96 3.29784 439.523 2.90209C445.461 2.50634 446.912 4.35318 444.801 9.76178C443.086 13.9831 441.106 17.9406 439.655 22.2939C438.467 25.5918 437.016 26.1195 433.849 24.8003C421.182 19.3917 407.723 17.5449 392.681 17.5449Z" fill="white" fill-opacity="0.4"/>
<path d="M98.5661 126.508C95.1354 115.691 89.3296 106.721 78.6417 101.972C73.3638 99.5972 67.4261 98.4099 62.9398 96.9588C68.6136 90.4949 75.475 84.1629 80.489 76.5117C88.9338 63.8477 91.1769 49.3368 88.0101 34.4302C84.7114 18.6001 72.4401 8.04679 53.4394 6.46378C37.6055 5.14461 21.5077 5.40845 5.54187 5.0127C0.659747 5.0127 -1.18754 7.51912 0.791697 12.1362C5.80577 23.4811 6.59746 35.3536 6.59746 47.49C6.59746 94.4524 6.59746 141.415 6.59746 188.377C6.59746 206.186 6.99331 223.995 1.84729 242.068C9.76425 242.068 17.2854 241.54 24.6745 242.199C38.1333 243.519 48.8212 237.45 58.4535 229.404C76.9264 213.969 89.3296 194.182 96.8507 171.492C101.601 156.717 103.316 141.811 98.5661 126.508ZM74.1555 153.287C72.9679 177.956 63.0717 199.326 47.5017 218.191C43.1474 223.467 38.1333 227.82 30.0844 230.063C30.0844 226.897 30.0844 224.918 30.0844 222.94C30.0844 156.453 30.0844 89.9672 30.0844 23.4811C30.0844 15.9618 30.0844 15.9618 37.4736 16.4895C50.1407 17.5448 58.8494 24.6683 61.6203 37.9919C65.9746 58.1752 62.8078 77.1713 50.5366 94.1886C48.5573 96.8269 45.7864 98.9376 43.4113 101.312C41.1682 103.423 41.0362 105.665 44.203 106.193C53.9672 107.644 62.1481 111.602 67.558 120.176C74.0235 130.334 74.6833 141.811 74.1555 153.287Z" fill="white" fill-opacity="0.4"/>
<path d="M568.965 86.5377C567.646 76.1162 565.271 65.8267 562.632 55.6691C558.937 41.4221 553.395 27.8346 543.895 16.3578C528.193 -2.90205 506.949 -3.56164 490.191 14.511C475.941 29.9453 469.08 48.9413 464.593 68.8608C456.149 106.325 456.94 143.79 465.121 181.122C468.948 198.667 474.885 215.421 486.233 229.8C498.504 245.234 515.13 249.587 530.04 241.144C540.464 235.076 547.325 225.71 552.735 215.157C567.382 186.927 571.076 156.322 572 120.44C571.34 112.262 570.681 99.3336 568.965 86.5377ZM543.103 171.624C541.652 187.85 538.881 204.076 531.228 218.85C529.908 221.357 528.457 223.731 526.741 225.974C520.804 233.493 511.435 234.285 505.498 226.634C500.879 220.697 497.317 213.574 494.942 206.318C487.948 185.344 486.629 163.313 485.837 141.283C485.573 133.764 485.837 126.245 485.837 118.725C485.309 90.6271 486.629 62.7926 495.074 35.7496C497.053 29.6815 500.22 23.6133 504.178 18.6004C510.907 10.1577 520.672 11.0812 526.741 20.0515C534.394 31.3964 537.825 44.3242 539.936 57.384C546.006 95.508 546.534 133.632 543.103 171.624Z" fill="white" fill-opacity="0.4"/>
<path d="M340.165 225.578C339.373 222.28 338.45 219.246 338.054 216.08C333.832 188.509 329.477 160.807 325.519 133.104C321.692 106.325 318.394 79.5458 315.095 52.7666C313.116 36.5408 311.532 20.3151 309.553 4.08927C309.421 2.63818 307.442 0.263672 306.254 0.263672C304.803 0.263672 302.824 1.84668 301.9 3.29776C300.844 4.74885 300.844 6.85952 300.316 8.70636C280.656 79.4139 260.864 149.989 241.203 220.697C239.224 227.689 237.245 234.548 235.134 242.068C237.905 242.068 239.884 242.068 241.995 242.068C264.03 242.068 286.066 242.068 308.101 242.068C311.532 242.068 314.963 242.199 318.262 242.727C325.387 244.046 329.741 249.191 330.137 256.447C330.269 259.744 330.137 263.174 330.137 266.34C335.151 268.055 337.526 266.34 339.11 261.723C341.88 253.544 345.311 245.629 348.346 237.582C352.304 226.633 352.304 226.633 340.165 225.578ZM259.28 227.689C271.42 173.998 283.691 119.78 295.962 65.6945C296.622 65.6945 297.15 65.6945 297.809 65.8264C302.428 119.385 307.046 173.075 311.796 227.821C293.983 227.689 277.093 227.689 259.28 227.689Z" fill="white" fill-opacity="0.4"/>
</g>
<defs>
<clipPath id="clip0">
<rect width="572" height="267" fill="white"/>
</clipPath>
</defs>
</svg>
